<?xml version="1.0" encoding="UTF-8" standalone="no"?>
<!-- Created with Inkscape (http://www.inkscape.org/) -->

<svg
   width="335.65271mm"
   height="89.962715mm"
   viewBox="0 0 335.65271 89.962715"
   version="1.1"
   id="svg5"
   xml:space="preserve"
   xmlns="http://www.w3.org/2000/svg"
   xmlns:svg="http://www.w3.org/2000/svg"><defs
     id="defs2" />
    <linearGradient id="grad1" x1="0%" y1="0%" x2="0%" y2="100%">
      <stop offset="0%" style="stop-color:#0B005Cstop-opacity:1" />
      <stop offset="30%" style="stop-color:#26209A;stop-opacity:1" />
      <stop offset="70%" style="stop-color:#026000;stop-opacity:1" />
      <stop offset="100%" style="stop-color:#014500;stop-opacity:1" />
    </linearGradient>
     <g
     id="layer1"
     transform="translate(-3.8400106,-117.76446)"><path
       style="fill:url(#grad1)"
       d="m 118.12718,206.50254 c -1.31399,-0.1374 -3.35178,-0.78191 -4.33257,-1.37008 -1.38442,-0.83023 -3.12588,-3.58778 -4.19174,-6.63747 -1.00052,-2.86277 -1.73281,-4.09646 -3.3855,-5.70367 -2.05332,-1.9968 -3.98296,-2.42058 -5.35942,-1.17703 -0.78165,0.70617 -1.108428,1.60266 -1.184589,3.24979 -0.08415,1.81975 0.212338,7.82082 0.453649,9.18224 0.10432,0.58858 0.22746,1.32598 0.27364,1.63866 l 0.084,0.56849 H 95.048887 89.61313 v -0.36828 c 0,-0.20254 0.113655,-0.76571 0.252576,-1.25149 0.446623,-1.56175 0.58008,-5.95163 0.52416,-17.2414 -0.05794,-11.69769 -0.0055,-11.14679 -1.172565,-12.31386 -0.54352,-0.54353 -0.822515,-0.69915 -1.799643,-1.00379 -2.190683,-0.68303 -4.019027,-0.27256 -5.663991,1.2716 l -0.702909,0.65982 0.788362,1.25137 c 1.585789,2.51712 2.740699,5.09661 3.399691,7.59328 0.379409,1.43743 0.406218,1.69626 0.408743,3.94614 0.0022,2.17767 -0.03049,2.53079 -0.344635,3.69449 -0.735554,2.72483 -2.234152,5.19693 -4.579954,7.55512 -2.534096,2.54748 -5.203339,4.29131 -8.0314,5.24696 -2.626182,0.88743 -5.626214,1.23823 -8.415205,0.984 -4.689071,-0.42745 -8.410251,-1.96255 -11.649893,-4.80596 -5.636434,-4.94706 -7.6277,-12.32461 -5.095924,-18.88021 0.655834,-1.69817 1.503101,-3.30082 2.765471,-5.23104 1.169784,-1.78863 1.34658,-2.34759 1.036537,-3.2771 -0.148757,-0.44594 -0.299952,-0.59657 -0.913607,-0.91001 -1.029588,-0.52593 -2.61571,-0.73109 -4.04339,-0.523 -1.398675,0.20387 -2.082637,0.54102 -2.545443,1.25477 -0.435121,0.67106 -0.464871,1.25477 -0.165264,3.24256 0.623703,4.13806 -0.06896,6.62826 -2.538335,9.1255 -1.672107,1.69096 -3.63648,2.93277 -5.756027,3.63872 -1.835555,0.61139 -2.638464,0.69744 -7.758505,0.83145 -5.423098,0.14182 -6.346587,0.22939 -7.271832,0.68866 -0.506252,0.2513 -0.691252,0.44959 -1.005189,1.07755 -0.371294,0.74264 -0.389098,0.86894 -0.509128,3.61171 -0.148248,3.38761 -0.06496,5.12765 0.369296,7.71503 0.178162,1.06148 0.32393,2.00958 0.32393,2.10683 0,0.14396 -1.120881,0.17682 -6.033843,0.17682 -5.6926198,0 -6.0286011,-0.0131 -5.9412136,-0.23408 0.2652779,-0.67045 0.60774,-2.3271 0.8111622,-3.92398 0.1922554,-1.50922 0.2249203,-2.86869 0.2054334,-8.54984 -0.012805,-3.71537 -0.079154,-8.80187 -0.1475816,-11.30333 -0.2659384,-9.72157 -0.1478652,-18.72852 0.3401777,-25.95085 0.5504172,-8.14532 2.0814209,-21.50711 2.7989929,-24.42812 0.275703,-1.12233 1.390943,-4.20024 1.485763,-4.10053 0.01895,0.0198 -0.168809,1.00793 -0.417221,2.19561 -0.544976,2.60556 -1.04389,5.9813 -1.35142,9.14394 -0.438528,4.50981 -0.236953,14.92249 0.34182,17.65726 l 0.09908,0.46822 0.294099,-0.77792 c 0.479321,-1.2678 0.576601,-1.93093 0.572726,-3.90395 -0.0045,-2.37128 0.217143,-9.1469 0.338061,-10.32713 l 0.09157,-0.89388 0.38549,0.46046 c 0.552578,0.66005 0.757964,1.52649 0.901895,3.80464 0.125605,1.98819 0.309787,3.00978 0.542622,3.00978 0.195362,0 0.756772,-0.82816 0.931881,-1.37468 0.119584,-0.37321 0.185055,-3.98908 0.250658,-13.8449 0.06066,-9.11219 0.13431,-13.41653 0.23243,-13.58201 0.123598,-0.20844 0.202817,-0.11394 0.567712,0.67779 0.549524,1.19223 0.912041,2.63066 1.09462,4.34339 0.08059,0.7559 0.191193,5.04629 0.245806,9.53417 l 0.09929,8.15982 1.149201,2.87598 c 2.262074,5.66111 4.552458,11.1788 4.858583,11.70467 0.321334,0.552 1.090143,1.36319 1.19376,1.25956 0.03223,-0.0323 0.156004,-0.75018 0.275042,-1.59545 0.265841,-1.88761 0.46192,-6.74996 0.467538,-11.59385 0.0041,-3.56084 0.01,-3.63795 0.281833,-3.72425 0.152675,-0.0486 0.314464,-0.0513 0.359501,-0.007 0.04504,0.0452 0.578361,4.76083 1.185162,10.47953 0.6068,5.71867 1.107172,10.41267 1.111938,10.43106 0.0047,0.0183 0.211414,0.0335 0.459223,0.0335 0.434521,0 0.458174,-0.0274 0.66452,-0.76916 0.117671,-0.42304 0.276921,-1.5818 0.35387,-2.575 0.362333,-4.67678 1.10975,-8.94294 2.695084,-15.38327 0.447941,-1.81974 0.860683,-3.84247 0.928036,-4.54808 0.06671,-0.69892 0.185318,-3.40773 0.263557,-6.01953 0.07824,-2.61182 0.186726,-5.01962 0.241087,-5.3507 0.09232,-0.5623 0.10972,-0.50944 0.264087,0.80259 0.29029,2.46735 0.545308,5.55203 0.890237,10.76829 0.657209,9.93874 1.132083,14.52376 1.960391,18.92808 0.353092,1.87748 0.351259,1.87274 0.724331,1.87274 0.281223,0 0.355306,-0.1133 0.59066,-0.90292 0.281243,-0.94365 0.367082,-2.64238 0.819571,-16.21931 l 0.153806,-4.61496 0.379888,-0.62769 c 1.02594,-1.69517 1.02415,-3.08488 -0.0088,-6.77128 -0.377478,-1.34727 -0.66183,-2.52108 -0.631891,-2.60847 0.0768,-0.22417 1.185016,1.53088 1.674987,2.65268 0.693947,1.58878 1.257078,3.4459 1.686867,5.56306 0.241771,1.19099 1.272516,7.87477 2.153547,13.96454 0.340607,2.3543 0.77016,5.09319 0.954561,6.0864 0.184399,0.99323 0.368569,2.00149 0.409261,2.24062 0.04069,0.2391 0.117934,0.43473 0.171617,0.43473 0.165234,0 0.95962,-1.59769 1.223358,-2.46044 0.137346,-0.44927 0.488451,-2.47393 0.780248,-4.49924 1.470987,-10.20986 3.311609,-17.45639 6.214603,-24.46696 0.886946,-2.14191 1.571006,-3.33146 2.500944,-4.34895 1.104071,-1.20803 1.269441,-1.20277 0.702465,0.0223 -3.544145,7.65806 -5.636052,15.36171 -6.530334,24.04851 -0.253079,2.45834 -0.553331,9.85035 -0.427275,10.51919 0.07085,0.37589 0.166536,0.50096 0.420398,0.54949 0.281664,0.054 0.33907,0.003 0.401366,-0.35289 0.312764,-1.78862 1.206386,-8.55349 1.601067,-12.12035 0.516271,-4.6657 0.918463,-7.54197 1.159698,-8.29357 0.08264,-0.2575 0.534962,-1.33075 1.005144,-2.38498 0.923636,-2.07096 1.252753,-3.12973 1.587195,-5.106 0.118277,-0.69892 0.259313,-1.31601 0.313401,-1.37127 0.05409,-0.0552 0.1734,1.20884 0.265127,2.80912 0.518504,9.04594 1.300873,17.13209 2.310251,23.87762 0.162382,1.08517 0.338971,1.97306 0.392417,1.97306 0.159464,0 0.64307,-1.13299 0.929972,-2.17877 0.191957,-0.69967 0.34208,-2.05984 0.527976,-4.78358 0.627715,-9.19726 0.563941,-8.54377 0.842439,-8.63217 0.139822,-0.0444 0.278067,-0.0569 0.307213,-0.0277 0.02915,0.0292 0.446948,4.53423 0.928449,10.01131 0.481503,5.4771 0.902696,10.03358 0.935985,10.12555 0.03329,0.0919 0.201055,0.16721 0.372813,0.16721 0.285918,0 0.342132,-0.12132 0.665746,-1.438 l 0.353458,-1.438 0.07832,-8.69486 c 0.07339,-8.14726 0.163562,-10.10988 0.473367,-10.30135 0.152675,-0.0943 0.823555,1.50072 1.097647,2.6097 0.171931,0.69565 0.307471,2.12159 0.442041,4.65047 0.217402,4.08542 0.499009,7.39643 0.798896,9.39306 0.110539,0.73589 0.200961,1.40859 0.200961,1.49489 0,0.0863 0.03096,0.12593 0.0688,0.0882 0.101178,-0.10117 0.430152,-3.57339 0.593374,-6.26287 0.07814,-1.28752 0.23058,-5.41089 0.338761,-9.16305 0.241692,-8.3828 0.351858,-11.03579 0.458261,-11.03579 0.04511,0 0.219966,1.61021 0.38856,3.57828 0.168595,1.96803 0.48172,5.20353 0.695833,7.18996 0.214114,1.98646 0.4812,4.90593 0.593527,6.48773 0.112326,1.5818 0.272838,3.80903 0.356689,4.94939 0.08385,1.14035 0.114262,2.73553 0.06758,3.54483 -0.04668,0.80929 -0.02592,1.97731 0.0461,2.59558 0.154693,1.32767 0.498326,2.59557 0.674046,2.48698 0.196941,-0.12166 0.76849,-2.06303 0.999671,-3.39546 0.667436,-3.84684 0.96282,-10.54438 0.746673,-16.93023 -0.126343,-3.73282 -0.368742,-7.88809 -0.601211,-10.30641 -0.09192,-0.95619 1.16488,4.08385 1.589191,6.37299 0.293442,1.58314 0.389467,2.69617 0.546508,6.3349 0.29255,6.77846 0.575337,10.80521 0.767377,10.9272 0.403428,0.25628 0.601797,0.084 1.069117,-0.9281 0.874797,-1.89474 2.330058,-7.17785 2.461847,-8.93733 0.116819,-1.55966 -0.07135,-2.38935 -1.616192,-7.12615 -1.489983,-4.56859 -2.007801,-6.29243 -1.831713,-6.09795 0.06138,0.0677 1.119204,1.92913 2.350724,4.13628 1.231524,2.20715 2.284699,4.0617 2.340394,4.12121 0.05569,0.0596 0.41844,-0.63274 0.806096,-1.53834 0.991804,-2.31688 1.452513,-3.20013 2.539416,-4.86843 1.643455,-2.52259 1.718239,-2.74965 2.066759,-6.27555 0.403407,-4.08115 0.322569,-3.67859 0.738716,-3.67859 0.339674,0 0.389876,0.0733 0.664214,0.9698 0.251465,0.82179 0.315132,1.47008 0.417092,4.24712 0.245508,6.68685 0.408845,13.19467 0.53296,21.23464 0.134804,8.73182 0.148085,8.90293 0.808228,10.40131 l 0.294663,0.66886 0.256478,-0.5708 c 0.553856,-1.23262 0.792177,-2.57942 0.928669,-5.24808 0.07337,-1.43467 0.250159,-3.90268 0.392848,-5.48446 0.492128,-5.45554 0.759475,-10.92367 0.833475,-17.04737 l 0.029,-2.39983 0.484735,0.42578 c 0.266604,0.2342 0.611466,0.72039 0.766355,1.08044 0.269749,0.62706 0.287246,0.9809 0.415121,8.39489 0.145625,8.44238 0.157365,8.76768 0.549708,15.23121 0.329045,5.42053 0.310074,5.28379 0.733023,5.28379 h 0.328357 l 0.0054,-3.91269 0.0054,-3.9127 0.410701,0.46819 c 0.823031,0.93824 0.944766,1.43357 1.175059,4.78123 0.09921,1.44217 0.183645,1.9022 0.45421,2.4747 0.335306,0.70949 0.959102,1.56261 1.052162,1.43895 0.0277,-0.0369 0.18789,-0.48827 0.35601,-1.00325 0.24356,-0.74611 0.32951,-1.42565 0.42298,-3.34419 0.0645,-1.3243 0.19564,-3.9729 0.29137,-5.88575 0.22114,-4.4187 0.20617,-5.63018 -0.0859,-6.95592 -0.36051,-1.63623 -1.25875,-3.66808 -2.220963,-5.02395 -0.542485,-0.76441 -1.492794,-2.93519 -1.284942,-2.93519 0.02835,0 0.827083,0.59861 1.774967,1.33025 0.947878,0.73161 1.736278,1.28844 1.752018,1.23734 0.0157,-0.051 0.15399,-1.74826 0.30724,-3.7715 0.26033,-3.43687 0.53191,-5.41203 0.80931,-5.88576 0.0805,-0.13757 0.11877,-0.0194 0.12156,0.37653 0.009,1.30207 0.29432,6.68026 0.48003,9.05406 0.4618,5.90276 0.98719,7.84129 4.29614,15.85143 1.31435,3.18172 2.19172,4.94819 2.4581,4.94912 0.0405,1.5e-4 0.21154,-0.37597 0.38009,-0.83577 0.3039,-0.82915 0.30848,-0.94018 0.55477,-13.41017 0.36435,-18.44785 0.3636,-16.76154 0.008,-17.49678 -0.17334,-0.35807 -0.67975,-0.97087 -1.18465,-1.4335 -0.48504,-0.44444 -0.96722,-0.92991 -1.0715,-1.0788 -0.18569,-0.26512 -0.18037,-0.26672 0.25763,-0.0777 0.24598,0.10624 1.66693,0.77141 3.15767,1.47843 1.49073,0.70706 2.76194,1.28556 2.82493,1.28556 0.15539,0 0.51241,-1.31717 0.68888,-2.54158 0.0796,-0.55179 0.13572,-2.17706 0.12486,-3.61171 -0.0302,-3.99316 -0.002,-5.04182 0.13009,-4.81563 0.25649,0.43952 0.44345,3.28935 0.29041,4.42658 -0.20972,1.55833 -0.18353,4.16071 0.0559,5.555 0.59698,3.47626 2.16477,6.66099 4.77147,9.69248 0.54259,0.63103 1.37016,1.73951 1.83904,2.46333 l 0.85251,1.31599 0.34671,-0.39216 c 0.1907,-0.21565 0.55816,-0.6411 0.81658,-0.94539 l 0.46985,-0.55324 -0.0484,1.42497 c -0.10848,3.1944 0.57591,5.33696 3.74024,11.70906 l 1.2542,2.52559 0.23049,-0.98725 c 0.41716,-1.78672 0.48115,-3.42709 0.50296,-12.89256 0.0118,-5.15006 0.0636,-9.63461 0.11486,-9.96569 0.0905,-0.58419 0.10402,-0.55259 0.45827,1.07016 0.77391,3.54514 1.05809,6.24581 1.36537,12.97542 0.24579,5.38323 0.51038,8.74976 0.87616,11.14807 0.28092,1.84189 0.76951,4.10386 0.92229,4.26982 0.11386,0.12378 0.74636,-3.83963 1.00888,-6.3217 0.56692,-5.36029 0.71138,-10.88117 0.46029,-17.59041 -0.10187,-2.72217 -0.18576,-5.40086 -0.18641,-5.95265 l -9.8e-4,-1.00326 h 0.45543 c 0.43218,0 0.46832,0.0376 0.70835,0.73574 0.22155,0.64442 0.27689,1.53244 0.44586,7.15655 0.25169,8.37698 0.39967,10.59183 1.20547,18.04217 0.33728,3.11853 0.50372,3.79739 1.12449,4.58657 0.34745,0.44169 0.34649,0.44513 0.59622,-2.16233 0.54031,-5.64158 0.70012,-9.18398 0.94434,-20.9346 0.10935,-5.26039 0.23988,-10.2265 0.29007,-11.03581 l 0.0913,-1.47143 0.17174,0.73572 c 0.7822,3.35121 1.11963,7.18308 1.52538,17.32287 0.1621,4.05078 0.32304,6.20804 0.66366,8.8955 0.25311,1.99701 0.81402,5.12078 0.90346,5.03133 0.12881,-0.1287 2.32945,-8.10774 2.6263,-9.52228 0.58085,-2.76772 0.668,-4.04288 0.57534,-8.41756 -0.0466,-2.20718 -0.12406,-4.67517 -0.17182,-5.48446 -0.0478,-0.80931 -0.0487,-1.43658 -0.002,-1.39398 0.0468,0.0426 0.44041,1.29574 0.87486,2.7847 0.43447,1.489 0.81094,2.72687 0.83661,2.75085 0.0257,0.024 1.15952,-1.93223 2.51964,-4.3471 1.36011,-2.41486 2.48942,-4.37419 2.50956,-4.35403 0.0202,0.02 -0.056,0.2991 -0.16919,0.61992 -0.51999,1.47384 -0.45675,3.4841 0.19304,6.13459 1.12757,4.59961 1.46232,7.84505 1.53963,14.92725 0.0369,3.38309 0.0613,3.69406 0.38329,4.91248 0.18914,0.71543 0.39857,1.39851 0.46542,1.51797 0.0838,0.14986 0.21104,-0.44125 0.4097,-1.90272 0.58622,-4.31295 0.90289,-9.19835 1.02612,-15.83105 0.0417,-2.24398 0.1133,-4.411 0.15913,-4.81563 0.0803,-0.70957 0.0918,-0.67392 0.32172,1.00326 1.11861,8.15982 1.46709,11.4506 1.79192,16.92155 0.20454,3.44528 0.54925,7.16472 0.68427,7.38315 0.0367,0.0592 0.2378,0.10772 0.44701,0.10772 0.35579,0 0.39952,-0.0628 0.67645,-0.96982 0.16284,-0.53339 0.50037,-1.93292 0.75007,-3.11008 0.84374,-3.97754 1.28426,-5.74716 1.74827,-7.02278 1.05067,-2.88858 1.40474,-4.02948 1.74357,-5.61822 0.32763,-1.53632 0.35695,-1.92737 0.361,-4.81563 0.007,-3.96866 -0.16198,-5.09394 -1.73965,-11.68001 -0.47258,-1.97289 -0.85842,-3.80884 -0.85741,-4.07989 0.002,-0.58263 0.12402,-1.09479 0.2604,-1.09479 0.15103,0 1.40954,2.7525 1.80429,3.94614 0.56185,1.69888 1.08636,3.91924 1.67485,7.08967 0.30041,1.61859 0.60355,3.07832 0.6736,3.24386 0.0829,0.19611 0.24214,0.30098 0.45666,0.30098 0.26172,0 0.59377,-0.33611 1.61895,-1.63866 0.70932,-0.90125 1.32994,-1.65271 1.37912,-1.66993 0.0492,-0.0171 0.16693,0.0178 0.26162,0.0779 0.1346,0.0853 0.082,0.35432 -0.24175,1.23518 -0.22764,0.61935 -0.58553,1.43147 -0.79532,1.80469 -0.85502,1.5211 -1.01504,3.14544 -0.53277,5.40781 0.73402,3.44326 0.78071,3.72147 1.9894,11.85922 0.22027,1.4829 0.48389,2.89748 0.58585,3.14353 l 0.18539,0.44737 0.16151,-0.73572 c 0.2375,-1.08195 0.65114,-3.87582 0.81195,-5.48445 0.12477,-1.24798 0.65403,-9.63259 0.68396,-10.83516 l 0.0115,-0.46819 0.34856,0.73572 c 0.77183,1.62922 0.85926,2.32327 0.96909,7.69161 0.0577,2.81577 0.16555,5.2089 0.25034,5.55135 0.33723,1.36179 0.45573,1.73898 0.54628,1.73898 0.11804,0 0.59405,-1.93412 0.87244,-3.54484 0.57596,-3.3326 0.51831,-6.08881 -0.25977,-12.42249 -0.51666,-4.20558 -0.79211,-7.03586 -0.69424,-7.13371 0.0847,-0.0848 0.77841,2.08687 1.20643,3.77787 0.75755,2.99284 1.12781,5.7189 1.68891,12.43414 0.46012,5.5073 0.81562,8.52592 1.27977,10.8664 0.17846,0.90006 0.3245,1.67958 0.3245,1.7323 0,0.0528 0.0547,0.0387 0.12198,-0.0313 0.18058,-0.18822 0.6413,-2.45393 0.88461,-4.35019 0.35652,-2.77892 0.39328,-6.68829 0.12707,-13.5151 -0.13445,-3.44871 -0.21109,-6.3038 -0.17026,-6.34463 0.0408,-0.0408 0.24009,-0.0866 0.44285,-0.10165 0.65358,-0.0487 0.80995,0.88994 1.0586,6.35468 0.32292,7.09771 0.46494,9.38853 0.68241,11.00764 0.196,1.45931 0.78237,3.91623 0.98237,4.11623 0.17798,0.17798 0.94833,-2.57025 1.1538,-4.11623 0.10755,-0.80929 0.25621,-2.61515 0.33035,-4.01302 0.0741,-1.39786 0.22306,-3.65518 0.33089,-5.01626 0.1723,-2.17447 0.47618,-8.12945 0.47618,-9.33139 0,-0.36955 0.0479,-0.43363 0.3238,-0.43363 0.2459,0 0.3418,0.0885 0.39864,0.36787 0.26668,1.31061 0.34787,4.11248 0.34929,12.05322 0.002,9.30336 0.008,9.41277 0.58367,10.77463 0.12149,0.28719 0.2466,0.49643 0.27805,0.46497 0.11985,-0.11986 0.87386,-2.91898 1.13646,-4.21929 0.58101,-2.87661 0.69776,-4.44562 0.7747,-10.4121 0.0809,-6.28895 0.0628,-6.20899 0.70871,-3.09463 0.46044,2.22018 0.66064,4.81785 0.79844,10.35945 0.0727,2.92011 0.19249,5.88116 0.26642,6.58011 0.20352,1.92391 0.43604,3.34416 0.54753,3.34416 0.13526,0 0.47167,-1.05357 0.72618,-2.27404 0.11509,-0.5518 0.36222,-3.08 0.54923,-5.61823 0.28232,-3.83182 0.32857,-5.1938 0.27254,-8.02604 -0.0909,-4.59866 -0.24355,-5.2354 -2.24063,-9.3514 -0.65713,-1.35431 -1.17922,-2.47788 -1.16018,-2.49678 0.019,-0.019 0.57469,0.44208 1.2348,1.02442 0.66013,0.5823 1.23874,1.05876 1.28578,1.05876 0.16644,0 0.38999,-1.53139 0.38894,-2.66421 0,-0.63149 -0.0909,-1.86822 -0.20066,-2.7483 -0.10985,-0.88005 -0.19957,-2.21188 -0.19957,-2.9596 V 126.427 l 0.42266,-0.0845 c 0.23247,-0.0464 0.44721,-0.0601 0.47718,-0.03 0.03,0.03 0.20006,0.58356 0.37795,1.23014 0.38862,1.41247 0.50255,2.50995 0.86664,8.34845 0.19544,3.13383 0.35892,4.82309 0.54377,5.61822 0.33203,1.4283 4.67709,16.48224 5.09646,17.65729 0.26769,0.74998 0.3555,0.86948 0.63897,0.86948 0.52361,0 0.80919,-1.09748 0.73093,-2.80911 -0.0336,-0.73572 -0.12362,-2.96294 -0.19997,-4.94937 -0.18326,-4.76755 -0.43857,-8.18252 -1.00122,-13.39279 -0.49147,-4.55116 -0.86838,-8.59159 -0.85325,-9.14702 0.0201,-0.73719 1.14466,2.96366 1.91049,6.28707 0.64237,2.78771 1.02111,4.88734 1.96649,10.90203 0.75989,4.83434 1.52667,9.16327 1.90738,10.76828 0.21687,0.91433 0.2784,0.75998 0.55985,-1.40457 0.14134,-1.08797 0.24762,-3.63102 0.32945,-7.89227 0.1128,-5.87772 0.24572,-9.50122 0.34475,-9.40221 0.0877,0.0877 1.80683,12.59747 2.13127,15.50812 0.37804,3.39181 0.59808,4.68107 1.08801,6.37607 0.55186,1.90912 0.51851,2.01468 0.92151,-2.91761 0.27514,-3.36716 0.43277,-6.48662 0.73676,-14.58065 0.1479,-3.93609 0.33168,-8.24005 0.40852,-9.56435 0.15002,-2.58652 0.50043,-6.90732 0.56531,-6.97218 0.0218,-0.0218 0.4269,5.58669 0.90038,12.46318 0.5572,8.09284 0.90908,12.48681 0.99764,12.45763 0.2179,-0.0719 0.8497,-1.42171 1.07544,-2.29785 0.14249,-0.55274 0.24698,-1.98946 0.33585,-4.61498 0.12314,-3.63713 0.66514,-24.76906 0.66514,-25.93093 0,-0.49625 0.034,-0.55499 0.32022,-0.55499 0.30704,0 0.32365,0.0482 0.40352,1.17047 0.0457,0.64375 0.17359,5.65499 0.28396,11.13612 0.35972,17.86842 0.41453,19.3526 0.7903,21.40277 0.26591,1.45078 0.8721,3.91126 1.35944,5.5179 0.0462,0.1515 0.2054,0.23408 0.4522,0.23408 0.35051,0 0.39308,-0.0552 0.52856,-0.68697 0.36615,-1.70729 0.57093,-3.19928 0.81462,-5.93449 0.14427,-1.61858 0.35288,-3.8484 0.46379,-4.95515 0.39391,-3.93134 0.28591,-4.93459 -0.99905,-9.28013 -0.83653,-2.82903 -1.39357,-5.19002 -1.31759,-5.58457 0.0281,-0.14642 0.40306,0.38698 0.98099,1.39602 0.75853,1.3244 0.9922,1.63334 1.23629,1.63454 0.16554,8.1e-4 0.30543,-0.0436 0.31081,-0.0989 0.14692,-1.49935 0.76773,-5.04136 0.89071,-5.08238 0.35394,-0.11804 0.80018,0.57261 0.95885,1.48382 0.086,0.49349 0.22103,1.03938 0.3002,1.21317 0.16415,0.36025 0.63514,0.61298 1.14248,0.61298 0.34515,0 0.34623,0.003 0.26056,0.83604 -0.0472,0.45983 -0.23516,1.72949 -0.41741,2.82149 -0.86575,5.18664 -0.72719,8.30818 0.54549,12.29259 0.32283,1.01069 0.79899,2.96705 1.05812,4.34741 0.54092,2.88145 0.88971,4.14973 1.2652,4.60051 0.1451,0.1744 0.26614,0.25343 0.26858,0.17568 0.003,-0.0777 0.12542,-0.79966 0.2732,-1.60419 0.65364,-3.55763 1.0062,-7.32051 1.47206,-15.71104 0.37627,-6.77719 0.73901,-10.54655 1.31303,-13.64424 0.18355,-0.99051 0.26515,1.73366 0.56116,18.72741 0.15051,8.64471 0.28668,15.95626 0.30245,16.24791 0.0262,0.48415 0.067,0.53805 0.46914,0.61968 0.42006,0.0853 0.45515,0.0604 0.75737,-0.536 0.54981,-1.08499 0.71721,-1.98747 1.06912,-5.76401 0.71747,-7.69948 0.93621,-11.26464 1.14481,-18.66051 0.0767,-2.72216 0.16825,-5.13063 0.20329,-5.35211 0.0352,-0.22151 0.22463,-0.57634 0.42138,-0.7885 0.35482,-0.38266 0.35856,-0.38342 0.46573,-0.0938 0.0594,0.16067 0.17398,1.11739 0.25457,2.12617 0.11789,1.47474 0.10117,2.73781 -0.0849,6.44624 -0.19194,3.82463 -0.20472,4.94381 -0.0748,6.5546 0.0863,1.06835 0.21517,3.82287 0.28649,6.12114 0.0713,2.29828 0.19115,4.73618 0.26628,5.41759 0.15559,1.41141 0.64245,4.12308 0.78026,4.34606 0.0506,0.0818 0.24647,0.18768 0.43521,0.23504 0.33079,0.0831 0.35345,0.0486 0.62834,-0.9592 0.15691,-0.57493 0.31933,-1.2861 0.36102,-1.58041 0.0416,-0.29428 0.40616,-5.38078 0.8099,-11.30334 0.84541,-12.40131 0.88082,-12.7834 1.36925,-14.76918 l 0.3649,-1.48353 0.04,9.56437 c 0.0228,5.43729 -0.0205,10.77659 -0.10037,12.37374 -0.21014,4.20684 -0.1251,8.82125 0.16786,9.11427 0.0462,0.0462 0.36195,-0.15052 0.70163,-0.43727 0.60104,-0.50733 0.6587,-0.62716 2.14887,-4.46553 0.84215,-2.16931 2.36909,-6.1718 3.39315,-8.89438 1.63417,-4.34462 1.88055,-5.10556 2.01408,-6.22019 0.0838,-0.69851 0.17843,-1.40643 0.21055,-1.57318 l 0.0585,-0.30319 0.52993,0.30319 c 0.49029,0.2805 0.55713,0.28808 0.89326,0.10117 0.37187,-0.20685 3.02245,-3.84379 5.40272,-7.41314 0.92011,-1.37976 1.41659,-2.2687 1.60631,-2.876 0.37541,-1.20169 0.57355,-5.25411 0.46324,-9.47355 l -0.0848,-3.24385 h 0.34031 0.34032 v 5.48445 c 0,4.29919 0.0362,5.48415 0.1672,5.483 0.0919,-8.4e-4 1.48746,-0.63288 3.10107,-1.40456 1.61365,-0.7717 2.95858,-1.40309 2.98873,-1.40309 0.0301,0 -0.21413,0.29918 -0.54287,0.66481 -0.65829,0.73218 -1.07851,1.52898 -1.32221,2.50707 -0.17507,0.70272 -0.16994,4.681 0.0246,19.10038 0.073,5.41337 0.1657,8.52584 0.26678,8.96241 0.32566,1.40684 0.69282,2.50258 0.80102,2.39061 0.26943,-0.27884 2.08697,-3.80161 2.87214,-5.56688 2.12076,-4.76802 3.35933,-9.02037 4.04249,-13.87907 0.17954,-1.27682 0.23593,-2.58915 0.23857,-5.55134 0.002,-2.13358 -0.0428,-4.0448 -0.0994,-4.2471 -0.0926,-0.3312 -0.0691,-0.36787 0.23408,-0.36787 0.25571,0 0.33697,0.0693 0.33697,0.28779 0,0.15822 0.15478,2.18989 0.34406,4.51465 0.35169,4.32055 0.40047,4.56127 0.92415,4.56127 0.0806,0 0.79757,-0.54165 1.59281,-1.20365 0.79521,-0.66203 1.50111,-1.16954 1.56866,-1.1278 0.0675,0.0417 0.10047,0.11691 0.0731,0.16697 -0.0274,0.0502 -0.51096,0.91335 -1.07478,1.91835 -1.34811,2.40302 -2.29635,4.40584 -2.55193,5.39007 -0.17965,0.69188 -0.18973,1.35952 -0.0765,5.08314 0.26843,8.84311 0.40936,11.327 0.67768,11.94486 0.13576,0.31268 0.30837,0.5685 0.38351,0.5685 0.29515,0 1.07594,-0.84473 1.27307,-1.37734 0.21523,-0.58159 0.61031,-4.28035 0.61392,-5.74773 0.002,-0.92602 0.0677,-1.09166 0.48325,-1.22119 0.31617,-0.0985 0.3199,-0.0612 0.53388,5.37711 l 0.0858,2.1809 0.41239,-0.0406 c 0.40315,-0.0396 0.41781,-0.066 0.65371,-1.17765 0.28056,-1.32175 0.39894,-3.88472 0.6981,-15.1157 0.20946,-7.86278 0.43439,-13.38275 0.56339,-13.82549 0.0577,-0.19782 0.15575,-0.23144 0.48382,-0.16584 0.22632,0.0453 0.42849,0.0994 0.4493,0.12003 0.12936,0.12936 0.38112,4.37246 0.79106,13.33615 0.65295,14.27837 0.67289,14.58111 1.04493,15.8514 0.31166,1.06415 0.3161,1.07038 0.79384,1.11121 0.45029,0.0386 0.48521,0.0131 0.55642,-0.40129 0.0418,-0.24331 0.16818,-0.98413 0.28079,-1.64627 0.1638,-0.96342 0.22821,-3.31505 0.32199,-11.77153 0.15807,-14.24712 0.42584,-21.55937 0.84755,-23.14173 0.16263,-0.61019 0.21268,-0.66886 0.57079,-0.66886 0.3621,0 0.39991,0.0468 0.48698,0.60196 0.052,0.33108 0.15903,1.65538 0.23808,2.94288 0.21533,3.50768 0.61332,4.68997 1.97445,5.86509 0.74421,0.64249 1.10295,1.24604 1.44839,2.4367 0.11609,0.40013 0.57556,1.58403 1.02105,2.63088 l 0.80996,1.90336 0.48887,-0.69946 c 0.26886,-0.38469 1.11089,-1.61743 1.87116,-2.73941 0.7603,-1.12197 1.40215,-2.03996 1.42633,-2.03996 0.0241,0 -0.0115,0.16555 -0.0792,0.36786 -1.37116,4.09401 -2.53823,8.22587 -2.53823,8.98633 0,0.82592 0.62613,3.16698 3.15986,11.8145 0.039,0.13313 0.19823,0.23409 0.36946,0.23409 0.27395,0 0.32117,-0.11085 0.52776,-1.23735 0.14461,-0.78829 0.27538,-2.59667 0.36051,-4.98283 0.18434,-5.16585 0.37779,-8.42988 0.60256,-10.16631 0.24361,-1.88212 1.31686,-7.05656 1.37727,-6.64042 0.0251,0.17352 -0.0193,1.43955 -0.0992,2.81343 -0.24311,4.18879 -0.16534,9.14276 0.31941,20.34723 0.19894,4.59764 0.3522,5.50845 0.97478,5.79212 0.18731,0.0853 0.3534,0.0918 0.42583,0.0164 0.0653,-0.0679 0.24442,-0.75552 0.39796,-1.52802 0.20824,-1.04745 0.50059,-4.61831 1.15001,-14.04556 1.10326,-16.01594 1.07958,-15.70905 1.23395,-15.98488 0.15297,-0.27326 0.24045,2.77169 0.43835,15.24917 0.0748,4.70859 0.17125,9.47908 0.21467,10.60105 l 0.079,2.03995 h 0.4392 c 0.39044,0 0.44788,-0.0484 0.51688,-0.43474 0.161,-0.90123 0.35269,-3.36966 0.55329,-7.12312 0.11413,-2.13357 0.30025,-4.68934 0.41377,-5.67948 0.27651,-2.41093 0.92885,-5.59734 1.10908,-5.41723 0.0457,0.0458 0.12149,2.98256 0.16853,6.52629 0.0612,4.61667 0.14937,7.03093 0.31095,8.51656 0.22171,2.0382 0.72497,5.03693 1.02098,6.0837 l 0.15052,0.53235 0.26235,-0.51139 c 0.38946,-0.75914 0.63953,-2.13437 0.64215,-3.53158 9.9e-4,-0.6816 0.1792,-2.99911 0.39542,-5.15003 0.2162,-2.15091 0.51845,-5.17486 0.67168,-6.71989 0.33063,-3.33405 0.5934,-4.97844 0.71613,-4.48118 0.0453,0.18392 0.20687,1.9597 0.35879,3.94613 0.4272,5.58557 0.69381,7.72386 1.35793,10.89107 0.20868,0.99512 0.32078,1.31634 0.39215,1.12338 0.15855,-0.42841 0.8874,-4.82428 1.24917,-7.53326 0.60521,-4.53211 1.0149,-9.20667 1.54624,-17.643 0.1456,-2.30969 0.28709,-4.22204 0.31472,-4.24964 0.0277,-0.0277 0.12641,0.598 0.2194,1.3903 0.311,2.648 0.7919,4.01664 1.85894,5.29046 0.38318,0.45741 0.57343,0.83831 0.66806,1.33766 0.0728,0.38399 0.64975,5.12252 1.28216,10.53004 0.63241,5.40756 1.21697,10.13287 1.29902,10.50074 0.082,0.36786 0.27359,0.90962 0.42559,1.20392 l 0.27642,0.53505 0.11411,-0.8026 c 0.1869,-1.31506 0.0252,-10.2897 -0.22528,-12.50725 -0.89668,-7.93717 -2.6884,-14.84101 -5.62397,-21.67028 -0.56599,-1.31668 -0.53635,-1.29757 0.62159,0.4013 1.24726,1.82993 1.50712,2.32348 2.30513,4.37823 2.4741,6.37026 4.41317,14.17765 5.82883,23.46895 0.74023,4.85825 1.09922,8.77922 1.33894,14.62393 0.0988,2.40645 0.19657,3.39718 0.44935,4.54809 0.50644,2.30595 1.24651,4.34457 2.39456,6.59618 1.92674,3.77883 2.43855,5.85751 2.427,9.8572 -0.007,2.09022 -0.0594,2.78563 -0.30087,3.91584 -1.0563,4.94504 -3.31471,8.69686 -6.82708,11.34161 -1.40235,1.05596 -3.45733,2.09794 -4.89724,2.48315 -1.36889,0.36623 -5.67738,0.49012 -17.62729,0.50687 l -8.39734,0.0115 0.19911,-0.38503 c 0.10952,-0.21177 0.32175,-0.82756 0.47164,-1.36843 0.26576,-0.95904 0.27251,-1.31327 0.27251,-14.3051 0,-14.57584 0.0199,-14.19011 -0.77815,-15.06188 -0.53326,-0.58246 -1.14155,-0.86756 -2.01922,-0.94634 -1.43362,-0.12871 -2.53834,0.4536 -3.04111,1.60299 -0.23471,0.53659 -0.2499,1.23623 -0.2847,13.11604 -0.0202,6.90207 0.0164,13.17549 0.0799,13.94092 0.0989,1.18049 0.18567,1.52934 0.57183,2.29892 0.25038,0.49899 0.47703,0.95759 0.50366,1.0191 0.0508,0.11739 -5.79575,0.0717 -5.91335,-0.046 -0.0372,-0.0374 0.0491,-0.41456 0.19195,-0.83796 0.94213,-2.79066 0.0845,-5.28098 -2.98229,-8.65828 -3.61232,-3.97827 -8.50018,-7.61393 -16.49301,-12.26776 -2.33523,-1.35968 -8.53549,-4.71148 -8.81404,-4.76477 -0.0655,-0.0131 -0.31952,0.97042 -0.56447,2.18437 l -0.44529,2.20716 -0.002,8.56112 c -9.8e-4,4.7086 0.0554,9.10358 0.12527,9.76665 0.0698,0.66306 0.30133,1.79173 0.51432,2.50813 l 0.38726,1.30259 h -2.85758 c -1.57166,0 -2.85758,-0.0225 -2.85758,-0.0501 0,-0.0276 0.11511,-0.31336 0.25546,-0.63538 0.54003,-1.23773 0.56483,-2.01227 0.52167,-16.30317 l -0.0413,-13.71116 -0.3708,-0.75483 c -0.44862,-0.91327 -1.34327,-1.76861 -2.28602,-2.18554 -0.3839,-0.16976 -1.35775,-0.4799 -2.16411,-0.68919 -1.31639,-0.34165 -1.68472,-0.38039 -3.60641,-0.37928 -1.91535,9.8e-4 -2.27781,0.0393 -3.449,0.36441 -2.93219,0.8137 -4.99301,2.14632 -5.73063,3.70571 -0.36026,0.76169 -0.38317,2.02485 -0.057,3.14915 0.27594,0.9513 4.27298,11.96647 6.91696,19.06181 1.99335,5.3494 2.49698,6.39118 3.70221,7.6582 l 0.73166,0.76915 h -6.17972 -6.1797 l 0.0934,-0.49831 c 0.0515,-0.27408 0.0954,-1.28236 0.0979,-2.2406 0.003,-1.51457 -0.0366,-1.8463 -0.30767,-2.53813 -0.3715,-0.94784 -1.28882,-1.98066 -2.14285,-2.41274 -0.33604,-0.17001 -2.56537,-0.76255 -5.01892,-1.334 -2.42789,-0.56546 -5.64833,-1.32874 -7.15654,-1.69618 -3.11743,-0.75946 -3.96625,-0.82627 -4.87969,-0.38408 -0.81919,0.39655 -1.1586,0.84906 -2.42898,3.23814 -1.74267,3.27729 -2.16247,4.54906 -1.92526,5.83227 0.076,0.40981 0.13773,0.99899 0.13773,1.3093 v 0.56418 l -1.5049,0.0763 c -0.82767,0.042 -2.2147,0.10329 -3.08225,0.13625 -1.56849,0.0596 -1.57688,0.0584 -1.49,-0.23028 0.19659,-0.65304 0.51614,-1.15694 1.54143,-2.43053 0.9672,-1.20147 1.30209,-1.79395 3.28901,-5.81889 4.86502,-9.8552 8.64857,-17.77536 9.01745,-18.87639 1.00721,-3.00633 0.0511,-4.28264 -4.29279,-5.73107 -6.61903,-2.20697 -13.50727,-2.77957 -21.67031,-1.80143 -2.69214,0.32259 -5.8834,1.06915 -9.45308,2.21142 -2.12831,0.68107 -3.36203,1.85187 -3.93335,3.7328 -0.25827,0.85032 -0.26469,1.22926 -0.22833,13.51233 0.0343,11.60735 0.056,12.67704 0.26658,13.1231 0.32087,0.67986 0.9358,1.1542 1.63147,1.25854 0.32375,0.0486 2.89681,0.0597 5.71793,0.0249 5.71179,-0.0704 6.279,-0.13904 7.94719,-0.95983 1.2247,-0.60259 2.67154,-1.92097 3.0868,-2.8127 0.81869,-1.75812 -0.10986,-3.58284 -2.10833,-4.1436 -0.62867,-0.17641 -1.09554,-0.20834 -2.10164,-0.14363 -1.54726,0.0994 -1.93965,-0.0374 -2.00395,-0.69853 -0.0345,-0.35464 0.0669,-0.54465 0.58719,-1.10092 0.86356,-0.92323 1.78423,-1.21375 4.13636,-1.30532 1.99777,-0.0777 2.87723,0.086 4.41431,0.82152 1.22779,0.58758 1.97435,1.25525 2.41833,2.16269 0.34407,0.70327 0.35754,0.80631 0.28353,2.17026 -0.0439,0.80856 -0.22997,2.07256 -0.42742,2.90339 -0.19235,0.8093 -0.47537,2.07908 -0.62895,2.82174 l -0.27923,1.3503 -3.09095,0.0874 c -6.92527,0.19582 -29.60193,0.0406 -29.84683,-0.20425 -0.0359,-0.0359 0.0497,-0.39871 0.18992,-0.80642 0.51424,-1.49471 0.54825,-2.31848 0.54825,-13.28051 0,-9.24998 -0.0281,-10.77216 -0.21255,-11.58392 -0.24439,-1.07447 -0.76115,-1.84472 -1.65118,-2.46112 -0.31972,-0.22146 -1.11598,-0.93042 -1.76949,-1.57549 -1.92562,-1.90079 -3.52096,-2.95895 -5.61901,-3.72692 -1.92493,-0.70461 -3.18161,-0.92855 -5.67886,-1.01194 -2.24125,-0.075 -2.30572,-0.0693 -3.02407,0.25957 -0.90491,0.41427 -1.368,0.99776 -1.64262,2.0697 -0.18459,0.72052 -0.20432,2.45286 -0.16756,14.70684 0.0412,13.73268 0.0451,13.90753 0.34002,15.42843 0.16408,0.84606 0.32919,1.67377 0.3669,1.8393 l 0.0685,0.30097 h -5.5013 c -5.18947,0 -5.49549,-0.0131 -5.39821,-0.23409 0.0567,-0.12871 0.25877,-0.65544 0.44905,-1.17046 l 0.34594,-0.93637 V 189.3308 c 0,-13.93958 -0.0129,-14.75666 -0.24752,-15.517 -0.50858,-1.64904 -1.52283,-2.14745 -4.28368,-2.10509 -5.07462,0.0779 -9.50077,2.21805 -12.92249,6.24839 -1.08767,1.28114 -1.23674,1.59244 -1.61374,3.36968 -0.35847,1.68988 -1.31612,3.69897 -2.26963,4.76148 -1.59305,1.77521 -3.40866,2.80925 -7.34776,4.18481 l -2.75049,0.96047 0.0391,0.3863 c 0.14073,1.39016 0.90657,3.46992 1.75806,4.77427 1.1887,1.82091 2.74042,3.07601 4.59836,3.71935 2.45007,0.84837 4.84555,0.58322 7.84692,-0.86859 0.9434,-0.45635 1.65125,-0.60805 1.78794,-0.38315 0.0336,0.0551 0.0125,0.80266 -0.0469,1.66103 -0.0921,1.33318 -0.16721,1.68423 -0.51496,2.40782 -0.22392,0.46591 -0.58732,1.06362 -0.80757,1.32825 -0.79265,0.95236 -3.57698,2.01637 -5.90036,2.25477 -0.75068,0.077 -1.40364,0.13215 -1.45102,0.12232 -0.0474,-0.0101 -0.58806,-0.0703 -1.20151,-0.13445 z m -50.012699,-1.67718 c 2.354701,-0.69903 4.291715,-2.53905 5.748774,-5.4609 1.582232,-3.17284 2.64064,-7.59617 2.64064,-11.03581 0,-3.33175 -0.910981,-7.27766 -2.448413,-10.60522 -1.846091,-3.9956 -4.6607,-6.11569 -8.119202,-6.11569 -3.145277,0 -5.439581,1.57024 -7.534813,5.15687 -0.977094,1.67262 -1.734922,4.05471 -2.593773,8.15299 -0.474273,2.26316 -0.503939,2.54442 -0.493872,4.68187 0.0212,4.50026 0.906921,7.02858 3.686141,10.52238 2.0162,2.53459 4.470202,4.51913 6.083891,4.92002 0.647423,0.16085 2.111928,0.0562 3.030627,-0.21651 z m 248.836119,0.0863 c 4.7382,-0.44345 7.3581,-2.2435 9.53395,-6.55042 0.70985,-1.40512 1.52789,-3.9233 1.84868,-5.69067 0.5361,-2.95382 0.2389,-7.5077 -0.70184,-10.75403 -1.4263,-4.92181 -4.78054,-8.26688 -9.61534,-9.5891 -1.22976,-0.33631 -1.53496,-0.36533 -3.94145,-0.37489 -2.96428,-0.0115 -3.55197,0.11657 -4.26856,0.93282 -0.89316,1.01725 -0.85954,0.46607 -0.91647,15.01157 -0.0345,8.80212 -0.005,13.5314 0.0912,14.3131 0.20275,1.65927 0.64651,2.17017 2.2477,2.58773 1.06423,0.27753 3.46354,0.32528 5.72217,0.11394 z m -82.06625,-9.6154 c 0,-0.24846 -3.39373,-10.14075 -3.90218,-11.37433 -0.2898,-0.70308 -0.75306,-1.94773 -1.02948,-2.76585 -0.60522,-1.79116 -1.17085,-2.71389 -2.07933,-3.39195 -0.67263,-0.50204 -1.80456,-1.13195 -1.88517,-1.04908 -0.1274,0.13101 -7.41383,15.1458 -7.37087,15.18875 0.13461,0.13461 4.9481,1.58689 6.97496,2.10444 3.65224,0.93261 9.29207,1.71436 9.29207,1.28802 z m -206.880652,-6.2133 c 3.263616,-0.85943 6.124385,-2.96287 7.302464,-5.36929 0.555633,-1.13497 0.800004,-2.21781 0.800004,-3.54484 0,-2.20294 -0.698099,-3.92937 -2.196071,-5.43097 -1.417615,-1.42105 -3.238108,-2.19139 -6.097501,-2.58012 -1.934357,-0.26293 -6.22944,-0.44208 -6.815638,-0.28422 -0.672087,0.18096 -1.398664,0.80206 -1.786795,1.52739 -0.290289,0.54251 -0.293095,0.61109 -0.293095,7.16922 v 6.62149 l 0.314671,0.63902 c 0.173068,0.35147 0.523437,0.79826 0.7786,0.99287 0.795952,0.60712 1.462696,0.71182 4.190538,0.65801 2.141577,-0.0421 2.653476,-0.0958 3.802823,-0.39856 z m 79.636882,0.10526 c 2.67794,-0.46699 4.83756,-1.4751 6.54241,-3.05396 2.92797,-2.7116 3.59634,-6.5911 1.68174,-9.76154 -1.98673,-3.28993 -6.27449,-4.9849 -11.87167,-4.69293 -2.12907,0.111 -2.8461,0.31638 -3.45385,0.98912 -0.86629,0.95884 -0.893568,1.2022 -0.893568,7.9712 0,6.54458 0.02776,6.8392 0.731358,7.76165 0.40323,0.52867 0.9188,0.82861 1.7201,1.00063 0.75803,0.16263 4.129,0.0324 5.54348,-0.21417 z m 180.75399,-0.74565 0.94201,-0.4212 -0.0379,-7.03633 -0.0379,-7.0363 -0.37343,-0.63526 c -0.64018,-1.08911 -2.0588,-1.99703 -3.99868,-2.55918 -4.91308,-1.42376 -11.59234,-0.30544 -14.32881,2.39908 -1.01793,1.00603 -1.30885,1.80503 -1.0256,2.81673 0.2345,0.83748 1.01717,1.65551 2.71472,2.83732 2.09039,1.45529 14.98496,10.03022 15.10444,10.0445 0.0544,0.007 0.52304,-0.17769 1.04116,-0.40936 z m -14.1282,-25.99336 c 1.03954,-1.36294 1.46722,-3.32502 1.10706,-5.07898 -0.11985,-0.58381 -0.38122,-1.39517 -0.58076,-1.80301 l -0.36279,-0.74152 -0.19098,0.46533 c -0.52209,1.27186 -0.86077,3.03606 -0.92831,4.83547 -0.0377,1.00568 -0.0274,2.10437 0.0233,2.44154 0.0801,0.53501 0.12232,0.59677 0.33047,0.48533 0.13116,-0.0701 0.40209,-0.34207 0.60201,-0.60416 z m -253.535472,-0.0232 c 0.944831,-2.20418 0.813966,-6.41334 -0.288465,-9.27822 -0.212332,-0.55178 -0.531452,-1.18384 -0.709153,-1.40455 l -0.323091,-0.40129 -0.112227,0.53507 c -0.06171,0.29425 -0.111917,1.91954 -0.111556,3.61171 5.23e-4,2.4286 0.05126,3.32667 0.24094,4.26369 0.250059,1.23534 0.857385,3.29415 0.971735,3.29415 0.03621,0 0.18552,-0.27925 0.331817,-0.62056 z m 84.932492,-1.2935 c -0.002,-1.83564 -0.251,-3.42533 -0.76892,-4.90587 -0.2466,-0.70493 -0.26311,-0.72135 -0.4235,-0.42166 -0.34564,0.64581 -0.68415,1.83732 -0.76298,2.68562 -0.13273,1.42811 0.42878,3.17377 1.32394,4.11603 0.22445,0.23624 0.45874,0.39822 0.52065,0.35996 0.0619,-0.0382 0.11179,-0.8636 0.11081,-1.83408 z m 61.9971,0.70324 c 0.46153,-1.46109 0.46207,-2.80394 0.002,-4.26139 -0.1862,-0.58943 -0.39374,-1.10582 -0.46123,-1.14752 -0.0675,-0.0416 -0.28089,0.42241 -0.47425,1.03135 -0.42539,1.33953 -0.47369,2.75567 -0.13379,3.92456 0.22546,0.7755 0.55576,1.53007 0.66981,1.53007 0.0317,0 0.21074,-0.48469 0.39787,-1.07707 z m 3.98677,-1.32155 c 0.37992,-1.79375 0.37296,-5.20284 -0.0164,-7.36641 -0.33391,-1.86189 -0.8298,-3.56642 -0.96569,-3.31934 -0.0533,0.0967 -0.17098,1.06768 -0.26178,2.15772 -0.27293,3.27708 -0.0662,9.58006 0.34957,10.6591 0.13575,0.35206 0.60349,-0.76447 0.89293,-2.13107 z m -136.612034,1.62943 c -4.01e-4,-0.27588 -0.0397,-1.00135 -0.08724,-1.61216 l -0.08644,-1.11053 -0.413825,0.0405 c -0.37971,0.0371 -0.423349,0.0929 -0.529382,0.67691 -0.06357,0.35009 -0.07865,0.83322 -0.03357,1.07363 0.08232,0.43877 0.795096,1.43336 1.027225,1.43336 0.06822,0 0.123656,-0.22572 0.123228,-0.50162 z m 118.335114,0.0481 c 0.0392,-0.0335 0.72874,-5.92601 0.91769,-7.84285 0.61938,-6.2831 0.46763,-12.34276 -0.42157,-16.83371 l -0.22153,-1.11884 -0.23985,0.31626 c -0.42591,0.56161 -1.68207,3.22824 -2.0394,4.32927 -1.09553,3.37585 -1.09359,3.88655 0.0549,14.37999 0.55172,5.04091 0.63986,5.61412 0.99333,6.46011 0.18689,0.44732 0.24695,0.49042 0.57402,0.41199 0.20089,-0.0482 0.37296,-0.0941 0.3824,-0.10216 z m 102.46431,-0.13167 c 0.0596,-0.0638 3.50915,-22.08613 3.46628,-22.12897 -0.0298,-0.0298 -0.30522,0.0293 -0.61204,0.13182 -0.54798,0.18265 -0.5797,0.22861 -1.79662,2.60249 -2.21718,4.32525 -2.27895,4.65749 -2.27203,12.22139 0.005,5.1615 0.0281,5.75286 0.2519,6.42082 0.32363,0.96512 0.32088,0.96153 0.6571,0.85831 0.15938,-0.0491 0.29677,-0.0965 0.30541,-0.10592 z M 43.535359,160.53849 c 0.0541,-0.86447 0.06038,-2.26399 0.01394,-3.11008 -0.09228,-1.68108 -0.467398,-5.2978 -0.582719,-5.61823 -0.10034,-0.27877 -0.393083,0.86575 -0.637364,2.49187 -0.397,2.64275 -0.179057,5.38168 0.56011,7.03906 0.188671,0.42304 0.389074,0.76916 0.445339,0.76916 0.05625,0 0.146577,-0.70728 0.200688,-1.57178 z m 221.032221,1.07016 c 0.50689,-1.94195 1.33437,-6.73721 1.67931,-9.73156 0.59398,-5.15657 0.95785,-14.07303 0.77417,-18.97087 l -0.0994,-2.65123 -1.09865,0.55025 c -1.16848,0.58518 -1.74476,1.14233 -2.04987,1.98171 -0.33682,0.92672 -0.39353,28.18331 -0.0607,29.1561 0.0315,0.0919 0.20727,0.16722 0.39067,0.16722 0.27288,0 0.35725,-0.0912 0.46441,-0.50162 z m -140.42361,-0.50163 c 0.0472,-0.44143 0.0923,-3.6372 0.10027,-7.1017 0.0136,-5.89714 -0.003,-6.36665 -0.25438,-7.35722 -0.34754,-1.36762 -1.06419,-2.8426 -2.25394,-4.63903 -0.90211,-1.36213 -0.97423,-1.43586 -1.32249,-1.35231 -0.20259,0.0487 -0.38991,0.10658 -0.41626,0.12855 -0.0493,0.0413 3.15563,20.53066 3.27929,20.96479 0.0487,0.17087 0.17352,0.22976 0.42526,0.20065 0.33051,-0.0382 0.36262,-0.0995 0.4422,-0.8438 z m 198.70482,-1.06769 c 0.41919,-1.32664 0.80255,-3.60679 0.98558,-5.86206 0.26709,-3.29088 0.11937,-12.28431 -0.25321,-15.40939 -0.0614,-0.51502 -0.24488,-1.37279 -0.40779,-1.90619 -0.26037,-0.85263 -0.33501,-0.96981 -0.61755,-0.96981 -0.17678,0 -0.32141,0.0272 -0.32141,0.0604 0,0.0332 -0.0856,0.38902 -0.19023,0.79069 -0.14937,0.57351 -0.22551,3.04363 -0.35445,11.50205 l -0.16425,10.77169 0.31508,1.28986 c 0.36918,1.51133 0.4533,1.48904 1.00823,-0.26718 z M 57.202708,150.60442 c 0.02835,-10.42059 -0.03057,-12.07173 -0.472336,-13.24111 -0.117704,-0.31157 -0.141052,-0.28416 -0.341712,0.4013 -0.670973,2.29208 -0.944415,6.52964 -0.844964,13.09452 0.07683,5.07155 0.257425,7.43612 0.700568,9.17262 0.207692,0.81387 0.373687,1.03522 0.729604,0.97291 0.176043,-0.0308 0.204106,-1.30634 0.22884,-10.40024 z m 58.304902,9.39902 c 0.0551,-0.57018 0.0291,-2.78236 -0.0579,-4.91593 -0.0871,-2.13361 -0.15739,-7.85217 -0.15648,-12.70792 9.9e-4,-5.66792 -0.0478,-9.00675 -0.13651,-9.32611 -0.26942,-0.9701 -1.14978,-1.62089 -2.64807,-1.95754 l -0.55645,-0.12494 0.002,3.36342 c 0.005,7.40404 0.43137,14.37022 1.21348,19.81678 0.26869,1.87116 1.15762,6.59114 1.27801,6.78596 0.0351,0.0567 0.26569,0.10296 0.51257,0.10296 h 0.44889 l 0.10027,-1.0367 z m -28.096788,-0.44982 c 0.320081,-1.90238 0.452415,-3.63411 0.613726,-8.03133 0.210166,-5.7289 -0.07403,-12.87862 -0.546101,-13.73925 -0.06948,-0.12674 -0.305948,0.12575 -0.775759,0.82817 -1.554612,2.32436 -2.572472,6.35351 -2.187941,8.66089 0.09102,0.5463 0.490788,3.03991 0.888327,5.54133 0.7342,4.61982 1.495989,8.18513 1.704371,7.97673 0.06304,-0.0631 0.199552,-0.61946 0.303377,-1.23654 z m 209.586788,1.25244 c 0.12148,-0.19991 -0.2063,-1.65189 -0.36058,-1.59713 -0.14641,0.052 -0.16281,1.15324 -0.0228,1.53023 0.0687,0.18493 0.28821,0.22323 0.38326,0.0669 z m -4.34673,-2.17375 c 0.22487,-0.99321 0.62532,-3.28064 0.88989,-5.08314 0.26456,-1.80251 0.66618,-4.18024 0.89246,-5.28381 0.72417,-3.53179 0.52153,-4.72654 -1.60745,-9.47786 l -1.07013,-2.3882 -0.1487,0.51547 c -0.49977,1.7317 -0.59575,3.35774 -0.59892,10.14668 -0.003,5.54994 0.0374,7.04124 0.23411,8.76157 0.30092,2.62983 0.75792,4.87254 0.95103,4.66716 0.0269,-0.0285 0.23287,-0.86464 0.45775,-1.85787 z m -280.742713,0.62923 c -0.171688,-0.17169 -0.345797,-0.039 -0.218687,0.16666 0.04923,0.0797 0.150803,0.1069 0.2257,0.0607 0.09137,-0.0564 0.08906,-0.13132 -0.007,-0.22735 z m 188.183483,-1.79968 c -0.0575,-0.34947 -0.10821,-0.71063 -0.11264,-0.80262 -0.005,-0.0919 -0.12821,-0.1672 -0.2755,-0.1672 -0.28971,0 -0.3472,0.37088 -0.18394,1.18718 0.0635,0.31732 0.15494,0.41804 0.38011,0.41804 0.2792,0 0.29039,-0.0371 0.19188,-0.6354 z m -80.17336,-2.876 c -0.18013,-4.81099 -0.54811,-8.05892 -1.2148,-10.7225 -0.38806,-1.55035 -0.85271,-3.03856 -0.99884,-3.19907 -0.24082,-0.26453 -0.46818,1.79493 -0.45518,4.12312 0.02,3.56033 0.58468,7.19401 1.54739,9.95514 0.36886,1.05793 0.94285,2.15082 1.12962,2.15082 0.043,0 0.0393,-1.03839 -0.008,-2.30751 z m 140.23541,0.78824 c 0.89983,-2.55916 1.38728,-5.113 1.61215,-8.44642 0.17328,-2.56851 0.1809,-6.48772 0.0131,-6.48772 -0.1912,0 -0.87534,1.52543 -1.25985,2.8091 -0.90211,3.0118 -1.34381,6.52759 -1.25202,9.96569 0.054,2.0183 0.25059,3.57861 0.4274,3.39016 0.0238,-0.0252 0.23062,-0.57915 0.45975,-1.23081 z M 15.238465,151.60953 c 0.132918,-0.16018 0.132666,-0.24145 -0.0013,-0.40278 -0.148686,-0.17915 -0.18687,-0.176 -0.335916,0.0278 -0.167949,0.22969 -0.127358,0.5756 0.06755,0.5756 0.05668,0 0.178014,-0.0902 0.269602,-0.20065 z"
       id="path194" /></g></svg>
