<?xml version="1.0" encoding="UTF-8" standalone="no"?>
<!-- Created with Inkscape (http://www.inkscape.org/) -->

<svg
   width="602.03656mm"
   height="19.638315mm"
   viewBox="0 0 602.03657 19.638315"
   version="1.1"
   id="svg4033"
   xml:space="preserve"
   sodipodi:docname="waves.svg"
   inkscape:export-filename="../../../../Desktop/waves.png"
   inkscape:export-xdpi="300"
   inkscape:export-ydpi="300"
   inkscape:version="1.3 (0e150ed, 2023-07-21)"
   xmlns:inkscape="http://www.inkscape.org/namespaces/inkscape"
   xmlns:sodipodi="http://sodipodi.sourceforge.net/DTD/sodipodi-0.dtd"
   xmlns:xlink="http://www.w3.org/1999/xlink"
   xmlns="http://www.w3.org/2000/svg"
   xmlns:svg="http://www.w3.org/2000/svg"><sodipodi:namedview
     id="namedview1"
     pagecolor="#ffffff"
     bordercolor="#000000"
     borderopacity="0.25"
     inkscape:showpageshadow="2"
     inkscape:pageopacity="0.0"
     inkscape:pagecheckerboard="0"
     inkscape:deskcolor="#d1d1d1"
     inkscape:document-units="mm"
     showgrid="false"
     inkscape:zoom="0.74346382"
     inkscape:cx="636.21119"
     inkscape:cy="153.33631"
     inkscape:window-width="1856"
     inkscape:window-height="1027"
     inkscape:window-x="0"
     inkscape:window-y="25"
     inkscape:window-maximized="0"
     inkscape:current-layer="svg4033" /><defs
     id="defs4030"><linearGradient
       id="linearGradient1"
       inkscape:collect="always"><stop
         style="stop-color:#45d4ff;stop-opacity:1;"
         offset="0"
         id="stop1" /><stop
         style="stop-color:#0202ff;stop-opacity:0;"
         offset="1"
         id="stop2" /></linearGradient><linearGradient
       inkscape:collect="always"
       xlink:href="#linearGradient1"
       id="linearGradient2"
       x1="162.23701"
       y1="135.18536"
       x2="162.23701"
       y2="149.20811"
       gradientUnits="userSpaceOnUse"
       gradientTransform="matrix(1,0,0,1.4845694,-32.837373,-202.82818)" /></defs><path
     id="path4529"
     style="fill:url(#linearGradient2);fill-opacity:1;stroke-width:0.0846668"
     d="m 310.49349,0.50616221 c 1.42425,11.23002479 -5.91583,-5.77749821 -6.03271,4.81707129 -1.49525,-2.2325994 -2.58814,-3.1076342 -3.31711,-3.1622811 -0.0342,-0.00594 -0.0718,-0.00446 -0.108,-0.00594 -0.038,0.00148 -0.0774,1.49e-5 -0.11317,0.00594 -0.72898,0.05582 -1.82138,0.9320422 -3.31556,3.1630531 -0.11688,-10.5945549 -7.45696,6.4129385 -6.03271,-4.81707131 -6.05622,10.82028381 -4.45097,-5.81724039 -9.20151,4.51326911 -2.8382,-4.2897672 -1.22214,-4.96926943 -6.52518,0.1312358 0.73816,-10.7955061 -7.19816,7.0306229 -5.46427,-4.60226892 -6.28458,10.92282282 -4.24654,-6.32735328 -9.51776,4.66824312 -0.57525,-10.4592809 -6.62942,5.9481197 -6.70812,-4.0284234 -5.07435,8.1960102 -4.56126,-4.644401 -9.97045,4.0314965 0.94839,-11.5107121 -7.42206,7.5479816 -5.53196,-4.70967748 -5.78965,10.76152408 -4.60611,-5.52574522 -8.8961,4.29769458 -0.78035,-2.9566089 -2.99466,-3.4719771 -4.66948,-2.0360719 -0.49524,-1.1476909 -1.86607,-0.9505846 -4.21163,2.5516184 -0.11688,-10.5945551 -7.45696,6.412939 -6.03271,-4.81707128 -6.05624,10.82028428 -4.45095,-5.81724072 -9.2015,4.51326898 -2.83821,-4.28976707 -1.22163,-4.96926929 -6.52467,0.1312359 0.73816,-10.7955064 -7.19868,7.0306224 -5.46478,-4.60226887 -6.28457,10.92282227 -4.24656,-6.32735313 -9.51777,4.66824317 -0.57525,-10.4592807 -6.62942,5.9481211 -6.70812,-4.0284235 -5.07435,8.1960105 -4.56128,-4.644401 -9.97045,4.0314966 0.94839,-11.5107126 -7.42206,7.547981 -5.53196,-4.70967755 -5.78966,10.76152455 -4.60613,-5.52574525 -8.8961,4.29769465 -0.78038,-2.9566386 -2.99467,-3.4720365 -4.66948,-2.036072 -0.49525,-1.1476909 -1.86555,-0.9505846 -4.21111,2.5516185 -0.11688,-10.5945549 -7.45747,6.4129384 -6.03322,-4.81707134 -6.05623,10.82028374 -4.45095,-5.81724046 -9.20151,4.51326894 -2.83819,-4.28976702 -1.22165,-4.96926926 -6.52467,0.131236 0.73816,-10.7955062 -7.19816,7.0306238 -5.46426,-4.60226893 -6.28457,10.92282273 -4.24656,-6.32735347 -9.51777,4.66824313 -0.57525,-10.459281 -6.62993,5.9481206 -6.70863,-4.0284234 -5.074333,8.19601 -4.561263,-4.6444009 -9.970443,4.0314965 0.94839,-11.5107123 -7.42206,7.5479805 -5.53196,-4.70967751 C 79.406987,11.272422 80.591037,-5.0148472 76.301067,4.8085926 75.489697,1.7344801 73.127667,1.2991895 71.434187,2.9528068 71.005537,1.6126414 69.617527,1.6478406 67.155376,5.3241391 67.038496,-5.2704161 59.697908,11.737078 61.122153,0.5070678 55.06625,11.326342 56.671129,-5.3107959 51.920647,5.0195648 49.082446,0.72979774 50.699014,0.0502955 45.395981,5.1508008 46.134148,-5.6447052 38.197819,12.181424 39.931715,0.54853182 33.647134,11.471355 35.685167,-5.7788362 30.41395,5.216775 29.838699,-5.2425206 23.783975,11.164894 23.705315,1.1883515 18.630966,9.3843623 19.144044,-3.4560346 13.734864,5.2198481 14.683259,-6.2908493 6.3133271,12.76783 8.2034191,0.51017056 2.4347391,11.232696 3.5822041,-4.8665684 -0.65288791,4.7334586 V 24.329938 H 602.46946 V 4.2660716 c -3.90354,-8.2568332 -2.96846,6.7211354 -8.60515,-3.7560792 1.89009,12.2576586 -6.47984,-6.8010202 -5.53144,4.7096776 -5.40918,-8.6758827 -4.89611,4.1645136 -9.97046,-4.0314967 -0.0787,9.9765437 -6.13338,-6.4308724 -6.70863,4.0284236 -5.27122,-10.9956116 -3.23317,6.2545801 -9.51776,-4.66824322 1.7339,11.63289232 -6.20244,-6.19323748 -5.46427,4.60226892 -5.30304,-5.10040132 -3.68646,-4.42089908 -6.52466,-0.1312359 -4.75055,-10.3305244 -3.14527,6.3070293 -9.20151,-4.51326902 1.42425,11.23002432 -5.91634,-5.77749848 -6.03323,4.81707122 -2.46214,-3.6762985 -3.85015,-3.7114975 -4.27881,-2.3713322 -1.69348,-1.6536173 -4.05551,-1.2183267 -4.86689,1.8558007 -4.28997,-9.8234399 -3.10592,6.4638146 -8.89558,-4.29770954 1.89009,12.25765914 -6.48035,-6.80101986 -5.53196,4.70967764 -5.40918,-8.6758828 -4.89611,4.164514 -9.97045,-4.0314967 -0.0787,9.9765432 -6.13339,-6.4308721 -6.70864,4.0284236 -5.27121,-10.9956113 -3.23319,6.2545806 -9.51775,-4.66824326 1.73389,11.63289286 -6.20243,-6.19323714 -5.46428,4.60226896 -5.30302,-5.10040136 -3.68647,-4.42089913 -6.52466,-0.131236 -4.75055,-10.330524 -3.14527,6.3070299 -9.20151,-4.51326896 1.42425,11.23002486 -5.91634,-5.77749824 -6.03321,4.81707136 -2.34556,-3.5022031 -3.71587,-3.6992946 -4.21112,-2.5516037 -1.67482,-1.4359645 -3.88911,-0.9205814 -4.66949,2.036072 -4.28996,-9.8234399 -3.10644,6.4638152 -8.89609,-4.29770947 1.8901,12.25765867 -6.48035,-6.80102013 -5.53197,4.70967747 -5.40917,-8.6758826 -4.8961,4.1645139 -9.97045,-4.0314965 -0.0787,9.9765437 -6.13287,-6.4308724 -6.70812,4.0284235 -5.27121,-10.9956115 -3.23319,6.2545792 -9.51776,-4.6682432 1.7339,11.6328924 -6.20294,-6.1932373 -5.46478,4.6022689 -5.30303,-5.10040129 -3.68646,-4.42089906 -6.52467,-0.1312359 -4.75055,-10.3305243 -3.14527,6.3070294 -9.20151,-4.513269 1.42425,11.2300244 -5.91582,-5.7774984 -6.0327,4.8170713 -2.34556,-3.502203 -3.71639,-3.6992945 -4.21163,-2.5516036 -1.67482,-1.4359051 -3.88912,-0.9205517 -4.66948,2.036072 -4.28998,-9.82344 -3.10645,6.4638147 -8.8961,-4.2977095 1.8901,12.2576582 -6.48035,-6.8010198 -5.53196,4.7096775 -5.40918,-8.6758827 -4.89612,4.1645143 -9.97045,-4.0314965 -0.0787,9.9765432 -6.13287,-6.4308722 -6.70812,4.0284235 -5.27122,-10.9956112 -3.2332,6.2545797 -9.51777,-4.66824324 1.73388,11.63289294 -6.20242,-6.19323706 -5.46426,4.60226894 -5.30302,-5.10040133 -3.68699,-4.4208991 -6.52519,-0.131236 -4.75053,-10.3305245 -3.14528,6.30703 -9.2015,-4.51326893 z" /><rect
     style="display:none;fill:#00aaff;stroke:#ffffff;stroke-width:0.600002;stroke-linecap:round;paint-order:markers stroke fill"
     id="rect1"
     width="601.43658"
     height="15.123639"
     x="0.300001"
     y="0.300001" /></svg>
