<?xml version="1.0" encoding="UTF-8" standalone="no"?>
<!-- Created with Inkscape (http://www.inkscape.org/) -->

<svg
   width="162.48862mm"
   height="25.658995mm"
   viewBox="0 0 162.48863 25.658995"
   version="1.1"
   id="svg1"
   xml:space="preserve"
   inkscape:version="1.3 (0e150ed, 2023-07-21)"
   sodipodi:docname="sposors.svg"
   inkscape:export-filename="../../repos/bridgetownbluegrass.com/public/images/sponsors/audix.svg"
   inkscape:export-xdpi="300"
   inkscape:export-ydpi="300"
   xmlns:inkscape="http://www.inkscape.org/namespaces/inkscape"
   xmlns:sodipodi="http://sodipodi.sourceforge.net/DTD/sodipodi-0.dtd"
   xmlns="http://www.w3.org/2000/svg"
   xmlns:svg="http://www.w3.org/2000/svg"><sodipodi:namedview
     id="namedview1"
     pagecolor="#ffffff"
     bordercolor="#000000"
     borderopacity="0.25"
     inkscape:showpageshadow="2"
     inkscape:pageopacity="0.0"
     inkscape:pagecheckerboard="0"
     inkscape:deskcolor="#d1d1d1"
     inkscape:document-units="mm"
     inkscape:zoom="0.36285714"
     inkscape:cx="749.6063"
     inkscape:cy="1343.5039"
     inkscape:window-width="1680"
     inkscape:window-height="968"
     inkscape:window-x="2120"
     inkscape:window-y="25"
     inkscape:window-maximized="0"
     inkscape:current-layer="layer1" /><defs
     id="defs1" /><g
     inkscape:label="Layer 1"
     inkscape:groupmode="layer"
     id="layer1"
     transform="translate(-212.32068,-377.13418)"><path
       style="fill:#8a8a8a;fill-opacity:1;stroke-width:0.999998"
       d="m 259.65013,402.05126 c -2.89559,-0.94777 -4.75253,-2.51137 -5.88344,-4.95394 -0.69254,-1.49579 -0.79461,-2.87166 -0.80286,-10.8179 l -0.0103,-9.10411 h 2.32642 2.32643 l 0.13707,9.33861 c 0.15686,10.69625 0.2692,11.07916 3.70776,12.64473 1.57934,0.7191 2.85314,0.91301 6.06895,0.92389 4.74162,0.0151 6.87316,-0.77943 8.4559,-3.15569 0.93148,-1.39849 0.96963,-1.8156 0.96963,-10.60366 v -9.14788 h 2.57059 2.57058 l -0.003,8.46147 c -9.4e-4,4.77977 -0.20595,9.20719 -0.4706,10.17526 -0.7064,2.58602 -2.36955,4.47139 -5.05088,5.72581 -2.18405,1.02181 -2.94698,1.13354 -8.4003,1.23034 -4.96011,0.0881 -6.43328,-0.0354 -8.51358,-0.71693 z m -47.32518,0.0304 c 0.0783,-0.20393 3.80165,-5.89134 8.27354,-12.6387 l 8.13068,-12.26791 h 2.80901 c 2.71587,0 2.83609,0.0455 3.62631,1.39237 0.44932,0.7658 3.81685,5.92305 7.48295,11.46053 3.66617,5.53743 7.00748,10.59829 7.42515,11.2463 l 0.75943,1.17817 h -2.54213 -2.54215 l -2.43299,-3.85587 -2.43295,-3.85588 -9.49431,0.002 -9.49426,0.002 -2.45808,3.85426 -2.45815,3.8543 h -2.39741 c -1.31859,0 -2.33317,-0.16698 -2.25464,-0.3709 z m 26.49127,-10.14728 c 0,-0.2773 -7.30122,-11.76036 -7.4776,-11.76036 -0.10068,0 -6.30932,9.79923 -7.26119,11.46055 -0.24037,0.4195 1.31969,0.53553 7.216,0.53553 4.13757,0 7.52279,-0.10626 7.52279,-0.23582 z m 50.1264,-2.12067 v -12.63866 l 9.31837,0.005 c 6.47518,0.005 10.21179,0.19684 12.24659,0.62788 12.33682,2.61389 17.09797,12.44809 9.44284,19.50434 -4.38607,4.04295 -9.03649,5.13771 -21.82458,5.13771 h -9.18322 z m 16.70879,9.6487 c 8.79226,-0.85838 12.85291,-3.89804 12.85291,-9.62118 0,-2.85739 -0.66526,-4.32129 -2.82591,-6.21837 -3.21678,-2.82435 -7.88532,-3.87723 -17.19198,-3.87723 h -4.83108 v 10.06808 10.06813 l 3.96299,-0.0103 c 2.17962,-0.005 5.79449,-0.18976 8.03307,-0.40836 z m 23.13525,-9.6487 v -12.63866 h 2.35632 2.35639 v 12.63866 12.63871 h -2.35639 -2.35632 z m 11.99601,11.72242 c 5.18022,-4.29374 13.70409,-11.71241 13.68121,-11.90732 -0.0151,-0.13413 -3.19284,-2.94261 -7.06029,-6.24156 l -7.03176,-5.998 2.80244,-0.12753 2.80239,-0.12754 4.91947,4.41159 c 7.33391,6.57673 5.93905,6.50837 12.5114,0.61299 l 5.60144,-5.02452 2.81196,0.12694 2.8119,0.12754 -7.05949,5.99801 c -3.8827,3.29894 -7.06474,6.12193 -7.07117,6.27332 -0.0103,0.22266 11.59494,10.30095 14.0967,12.24266 0.54712,0.42455 0.1133,0.52216 -2.32658,0.52313 l -2.99898,9.4e-4 -5.7838,-5.12164 c -3.18109,-2.81687 -5.92362,-5.0766 -6.09456,-5.02165 -0.17102,0.0552 -2.90531,2.36529 -6.0766,5.13404 l -5.76584,5.03403 -2.92044,-0.0151 -2.92045,-0.0151 z"
       id="path2"
       sodipodi:nodetypes="csscccsscsscccscssccsscsssscccccccccsssssssssccccsscccssscccccccccccccccccscccsscccscsscssscccc" /></g></svg>
