<?xml version="1.0" encoding="UTF-8" standalone="no"?>
<!-- Created with Inkscape (http://www.inkscape.org/) -->

<svg
   width="101.50219mm"
   height="101.52781mm"
   viewBox="0 0 101.50219 101.52781"
   version="1.1"
   id="svg1"
   xml:space="preserve"
   inkscape:version="1.3 (0e150ed, 2023-07-21)"
   sodipodi:docname="sposors.svg"
   inkscape:export-filename="../../repos/bridgetownbluegrass.com/public/images/sponsors/breakside.svg"
   inkscape:export-xdpi="300"
   inkscape:export-ydpi="300"
   xmlns:inkscape="http://www.inkscape.org/namespaces/inkscape"
   xmlns:sodipodi="http://sodipodi.sourceforge.net/DTD/sodipodi-0.dtd"
   xmlns="http://www.w3.org/2000/svg"
   xmlns:svg="http://www.w3.org/2000/svg"><sodipodi:namedview
     id="namedview1"
     pagecolor="#ffffff"
     bordercolor="#000000"
     borderopacity="0.25"
     inkscape:showpageshadow="2"
     inkscape:pageopacity="0.0"
     inkscape:pagecheckerboard="0"
     inkscape:deskcolor="#d1d1d1"
     inkscape:document-units="mm"
     inkscape:zoom="0.36285714"
     inkscape:cx="749.6063"
     inkscape:cy="1343.5039"
     inkscape:window-width="1680"
     inkscape:window-height="968"
     inkscape:window-x="2120"
     inkscape:window-y="25"
     inkscape:window-maximized="0"
     inkscape:current-layer="layer1" /><defs
     id="defs1" /><g
     inkscape:label="Layer 1"
     inkscape:groupmode="layer"
     id="layer1"
     transform="translate(72.892327,-337.01795)"><path
       style="fill:#8a8a8a;fill-opacity:1"
       d="m -26.736049,438.51419 c -0.03036,-0.0304 -0.542465,-0.10648 -1.138018,-0.16917 -1.397307,-0.14707 -4.651721,-0.65688 -4.935159,-0.7731 -0.06985,-0.0286 -0.4318,-0.11951 -0.804333,-0.20193 -1.072607,-0.23731 -2.796683,-0.68975 -3.259667,-0.85543 -0.06985,-0.025 -0.45085,-0.14746 -0.846666,-0.27214 -0.9385,-0.29562 -2.571691,-0.87723 -3.022188,-1.07626 -0.195354,-0.0863 -0.380096,-0.15693 -0.410538,-0.15693 -0.03044,0 -0.194458,-0.0622 -0.364479,-0.13822 -0.722837,-0.32321 -1.020964,-0.45402 -1.621462,-0.71147 -1.536526,-0.65873 -4.948611,-2.49935 -6.265333,-3.37977 -0.06985,-0.0467 -0.48895,-0.32562 -0.931333,-0.61981 -5.14876,-3.42394 -9.852513,-7.99829 -13.452148,-13.08205 -0.471086,-0.66532 -0.856519,-1.2256 -0.856519,-1.24508 0,-0.0353 -0.36166,-0.60178 -0.486868,-0.7626 -0.506873,-0.65102 -2.984465,-5.17871 -2.984465,-5.45398 0,-0.0504 -0.03171,-0.0917 -0.07046,-0.0917 -0.03875,0 -0.111229,-0.12383 -0.161057,-0.27517 -0.13113,-0.39828 -0.478974,-1.19933 -0.542292,-1.24883 -0.02978,-0.0233 -0.102484,-0.20426 -0.161568,-0.40217 -0.05908,-0.19791 -0.134732,-0.35983 -0.168107,-0.35983 -0.03337,0 -0.08354,-0.1143 -0.111481,-0.254 -0.02794,-0.1397 -0.127953,-0.42336 -0.22225,-0.63036 -0.0943,-0.20699 -0.172744,-0.40702 -0.174324,-0.4445 -0.0016,-0.0375 -0.07649,-0.22054 -0.16646,-0.40681 -0.08997,-0.18627 -0.165115,-0.39582 -0.166982,-0.46567 -0.0019,-0.0698 -0.05365,-0.22329 -0.115078,-0.34099 -0.06143,-0.1177 -0.159261,-0.40294 -0.21741,-0.63387 -0.05815,-0.23094 -0.136019,-0.45849 -0.173041,-0.50568 -0.03702,-0.0472 -0.11629,-0.29534 -0.176149,-0.55146 -0.05986,-0.25611 -0.140369,-0.52281 -0.178909,-0.59266 -0.07621,-0.13813 -0.264797,-0.82543 -0.464624,-1.69334 -0.06969,-0.30268 -0.160239,-0.62653 -0.201219,-0.71966 -0.04098,-0.0931 -0.12095,-0.45509 -0.17771,-0.80434 -0.05676,-0.34925 -0.130184,-0.6731 -0.163163,-0.71966 -0.03298,-0.0466 -0.105929,-0.40852 -0.162113,-0.80434 -0.05618,-0.39581 -0.135059,-0.79586 -0.175278,-0.889 -0.07117,-0.1648 -0.201918,-1.04997 -0.487735,-3.302 l -0.139692,-1.10066 v -4.61434 -4.61433 l 0.139692,-1.10067 c 0.285817,-2.25202 0.416564,-3.13719 0.487735,-3.302 0.04022,-0.0931 0.119094,-0.49318 0.175278,-0.889 0.05618,-0.39581 0.129135,-0.75776 0.162113,-0.80433 0.03298,-0.0466 0.106402,-0.37042 0.163163,-0.71967 0.05676,-0.34925 0.13673,-0.7112 0.17771,-0.80433 0.04098,-0.0931 0.131529,-0.41698 0.201219,-0.71967 0.199827,-0.8679 0.388411,-1.5552 0.464624,-1.69333 0.03854,-0.0698 0.119049,-0.33655 0.178909,-0.59267 0.05986,-0.25611 0.139127,-0.50427 0.176149,-0.55145 0.03702,-0.0472 0.114891,-0.27474 0.173041,-0.50568 0.05815,-0.23093 0.155984,-0.51617 0.21741,-0.63387 0.06143,-0.1177 0.113211,-0.27115 0.115078,-0.341 0.0019,-0.0698 0.07701,-0.2794 0.166982,-0.46566 0.08997,-0.18627 0.16488,-0.36933 0.16646,-0.40681 0.0016,-0.0375 0.08003,-0.23751 0.174324,-0.44451 0.0943,-0.20699 0.19431,-0.49065 0.22225,-0.63035 0.02794,-0.1397 0.07811,-0.254 0.111481,-0.254 0.03338,0 0.109023,-0.16192 0.168107,-0.35983 0.05908,-0.19791 0.13179,-0.37889 0.161568,-0.40217 0.06332,-0.0495 0.411162,-0.85055 0.542292,-1.24883 0.04983,-0.15134 0.122303,-0.27517 0.161057,-0.27517 0.03875,0 0.07046,-0.0413 0.07046,-0.0917 0,-0.27527 2.477592,-4.80296 2.984465,-5.45399 0.125208,-0.16081 0.486868,-0.72729 0.486868,-0.76259 0,-0.0195 0.385433,-0.57976 0.856519,-1.24508 3.599635,-5.08376 8.303388,-9.65811 13.452148,-13.08205 0.442383,-0.29419 0.861483,-0.5731 0.931333,-0.61981 1.316722,-0.88042 4.728807,-2.72104 6.265333,-3.37977 0.600498,-0.25745 0.898625,-0.38826 1.621462,-0.71147 0.170021,-0.076 0.334037,-0.13822 0.364479,-0.13822 0.03044,0 0.215184,-0.0706 0.410538,-0.15693 0.450497,-0.19903 2.083688,-0.78065 3.022188,-1.07626 0.395816,-0.12468 0.776816,-0.24714 0.846666,-0.27214 0.462984,-0.16568 2.18706,-0.61813 3.259667,-0.85543 0.372533,-0.0824 0.734483,-0.17329 0.804333,-0.20193 0.231742,-0.095 3.24093,-0.58097 4.953,-0.79985 l 1.100667,-0.14071 h 4.614333 4.614333 l 1.100667,0.14071 c 1.71207,0.21888 4.721258,0.70483 4.953,0.79985 0.06985,0.0286 0.4318,0.11951 0.804333,0.20193 1.0726081,0.2373 2.7966841,0.68975 3.2596671,0.85543 0.06985,0.025 0.45085,0.14746 0.846667,0.27214 0.9384994,0.29561 2.5716908,0.87723 3.0221878,1.07626 0.1953534,0.0863 0.3800954,0.15693 0.4105377,0.15693 0.030442,0 0.1944576,0.0622 0.3644785,0.13822 0.7228374,0.32321 1.0209645,0.45402 1.6214622,0.71147 1.53652673,0.65873 4.9486117,2.49935 6.265333,3.37977 0.06985,0.0467 0.48895,0.32562 0.931334,0.61981 5.1487587,3.42394 9.8525117,7.99829 13.4521477,13.08205 0.471085,0.66532 0.856518,1.2256 0.856518,1.24508 0,0.0353 0.36166,0.60178 0.486868,0.76259 0.506873,0.65103 2.984465,5.17872 2.984465,5.45399 0,0.0504 0.03171,0.0917 0.07046,0.0917 0.03875,0 0.111229,0.12383 0.161056,0.27517 0.131131,0.39828 0.478974,1.19932 0.542292,1.24883 0.02978,0.0233 0.102484,0.20426 0.161568,0.40217 0.05908,0.19791 0.134733,0.35983 0.168107,0.35983 0.03337,0 0.08354,0.1143 0.111482,0.254 0.02794,0.1397 0.127952,0.42336 0.22225,0.63035 0.0943,0.207 0.172743,0.40703 0.174323,0.44451 0.0016,0.0375 0.07649,0.22054 0.16646,0.40681 0.08997,0.18626 0.165116,0.39581 0.166983,0.46566 0.0019,0.0698 0.05365,0.2233 0.115077,0.341 0.06143,0.1177 0.159261,0.40294 0.217411,0.63387 0.05815,0.23094 0.136018,0.45849 0.17304,0.50568 0.03702,0.0472 0.11629,0.29534 0.17615,0.55145 0.05986,0.25612 0.140368,0.52282 0.178908,0.59267 0.07621,0.13813 0.264797,0.82543 0.464625,1.69333 0.06969,0.30269 0.160238,0.62654 0.201218,0.71967 0.04098,0.0931 0.12095,0.45508 0.177711,0.80433 0.05676,0.34925 0.130184,0.6731 0.163162,0.71967 0.03298,0.0466 0.105929,0.40852 0.162113,0.80433 0.05618,0.39582 0.135059,0.79587 0.175278,0.889 0.07117,0.16481 0.201919,1.04998 0.487736,3.302 l 0.139691,1.10067 v 4.61433 4.61434 l -0.139691,1.10066 c -0.285817,2.25203 -0.416565,3.1372 -0.487736,3.302 -0.04022,0.0931 -0.119094,0.49319 -0.175278,0.889 -0.05618,0.39582 -0.129135,0.75777 -0.162113,0.80434 -0.03298,0.0466 -0.106401,0.37041 -0.163162,0.71966 -0.05676,0.34925 -0.136731,0.7112 -0.177711,0.80434 -0.04098,0.0931 -0.131528,0.41698 -0.201218,0.71966 -0.199828,0.86791 -0.388412,1.55521 -0.464625,1.69334 -0.03854,0.0699 -0.119049,0.33655 -0.178908,0.59266 -0.05986,0.25612 -0.139127,0.50428 -0.17615,0.55146 -0.03702,0.0472 -0.11489,0.27474 -0.17304,0.50568 -0.05815,0.23093 -0.155985,0.51617 -0.217411,0.63387 -0.06142,0.1177 -0.11321,0.27114 -0.115077,0.34099 -0.0019,0.0698 -0.07701,0.2794 -0.166983,0.46567 -0.08997,0.18627 -0.16488,0.36933 -0.16646,0.40681 -0.0016,0.0375 -0.08003,0.23751 -0.174323,0.4445 -0.0943,0.207 -0.194311,0.49066 -0.22225,0.63036 -0.02794,0.1397 -0.07811,0.254 -0.111482,0.254 -0.03337,0 -0.109023,0.16192 -0.168107,0.35983 -0.05908,0.19791 -0.131789,0.37888 -0.161568,0.40217 -0.06332,0.0495 -0.411161,0.85055 -0.542292,1.24883 -0.04983,0.15134 -0.122303,0.27517 -0.161056,0.27517 -0.03875,0 -0.07046,0.0413 -0.07046,0.0917 0,0.27527 -2.477592,4.80296 -2.984465,5.45398 -0.125208,0.16082 -0.486868,0.7273 -0.486868,0.7626 0,0.0195 -0.385433,0.57976 -0.856518,1.24508 -3.599636,5.08376 -8.303389,9.65811 -13.4521477,13.08205 -0.442384,0.29419 -0.861484,0.5731 -0.931334,0.61981 -1.3167213,0.88042 -4.72880627,2.72104 -6.265333,3.37977 -0.6004977,0.25745 -0.8986248,0.38826 -1.6214622,0.71147 -0.1700209,0.076 -0.3340363,0.13822 -0.3644785,0.13822 -0.030442,0 -0.2151843,0.0706 -0.4105377,0.15693 -0.450497,0.19903 -2.0836884,0.78064 -3.0221878,1.07626 -0.395817,0.12468 -0.776817,0.24714 -0.846667,0.27214 -0.462983,0.16568 -2.187059,0.61812 -3.2596671,0.85543 -0.372533,0.0824 -0.734483,0.17329 -0.804333,0.20193 -0.22632,0.0928 -3.228715,0.57952 -4.910667,0.79608 l -1.058333,0.13626 -4.619315,0.0326 c -2.540623,0.0179 -4.644151,0.008 -4.674508,-0.0226 z m 7.711181,-2.31527 c 0.311653,-0.0442 1.137877,-0.12299 1.836053,-0.17516 0.698176,-0.0522 1.422076,-0.12995 1.608666,-0.17285 0.186591,-0.0429 0.720256,-0.13276 1.185923,-0.19968 1.182826,-0.17 2.431491,-0.3868 2.582333,-0.44837 0.118881,-0.0485 0.548165,-0.15283 1.9896671,-0.48343 0.325967,-0.0747 0.649817,-0.16046 0.719667,-0.19044 0.12991,-0.0558 0.747011,-0.23849 1.651,-0.48884 0.2794,-0.0774 0.628058,-0.19578 0.774795,-0.26313 0.146738,-0.0674 0.318188,-0.12375 0.381,-0.12533 0.06281,-0.002 0.266605,-0.0765 0.4528713,-0.16646 0.1862666,-0.09 0.3958166,-0.16511 0.4656666,-0.16698 0.06985,-0.002 0.2280919,-0.0561 0.3516487,-0.1206 0.1235567,-0.0645 0.3712067,-0.16445 0.5503333,-0.22218 0.1791266,-0.0577 0.3637847,-0.13344 0.4103513,-0.16824 0.046567,-0.0348 0.1799167,-0.0912 0.2963334,-0.12538 0.2052879,-0.0602 0.3850456,-0.13429 1.1853333,-0.48824 1.5654857,-0.69239 5.506383,-2.75901 5.969,-3.13017 0.160354,-0.12865 0.727261,-0.48887 0.769375,-0.48887 0.0232,0 0.248485,-0.1524 0.500625,-0.33867 0.2521403,-0.18627 0.4816553,-0.33867 0.5100343,-0.33867 0.05037,0 0.633558,-0.41697 0.717632,-0.5131 0.02328,-0.0266 0.232834,-0.17766 0.465667,-0.33565 0.232833,-0.15798 0.461433,-0.31731 0.508,-0.35407 0.04657,-0.0368 0.503767,-0.39729 1.016,-0.80119 0.512233,-0.40389 1.087514,-0.87069 1.278401,-1.03733 0.190888,-0.16665 0.551459,-0.47444 0.80127,-0.68399 0.6131627,-0.51434 3.8266857,-3.72866 4.3549957,-4.35607 0.232833,-0.27651 0.540624,-0.63824 0.683979,-0.80384 0.21382,-0.247 1.221847,-1.53021 1.766246,-2.24842 0.07059,-0.0931 0.300649,-0.39507 0.511231,-0.67097 0.210582,-0.2759 0.382877,-0.53035 0.382877,-0.56545 0,-0.0351 0.04855,-0.11417 0.107879,-0.1757 0.05933,-0.0615 0.229782,-0.30238 0.378774,-0.53522 0.148992,-0.23283 0.301184,-0.46143 0.338206,-0.508 0.03702,-0.0466 0.189421,-0.27516 0.338667,-0.508 0.149245,-0.23283 0.303052,-0.46143 0.341794,-0.508 0.03874,-0.0466 0.125244,-0.20849 0.192228,-0.35983 0.06698,-0.15134 0.143476,-0.27517 0.169984,-0.27517 0.02651,0 0.100518,-0.13335 0.164468,-0.29633 0.06395,-0.16298 0.13946,-0.29633 0.167801,-0.29633 0.02834,0 0.181838,-0.25718 0.341105,-0.5715 0.159267,-0.31433 0.311167,-0.59055 0.337554,-0.61384 0.140869,-0.12429 1.817366,-3.64153 1.908146,-4.00323 0.03176,-0.12656 0.09172,-0.2301 0.133239,-0.2301 0.04152,0 0.07549,-0.056 0.07549,-0.12449 0,-0.0685 0.09608,-0.33453 0.2135,-0.59125 0.117425,-0.25672 0.236487,-0.5817 0.264583,-0.72218 0.0281,-0.14047 0.07966,-0.25541 0.114584,-0.25541 0.03492,0 0.08636,-0.1143 0.114299,-0.254 0.02794,-0.1397 0.123638,-0.41592 0.212663,-0.61383 0.08902,-0.19791 0.190014,-0.49319 0.224421,-0.65617 0.03441,-0.16299 0.08957,-0.31539 0.122577,-0.33867 0.03301,-0.0233 0.121175,-0.27093 0.19592,-0.55033 0.178943,-0.6689 0.44435,-1.57633 0.507649,-1.73567 0.05024,-0.12648 0.201414,-0.73936 0.480313,-1.94733 0.08064,-0.34925 0.169319,-0.69215 0.197073,-0.762 0.06613,-0.16644 0.287046,-1.4228 0.446619,-2.54 0.06984,-0.48895 0.163378,-1.06045 0.207866,-1.27 0.04449,-0.20955 0.121396,-0.9525 0.170907,-1.651 0.04951,-0.6985 0.126547,-1.503 0.17119,-1.78776 0.04464,-0.28477 0.08117,-1.67103 0.08117,-3.08058 0,-1.40954 -0.03653,-2.7958 -0.08117,-3.08057 -0.04464,-0.28477 -0.121679,-1.08926 -0.17119,-1.78776 -0.04951,-0.6985 -0.126419,-1.44145 -0.170907,-1.651 -0.04449,-0.20955 -0.138027,-0.78105 -0.207866,-1.27 -0.159573,-1.1172 -0.380485,-2.37356 -0.446619,-2.54 -0.02775,-0.0699 -0.116438,-0.41275 -0.197073,-0.762 -0.278899,-1.20797 -0.430069,-1.82085 -0.480313,-1.94733 -0.0633,-0.15934 -0.328706,-1.06677 -0.507649,-1.73567 -0.07475,-0.2794 -0.162909,-0.52705 -0.19592,-0.55033 -0.03301,-0.0233 -0.08817,-0.17569 -0.122577,-0.33867 -0.03441,-0.16298 -0.135396,-0.45826 -0.224421,-0.65617 -0.08902,-0.19791 -0.184723,-0.47413 -0.212663,-0.61383 -0.02794,-0.1397 -0.07937,-0.254 -0.114299,-0.254 -0.03493,0 -0.08649,-0.11494 -0.114584,-0.25542 -0.0281,-0.14048 -0.147158,-0.46545 -0.264583,-0.72217 -0.117425,-0.25672 -0.2135,-0.52278 -0.2135,-0.59125 0,-0.0685 -0.03397,-0.12449 -0.07549,-0.12449 -0.04152,0 -0.101476,-0.10355 -0.133239,-0.2301 -0.09078,-0.3617 -1.767277,-3.87894 -1.908146,-4.00324 -0.02639,-0.0233 -0.178287,-0.2995 -0.337554,-0.61383 -0.159267,-0.31432 -0.312764,-0.5715 -0.341105,-0.5715 -0.02834,0 -0.103851,-0.13335 -0.167801,-0.29633 -0.06395,-0.16299 -0.13796,-0.29634 -0.164468,-0.29634 -0.02651,0 -0.103001,-0.12382 -0.169984,-0.27516 -0.06698,-0.15134 -0.153486,-0.31327 -0.192228,-0.35984 -0.03874,-0.0466 -0.192549,-0.27516 -0.341794,-0.508 -0.149246,-0.23283 -0.301646,-0.46143 -0.338667,-0.508 -0.03702,-0.0466 -0.189214,-0.27516 -0.338206,-0.508 -0.148992,-0.23283 -0.31944,-0.47367 -0.378774,-0.53521 -0.05933,-0.0615 -0.107879,-0.1406 -0.107879,-0.1757 0,-0.0351 -0.172295,-0.28956 -0.382877,-0.56545 -0.210582,-0.2759 -0.440636,-0.57784 -0.511231,-0.67097 -0.544399,-0.71821 -1.552426,-2.00142 -1.766246,-2.24842 -0.143355,-0.16561 -0.451146,-0.52733 -0.683979,-0.80384 -0.52831,-0.62741 -3.741833,-3.84173 -4.3549957,-4.35607 -0.249811,-0.20955 -0.610382,-0.51734 -0.80127,-0.68399 -0.190887,-0.16664 -0.766168,-0.63344 -1.278401,-1.03734 -0.512233,-0.40389 -0.969433,-0.76442 -1.016,-0.80118 -0.04657,-0.0368 -0.275167,-0.19609 -0.508,-0.35407 -0.232833,-0.15799 -0.442383,-0.30903 -0.465667,-0.33565 -0.08407,-0.0961 -0.667261,-0.5131 -0.717632,-0.5131 -0.02838,0 -0.257894,-0.1524 -0.5100343,-0.33867 -0.25214,-0.18627 -0.477421,-0.33867 -0.500625,-0.33867 -0.04211,0 -0.609021,-0.36022 -0.769375,-0.48887 -0.462617,-0.37116 -4.4035143,-2.43778 -5.969,-3.13017 -0.8002877,-0.35395 -0.9800454,-0.42799 -1.1853333,-0.48824 -0.1164167,-0.0342 -0.2497667,-0.0906 -0.2963334,-0.12538 -0.046567,-0.0348 -0.2312247,-0.11051 -0.4103513,-0.16824 -0.1791266,-0.0577 -0.4267766,-0.15771 -0.5503333,-0.22218 -0.1235568,-0.0645 -0.2817987,-0.11874 -0.3516487,-0.1206 -0.06985,-0.002 -0.2794,-0.077 -0.4656666,-0.16698 -0.1862663,-0.09 -0.3900583,-0.16489 -0.4528713,-0.16647 -0.06281,-0.002 -0.234262,-0.058 -0.381,-0.12532 -0.146737,-0.0674 -0.495395,-0.18576 -0.774795,-0.26313 -0.903989,-0.25035 -1.52109,-0.43306 -1.651,-0.48884 -0.06985,-0.03 -0.3937,-0.11569 -0.719667,-0.19044 -1.4273991,-0.32737 -1.8706161,-0.43475 -1.9896671,-0.48205 -0.167519,-0.0666 -1.429311,-0.28813 -2.54,-0.44601 -0.48895,-0.0695 -1.041665,-0.16126 -1.228256,-0.2039 -0.18659,-0.0426 -0.91049,-0.1202 -1.608666,-0.17237 -0.698176,-0.0522 -1.5244,-0.13099 -1.836053,-0.17516 -0.735528,-0.10425 -5.497188,-0.10425 -6.232715,0 -0.311654,0.0442 -1.137878,0.12299 -1.836053,0.17516 -0.698176,0.0522 -1.422076,0.12973 -1.608667,0.17237 -0.186591,0.0426 -0.739306,0.13439 -1.228256,0.2039 -1.110688,0.15788 -2.372481,0.37944 -2.54,0.44601 -0.11905,0.0473 -0.562268,0.15468 -1.989667,0.48205 -0.325966,0.0747 -0.649816,0.16046 -0.719666,0.19044 -0.129911,0.0558 -0.747012,0.23849 -1.651,0.48884 -0.2794,0.0774 -0.628058,0.19578 -0.774796,0.26313 -0.146737,0.0673 -0.318187,0.12374 -0.381,0.12532 -0.06281,0.002 -0.266604,0.0765 -0.452871,0.16647 -0.186267,0.09 -0.395817,0.16511 -0.465667,0.16698 -0.06985,0.002 -0.228091,0.0561 -0.351648,0.1206 -0.123557,0.0645 -0.371207,0.16445 -0.550334,0.22218 -0.179126,0.0577 -0.363784,0.13344 -0.410351,0.16824 -0.04657,0.0348 -0.179917,0.0912 -0.296333,0.12538 -0.205288,0.0602 -0.385046,0.13429 -1.185334,0.48824 -1.565485,0.69239 -5.506383,2.75901 -5.968999,3.13017 -0.160355,0.12865 -0.727261,0.48887 -0.769376,0.48887 -0.0232,0 -0.248485,0.1524 -0.500624,0.33867 -0.25214,0.18627 -0.481656,0.33867 -0.510034,0.33867 -0.05037,0 -0.633559,0.41697 -0.717633,0.5131 -0.02328,0.0266 -0.232833,0.17766 -0.465667,0.33565 -0.232833,0.15798 -0.461433,0.31731 -0.508,0.35407 -0.04657,0.0368 -0.503766,0.39729 -1.016,0.80118 -0.512233,0.4039 -1.087514,0.8707 -1.278401,1.03734 -0.190887,0.16665 -0.551459,0.47444 -0.801269,0.68399 -0.613164,0.51434 -3.826686,3.72866 -4.354996,4.35607 -0.232834,0.27651 -0.540624,0.63823 -0.68398,0.80384 -0.21382,0.247 -1.221847,1.53021 -1.766246,2.24842 -0.07059,0.0931 -0.300648,0.39507 -0.511231,0.67097 -0.210582,0.27589 -0.382877,0.53035 -0.382877,0.56545 0,0.0351 -0.04855,0.11417 -0.107879,0.1757 -0.05933,0.0615 -0.229782,0.30238 -0.378774,0.53521 -0.148991,0.23284 -0.301184,0.46144 -0.338205,0.508 -0.03702,0.0466 -0.189422,0.27517 -0.338667,0.508 -0.149245,0.23284 -0.303053,0.46144 -0.341794,0.508 -0.03874,0.0466 -0.125245,0.2085 -0.192228,0.35984 -0.06698,0.15134 -0.143477,0.27516 -0.169985,0.27516 -0.02651,0 -0.100518,0.13335 -0.164468,0.29634 -0.06395,0.16298 -0.13946,0.29633 -0.1678,0.29633 -0.02834,0 -0.181839,0.25718 -0.341106,0.5715 -0.159267,0.31433 -0.311166,0.59055 -0.337554,0.61383 -0.140869,0.1243 -1.817365,3.64154 -1.908146,4.00324 -0.03176,0.12655 -0.09172,0.2301 -0.133239,0.2301 -0.04152,0 -0.07549,0.056 -0.07549,0.12449 0,0.0685 -0.09607,0.33453 -0.2135,0.59125 -0.117425,0.25672 -0.236487,0.58169 -0.264583,0.72217 -0.0281,0.14048 -0.07966,0.25542 -0.114583,0.25542 -0.03493,0 -0.08636,0.1143 -0.1143,0.254 -0.02794,0.1397 -0.123638,0.41592 -0.212663,0.61383 -0.08903,0.19791 -0.190014,0.49319 -0.22442,0.65617 -0.03441,0.16298 -0.08957,0.31538 -0.122578,0.33867 -0.03301,0.0233 -0.121175,0.27093 -0.19592,0.55033 -0.178943,0.6689 -0.444349,1.57633 -0.507648,1.73567 -0.05025,0.12648 -0.201415,0.73936 -0.480313,1.94733 -0.08064,0.34925 -0.169319,0.69215 -0.197074,0.762 -0.06613,0.16644 -0.287046,1.4228 -0.446619,2.54 -0.06984,0.48895 -0.163378,1.06045 -0.207866,1.27 -0.04449,0.20955 -0.121396,0.9525 -0.170907,1.651 -0.04951,0.6985 -0.126546,1.50299 -0.17119,1.78776 -0.105428,0.67251 -0.105428,5.48864 0,6.16115 0.04464,0.28476 0.121679,1.08926 0.17119,1.78776 0.04951,0.6985 0.126419,1.44145 0.170907,1.651 0.04449,0.20955 0.138028,0.78105 0.207866,1.27 0.159573,1.1172 0.380485,2.37356 0.446619,2.54 0.02775,0.0699 0.116438,0.41275 0.197074,0.762 0.278898,1.20797 0.430068,1.82085 0.480313,1.94733 0.0633,0.15934 0.328705,1.06677 0.507648,1.73567 0.07474,0.2794 0.16291,0.52705 0.19592,0.55033 0.03301,0.0233 0.08817,0.17568 0.122578,0.33867 0.03441,0.16298 0.135395,0.45826 0.22442,0.65617 0.08902,0.19791 0.184723,0.47413 0.212663,0.61383 0.02794,0.1397 0.07937,0.254 0.1143,0.254 0.03493,0 0.08649,0.11494 0.114583,0.25541 0.0281,0.14048 0.147158,0.46546 0.264583,0.72218 0.117425,0.25672 0.2135,0.52278 0.2135,0.59125 0,0.0685 0.03397,0.12449 0.07549,0.12449 0.04152,0 0.101476,0.10354 0.133239,0.2301 0.09078,0.3617 1.767277,3.87894 1.908146,4.00323 0.02639,0.0233 0.178287,0.29951 0.337554,0.61384 0.159267,0.31432 0.312765,0.5715 0.341106,0.5715 0.02834,0 0.103851,0.13335 0.1678,0.29633 0.06395,0.16298 0.137961,0.29633 0.164468,0.29633 0.02651,0 0.103001,0.12383 0.169985,0.27517 0.06698,0.15134 0.153486,0.31327 0.192228,0.35983 0.03874,0.0466 0.192549,0.27517 0.341794,0.508 0.149245,0.23284 0.301645,0.46144 0.338667,0.508 0.03702,0.0466 0.189214,0.27517 0.338205,0.508 0.148992,0.23284 0.31944,0.47368 0.378774,0.53522 0.05933,0.0615 0.107879,0.1406 0.107879,0.1757 0,0.0351 0.172295,0.28955 0.382877,0.56545 0.210583,0.2759 0.440636,0.57783 0.511231,0.67097 0.544399,0.71821 1.552426,2.00142 1.766246,2.24842 0.143356,0.1656 0.451146,0.52733 0.68398,0.80384 0.52831,0.62741 3.741832,3.84173 4.354996,4.35607 0.24981,0.20955 0.610382,0.51734 0.801269,0.68399 0.190887,0.16664 0.766168,0.63344 1.278401,1.03733 0.512234,0.4039 0.969434,0.76443 1.016,0.80119 0.04657,0.0368 0.275167,0.19609 0.508,0.35407 0.232834,0.15799 0.442384,0.30903 0.465667,0.33565 0.08407,0.0961 0.667261,0.5131 0.717633,0.5131 0.02838,0 0.257894,0.1524 0.510034,0.33867 0.252139,0.18627 0.477421,0.33867 0.500624,0.33867 0.04212,0 0.609021,0.36022 0.769376,0.48887 0.462616,0.37116 4.403514,2.43778 5.968999,3.13017 0.20955,0.0927 0.520108,0.23071 0.690129,0.30673 0.170021,0.076 0.341471,0.13846 0.381,0.13875 0.03953,2.9e-4 0.172963,0.0533 0.29652,0.11773 0.123557,0.0645 0.365365,0.16365 0.537351,0.22041 0.171987,0.0568 0.413795,0.15595 0.537352,0.22042 0.123557,0.0645 0.281798,0.11873 0.351648,0.1206 0.06985,0.002 0.2794,0.077 0.465667,0.16698 0.186267,0.09 0.390059,0.16488 0.452871,0.16646 0.06281,0.002 0.234263,0.058 0.381,0.12533 0.146738,0.0674 0.495396,0.18576 0.774796,0.26313 0.903988,0.25035 1.521089,0.43306 1.651,0.48884 0.06985,0.03 0.3937,0.11569 0.719666,0.19044 1.427399,0.32737 1.870617,0.43475 1.989667,0.48205 0.167519,0.0666 1.429312,0.28813 2.54,0.44601 0.48895,0.0695 1.044488,0.16201 1.23453,0.20557 0.190041,0.0436 0.932991,0.12271 1.651,0.17588 0.718008,0.0532 1.49597,0.12671 1.728803,0.16342 0.61104,0.0964 5.620966,0.10158 6.291358,0.007 z m -7.346844,-4.08952 c -0.09095,-0.10477 -0.220608,-0.26619 -0.288126,-0.35871 l -0.12276,-0.16821 -0.155969,0.14115 c -0.08578,0.0776 -0.269208,0.1842 -0.407612,0.23683 l -0.251644,0.0957 -0.933535,-0.1012 c -1.666067,-0.18062 -2.091596,-0.62264 -1.904031,-1.97779 0.101184,-0.73106 0.263762,-1.05515 0.664047,-1.32373 0.168547,-0.11309 0.350779,-0.24728 0.404959,-0.29819 l 0.09851,-0.0926 -0.201298,-0.2462 -0.201297,-0.24621 -0.003,-0.56085 c -0.0054,-0.99622 0.294073,-1.54694 0.984651,-1.81067 l 0.382702,-0.14616 0.207785,0.0947 c 0.114281,0.0521 0.340566,0.0947 0.502853,0.0947 0.418847,0 0.809537,0.18542 1.088005,0.51636 l 0.240134,0.28538 -0.0506,0.7633 c -0.06472,0.97639 -0.09092,1.05088 -0.476886,1.35596 l -0.321342,0.254 0.08823,0.16933 c 0.343187,0.65863 0.638382,0.86833 0.901317,0.64029 0.239786,-0.20796 0.315614,-0.17162 0.704598,0.33771 0.373085,0.48851 0.396112,0.68669 0.102167,0.87929 l -0.215333,0.14109 0.257666,0.32533 c 0.314018,0.39648 0.316737,0.44639 0.03536,0.64893 -0.12227,0.088 -0.327795,0.24576 -0.456722,0.35053 -0.128928,0.10478 -0.295841,0.1905 -0.370918,0.1905 -0.07508,0 -0.210919,-0.0857 -0.301871,-0.1905 z m -1.297061,-1.59715 c 0.07722,-0.0772 -0.371634,-0.82573 -0.696796,-1.16197 -0.03709,-0.0384 -0.561933,0.33451 -0.695776,0.49429 -0.05851,0.0699 -0.09705,0.2413 -0.08563,0.381 l 0.02075,0.254 0.296334,0.0524 c 0.502581,0.0888 1.062133,0.0793 1.161119,-0.0197 z m 0.02421,-3.41922 v -0.27672 l -0.227467,-0.0435 c -0.457524,-0.0875 -0.650232,0.27716 -0.34893,0.6602 l 0.1632,0.20748 0.206599,-0.13537 c 0.149268,-0.0978 0.206598,-0.21216 0.206598,-0.4121 z m 12.679494,4.63537 c -0.122536,-0.13815 -0.191517,-0.46032 -0.53478,-2.49767 -0.07257,-0.43074 -0.155478,-0.84031 -0.184232,-0.91016 -0.02875,-0.0698 -0.119908,-0.48895 -0.202566,-0.93134 -0.08266,-0.44238 -0.195837,-1.04449 -0.251509,-1.33802 -0.128911,-0.67968 -0.131102,-0.67775 0.996552,-0.87559 0.504189,-0.0885 1.254966,-0.22041 1.668394,-0.29323 l 0.751687,-0.1324 0.112124,0.11312 c 0.06167,0.0622 0.137646,0.36444 0.168838,0.6716 l 0.05671,0.55848 -0.454858,0.0531 c -0.250172,0.0292 -0.753133,0.12013 -1.117691,0.20201 l -0.662833,0.14888 0.05221,0.38251 c 0.02871,0.21038 0.07154,0.48138 0.09518,0.60222 l 0.04297,0.21971 0.685344,-0.11835 c 0.376939,-0.0651 0.803834,-0.10682 0.948655,-0.0927 l 0.263312,0.0256 0.08467,0.42334 c 0.04657,0.23283 0.117542,0.47428 0.157723,0.53654 0.12248,0.1898 -0.03885,0.25717 -0.977366,0.40814 l -0.90032,0.14482 0.04626,0.30191 c 0.02544,0.16606 0.07906,0.36609 0.119149,0.44452 0.04009,0.0784 0.07289,0.22488 0.07289,0.32545 v 0.18284 l 0.4445,-0.06 c 0.244475,-0.033 0.507542,-0.0931 0.584594,-0.1336 0.07705,-0.0405 0.405049,-0.0982 0.728882,-0.1283 l 0.588788,-0.0547 0.04955,0.20155 c 0.02725,0.11085 0.0753,0.39899 0.106764,0.6403 l 0.05721,0.43876 -0.327646,0.0551 c -0.180205,0.0303 -0.537196,0.10575 -0.793313,0.16762 -0.256117,0.0619 -0.789517,0.15841 -1.185333,0.21454 -0.395817,0.0561 -0.755862,0.13568 -0.8001,0.17679 -0.128742,0.11963 -0.348338,0.0868 -0.490406,-0.0734 z m 8.1908391,-2.4765 c -0.03068,-0.1397 -0.09086,-0.254 -0.133727,-0.254 -0.04287,0 -0.07794,-0.0576 -0.07794,-0.12792 0,-0.0704 -0.07325,-0.28943 -0.162776,-0.48684 -0.08953,-0.1974 -0.282977,-0.64466 -0.42989,-0.99391 -0.146913,-0.34925 -0.340364,-0.79651 -0.429891,-0.99391 -0.08953,-0.1974 -0.162776,-0.41647 -0.162776,-0.48683 0,-0.0704 -0.0309,-0.12792 -0.06866,-0.12792 -0.03776,0 -0.117485,-0.1905 -0.177158,-0.42334 -0.05967,-0.23283 -0.137045,-0.42333 -0.171938,-0.42333 -0.03489,0 -0.111782,-0.16192 -0.170866,-0.35983 -0.05908,-0.19791 -0.137818,-0.37897 -0.174964,-0.40236 -0.03715,-0.0234 -0.09277,-0.17701 -0.123601,-0.34137 l -0.05606,-0.29884 0.449978,-0.19648 c 0.669399,-0.29229 0.918577,-0.30875 1.180479,-0.078 0.121848,0.10736 0.348341,0.29045 0.503318,0.40687 0.154978,0.11642 0.456455,0.36407 0.66995,0.55033 0.213496,0.18627 0.5717217,0.49107 0.7960584,0.67734 0.2243366,0.18626 0.4631549,0.39082 0.5307074,0.45458 0.067552,0.0638 0.1484799,0.0903 0.1798389,0.0589 0.031359,-0.0314 0.014705,-0.0835 -0.037008,-0.11591 -0.051713,-0.0324 -0.1423657,-0.22082 -0.2014497,-0.41873 -0.059084,-0.19791 -0.1394948,-0.35983 -0.1786905,-0.35983 -0.039196,0 -0.071613,-0.0667 -0.072039,-0.14817 -4.258e-4,-0.0815 -0.094484,-0.33867 -0.209019,-0.5715 -0.1145346,-0.23283 -0.2107291,-0.46143 -0.2137654,-0.508 -0.00304,-0.0466 -0.079135,-0.23707 -0.1691082,-0.42333 -0.2399669,-0.49679 -0.2153309,-0.57256 0.256558,-0.78904 0.5595244,-0.25669 0.8564668,-0.22244 0.9684505,0.1117 0.046819,0.1397 0.1099844,0.27305 0.1403679,0.29634 0.030383,0.0233 0.1035841,0.20426 0.1626682,0.40216 0.059084,0.19791 0.1364675,0.35984 0.1719632,0.35984 0.035496,0 0.090929,0.12382 0.1231856,0.27516 0.032256,0.15135 0.1345546,0.44662 0.2273297,0.65617 0.3206086,0.72416 0.3929856,0.89158 0.6588102,1.524 0.1468004,0.34925 0.3169171,0.7493 0.3780373,0.889 0.06112,0.1397 0.1395506,0.34925 0.1742899,0.46567 0.034739,0.11641 0.095554,0.23261 0.1351427,0.25821 0.039589,0.0256 0.094037,0.15894 0.1209953,0.29633 l 0.049015,0.24979 -0.4730413,0.1905 c -0.6465938,0.26039 -0.6215269,0.27034 -1.6967722,-0.67343 -0.093133,-0.0818 -0.5693833,-0.4793 -1.0583333,-0.88345 -0.4889496,-0.40415 -0.9080496,-0.75735 -0.9313336,-0.78489 -0.02328,-0.0275 -0.114504,-0.10691 -0.202713,-0.1764 l -0.160379,-0.12633 0.06448,0.211 c 0.03546,0.11605 0.15526,0.41215 0.266213,0.65801 0.110952,0.24585 0.201732,0.50303 0.201732,0.5715 0,0.0685 0.0309,0.12449 0.06866,0.12449 0.03776,0 0.117484,0.1905 0.177158,0.42333 0.05967,0.23284 0.137045,0.42334 0.1719375,0.42334 0.034892,0 0.1117822,0.16192 0.1708662,0.35983 0.059084,0.19791 0.1365282,0.37888 0.1720982,0.40217 0.03557,0.0233 0.090727,0.16247 0.1225707,0.3093 l 0.057898,0.26698 -0.3224278,0.10309 c -0.1773353,0.0567 -0.3586228,0.13658 -0.4028608,0.17752 -0.04424,0.0409 -0.203136,0.0744 -0.353107,0.0744 h -0.272672 z m -34.7126181,-1.25396 c -0.587709,-0.31666 -0.567428,-0.24539 -0.51055,-1.79404 l 0.05131,-1.397 -0.181148,-0.1117 c -0.09963,-0.0614 -0.188941,-0.0995 -0.198466,-0.0847 -0.0095,0.0149 -0.11059,0.21754 -0.224589,0.45037 -0.113998,0.23283 -0.228483,0.44238 -0.25441,0.46567 -0.02593,0.0233 -0.09996,0.17568 -0.164527,0.33866 -0.06456,0.16299 -0.138599,0.31539 -0.164526,0.33867 -0.02593,0.0233 -0.113199,0.18521 -0.193937,0.35983 -0.175327,0.37921 -0.181027,0.37986 -0.755556,0.0867 -0.603599,-0.30799 -0.734264,-0.53349 -0.465093,-0.80266 0.06282,-0.0628 0.161025,-0.25605 0.218232,-0.42939 0.05721,-0.17333 0.136131,-0.31516 0.175386,-0.31516 0.03925,0 0.09638,-0.11386 0.126948,-0.25303 0.03057,-0.13916 0.08379,-0.27046 0.118277,-0.29178 0.03449,-0.0213 0.28873,-0.48847 0.564986,-1.03813 0.276256,-0.54967 0.523497,-1.01844 0.549424,-1.04172 0.02593,-0.0233 0.09996,-0.17569 0.164526,-0.33867 0.06456,-0.16298 0.138864,-0.31538 0.165115,-0.33867 0.02625,-0.0233 0.180814,-0.31733 0.343474,-0.65344 0.315169,-0.65124 0.450663,-0.77178 0.667822,-0.59409 0.07476,0.0612 0.279972,0.17634 0.456032,0.25592 0.442812,0.20016 0.375526,1.03751 -0.1137,1.41495 -0.03018,0.0233 -0.101447,0.18521 -0.158373,0.35983 -0.05693,0.17463 -0.134517,0.3175 -0.172424,0.3175 -0.157316,0 -0.185418,0.45809 -0.03486,0.56818 0.192758,0.14095 0.222205,0.13819 0.418445,-0.0393 0.146402,-0.13238 0.435304,-0.37022 1.516639,-1.24859 0.475391,-0.38616 0.479307,-0.38654 1.020193,-0.0993 0.695133,0.36911 0.698245,0.50866 0.02299,1.03075 -0.293162,0.22666 -0.597485,0.47177 -0.676274,0.54468 -0.07879,0.0729 -0.427158,0.35543 -0.774153,0.62782 l -0.630901,0.49525 -0.06168,1.72725 -0.06168,1.72725 -0.180166,-0.005 c -0.09909,-0.003 -0.370345,-0.10759 -0.602785,-0.23283 z M 0.66489303,425.0379 c -0.754627,-0.74035 -0.878922,-1.04581 -0.496456,-1.22007 0.116416,-0.053 0.211666,-0.12231 0.211666,-0.15393 0,-0.0743 0.393927,-0.254 0.556904,-0.254 0.06908,0 0.24204397,0.13262 0.38436097,0.29471 l 0.258758,0.29471 0.225489,-0.11773 c 0.124018,-0.0647 0.375519,-0.24811 0.558889,-0.40747 l 0.333401,-0.28975 -0.204108,-0.2894 c -0.11226,-0.15917 -0.232858,-0.3275 -0.267995,-0.37407 -0.561085,-0.74358 -0.914365,-1.25236 -0.914365,-1.31682 0,-0.0441 -0.03168,-0.0802 -0.07041,-0.0802 -0.03872,0 -0.19886,-0.19824 -0.35585797,-0.44052 -0.156997,-0.24229 -0.337923,-0.49947 -0.402058,-0.5715 -0.51752,-0.58129 -0.902106,-1.27398 -0.707319,-1.27398 0.04016,0 0.216853,-0.1143 0.392642,-0.254 0.392844,-0.31219 0.714707,-0.32993 0.88899997,-0.049 0.06985,0.11259 0.4699,0.66866 0.889,1.23571 0.4191,0.56704 0.806179,1.10865 0.860176,1.20357 0.054,0.0949 0.130305,0.19601 0.169572,0.22465 0.03927,0.0286 0.185477,0.22351 0.324911,0.43306 0.139434,0.20955 0.301252,0.41147 0.359595,0.44871 0.05834,0.0372 0.106079,0.12107 0.106079,0.18629 0,0.0652 0.06523,0.15509 0.144962,0.19971 l 0.144961,0.0811 0.03325,0.58841 0.03325,0.58842 -0.250442,0.2562 c -0.238309,0.24378 -1.241265,1.00545 -1.732832,1.31594 -0.136682,0.0863 -0.39876,0.14519 -0.646543,0.14519 H 1.076684 Z M -48.775813,423.63951 c -0.05037,-0.0564 -0.218954,-0.19786 -0.374627,-0.31428 -0.314529,-0.23521 -1.173501,-0.92056 -1.323508,-1.05598 -0.208853,-0.18855 -0.452738,-0.37865 -0.660027,-0.51447 -0.239766,-0.1571 -0.293999,-0.50675 -0.102972,-0.66388 0.06285,-0.0517 0.942321,-1.13222 1.954369,-2.40117 1.930667,-2.42073 1.929502,-2.41965 2.268316,-2.11666 0.117164,0.10477 0.320494,0.2667 0.451843,0.35983 0.131349,0.0931 0.3976,0.30268 0.591668,0.46567 0.194068,0.16298 0.472771,0.39158 0.61934,0.508 0.146569,0.11641 0.386016,0.3112 0.532105,0.43285 l 0.265615,0.22118 -0.05238,0.20215 c -0.07235,0.27923 -0.711315,0.98622 -0.794671,0.87927 -0.03639,-0.0467 -0.275707,-0.24424 -0.531824,-0.43901 -0.256116,-0.19478 -0.542845,-0.42633 -0.637173,-0.51456 -0.09433,-0.0882 -0.269981,-0.22495 -0.390338,-0.30381 l -0.218831,-0.14338 -0.368527,0.47768 -0.368528,0.47768 0.250865,0.21122 c 0.137976,0.11617 0.351047,0.29835 0.473491,0.40486 0.122445,0.10651 0.30342,0.23689 0.402167,0.28974 0.270123,0.14456 0.223814,0.47327 -0.126992,0.90138 -0.383342,0.46782 -0.358375,0.47026 -1.081104,-0.10563 -0.331116,-0.26385 -0.646105,-0.51322 -0.699975,-0.55416 -0.0659,-0.0501 -0.224101,0.0895 -0.483549,0.42669 l -0.385605,0.50112 0.885716,0.70133 c 0.915107,0.7246 0.957722,0.77769 0.779883,0.9715 -0.05821,0.0634 -0.217917,0.27026 -0.354908,0.45962 -0.259768,0.35906 -0.366295,0.40726 -0.519842,0.23522 z m 24.983583,-1.68805 c -2.637012,-0.197 -4.350675,-0.4313 -5.969,-0.81612 -1.461791,-0.34759 -2.744212,-0.70282 -3.090333,-0.85602 -0.09313,-0.0412 -0.321733,-0.11836 -0.508,-0.17142 -0.186267,-0.053 -0.414867,-0.1299 -0.508,-0.17078 -0.09313,-0.0409 -0.436033,-0.1765 -0.762,-0.3014 -0.325967,-0.1249 -0.745067,-0.29402 -0.931333,-0.37581 -0.186267,-0.0818 -0.529167,-0.23265 -0.762,-0.33522 -0.662948,-0.29207 -2.592007,-1.27748 -2.667,-1.36238 -0.02328,-0.0264 -0.270934,-0.17581 -0.550334,-0.33211 -0.626097,-0.35026 -2.86394,-1.83018 -3.13814,-2.0753 -0.05209,-0.0466 -0.220934,-0.17992 -0.375206,-0.29633 -1.962298,-1.48078 -4.095504,-3.56915 -5.794453,-5.67267 -0.169248,-0.20955 -0.37308,-0.46912 -0.452962,-0.57682 -0.07988,-0.10769 -0.211913,-0.25904 -0.293405,-0.33631 -0.08149,-0.0773 -0.148167,-0.17416 -0.148167,-0.2153 0,-0.0411 -0.08572,-0.17977 -0.1905,-0.30807 -0.198863,-0.24352 -0.228624,-0.28659 -0.674695,-0.9765 -0.150542,-0.23283 -0.319762,-0.47118 -0.376045,-0.52967 -0.05628,-0.0585 -0.126447,-0.18231 -0.155919,-0.27516 -0.02947,-0.0929 -0.08201,-0.16884 -0.116743,-0.16884 -0.03474,0 -0.115481,-0.13335 -0.179431,-0.29633 -0.06395,-0.16298 -0.13796,-0.29633 -0.164468,-0.29633 -0.02651,0 -0.102069,-0.12383 -0.167914,-0.27517 -0.06585,-0.15134 -0.145465,-0.29422 -0.176931,-0.3175 -0.06371,-0.0471 -0.109229,-0.13266 -0.731085,-1.37353 -0.394783,-0.78776 -0.696065,-1.43086 -1.002617,-2.14014 -0.06038,-0.1397 -0.190001,-0.43288 -0.288049,-0.65152 -0.09805,-0.21863 -0.178269,-0.4398 -0.178269,-0.49148 0,-0.0517 -0.07189,-0.25379 -0.159746,-0.44914 -0.08786,-0.19535 -0.18751,-0.48854 -0.221444,-0.65152 -0.03393,-0.16299 -0.09258,-0.33494 -0.130322,-0.38213 -0.03774,-0.0472 -0.115043,-0.27578 -0.171776,-0.508 -0.05673,-0.23221 -0.131624,-0.46031 -0.166423,-0.50687 -0.0348,-0.0466 -0.107483,-0.31327 -0.161521,-0.59267 -0.05404,-0.2794 -0.133202,-0.5842 -0.175922,-0.67733 -0.04272,-0.0931 -0.13909,-0.47414 -0.214156,-0.84667 -0.431481,-2.1413 -0.601397,-3.46667 -0.800527,-6.24417 l -0.0956,-1.3335 0.0956,-1.3335 c 0.19913,-2.77749 0.369046,-4.10286 0.800527,-6.24416 0.07507,-0.37254 0.171437,-0.75354 0.214156,-0.84667 0.04272,-0.0931 0.121885,-0.39793 0.175922,-0.67733 0.05404,-0.2794 0.126722,-0.5461 0.161521,-0.59267 0.0348,-0.0466 0.109689,-0.27466 0.166423,-0.50687 0.05673,-0.23222 0.134033,-0.46082 0.171776,-0.508 0.03774,-0.0472 0.09639,-0.21915 0.130322,-0.38213 0.03393,-0.16298 0.133583,-0.45617 0.221444,-0.65152 0.08786,-0.19535 0.159746,-0.39747 0.159746,-0.44915 0,-0.0517 0.08022,-0.27284 0.178269,-0.49147 0.09805,-0.21864 0.22767,-0.51183 0.288049,-0.65153 0.306552,-0.70927 0.607834,-1.35237 1.002617,-2.14013 0.621856,-1.24087 0.667378,-1.32639 0.731085,-1.37353 0.03147,-0.0233 0.111085,-0.16616 0.176931,-0.3175 0.06584,-0.15134 0.141406,-0.27517 0.167914,-0.27517 0.02651,0 0.100518,-0.13335 0.164468,-0.29633 0.06395,-0.16299 0.144693,-0.29634 0.179431,-0.29634 0.03474,0 0.08727,-0.076 0.116743,-0.16883 0.02947,-0.0929 0.09964,-0.21668 0.155919,-0.27516 0.05628,-0.0585 0.225503,-0.29684 0.376045,-0.52967 0.446071,-0.68991 0.475832,-0.73298 0.674695,-0.9765 0.104775,-0.1283 0.1905,-0.26694 0.1905,-0.30807 0,-0.0411 0.06668,-0.13802 0.148167,-0.2153 0.08149,-0.0773 0.213524,-0.22862 0.293405,-0.33632 0.07988,-0.10769 0.283714,-0.36726 0.452962,-0.57681 1.698949,-2.10352 3.832155,-4.19189 5.794453,-5.67267 0.154272,-0.11642 0.323115,-0.24977 0.375206,-0.29633 0.2742,-0.24512 2.512043,-1.72504 3.13814,-2.0753 0.2794,-0.1563 0.52705,-0.30575 0.550334,-0.33211 0.190549,-0.21572 3.005599,-1.55432 4.360333,-2.07341 0.325967,-0.1249 0.668867,-0.26053 0.762,-0.3014 0.09313,-0.0409 0.321733,-0.11773 0.508,-0.17078 0.186267,-0.0531 0.414867,-0.13019 0.508,-0.17142 0.346121,-0.1532 1.628542,-0.50843 3.090333,-0.85603 1.6883,-0.40145 3.292138,-0.61412 6.2865,-0.83359 l 1.3335,-0.0977 1.3335,0.0977 c 2.994362,0.21947 4.598201,0.43214 6.2865,0.83359 1.461791,0.3476 2.744213,0.70283 3.090333,0.85603 0.09313,0.0412 0.321734,0.11836 0.508,0.17142 0.186267,0.053 0.414867,0.1299 0.508,0.17078 0.09313,0.0409 0.436034,0.1765 0.7620001,0.3014 0.931469,0.35691 1.981856,0.82713 3.048,1.36447 0.9192511,0.46331 1.2560958,0.64527 1.3123336,0.70894 0.023283,0.0264 0.2709333,0.17581 0.5503333,0.33211 0.6260976,0.35026 2.8639404,1.83018 3.1381405,2.0753 0.052091,0.0466 0.2209336,0.17991 0.3752063,0.29633 1.96229823,1.48078 4.0955032,3.56915 5.7944522,5.67267 0.169248,0.20955 0.3730813,0.46912 0.4529623,0.57681 0.07988,0.1077 0.211914,0.25905 0.293405,0.33632 0.08149,0.0773 0.148167,0.17416 0.148167,0.2153 0,0.0411 0.08573,0.17977 0.1905,0.30807 0.198863,0.24352 0.228625,0.28659 0.674695,0.9765 0.150542,0.23283 0.319763,0.47118 0.376046,0.52967 0.05628,0.0585 0.126446,0.1823 0.155918,0.27516 0.02947,0.0929 0.08201,0.16883 0.116744,0.16883 0.03474,0 0.115481,0.13335 0.17943,0.29634 0.06395,0.16298 0.137961,0.29633 0.164468,0.29633 0.02651,0 0.10207,0.12383 0.167915,0.27517 0.06584,0.15134 0.143874,0.29421 0.173397,0.3175 0.13463,0.10617 1.166672,2.19354 1.737235,3.51366 0.06038,0.1397 0.190001,0.43289 0.28805,0.65153 0.09805,0.21863 0.178269,0.4398 0.178269,0.49147 0,0.0517 0.07189,0.2538 0.1597457,0.44915 0.08786,0.19535 0.18751,0.48854 0.221443,0.65152 0.03393,0.16298 0.09258,0.33494 0.130322,0.38213 0.03774,0.0472 0.115043,0.27578 0.171777,0.508 0.05673,0.23221 0.131623,0.4603 0.166422,0.50687 0.0348,0.0466 0.107483,0.31327 0.161521,0.59267 0.05404,0.2794 0.133203,0.5842 0.175922,0.67733 0.04272,0.0931 0.13909,0.47413 0.214157,0.84667 0.43148,2.1413 0.601397,3.46667 0.800527,6.24416 l 0.0956,1.3335 -0.0956,1.3335 c -0.19913,2.7775 -0.369047,4.10287 -0.800527,6.24417 -0.07507,0.37253 -0.171438,0.75353 -0.214157,0.84667 -0.04272,0.0931 -0.121884,0.39793 -0.175922,0.67733 -0.05404,0.2794 -0.126722,0.5461 -0.161521,0.59267 -0.0348,0.0466 -0.109689,0.27466 -0.166422,0.50687 -0.05673,0.23222 -0.134033,0.46082 -0.171777,0.508 -0.03774,0.0472 -0.09639,0.21914 -0.130322,0.38213 -0.03393,0.16298 -0.133583,0.45617 -0.221443,0.65152 -0.08786,0.19535 -0.1597457,0.39747 -0.1597457,0.44914 0,0.0517 -0.08022,0.27285 -0.178269,0.49148 -0.09805,0.21864 -0.227671,0.51182 -0.28805,0.65152 -0.570563,1.32013 -1.602605,3.4075 -1.737235,3.51367 -0.02952,0.0233 -0.107552,0.16616 -0.173397,0.3175 -0.06584,0.15134 -0.141407,0.27517 -0.167915,0.27517 -0.02651,0 -0.100518,0.13335 -0.164468,0.29633 -0.06395,0.16298 -0.144693,0.29633 -0.17943,0.29633 -0.03474,0 -0.08727,0.076 -0.116744,0.16884 -0.02947,0.0928 -0.09963,0.21668 -0.155918,0.27516 -0.05628,0.0585 -0.225504,0.29684 -0.376046,0.52967 -0.44607,0.68991 -0.475832,0.73298 -0.674695,0.9765 -0.104775,0.1283 -0.1905,0.26694 -0.1905,0.30807 0,0.0411 -0.06668,0.13802 -0.148167,0.2153 -0.08149,0.0773 -0.213524,0.22862 -0.293405,0.33631 -0.07988,0.1077 -0.2837143,0.36727 -0.4529623,0.57682 -1.698949,2.10352 -3.83215397,4.19189 -5.7944522,5.67267 -0.1542727,0.11641 -0.3231156,0.24976 -0.3752063,0.29633 -0.2742001,0.24512 -2.5120429,1.72504 -3.1381405,2.0753 -0.2794,0.1563 -0.52705,0.30575 -0.5503333,0.33211 -0.074993,0.0849 -2.0040516,1.07031 -2.6669996,1.36238 -0.232834,0.10257 -0.575734,0.25342 -0.762,0.33522 -0.186267,0.0818 -0.605367,0.25091 -0.931334,0.37581 -0.3259661,0.1249 -0.6688661,0.26053 -0.7620001,0.3014 -0.09313,0.0409 -0.321733,0.11773 -0.508,0.17078 -0.186266,0.0531 -0.414866,0.13019 -0.508,0.17142 -0.34612,0.1532 -1.628542,0.50843 -3.090333,0.85602 -1.677906,0.39899 -3.29619,0.61439 -6.223,0.8283 -1.382317,0.10103 -1.541022,0.1004 -3.048,-0.0122 z m 3.937,-2.34858 c 0.34925,-0.0455 1.069899,-0.12381 1.601441,-0.17394 0.531543,-0.0501 1.122093,-0.12836 1.312334,-0.17383 0.19024,-0.0455 0.650692,-0.13596 1.023225,-0.20106 1.002212,-0.17515 1.929808,-0.38157 2.077112,-0.46223 0.07138,-0.0391 0.261879,-0.0985 0.423334,-0.13195 0.326974,-0.0678 2.483839,-0.76893 2.748887,-0.89353 0.09313,-0.0438 0.283634,-0.12037 0.423334,-0.17018 0.5169051,-0.18431 0.7904741,-0.3109 2.3255471,-1.07612 1.516029,-0.75573 2.0303021,-1.02916 2.1194526,-1.12687 0.023283,-0.0255 0.2321656,-0.15614 0.4641828,-0.29027 0.4233269,-0.24473 1.8563725,-1.20648 2.1373837,-1.43445 0.082555,-0.067 0.4549001,-0.35973 0.8274335,-0.65057 2.41739933,-1.8873 5.7054263,-5.44948 6.7733333,-7.33809 0.04657,-0.0824 0.170392,-0.26913 0.275167,-0.41505 0.104775,-0.14592 0.1905,-0.30706 0.1905,-0.35808 0,-0.051 0.03348,-0.0928 0.07439,-0.0928 0.04092,0 0.12174,-0.1143 0.179606,-0.254 0.05787,-0.1397 0.129387,-0.254 0.158937,-0.254 0.02955,0 0.1076,-0.12382 0.173445,-0.27517 0.06584,-0.15134 0.143373,-0.29421 0.172283,-0.3175 0.09,-0.0725 1.273335,-2.49217 1.273335,-2.60372 0,-0.0581 0.03315,-0.10561 0.07366,-0.10561 0.04052,0 0.121666,-0.17145 0.180336,-0.381 0.05867,-0.20955 0.135299,-0.381 0.170286,-0.381 0.03499,0 0.109054,-0.18047 0.164595,-0.40104 0.05554,-0.22057 0.127356,-0.4206 0.159588,-0.4445 0.07501,-0.0556 0.845192,-2.40287 0.917138,-2.79513 0.02989,-0.16298 0.07981,-0.31538 0.110928,-0.33866 0.07908,-0.0592 0.455599,-1.86106 0.751894,-3.59834 0.409886,-2.40329 0.409886,-6.9947 0,-9.398 -0.296295,-1.73727 -0.672809,-3.53915 -0.751894,-3.59833 -0.03112,-0.0233 -0.08103,-0.17568 -0.110928,-0.33867 -0.07195,-0.39225 -0.842128,-2.7395 -0.917138,-2.79512 -0.03223,-0.0239 -0.104047,-0.22393 -0.159588,-0.4445 -0.05554,-0.22057 -0.126242,-0.40104 -0.157115,-0.40104 -0.03087,0 -0.106754,-0.17145 -0.168627,-0.381 -0.06187,-0.20955 -0.14639,-0.381 -0.187817,-0.381 -0.04143,0 -0.07532,-0.0475 -0.07532,-0.10561 0,-0.11155 -1.183331,-2.53124 -1.273334,-2.60373 -0.02891,-0.0233 -0.106439,-0.16615 -0.172284,-0.3175 -0.06584,-0.15134 -0.143895,-0.27516 -0.173445,-0.27516 -0.02955,0 -0.101072,-0.1143 -0.158937,-0.254 -0.05787,-0.1397 -0.138688,-0.254 -0.179605,-0.254 -0.04092,0 -0.07439,-0.0417 -0.07439,-0.0928 0,-0.051 -0.08573,-0.21215 -0.1905,-0.35807 -0.104775,-0.14592 -0.2286,-0.3327 -0.275167,-0.41505 -1.067907,-1.88861 -4.35593397,-5.45079 -6.7733331,-7.33809 -0.3725334,-0.29084 -0.7448784,-0.5836 -0.8274335,-0.65057 -0.2810112,-0.22797 -1.7140568,-1.18972 -2.1373837,-1.43445 -0.2320172,-0.13413 -0.4408995,-0.26475 -0.4641828,-0.29027 -0.089151,-0.0977 -0.6034236,-0.37114 -2.1194526,-1.12687 -1.535073,-0.76522 -1.808642,-0.89181 -2.3255473,-1.07612 -0.1397,-0.0498 -0.3302,-0.12639 -0.423334,-0.17018 -0.265048,-0.1246 -2.421913,-0.8257 -2.748887,-0.89353 -0.161455,-0.0335 -0.351955,-0.0929 -0.423334,-0.13195 -0.147304,-0.0807 -1.0749,-0.28708 -2.077112,-0.46223 -0.372533,-0.0651 -0.832985,-0.15558 -1.023225,-0.20106 -0.190241,-0.0455 -0.780791,-0.1237 -1.312334,-0.17383 -0.531542,-0.0501 -1.252191,-0.1284 -1.601441,-0.17395 -0.82031,-0.10696 -3.751689,-0.10696 -4.572,0 -0.34925,0.0455 -1.069898,0.12382 -1.601441,0.17395 -0.531543,0.0501 -1.122093,0.12835 -1.312333,0.17383 -0.190241,0.0455 -0.650692,0.13596 -1.023226,0.20106 -1.002212,0.17515 -1.929808,0.38157 -2.077112,0.46223 -0.07138,0.0391 -0.261879,0.0985 -0.423333,0.13195 -0.326974,0.0678 -2.48384,0.76893 -2.748888,0.89353 -0.09313,0.0438 -0.283633,0.12037 -0.423333,0.17018 -0.516905,0.18431 -0.790475,0.3109 -2.325548,1.07612 -1.516029,0.75573 -2.030302,1.02916 -2.119452,1.12687 -0.02328,0.0255 -0.232166,0.15614 -0.464183,0.29027 -0.423327,0.24473 -1.856373,1.20648 -2.137384,1.43445 -0.08255,0.067 -0.4549,0.35973 -0.827433,0.65057 -2.417399,1.8873 -5.705426,5.44948 -6.773333,7.33809 -0.04657,0.0823 -0.170392,0.26913 -0.275167,0.41505 -0.104775,0.14592 -0.1905,0.30705 -0.1905,0.35807 0,0.051 -0.03348,0.0928 -0.07439,0.0928 -0.04092,0 -0.121739,0.1143 -0.179605,0.254 -0.05787,0.1397 -0.129387,0.254 -0.158937,0.254 -0.02955,0 -0.1076,0.12382 -0.173445,0.27516 -0.06585,0.15135 -0.143373,0.29422 -0.172284,0.3175 -0.09,0.0725 -1.273334,2.49218 -1.273334,2.60373 0,0.0581 -0.0339,0.10561 -0.07532,0.10561 -0.04143,0 -0.125944,0.17145 -0.187817,0.381 -0.06187,0.20955 -0.137755,0.381 -0.168627,0.381 -0.03087,0 -0.101574,0.18047 -0.157115,0.40104 -0.05554,0.22057 -0.127356,0.4206 -0.159588,0.4445 -0.07501,0.0556 -0.845191,2.40287 -0.917138,2.79512 -0.0299,0.16299 -0.07981,0.31539 -0.110928,0.33867 -0.07908,0.0592 -0.455598,1.86106 -0.751894,3.59833 -0.409885,2.4033 -0.409885,6.99471 0,9.398 0.296296,1.73728 0.672809,3.53916 0.751894,3.59834 0.03112,0.0233 0.08103,0.17568 0.110928,0.33866 0.07195,0.39226 0.842128,2.7395 0.917138,2.79513 0.03223,0.0239 0.104047,0.22393 0.159588,0.4445 0.05554,0.22057 0.126243,0.40104 0.157115,0.40104 0.03087,0 0.106754,0.17145 0.168627,0.381 0.06187,0.20955 0.146391,0.381 0.187817,0.381 0.04143,0 0.07532,0.0475 0.07532,0.10561 0,0.11155 1.183331,2.53124 1.273334,2.60372 0.02891,0.0233 0.106438,0.16616 0.172284,0.3175 0.06585,0.15135 0.143895,0.27517 0.173445,0.27517 0.02955,0 0.101071,0.1143 0.158937,0.254 0.05787,0.1397 0.138688,0.254 0.179605,0.254 0.04092,0 0.07439,0.0417 0.07439,0.0928 0,0.051 0.08573,0.21216 0.1905,0.35808 0.104775,0.14592 0.2286,0.3327 0.275167,0.41505 1.067907,1.88861 4.355934,5.45079 6.773333,7.33809 0.372533,0.29084 0.744878,0.5836 0.827433,0.65057 0.281011,0.22797 1.714057,1.18972 2.137384,1.43445 0.232017,0.13413 0.440899,0.26475 0.464183,0.29027 0.08915,0.0977 0.603423,0.37114 2.119452,1.12687 1.535073,0.76522 1.808643,0.89181 2.325548,1.07612 0.1397,0.0498 0.3302,0.12639 0.423333,0.17018 0.265048,0.1246 2.421914,0.8257 2.748888,0.89353 0.161454,0.0335 0.351954,0.0929 0.423333,0.13195 0.147304,0.0807 1.0749,0.28708 2.077112,0.46223 0.372534,0.0651 0.836787,0.1566 1.031674,0.20332 0.194888,0.0467 0.804488,0.12643 1.354667,0.17714 0.550179,0.0507 1.209876,0.12283 1.465993,0.16026 0.678409,0.0992 3.915232,0.10479 4.656666,0.008 z m -3.725333,-5.77467 c -2.545495,-0.21497 -5.457198,-0.69554 -6.011333,-0.99216 -0.06985,-0.0374 -0.33655,-0.11696 -0.592667,-0.17682 -0.256117,-0.0599 -0.503767,-0.13698 -0.550333,-0.17138 -0.04657,-0.0344 -0.237067,-0.1089 -0.423334,-0.16555 -0.186266,-0.0566 -0.458724,-0.15687 -0.605462,-0.2227 -0.146738,-0.0658 -0.291703,-0.1197 -0.322145,-0.1197 -0.03044,0 -0.234234,-0.0805 -0.452871,-0.17898 -0.218637,-0.0984 -0.568972,-0.25436 -0.778522,-0.3465 -0.530876,-0.23343 -1.896081,-0.92704 -1.947333,-0.98937 -0.02328,-0.0283 -0.175683,-0.11861 -0.338667,-0.20065 -0.162983,-0.082 -0.410633,-0.22376 -0.550333,-0.31493 -0.1397,-0.0912 -0.3683,-0.22938 -0.508,-0.30714 -0.1397,-0.0778 -0.27305,-0.16597 -0.296333,-0.196 -0.02328,-0.03 -0.251884,-0.19647 -0.508,-0.36985 -0.256117,-0.17337 -0.560917,-0.38005 -0.677334,-0.45928 -0.189372,-0.12888 -0.902058,-0.69149 -1.156024,-0.91259 -0.05373,-0.0468 -0.298172,-0.25649 -0.543204,-0.46604 -0.563078,-0.48154 -2.212253,-2.13734 -2.564144,-2.57445 -0.146462,-0.18193 -0.323444,-0.39175 -0.393294,-0.46626 -0.06985,-0.0745 -0.3175,-0.38287 -0.550333,-0.68522 -0.232834,-0.30236 -0.442384,-0.56879 -0.465667,-0.59207 -0.12254,-0.12254 -0.592667,-0.86328 -0.592667,-0.93381 0,-0.0452 -0.0393,-0.0822 -0.08732,-0.0822 -0.04803,0 -0.112036,-0.0667 -0.142239,-0.14817 -0.05848,-0.15778 -0.454887,-0.79689 -0.538277,-0.86783 -0.02737,-0.0233 -0.113448,-0.16616 -0.191292,-0.3175 -0.07784,-0.15134 -0.205225,-0.39899 -0.283069,-0.55034 -0.07784,-0.15134 -0.167572,-0.29421 -0.199397,-0.3175 -0.03183,-0.0233 -0.104439,-0.1852 -0.161365,-0.35983 -0.05693,-0.17462 -0.138648,-0.3175 -0.181603,-0.3175 -0.04295,0 -0.07824,-0.0476 -0.07842,-0.10583 -1.75e-4,-0.0582 -0.114332,-0.33444 -0.253681,-0.61384 -0.13935,-0.2794 -0.253507,-0.57467 -0.253682,-0.65616 -1.75e-4,-0.0815 -0.03429,-0.14817 -0.07581,-0.14817 -0.04152,0 -0.101453,-0.10345 -0.133188,-0.2299 -0.03173,-0.12644 -0.131115,-0.39105 -0.220845,-0.58802 -0.08973,-0.19697 -0.16338,-0.40784 -0.163667,-0.4686 -2.87e-4,-0.0608 -0.05268,-0.21045 -0.116439,-0.33263 -0.06375,-0.12219 -0.167047,-0.42699 -0.229539,-0.67734 -0.06249,-0.25035 -0.137022,-0.47423 -0.165621,-0.49751 -0.0286,-0.0233 -0.09991,-0.28998 -0.158466,-0.59267 -0.05856,-0.30268 -0.140254,-0.62653 -0.18155,-0.71966 -0.04129,-0.0931 -0.1352,-0.49319 -0.208676,-0.889 -0.07348,-0.39582 -0.154926,-0.82444 -0.181,-0.9525 -0.02911,-0.14298 -0.01103,-0.23284 0.04687,-0.23284 0.05185,0 0.09428,-0.0443 0.09428,-0.0984 0,-0.15871 3.800074,-3.89705 3.899157,-3.83581 0.05217,0.0322 0.06713,0.16022 0.03554,0.30403 -0.03,0.1366 -0.0151,0.50445 0.03311,0.81744 0.04821,0.313 0.132096,1.04534 0.186411,1.62742 0.05431,0.58208 0.122792,1.09643 0.152172,1.143 0.02938,0.0466 0.117752,0.38947 0.196379,0.762 0.234721,1.11209 0.42879,1.85999 0.494322,1.905 0.0339,0.0233 0.08979,0.17568 0.124192,0.33867 0.03441,0.16298 0.134443,0.45617 0.222303,0.65152 0.08786,0.19535 0.159746,0.38009 0.159746,0.41054 0,0.11656 1.094918,2.42032 1.185304,2.49394 0.02859,0.0233 0.102061,0.16616 0.163275,0.3175 0.06121,0.15134 0.135475,0.27516 0.165025,0.27516 0.02955,0 0.108532,0.12383 0.175515,0.27517 0.06698,0.15134 0.153487,0.31327 0.192228,0.35983 0.03874,0.0466 0.1918,0.27517 0.340129,0.508 0.148328,0.23284 0.318776,0.45381 0.378773,0.49104 0.06,0.0372 0.109085,0.10805 0.109085,0.15735 0,0.0493 0.256406,0.39984 0.569792,0.77896 0.313386,0.37913 0.627711,0.76281 0.6985,0.85264 0.168002,0.21318 1.860179,1.90359 2.124893,2.12268 0.395644,0.32745 1.163667,0.93316 1.395623,1.10067 0.128964,0.0931 0.282618,0.21696 0.341454,0.27516 0.05884,0.0582 0.132044,0.10584 0.162682,0.10584 0.07678,0 0.838746,0.53538 0.873611,0.61383 0.01552,0.0349 0.07706,0.0635 0.136749,0.0635 0.05969,0 0.20651,0.0771 0.326269,0.17128 0.243069,0.1912 2.268966,1.21426 2.599093,1.31253 0.116417,0.0347 0.286819,0.11502 0.378673,0.1786 0.09185,0.0636 0.219445,0.11559 0.283537,0.11559 0.06409,0 0.23659,0.0548 0.383328,0.12174 0.379538,0.17318 1.48285,0.53185 1.833129,0.59592 0.162983,0.0298 0.372533,0.0892 0.465667,0.13188 0.09313,0.0427 0.493183,0.13739 0.889,0.21036 0.395816,0.073 0.910166,0.16855 1.143,0.2124 1.423134,0.26801 5.324476,0.26871 6.773333,0.001 0.232833,-0.043 0.747183,-0.13794 1.143,-0.21101 0.395816,-0.0731 0.795866,-0.16785 0.889,-0.2106 0.09313,-0.0428 0.378883,-0.12357 0.635,-0.17958 0.256116,-0.056 0.503766,-0.12969 0.550333,-0.16373 0.04657,-0.034 0.198967,-0.0884 0.338667,-0.1208 0.217318,-0.0504 0.93384,-0.30926 1.524,-0.55062 0.20324,-0.0831 2.56035,-1.25689 2.945683,-1.46686 0.149408,-0.0814 0.30975,-0.16193 0.356317,-0.17891 0.04657,-0.017 0.05701,-0.0606 0.02321,-0.0969 -0.0338,-0.0363 -0.112598,-0.0236 -0.175108,0.0283 -0.06251,0.0519 -0.320605,0.13796 -0.573546,0.19129 -0.25294,0.0533 -0.497992,0.12515 -0.544558,0.1596 -0.04657,0.0345 -0.332317,0.1077 -0.635,0.16277 -0.302684,0.0551 -0.626534,0.1351 -0.719667,0.17784 -1.432946,0.65746 -7.455368,0.7775 -10.837333,0.21601 -0.465667,-0.0773 -0.922867,-0.17502 -1.016,-0.21714 -0.09313,-0.0421 -0.416983,-0.12163 -0.719667,-0.17671 -0.302683,-0.0551 -0.588433,-0.12778 -0.635,-0.16157 -0.04657,-0.0338 -0.294216,-0.10952 -0.550333,-0.16828 -0.256117,-0.0588 -0.503767,-0.1347 -0.550333,-0.16875 -0.04657,-0.034 -0.198967,-0.0891 -0.338667,-0.12244 -0.1397,-0.0333 -0.3683,-0.11208 -0.508,-0.17508 -0.1397,-0.063 -0.5207,-0.21766 -0.846667,-0.34369 -0.930532,-0.35976 -3.127268,-1.47788 -3.482143,-1.77238 -0.05611,-0.0466 -0.294993,-0.19896 -0.530842,-0.33866 -0.235849,-0.1397 -0.429536,-0.28258 -0.430415,-0.3175 -8.8e-4,-0.0349 -0.04922,-0.0642 -0.107433,-0.065 -0.05821,-8.5e-4 -0.220133,-0.0927 -0.359833,-0.20414 -0.1397,-0.11143 -0.635,-0.50629 -1.100667,-0.87745 -1.332833,-1.06236 -3.038567,-2.85962 -3.83349,-4.03921 -0.21967,-0.32596 -0.428773,-0.63076 -0.464674,-0.67733 -0.229651,-0.29788 -0.567333,-0.86353 -0.568629,-0.9525 -8.47e-4,-0.0582 -0.03253,-0.10583 -0.0704,-0.10583 -0.03787,0 -0.121187,-0.13335 -0.185136,-0.29634 -0.06395,-0.16298 -0.144306,-0.29633 -0.17857,-0.29633 -0.03426,0 -0.104192,-0.12694 -0.155396,-0.28209 -0.0512,-0.15515 -0.168459,-0.4299 -0.260566,-0.61057 -0.09211,-0.18066 -0.167468,-0.37757 -0.167468,-0.43757 0,-0.06 -0.03334,-0.1091 -0.07408,-0.1091 -0.04075,0 -0.09694,-0.1143 -0.124882,-0.254 -0.02794,-0.1397 -0.124498,-0.41592 -0.214573,-0.61383 -0.09007,-0.19791 -0.191773,-0.51224 -0.225996,-0.69851 -0.03422,-0.18626 -0.09092,-0.35771 -0.125995,-0.381 -0.05702,-0.0379 -0.157505,-0.46775 -0.425467,-1.82033 -0.193649,-0.97747 -0.276361,-2.38835 -0.32442,-5.53389 l -0.05092,-3.33257 -2.76469,2.76107 c -2.708777,2.70522 -2.879407,2.84793 -3.239718,2.70967 l -0.133925,-0.0514 v -2.11866 -2.11867 l 4.188953,-4.18768 c 2.303925,-2.30322 4.226618,-4.17467 4.272652,-4.15877 0.04603,0.0159 1.951714,1.87675 4.234846,4.13523 l 4.151148,4.10634 5.34e-4,2.18016 5.34e-4,2.18017 h -0.263451 -0.263451 l -1.700564,-1.67217 c -0.93531,-0.91969 -2.211508,-2.17638 -2.835994,-2.79264 l -1.135431,-1.12049 0.04497,3.78749 0.04497,3.78748 0.125952,0.635 c 0.191565,0.9658 0.409731,1.81545 0.47828,1.86266 0.0338,0.0233 0.10889,0.24236 0.166862,0.48684 0.05797,0.24447 0.133673,0.4445 0.168224,0.4445 0.03455,0 0.111162,0.16192 0.170246,0.35983 0.05908,0.19791 0.13179,0.37888 0.161568,0.40217 0.02978,0.0233 0.187493,0.30737 0.350476,0.63131 0.162984,0.32393 0.325911,0.62873 0.36206,0.67733 0.03615,0.0486 0.18855,0.27864 0.338667,0.51122 0.150117,0.23257 0.33009,0.48732 0.39994,0.56612 0.06985,0.0788 0.2032,0.24582 0.296333,0.37118 0.241515,0.32506 1.0368,1.21916 1.35069,1.5185 0.536212,0.51137 1.208599,1.10598 1.483986,1.31234 0.15536,0.11641 0.324065,0.25032 0.374899,0.29756 0.107352,0.0998 1.224798,0.83859 1.658759,1.09672 0.162983,0.0969 0.372533,0.22144 0.465666,0.27667 0.574052,0.34039 2.34311,1.15223 2.708486,1.24295 0.139233,0.0346 0.272583,0.0902 0.296333,0.12368 0.07958,0.11209 1.958548,0.63164 3.133515,0.86644 0.442383,0.0884 1.032933,0.20641 1.312333,0.26222 0.670399,0.13393 5.561573,0.13751 6.265333,0.005 2.149585,-0.40601 3.323866,-0.67135 3.471333,-0.78438 0.04657,-0.0357 0.218017,-0.0926 0.381,-0.12659 0.162984,-0.0339 0.45826,-0.13453 0.656169,-0.22356 0.19791,-0.089 0.474135,-0.18472 0.613834,-0.21266 0.139698,-0.0279 0.253997,-0.0841 0.253997,-0.12488 0,-0.0408 0.04763,-0.0744 0.105834,-0.0749 0.05821,-4.3e-4 0.296333,-0.0945 0.5291661,-0.20902 0.232834,-0.11453 0.453916,-0.20944 0.491294,-0.21089 0.07907,-0.003 1.688537,-0.92523 2.154768,-1.23457 0.174499,-0.11579 0.38762,-0.25744 0.473601,-0.3148 0.634931,-0.42354 1.8276612,-1.42315 2.5048541,-2.09929 0.4960271,-0.49526 1.6144831,-1.84196 1.6144831,-1.94395 0,-0.0388 0.048546,-0.12096 0.1078796,-0.18249 0.059334,-0.0615 0.2297818,-0.30238 0.3787735,-0.53522 0.1489917,-0.23283 0.3053342,-0.46436 0.3474277,-0.5145 0.042094,-0.0501 0.1047519,-0.18349 0.1392409,-0.29633 0.034489,-0.11284 0.1105338,-0.26232 0.1689885,-0.33217 0.058455,-0.0699 0.1521531,-0.26987 0.2082184,-0.4445 0.056065,-0.17462 0.1325591,-0.3175 0.1699863,-0.3175 0.037427,0 0.1134918,-0.18046 0.16903263,-0.40104 0.055541,-0.22057 0.1325382,-0.43964 0.1711062,-0.48683 0.03857,-0.0472 0.113539,-0.25724 0.166602,-0.46679 0.05306,-0.20955 0.132062,-0.4572 0.175554,-0.55034 0.124321,-0.26622 0.33569,-1.51805 0.432894,-2.56382 0.121813,-1.31052 -0.160031,-4.978 -0.427605,-5.56418 -0.04251,-0.0931 -0.122158,-0.41698 -0.176989,-0.71966 -0.05483,-0.30269 -0.129222,-0.58844 -0.165314,-0.635 -0.03609,-0.0466 -0.113835,-0.29022 -0.1727641,-0.54144 -0.058929,-0.25123 -0.15893403,-0.55603 -0.22223283,-0.67734 -0.063299,-0.1213 -0.1153236,-0.27027 -0.1156105,-0.33103 -2.869e-4,-0.0608 -0.073937,-0.27164 -0.1636666,-0.46861 -0.08973,-0.19697 -0.18911,-0.46158 -0.2208452,-0.58802 -0.031735,-0.12644 -0.08754,-0.2299 -0.1240098,-0.2299 -0.03647,0 -0.088208,-0.0872 -0.114972,-0.19388 -0.026764,-0.10664 -0.1653272,-0.44001 -0.3079174,-0.74084 -0.1425902,-0.30082 -0.2412642,-0.47074 -0.2192755,-0.37761 0.3141559,1.33061 0.3441971,5.36361 0.05176,6.94866 -0.2169563,1.17594 -0.3500684,1.78472 -0.415828,1.90179 -0.040096,0.0714 -0.099705,0.26188 -0.1324644,0.42333 -0.07394,0.36441 -0.4948453,1.63302 -0.5609035,1.69055 -0.026731,0.0233 -0.098357,0.22331 -0.1591701,0.4445 -0.060813,0.2212 -0.1437172,0.40217 -0.1842321,0.40217 -0.040515,0 -0.073476,0.0476 -0.073246,0.10583 5.271e-4,0.13374 -0.8530822,1.84543 -0.9952506,1.99572 -0.058208,0.0615 -0.1058333,0.14454 -0.1058333,0.18445 0,0.0399 -0.048424,0.12292 -0.1076077,0.18445 -0.059184,0.0615 -0.2395626,0.32143 -0.4008408,0.57755 -0.1612781,0.25612 -0.3232699,0.50377 -0.3599821,0.55033 -0.03671,0.0466 -0.317069,0.40852 -0.623016,0.80434 -1.155686,1.49516 -2.934594,3.1304 -4.6045535,4.23268 -0.442384,0.292 -0.899583,0.59539 -1.015999,0.6742 -0.265852,0.17997 -2.472355,1.27379 -2.569538,1.27379 -0.03953,0 -0.191929,0.0539 -0.338667,0.11969 -0.146738,0.0658 -0.419196,0.16374 -0.605463,0.21757 -0.186267,0.0538 -0.414867,0.13191 -0.508,0.17352 -0.389714,0.17412 -2.114623,0.57704 -3.259667,0.76142 -0.256116,0.0412 -1.227666,0.0988 -2.158999,0.12785 l -1.693334,0.0529 -0.846666,-0.12645 c -2.767645,-0.41333 -5.375146,-1.59138 -7.096292,-3.20604 l -0.481375,-0.45159 v -0.2316 c 0,-0.12729 0.0381,-0.23143 0.08467,-0.23143 0.04657,0 0.08467,-0.0342 0.08467,-0.0759 0,-0.0895 2.613845,-2.71807 2.70282,-2.71807 0.03337,0 0.179293,0.10478 0.324261,0.23284 0.562428,0.49682 1.315701,1.03716 1.445871,1.03716 0.04672,0 0.09764,0.0298 0.113159,0.0662 0.06275,0.14715 1.399554,0.73416 2.102556,0.92326 1.349112,0.3629 3.443956,0.45894 4.402666,0.20184 0.162984,-0.0437 0.534154,-0.13862 0.824822,-0.2109 0.290669,-0.0723 0.595469,-0.16757 0.677334,-0.21174 0.08186,-0.0442 0.434594,-0.21452 0.783844,-0.37855 0.64904,-0.30485 1.063816,-0.53579 1.232849,-0.68643 0.05225,-0.0466 0.223313,-0.17992 0.380136,-0.29633 0.666038,-0.49443 1.099005,-0.9444 1.885718,-1.95977 0.238377,-0.30766 0.790365,-1.27524 0.862324,-1.51157 0.03545,-0.11641 0.116468,-0.28681 0.180046,-0.37867 0.06358,-0.0919 0.115595,-0.21944 0.115595,-0.28354 0,-0.0641 0.05625,-0.23659 0.124992,-0.38332 0.323009,-0.68947 0.564743,-3.08861 0.39371,-3.90747 -0.04863,-0.23283 -0.131666,-0.67098 -0.18452,-0.97366 -0.05285,-0.30269 -0.125364,-0.58844 -0.161133,-0.635 -0.03577,-0.0466 -0.0923,-0.19837 -0.125633,-0.33734 -0.03333,-0.13897 -0.152883,-0.45442 -0.265674,-0.70101 -0.112791,-0.24658 -0.205075,-0.48531 -0.205075,-0.53049 0,-0.0452 -0.03045,-0.0822 -0.06766,-0.0822 -0.03721,0 -0.115878,-0.13335 -0.174814,-0.29634 -0.05894,-0.16298 -0.140222,-0.29633 -0.180636,-0.29633 -0.04041,0 -0.09749,-0.0756 -0.126832,-0.16809 -0.116922,-0.36839 -1.238528,-1.6101 -2.032395,-2.25003 -1.070576,-0.86298 -2.61701,-1.58403 -3.894666,-1.81597 -0.93452,-0.16965 -1.015491,-0.18944 -1.121833,-0.27425 -0.229728,-0.18319 -0.04552,-0.42183 1.576303,-2.04214 l 1.682136,-1.68056 0.2709,0.0595 c 0.148995,0.0327 0.373109,0.11283 0.49803,0.178 0.124922,0.0652 0.261102,0.11873 0.302623,0.11902 0.144324,10e-4 1.744841,0.79094 1.744841,0.86118 0,0.0389 0.04763,0.0709 0.105833,0.0712 0.115423,6.3e-4 1.170392,0.71149 1.758248,1.18476 0.465903,0.37508 1.481785,1.38513 1.834325,1.82378 0.148174,0.18437 0.367249,0.45502 0.486834,0.60144 0.119584,0.14642 0.217426,0.30835 0.217426,0.35983 0,0.0515 0.0393,0.0936 0.08732,0.0936 0.04803,0 0.11213,0.0667 0.142449,0.14817 0.0522,0.14031 0.14204,0.28639 0.528483,0.85934 0.09107,0.13503 0.190454,0.34458 0.220845,0.46567 0.03039,0.12109 0.08627,0.22016 0.1241784,0.22016 0.03791,0 0.1149431,0.14287 0.1711891,0.3175 0.05625,0.17462 0.130436,0.3556 0.164866,0.40216 0.03443,0.0466 0.110629,0.23707 0.169333,0.42334 0.0587,0.18626 0.135628,0.37676 0.170942,0.42333 0.03531,0.0466 0.112844,0.31327 0.172288,0.59267 0.05944,0.2794 0.136888,0.54639 0.172098,0.59331 0.136181,0.18149 0.364272,1.92028 0.410197,3.12701 l 0.04814,1.26499 0.232833,-0.47649 c 0.128058,-0.26207 0.232833,-0.53604 0.232833,-0.60883 0,-0.0728 0.03663,-0.13233 0.0814,-0.13233 0.04477,0 0.124697,-0.16192 0.177611,-0.35983 0.05292,-0.19791 0.126858,-0.39793 0.164319,-0.4445 0.03746,-0.0466 0.111525,-0.25612 0.164588,-0.46567 0.05306,-0.20955 0.132359,-0.4572 0.176213,-0.55033 0.682321,-1.44906 0.782676,-5.68476 0.196587,-8.29733 -0.08357,-0.37254 -0.176935,-0.69639 -0.207473,-0.71967 -0.03054,-0.0233 -0.104274,-0.26141 -0.163859,-0.52917 -0.05959,-0.26775 -0.134342,-0.48683 -0.166128,-0.48683 -0.03178,0 -0.104972,-0.15747 -0.162637,-0.34994 -0.118199,-0.39451 -1.055168,-2.24552 -1.240541,-2.45073 -0.06641,-0.0735 -0.12075,-0.15957 -0.12075,-0.19123 0,-0.0574 -0.337216,-0.55221 -0.698532,-1.02499 -0.4328495,-0.56637 -1.1500955,-1.3758 -1.5751455,-1.77758 -0.649491,-0.61394 -0.68007,-0.6407 -1.240385,-1.08537 -0.672089,-0.53338 -0.617795,-0.49375 -1.100271,-0.80302 -0.232833,-0.14924 -0.461433,-0.30093 -0.508,-0.33708 -0.04657,-0.0362 -0.218016,-0.13336 -0.381,-0.21602 -0.162983,-0.0827 -0.467783,-0.24102 -0.677334,-0.35189 -0.602877,-0.31898 -1.295741,-0.62305 -1.569069,-0.68858 -0.138195,-0.0331 -0.289871,-0.0903 -0.337057,-0.12698 -0.04719,-0.0367 -0.275786,-0.11083 -0.508,-0.16473 -0.232214,-0.0539 -0.498407,-0.13267 -0.591541,-0.17505 -0.200522,-0.0912 -1.435751,-0.31302 -2.322126,-0.41692 -1.447005,-0.16962 -1.456557,-0.1402 0.766524,-2.36136 l 1.78873,-1.7872 0.222103,0.004 c 0.232017,0.004 0.431082,0.0434 1.619103,0.32197 0.952605,0.22334 1.855005,0.4707 2.116667,0.5802 0.116417,0.0487 0.345017,0.11687 0.508,0.15147 0.162984,0.0346 0.334434,0.0916 0.381,0.12675 0.04657,0.0351 0.237067,0.11189 0.423334,0.17059 0.186266,0.0587 0.376766,0.13521 0.423333,0.17001 0.04657,0.0348 0.179917,0.0915 0.296333,0.12602 0.482344,0.14301 3.4147815,1.64152 3.7676665,1.92532 0.04657,0.0375 0.332317,0.22363 0.635,0.41373 0.780932,0.49046 1.8751355,1.30139 2.7070049,2.0062 0.5934581,0.50281 2.5697404,2.47723 2.9819241,2.9791 0.9221146,1.12277 1.10861753,1.3609 1.50770553,1.92505 0.139718,0.19751 0.254032,0.39754 0.254032,0.4445 0,0.047 0.0393,0.0854 0.08732,0.0854 0.04803,0 0.112857,0.0667 0.144064,0.14817 0.05066,0.13229 0.249061,0.45193 0.553331,0.89148 0.3161,0.45663 1.42310197,2.6155 1.53994497,3.00319 0.03158,0.10477 0.08992,0.1905 0.129648,0.1905 0.03973,0 0.09863,0.12382 0.130881,0.27516 0.03226,0.15135 0.130534,0.43501 0.218394,0.63036 0.08786,0.19535 0.159746,0.38009 0.159746,0.41054 0,0.0304 0.0541,0.1754 0.120232,0.32214 0.155344,0.34471 0.534083,1.58017 0.608492,1.98493 0.03174,0.17263 0.08546,0.33292 0.119378,0.3562 0.03392,0.0233 0.121613,0.36618 0.194869,0.762 0.07326,0.39582 0.173572,0.91138 0.222923,1.1457 0.521187,2.47457 0.484894,8.58874 -0.05904,9.94563 -0.028,0.0699 -0.118037,0.4318 -0.200081,0.80434 -0.267445,1.21437 -0.437722,1.86186 -0.500975,1.905 -0.03414,0.0233 -0.110826,0.26141 -0.170411,0.52916 -0.05959,0.26776 -0.134288,0.48684 -0.166007,0.48684 -0.03172,0 -0.107941,0.20955 -0.169383,0.46566 -0.06144,0.25612 -0.143726,0.46567 -0.182855,0.46567 -0.03913,0 -0.07114,0.056 -0.07114,0.12449 0,0.0685 -0.09078,0.32565 -0.201733,0.5715 -0.110952,0.24586 -0.22782,0.53274 -0.259705,0.63751 -0.03189,0.10478 -0.08747,0.1905 -0.123533,0.1905 -0.03606,0 -0.11122,0.1524 -0.167026,0.33867 -0.05581,0.18626 -0.132007,0.33866 -0.169334,0.33866 -0.03733,0 -0.113526,0.1524 -0.169333,0.33867 -0.05581,0.18627 -0.130926,0.33867 -0.166932,0.33867 -0.03601,0 -0.117788,0.13335 -0.181738,0.29633 -0.06395,0.16298 -0.14726097,0.29633 -0.18513597,0.29633 -0.03788,0 -0.06956,0.0476 -0.07041,0.10584 -0.0013,0.0897 -0.348941,0.67087 -0.569733,0.9525 -0.03651,0.0466 -0.198535,0.29421 -0.360059,0.55033 -0.161525,0.25612 -0.323144,0.50377 -0.359153,0.55033 -0.03601,0.0466 -0.25557,0.33232 -0.4879125,0.635 -0.72556273,0.94523 -0.86730613,1.11429 -1.67544543,1.99835 -0.6555522,0.71714 -1.3519196,1.38179 -2.5998227,2.48139 -0.093133,0.0821 -0.5122333,0.40298 -0.9313329,0.71314 -0.4191,0.31016 -0.8001,0.59333 -0.846667,0.62928 -0.04657,0.0359 -0.275167,0.18746 -0.508,0.3367 -0.232833,0.14925 -0.461433,0.30233 -0.508,0.34019 -0.426103,0.34639 -2.9800565,1.66486 -3.9793325,2.05431 -0.372534,0.14518 -0.791634,0.31549 -0.931334,0.37845 -0.1397,0.063 -0.3683,0.14171 -0.508,0.17501 -0.1397,0.0333 -0.2921,0.0875 -0.338666,0.12039 -0.04657,0.0329 -0.275167,0.1074 -0.508,0.16551 -0.232834,0.0581 -0.499534,0.14004 -0.592667,0.18207 -0.66699,0.30101 -3.506085,0.79334 -5.294349,0.9181 -2.223348,0.1551 -2.401025,0.1591 -3.383985,0.0761 z m 13.292666,-7.90198 c 0,-0.0233 -0.01905,-0.0423 -0.04233,-0.0423 -0.02328,0 -0.04233,0.019 -0.04233,0.0423 0,0.0233 0.01905,0.0423 0.04233,0.0423 0.02328,0 0.04233,-0.019 0.04233,-0.0423 z m 1.7780001,-17.61066 c 0,-0.0233 -0.01905,-0.0423 -0.04233,-0.0423 -0.02328,0 -0.04233,0.019 -0.04233,0.0423 0,0.0233 0.01905,0.0423 0.04233,0.0423 0.02328,0 0.04233,-0.019 0.04233,-0.0423 z m -20.9126661,5.24439 c 0.320594,-0.0697 0.762,-0.0816 0.762,-0.0204 0,0.0372 -0.200025,0.0632 -0.4445,0.0578 -0.244475,-0.005 -0.38735,-0.0222 -0.3175,-0.0374 z m 1.947333,-0.0718 c 0,-0.0777 0.0593,-0.10357 0.170653,-0.0744 0.260248,0.0681 0.290078,0.19352 0.04601,0.19352 -0.129735,0 -0.216664,-0.0478 -0.216664,-0.11907 z m 7.577667,-14.91402 c -0.2794,-0.10826 -0.4318,-0.19827 -0.338667,-0.20001 0.18005,-0.003 0.889,0.29166 0.889,0.36997 0,0.0256 -0.0095,0.0421 -0.02117,0.0367 -0.01164,-0.005 -0.249766,-0.0984 -0.529166,-0.20663 z m 27.9399993,40.9033 c -0.1397,-0.0637 -0.993079,-0.83439 -1.896398,-1.71263 L 4.50364,416.16802 4.46454,415.69648 C 4.41246,415.0685 4.5073,414.90879 5.5403743,413.8849 l 0.854255,-0.84667 h 0.5851 0.585099 l 0.78914,0.75894 c 2.1115077,2.03069 2.5502997,2.47377 2.6600957,2.6861 0.132468,0.25616 0.162408,0.99996 0.04025,0.99996 -0.04315,0 -0.09078,0.0548 -0.105833,0.12167 -0.01506,0.0669 -0.381445,0.50373 -0.814198,0.97069 l -0.7868227,0.84904 -0.313843,0.0872 c -0.415408,0.11537 -0.683215,0.10609 -0.991177,-0.0344 z m 1.077045,-1.80106 c 0.645922,-0.63918 0.676459,-0.56213 -0.789671,-1.99231 -1.48632,-1.44988 -1.318573,-1.38596 -1.949771,-0.7429 -0.616377,0.62797 -0.719532,0.39203 0.836897,1.91418 1.56209,1.5277 1.301898,1.41541 1.902545,0.82103 z m -64.4657403,-0.0888 c -0.40445,-0.4532 -0.82355,-0.91749 -0.931333,-1.03177 -0.86257,-0.91454 -0.913908,-0.74384 0.65053,-2.16289 1.047045,-0.94974 1.005612,-0.91253 1.69697,-1.524 0.703223,-0.62197 0.86219,-0.76459 1.278368,-1.1469 0.505694,-0.46455 0.531597,-0.47063 0.780718,-0.18343 0.832822,0.96014 1.117587,1.27903 1.483187,1.66088 0.775626,0.81012 0.780696,0.88098 0.10279,1.43647 l -0.381965,0.313 -0.236284,-0.25441 c -0.129957,-0.13992 -0.464885,-0.51956 -0.744285,-0.84365 -0.2794,-0.32408 -0.5461,-0.591 -0.592666,-0.59314 -0.126873,-0.006 -0.898446,0.75507 -0.84816,0.83643 0.05491,0.0888 0.521014,0.63063 0.826993,0.96127 0.319491,0.34524 0.296294,0.46691 -0.168276,0.88265 -0.519818,0.46518 -0.454261,0.4966 -1.526021,-0.73153 l -0.250482,-0.28703 -0.163308,0.16003 c -0.08982,0.088 -0.302095,0.2804 -0.471724,0.42751 l -0.308417,0.26749 0.311697,0.33316 c 1.265284,1.35239 1.286617,1.40698 0.759736,1.94383 -0.463776,0.47255 -0.417007,0.48967 -1.268068,-0.46397 z m -4.217637,-6.00591 c -0.271119,-0.0986 -0.621649,-0.52171 -1.037986,-1.25275 -0.238683,-0.4191 -0.464728,-0.7747 -0.502324,-0.79022 -0.0376,-0.0155 -0.06836,-0.28261 -0.06836,-0.59353 v -0.56531 l 0.210935,-0.22749 c 0.209967,-0.22644 1.166475,-0.82912 1.315889,-0.82912 0.320743,0 0.675781,1.13339 0.40109,1.2804 -0.103814,0.0556 -0.236483,0.14875 -0.294821,0.20708 -0.05834,0.0583 -0.154374,0.12296 -0.213414,0.14359 l -0.107345,0.0375 0.138152,0.16053 c 0.07598,0.0883 0.164276,0.24627 0.196205,0.35104 0.03193,0.10478 0.08896,0.1905 0.126743,0.1905 0.03778,0 0.116034,0.1143 0.1739,0.254 0.05786,0.1397 0.152939,0.254 0.211274,0.254 0.117647,0 0.889392,-0.41455 0.889392,-0.47775 0,-0.10779 -0.192697,-0.85531 -0.258793,-1.00392 -0.109144,-0.24538 -0.343443,-1.21255 -0.392039,-1.61829 l -0.04172,-0.34829 0.579108,-0.32175 c 0.318509,-0.17697 0.598264,-0.34409 0.621678,-0.37138 0.68038,-0.79307 2.539762,-0.24953 2.539762,0.74243 0,0.0533 0.03563,0.0969 0.07919,0.0969 0.04355,0 0.127406,0.13335 0.186342,0.29633 0.05894,0.16299 0.131486,0.29634 0.161223,0.29634 0.125556,0 0.250582,0.46671 0.250582,0.93541 v 0.50411 l -0.348876,0.33857 c -0.191882,0.18622 -0.385898,0.33857 -0.431146,0.33857 -0.04525,0 -0.176436,0.0741 -0.291528,0.16461 -0.221532,0.17425 -0.45245,0.15044 -0.45245,-0.0467 0,-0.0649 -0.03563,-0.11795 -0.07919,-0.11795 -0.04355,0 -0.127406,-0.13335 -0.186342,-0.29633 -0.05894,-0.16298 -0.137601,-0.29633 -0.174813,-0.29633 -0.196899,0 -0.027,-0.31812 0.25007,-0.46824 0.369239,-0.20005 0.374387,-0.3274 0.0346,-0.85591 -0.123932,-0.19277 -0.26343,-0.41308 -0.309997,-0.48958 l -0.08467,-0.1391 -0.35497,0.14068 c -0.432862,0.17155 -0.520392,0.8138 -0.183508,1.34648 0.02945,0.0466 0.10201,0.31327 0.161244,0.59267 0.05923,0.2794 0.139768,0.54419 0.178966,0.58843 0.0392,0.0442 0.07127,0.22444 0.07127,0.40045 v 0.32001 l -0.3175,0.17519 c -0.627778,0.34639 -0.826182,0.46408 -0.867833,0.51479 -0.276054,0.3361 -1.339453,0.59879 -1.778,0.43921 z m 74.50566,-0.14184 c -0.16243,-0.11078 -0.523928,-0.34451 -0.803328,-0.5194 -0.2794,-0.17489 -0.6223,-0.39747 -0.762,-0.49461 -0.290023,-0.20168 -0.588089,-0.25121 -2.7305,-0.45377 l -1.5451657,-0.1461 0.0015,-0.17185 c 0.0014,-0.15328 0.338069,-0.74021 0.601988,-1.0494 l 0.09863,-0.11555 0.6014187,0.0539 c 0.33078,0.0297 0.803444,0.0768 1.050364,0.1047 l 0.448946,0.0507 -0.21492,-0.32781 c -0.118206,-0.18029 -0.244031,-0.36591 -0.279612,-0.41248 -0.03558,-0.0466 -0.121782,-0.19896 -0.191558,-0.33866 -0.06978,-0.1397 -0.149797,-0.27305 -0.177825,-0.29634 -0.02803,-0.0233 -0.0961,-0.12805 -0.15128,-0.23283 l -0.100321,-0.1905 0.100321,-0.1905 c 0.05518,-0.10477 0.123191,-0.20955 0.151145,-0.23283 0.02795,-0.0233 0.114759,-0.15664 0.192901,-0.29634 0.0845,-0.15107 0.223728,-0.26422 0.343574,-0.27922 l 0.201498,-0.0252 0.374031,0.57556 c 0.205717,0.31655 0.416687,0.65175 0.468823,0.74488 0.05214,0.0931 0.175826,0.30269 0.274866,0.46567 0.09904,0.16298 0.243603,0.41063 0.32125,0.55033 0.07765,0.1397 0.168644,0.27305 0.202216,0.29634 0.03357,0.0233 0.12415,0.16551 0.201286,0.31606 0.07714,0.15056 0.25985,0.33559 0.406032,0.41118 0.146182,0.0756 0.307462,0.17317 0.3584,0.21683 0.179925,0.15423 1.279964,0.83451 1.426115,0.88193 0.08149,0.0264 0.148167,0.0836 0.148167,0.12704 0,0.0434 0.05715,0.079 0.127,0.079 0.161045,0 0.159361,0.0261 -0.02325,0.36014 -0.444344,0.81285 -0.605631,0.89043 -1.120753,0.5391 z m 5.46232,-21.80986 -1.523686,-0.76405 H 17.37725 15.874103 v -0.67733 -0.67734 h 1.383125 1.383125 l 1.793773,-0.889 c 2.159982,-1.07049 1.971421,-1.0561 1.94144,-0.14816 l -0.02446,0.74083 -0.919149,0.45379 -0.919148,0.45379 0.326482,0.18433 c 0.179565,0.10138 0.459832,0.23791 0.622815,0.3034 0.162983,0.0655 0.315383,0.14245 0.338667,0.17102 0.02328,0.0286 0.167666,0.10266 0.320851,0.16464 l 0.278518,0.11268 -0.02452,0.64451 -0.02452,0.64451 -0.211667,0.0232 c -0.132127,0.0145 -0.784233,-0.2639 -1.735352,-0.74084 z m -87.045434,0.30452 c -0.02464,-0.0642 -0.03297,-0.86134 -0.01851,-1.77139 l 0.0263,-1.65463 0.211666,-0.22919 c 0.500747,-0.54219 2.963333,-0.69231 2.963333,-0.18065 0,0.0463 0.0801,0.0116 0.177995,-0.0771 l 0.177995,-0.16129 0.88827,-0.0291 c 1.11799,-0.0366 1.367119,0.0113 1.726375,0.33179 l 0.289032,0.25787 0.02612,1.74366 0.02612,1.74366 -0.110791,0.0703 c -0.06093,0.0386 -1.512161,0.0708 -3.224947,0.0716 l -3.114158,10e-4 z m 2.572378,-2.02107 -0.02459,-0.6985 h -0.592666 -0.592667 l -0.02459,0.6985 -0.02459,0.6985 h 0.641848 0.641848 z m 2.557743,-0.025 v -0.72354 l -0.5715,0.025 -0.5715,0.025 -0.02459,0.6985 -0.02459,0.6985 h 0.596091 0.596091 z m 76.977564,-5.30897 c -0.05374,-0.10477 -0.107806,-0.39853 -0.12014,-0.65278 l -0.02243,-0.46229 1.115058,-0.55371 c 1.329485,-0.6602 1.232152,-0.57518 1.161847,-1.01484 l -0.05704,-0.35674 -0.178597,0.0565 c -0.16915,0.0534 -1.564593,0.33801 -2.138265,0.43603 l -0.266334,0.0455 -0.05597,-0.36806 c -0.03078,-0.20244 -0.09765,-0.45249 -0.148595,-0.55568 -0.176954,-0.35841 -0.06591,-0.41467 1.393395,-0.70595 0.454025,-0.0906 1.2065,-0.24097 1.672166,-0.33411 0.465667,-0.0931 1.218142,-0.2404 1.672167,-0.32726 0.454025,-0.0869 0.88265,-0.17882 0.9525,-0.20434 0.06985,-0.0255 0.243236,-0.0663 0.385303,-0.0906 l 0.258304,-0.0442 0.105353,0.35681 c 0.05795,0.19625 0.158261,0.6605 0.222925,1.03168 0.06466,0.37117 0.157285,0.82726 0.205823,1.01353 0.04854,0.18627 0.08916,0.53709 0.09027,0.7796 l 0.002,0.44094 -0.323662,0.34024 -0.323663,0.34024 -0.628837,0.1381 c -1.247044,0.27388 -1.395253,0.29528 -1.687171,0.24368 -0.162984,-0.0288 -0.398065,-0.14887 -0.522403,-0.26679 l -0.22607,-0.2144 -1.153042,0.5597 c -1.313987,0.63781 -1.255174,0.62214 -1.38492,0.36919 z m 4.453958,-1.99487 c 0.466574,-0.10164 0.456785,-0.0856 0.351066,-0.57342 -0.04962,-0.22891 -0.11176,-0.52534 -0.138098,-0.65873 l -0.04789,-0.24252 -0.518135,0.0578 c -0.680646,0.076 -0.686176,0.0848 -0.560124,0.8951 l 0.107484,0.69094 0.221253,-0.045 c 0.121688,-0.0248 0.384687,-0.0806 0.584442,-0.12416 z m -80.669522,0.91062 c -0.442384,-0.0871 -1.166284,-0.23437 -1.608667,-0.3272 -0.442383,-0.0928 -1.166283,-0.24442 -1.608667,-0.33688 -0.442383,-0.0925 -0.994833,-0.21011 -1.227666,-0.26145 -0.232833,-0.0513 -0.509058,-0.11141 -0.613833,-0.13348 l -0.1905,-0.0401 0.002,-0.27356 c 0.0011,-0.15045 0.04209,-0.42595 0.09107,-0.61222 0.04898,-0.18626 0.157137,-0.70061 0.240356,-1.143 0.212426,-1.12922 0.487033,-1.69333 0.824315,-1.69333 0.06173,0 0.112241,-0.0411 0.112241,-0.0914 0,-0.12312 1.042581,-0.0529 1.855751,0.12495 0.723826,0.15832 1.175384,0.45357 1.247853,0.81592 l 0.04857,0.24288 0.858077,-0.0401 c 0.471943,-0.0221 1.096203,-0.0569 1.387244,-0.0773 0.595158,-0.0418 0.57009,-0.0808 0.437663,0.67966 l -0.0915,0.52546 -0.183662,0.09 c -0.101015,0.0495 -0.708619,0.10491 -1.350232,0.12312 -1.268006,0.036 -1.303342,0.0487 -1.34513,0.48395 l -0.0283,0.29477 0.296333,0.0624 c 0.162983,0.0343 0.658283,0.13692 1.100667,0.22798 0.442383,0.0911 0.89313,0.19274 1.001659,0.22597 l 0.197325,0.0604 -0.05494,0.17884 c -0.03022,0.0984 -0.100714,0.36934 -0.15666,0.60218 l -0.101721,0.42333 -0.167666,0.0133 c -0.09222,0.007 -0.529615,-0.058 -0.971998,-0.14509 z m -2.455334,-2.17965 c 0,-0.13039 0.03365,-0.27326 0.07477,-0.3175 0.04113,-0.0442 0.100294,-0.2593 0.131487,-0.47792 l 0.05671,-0.39749 -0.321986,-0.0534 c -0.177093,-0.0294 -0.424462,-0.0923 -0.54971,-0.13983 -0.357966,-0.13584 -0.398108,-0.048 -0.606133,1.32689 -0.007,0.0466 0.21579,0.12814 0.49519,0.18128 0.72958,0.13874 0.719666,0.14042 0.719666,-0.12201 z m 76.789793,-4.1021 c -0.0016,-0.0582 -0.07649,-0.25823 -0.16646,-0.4445 -0.08997,-0.18627 -0.164881,-0.38643 -0.166461,-0.44481 -0.0016,-0.0584 -0.079,-0.24818 -0.172051,-0.42179 -0.09305,-0.1736 -0.192538,-0.44016 -0.221089,-0.59236 -0.02855,-0.15219 -0.07969,-0.27671 -0.113633,-0.27671 -0.08386,0 -0.284598,-0.8588 -0.246398,-1.05416 0.01842,-0.0942 0.165627,-0.20288 0.369298,-0.27261 0.186267,-0.0638 0.458725,-0.17235 0.605463,-0.24126 0.146737,-0.0689 0.319235,-0.1253 0.383327,-0.1253 0.06409,0 0.191685,-0.052 0.283538,-0.11559 0.09185,-0.0636 0.262256,-0.14343 0.378672,-0.17745 0.220278,-0.0644 2.878471,-1.09764 3.175,-1.23417 0.711951,-0.32779 0.819985,-0.28968 0.98311,0.3468 0.05898,0.23013 0.134003,0.41841 0.166718,0.41841 0.03271,0 0.08545,0.10345 0.117182,0.2299 0.03173,0.12644 0.128331,0.38494 0.214657,0.57443 0.08633,0.1895 0.184658,0.45752 0.218514,0.59561 0.03386,0.13808 0.092,0.27125 0.129209,0.29593 0.03721,0.0247 0.09198,0.19699 0.121707,0.38292 l 0.05406,0.33805 -0.40991,0.1764 c -0.225451,0.097 -0.510012,0.20048 -0.632359,0.22992 l -0.222449,0.0535 -0.0506,-0.253 c -0.02783,-0.13916 -0.127753,-0.42237 -0.222051,-0.62936 -0.0943,-0.207 -0.172808,-0.40703 -0.174468,-0.44451 -0.0017,-0.0375 -0.08738,-0.24499 -0.1905,-0.46114 l -0.187482,-0.393 -0.423334,0.19948 c -0.232833,0.10971 -0.475088,0.20084 -0.538345,0.2025 -0.139437,0.004 -0.08112,0.28445 0.175851,0.84675 0.0965,0.21116 0.193232,0.53971 0.21495,0.73011 l 0.03949,0.34618 -0.392653,0.10994 c -0.215959,0.0605 -0.41297,0.14281 -0.437802,0.18299 -0.175288,0.28362 -0.549333,-0.19067 -0.684886,-0.86844 -0.02682,-0.13411 -0.07908,-0.24385 -0.116126,-0.24385 -0.03704,0 -0.09245,-0.11426 -0.123128,-0.25392 l -0.05577,-0.25393 -0.226122,0.0538 c -0.124367,0.0296 -0.321371,0.10276 -0.437788,0.16263 -0.116417,0.0599 -0.275562,0.12863 -0.353657,0.1528 l -0.14199,0.0439 0.140286,0.44953 c 0.07716,0.24724 0.164108,0.46858 0.193221,0.49186 0.02911,0.0233 0.101159,0.19473 0.160099,0.381 0.05894,0.18627 0.140661,0.37486 0.181602,0.4191 0.04094,0.0442 0.07444,0.18201 0.07444,0.30616 v 0.22572 l -0.495526,0.18068 c -0.565827,0.20631 -0.773236,0.22628 -0.777347,0.0748 z m -71.625126,-0.7995 c -0.151141,-0.0539 -0.654704,-0.27455 -1.194607,-0.52343 -0.21465,-0.099 -0.417035,-0.1799 -0.449743,-0.1799 -0.03271,0 -0.276185,-0.0983 -0.54106,-0.2185 -0.264874,-0.12017 -0.55779,-0.25045 -0.650923,-0.2895 -0.09313,-0.0391 -0.386049,-0.16933 -0.650924,-0.28951 -0.264875,-0.12017 -0.505441,-0.21849 -0.534592,-0.21849 -0.02915,0 -0.250585,-0.0893 -0.492076,-0.19851 -0.241491,-0.10918 -0.601,-0.26891 -0.798908,-0.35496 -0.423214,-0.18401 -0.418473,-0.15998 -0.148167,-0.75093 0.116417,-0.25451 0.211667,-0.4866 0.211667,-0.51575 0,-0.0291 0.09898,-0.26972 0.219951,-0.53459 0.321664,-0.7043 0.43131,-0.96566 0.498876,-1.18915 0.156218,-0.51672 0.415944,-0.61662 0.911953,-0.35078 0.173767,0.0931 0.37799,0.16933 0.45383,0.16933 h 0.13789 l -0.04955,0.24777 c -0.04653,0.23265 -0.114786,0.39869 -0.618191,1.50383 -0.226928,0.49817 -0.245285,0.61885 -0.09426,0.61959 0.05821,2.9e-4 0.201985,0.0507 0.319504,0.11204 0.341552,0.17826 0.770625,0.3118 0.715565,0.22271 -0.02763,-0.0447 -0.01401,-0.0813 0.03025,-0.0813 0.04427,0 0.106308,-0.10477 0.137868,-0.23283 0.03156,-0.12806 0.127866,-0.38524 0.214012,-0.5715 0.08615,-0.18627 0.177891,-0.40621 0.203876,-0.48876 0.07708,-0.24487 0.264021,-0.25582 0.805983,-0.0472 l 0.512618,0.19731 0.0012,0.214 c 6.83e-4,0.11769 -0.05049,0.28914 -0.11371,0.381 -0.06322,0.0919 -0.164251,0.3194 -0.224505,0.50567 -0.06025,0.18626 -0.165038,0.42398 -0.232855,0.52826 l -0.123304,0.18959 0.411308,0.17838 c 0.22622,0.0981 0.498171,0.2123 0.604335,0.25377 l 0.193027,0.0754 0.08015,-0.21081 c 0.04408,-0.11594 0.157244,-0.38004 0.251473,-0.58689 0.09423,-0.20684 0.171325,-0.40257 0.171325,-0.43495 0,-0.54438 0.514491,-0.92953 0.962235,-0.72033 0.192554,0.09 0.416774,0.18451 0.498265,0.21009 0.144915,0.0455 0.215159,0.39049 0.07951,0.39049 -0.03776,0 -0.117485,0.1905 -0.177158,0.42333 -0.05967,0.23283 -0.143076,0.42333 -0.185339,0.42333 -0.04226,0 -0.07684,0.0576 -0.07684,0.12793 0,0.12031 -0.06518,0.27917 -0.561911,1.36966 -0.110049,0.2416 -0.200089,0.47565 -0.200089,0.52011 0,0.14485 -0.267654,0.2107 -0.508,0.12497 z m 2.298902,-7.3285 c -0.507233,-0.52387 -1.116608,-1.16205 -1.354167,-1.41817 -0.237559,-0.25611 -0.814008,-0.8649 -1.280997,-1.35287 -0.466989,-0.48796 -0.849071,-0.93645 -0.849071,-0.99664 0,-0.12688 0.382315,-0.73314 0.6478,-1.02726 l 0.182133,-0.20178 0.2412,0.0595 c 0.13266,0.0327 0.41265,0.13715 0.6222,0.23208 0.506528,0.22945 0.775301,0.3424 1.481667,0.62268 0.325966,0.12933 0.752501,0.30547 0.947855,0.3914 0.195353,0.0859 0.385853,0.15754 0.423333,0.15912 0.03748,0.002 0.220545,0.0765 0.406812,0.16646 0.186266,0.09 0.369601,0.16488 0.407409,0.16646 0.03781,0.002 0.266409,0.0922 0.508,0.20133 0.241592,0.10915 0.601182,0.26734 0.799091,0.35152 0.322019,0.13699 0.497001,0.38136 0.273071,0.38136 -0.04772,0 -0.122976,0.0953 -0.167238,0.21166 -0.04426,0.11642 -0.119519,0.21167 -0.167238,0.21167 -0.04772,0 -0.08676,0.0558 -0.08676,0.12402 0,0.33772 -0.630394,0.32756 -1.16288,-0.0187 l -0.189214,-0.12306 -0.08386,0.22056 c -0.04612,0.12131 -0.1229,0.22056 -0.170619,0.22056 -0.04772,0 -0.08676,0.0512 -0.08676,0.11388 0,0.0626 -0.07679,0.18337 -0.170641,0.26831 l -0.17064,0.15443 0.42464,0.40929 c 0.396327,0.38201 0.539455,0.66276 0.337878,0.66276 -0.04772,0 -0.122976,0.0953 -0.167237,0.21167 -0.04426,0.11641 -0.119519,0.21166 -0.167238,0.21166 -0.04772,0 -0.08676,0.0531 -0.08676,0.11795 0,0.11043 -0.17174,0.22072 -0.343686,0.22072 -0.04171,0 -0.490846,-0.42862 -0.998079,-0.9525 z m 0.330543,-1.94733 c 0.21647,-0.25949 0.203623,-0.39151 -0.04738,-0.48694 -0.116567,-0.0443 -0.383144,-0.15857 -0.592394,-0.2539 -0.848906,-0.38672 -0.859701,-0.37147 -0.205555,0.29032 0.728404,0.73691 0.643961,0.6919 0.845333,0.45052 z m 65.552115,2.75166 c -0.02995,-0.0815 -0.104956,-0.17863 -0.1666757,-0.21587 -0.06172,-0.0372 -0.112218,-0.12107 -0.112218,-0.18629 0,-0.0652 -0.05836,-0.15124 -0.129678,-0.19116 -0.07132,-0.0399 -0.149304,-0.20373 -0.173292,-0.36404 l -0.04361,-0.29147 0.40345,-0.42333 c 0.2218977,-0.23284 0.7666047,-0.79726 1.2104587,-1.25428 l 0.807009,-0.83094 -0.592667,0.2677 c -0.325966,0.14723 -0.716491,0.32113 -0.867833,0.38644 -0.151342,0.0653 -0.398992,0.17396 -0.5503327,0.24145 -0.151342,0.0675 -0.519091,0.22281 -0.817221,0.34516 l -0.542054,0.22246 -0.177613,-0.21698 c -0.799332,-0.9765 -0.796701,-1.00345 0.203388,-2.08322 2.4776687,-2.67509 3.5669717,-3.80879 3.6596347,-3.80879 0.09377,0 0.397386,0.34503 0.401548,0.45633 0.0015,0.0414 0.05612,0.11763 0.121267,0.16933 0.06515,0.0517 0.142271,0.17455 0.171385,0.27299 l 0.05293,0.17899 -0.700551,0.72089 c -0.385303,0.3965 -1.060471,1.09413 -1.500374,1.5503 l -0.7998217,0.82939 0.3341557,-0.17671 c 0.183785,-0.0972 0.51513,-0.25625 0.736322,-0.35345 0.221192,-0.0972 0.573617,-0.25293 0.783167,-0.34606 0.20955,-0.0931 0.542925,-0.24128 0.740833,-0.32921 0.197908,-0.0879 0.586265,-0.26398 0.863016,-0.39122 l 0.503182,-0.23133 0.157527,0.20071 c 0.08664,0.11039 0.209679,0.26438 0.273421,0.34218 0.478224,0.58376 0.451335,0.63495 -1.204479,2.29311 l -1.502834,1.50496 0.508,-0.24723 c 0.489832,-0.2384 0.96599,-0.45705 1.862667,-0.85537 0.232833,-0.10343 0.664116,-0.29827 0.958407,-0.43299 0.660363,-0.3023 0.736224,-0.3033 0.921518,-0.0121 0.08149,0.12806 0.171915,0.25188 0.200944,0.27516 0.07864,0.0631 0.247464,0.40014 0.247464,0.49408 0,0.0943 -0.476716,0.39047 -0.772713,0.47999 -0.110524,0.0334 -0.315254,0.11078 -0.454954,0.1719 -0.1397,0.0611 -0.53975,0.23123 -0.889,0.37803 -0.349249,0.14681 -0.755057,0.32116 -0.901795,0.38746 -0.146738,0.0663 -0.294964,0.12054 -0.329393,0.12054 -0.03443,0 -0.228696,0.0762 -0.431704,0.16934 -1.928458,0.88471 -2.371711,1.02577 -2.46088,0.78316 z m -60.700991,-7.52224 c -0.505397,-0.53996 -1.204652,-1.27599 -1.553902,-1.63562 -1.629652,-1.6781 -2.060181,-2.20676 -1.799167,-2.20924 0.03493,-3.3e-4 0.2159,-0.15086 0.402167,-0.33451 0.403029,-0.39737 0.56188,-0.41955 0.803631,-0.11221 0.165777,0.21075 0.855402,0.93334 3.27157,3.42796 1.010794,1.04361 1.006358,1.02982 0.480641,1.4944 -0.547587,0.4839 -0.569776,0.47518 -1.60494,-0.63078 z m 54.432483,-0.0554 c -0.36452,-0.33761 -0.918578,-0.84814 -1.231241,-1.13452 -0.69561,-0.63712 -0.697176,-0.69466 -0.03791,-1.39314 0.290272,-0.30754 0.794467,-0.85617 1.120433,-1.21916 0.325967,-0.363 0.863152,-0.94958 1.1937443,-1.30351 0.330593,-0.35393 0.768743,-0.84072 0.973667,-1.08177 0.450806,-0.53027 0.458442,-0.53141 0.88146,-0.13097 0.185788,0.17586 0.747371,0.69607 1.247963,1.15601 1.025345,0.94207 1.052663,1.01151 0.597836,1.51963 -0.45643,0.50991 -0.397891,0.52982 -1.485841,-0.50528 -0.682481,-0.64933 -0.682854,-0.64937 -1.139887,-0.14063 -0.417258,0.46448 -0.421617,0.47917 -0.190217,0.64125 0.09555,0.0669 0.382526,0.32096 0.637726,0.56453 l 0.464,0.44284 -0.05597,0.18111 c -0.05557,0.17979 -0.645101,0.81611 -0.756106,0.81611 -0.07199,0 -0.46556,-0.32489 -0.991445,-0.81843 l -0.4010753,-0.37641 -0.423405,0.44925 -0.423405,0.44925 0.803313,0.76287 c 0.9208713,0.8745 0.9244033,0.88534 0.4470183,1.37176 -0.4598623,0.46857 -0.4522833,0.47011 -1.2306523,-0.25079 z m -51.499048,-0.99873 c -0.168482,-0.10419 -1.07528,-0.50418 -1.143,-0.50418 -0.02925,0 -0.250767,-0.089 -0.492259,-0.19777 -0.241491,-0.10877 -0.655592,-0.28617 -0.920225,-0.39422 l -0.481151,-0.19645 -0.137667,-0.38895 c -0.07572,-0.21391 -0.201332,-0.57944 -0.279145,-0.81227 -0.07781,-0.23284 -0.164116,-0.44239 -0.191784,-0.46567 -0.02767,-0.0233 -0.102536,-0.23283 -0.166374,-0.46567 -0.06384,-0.23283 -0.165558,-0.51858 -0.226044,-0.635 -0.06049,-0.11641 -0.110209,-0.3225 -0.110496,-0.45796 l -5.22e-4,-0.2463 0.400322,-0.36753 c 0.536708,-0.49276 0.770067,-0.43216 0.912837,0.23703 0.03337,0.15644 0.129113,0.43683 0.212751,0.6231 0.08364,0.18626 0.178813,0.48154 0.211502,0.65616 0.03269,0.17463 0.08721,0.3175 0.121155,0.3175 0.03395,0 0.113188,0.21454 0.176092,0.47675 l 0.11437,0.47675 0.301319,0.12121 c 0.165725,0.0667 0.415619,0.17174 0.555319,0.2335 0.1397,0.0618 0.34925,0.14024 0.465667,0.17441 0.116416,0.0342 0.249766,0.0912 0.296333,0.12678 0.135787,0.10372 1.398025,0.59194 1.530397,0.59194 0.265242,0 0.09771,0.34482 -0.36623,0.75379 -0.505093,0.44524 -0.571131,0.47417 -0.783167,0.34305 z m 46.3549993,-3.08699 c -0.5692808,-0.34771 -0.635,-0.41094 -0.635,-0.61088 0,-0.10613 0.030477,-0.19297 0.067727,-0.19297 0.03725,0 0.1168848,-0.238 0.1769668,-0.52889 0.060082,-0.29089 0.1344362,-0.54806 0.1652316,-0.5715 0.030795,-0.0234 0.1172977,-0.28453 0.1922274,-0.5802 l 0.1362359,-0.53759 -0.263361,-0.1606 c -0.3461244,-0.21106 -0.3622666,-0.20757 -0.5270004,0.11394 -0.077543,0.15135 -0.1675264,0.29422 -0.1999623,0.3175 -0.054525,0.0391 -0.6133128,0.98271 -0.8053084,1.35984 -0.1094955,0.21508 -0.2606535,0.19902 -0.7117123,-0.0756 -0.6767249,-0.41203 -0.6644919,-0.48774 0.3306256,-2.04623 0.4495408,-0.70403 0.49653,-0.78205 0.6502002,-1.0795 0.078188,-0.15134 0.1732027,-0.27516 0.2111447,-0.27516 0.037942,0 0.068985,-0.0356 0.068985,-0.079 0,-0.0725 0.4937034,-0.92372 0.592537,-1.02163 0.023503,-0.0233 0.099762,-0.15663 0.169463,-0.29633 0.069701,-0.1397 0.1476701,-0.27305 0.1732634,-0.29633 0.025593,-0.0233 0.1510852,-0.22331 0.2788707,-0.4445 0.28253783,-0.48907 0.24004063,-0.48818 1.00116083,-0.0208 0.341571,0.20972 0.716467,0.4288 0.833101,0.48683 1.03796997,0.51645 1.46200497,0.96221 1.50699597,1.58421 l 0.03607,0.49868 -0.279308,0.49298 c -0.153619,0.27114 -0.300934,0.51203 -0.327366,0.53531 -0.02643,0.0233 -0.105148,0.15633 -0.174924,0.29565 -0.241594,0.48241 -0.99326397,0.93363 -1.27018097,0.76249 -0.04459,-0.0276 -0.105732,0.10409 -0.135868,0.29254 -0.03014,0.18846 -0.08395,0.34265 -0.119591,0.34265 -0.03564,0 -0.10581,0.23283 -0.155934,0.51739 -0.05012,0.28456 -0.128725,0.56268 -0.174667,0.61803 -0.04594,0.0554 -0.109121,0.26069 -0.140398,0.45629 -0.06724,0.42049 -0.177922,0.44419 -0.67022613,0.14348 z m 1.65099973,-4.14819 c 0.06395,-0.16298 0.141145,-0.29633 0.171546,-0.29633 0.0304,0 0.09827,-0.0944 0.150815,-0.20969 l 0.09554,-0.20969 -0.399451,-0.23195 c -0.219698,-0.12757 -0.4517,-0.28277 -0.515561,-0.34487 -0.168332,-0.16371 -0.341108,-0.0979 -0.503516,0.19187 -0.07831,0.1397 -0.165245,0.27305 -0.193199,0.29633 -0.02795,0.0233 -0.09444,0.1252 -0.1477447,0.22648 l -0.09692,0.18415 0.52803885,0.34502 c 0.644931,0.4214 0.76176,0.42764 0.910451,0.0487 z M -43.69309,355.98542 c -0.142008,-0.0644 -0.361658,-0.24595 -0.488109,-0.40346 -0.126452,-0.15752 -0.262284,-0.32689 -0.30185,-0.37639 -0.378194,-0.47315 -0.341696,-0.71303 0.150554,-0.9895 0.558042,-0.31342 0.696197,-0.29827 0.944082,0.10355 0.2035,0.32988 0.360633,0.41952 0.458313,0.26147 0.02702,-0.0437 0.257864,-0.19891 0.512997,-0.34488 0.50716,-0.29017 0.567552,-0.44619 0.294544,-0.76098 -0.09313,-0.10738 -0.169917,-0.21798 -0.17063,-0.24578 -7.13e-4,-0.0278 -0.03281,-0.10023 -0.07133,-0.16096 l -0.07003,-0.11041 -0.415507,0.10146 c -0.228529,0.0558 -0.453607,0.12908 -0.500173,0.16283 -0.04657,0.0337 -0.294217,0.10944 -0.550334,0.1682 -0.256116,0.0588 -0.509258,0.14127 -0.562536,0.18335 -0.05328,0.0421 -0.285525,0.0988 -0.516105,0.12616 l -0.419236,0.0496 -0.182395,-0.25615 c -0.100317,-0.14088 -0.182394,-0.28045 -0.182394,-0.31016 0,-0.0297 -0.03864,-0.10002 -0.08586,-0.15626 -0.16669,-0.19853 -0.506807,-0.74569 -0.506807,-0.81532 0,-0.0388 -0.05715,-0.11797 -0.127,-0.17594 -0.14574,-0.12095 -0.183421,-1.10067 -0.04233,-1.10067 0.04657,0 0.08467,-0.0538 0.08467,-0.11947 0,-0.0657 0.123825,-0.21868 0.275167,-0.33994 0.151342,-0.12126 0.316843,-0.25394 0.367781,-0.29485 0.05094,-0.0409 0.203339,-0.13675 0.338667,-0.21297 0.135329,-0.0762 0.360352,-0.2137 0.500052,-0.30552 0.946306,-0.62193 1.699021,-0.53228 2.221033,0.26454 0.103969,0.1587 0.227794,0.33457 0.275167,0.39081 0.111193,0.13201 0.11171,0.44807 7.33e-4,0.44807 -0.04697,0 -0.243186,0.1143 -0.436036,0.254 -0.445683,0.32285 -0.521157,0.31884 -0.796637,-0.0423 -0.240055,-0.31473 -0.378554,-0.36187 -0.559713,-0.1905 -0.08535,0.0807 -0.737505,0.53168 -0.898676,0.6214 -0.05096,0.0284 0.270618,0.62743 0.33681,0.62743 0.03794,0 0.06899,0.0575 0.06899,0.12772 v 0.12772 l 0.148166,-0.0792 c 0.08149,-0.0436 0.491067,-0.17977 0.910167,-0.30265 0.4191,-0.12289 0.915674,-0.27806 1.103497,-0.34483 0.525068,-0.18665 0.774554,-0.1573 0.947053,0.11144 0.0822,0.12806 0.178767,0.27093 0.214594,0.3175 0.03583,0.0466 0.242186,0.35136 0.458577,0.67733 l 0.393438,0.59267 0.03908,0.44059 c 0.06445,0.72661 -0.119981,1.07676 -0.733595,1.39277 -0.121721,0.0627 -0.259411,0.14394 -0.305978,0.18056 -0.8639,0.67942 -1.624112,0.93318 -2.120864,0.70793 z m 6.688742,-3.25231 c -0.04883,-0.0342 -0.138116,-0.2309 -0.198406,-0.43709 -0.06029,-0.20618 -0.15947,-0.45383 -0.2204,-0.55033 -0.06093,-0.0965 -0.1366,-0.29928 -0.168154,-0.45062 -0.03156,-0.15134 -0.08768,-0.27517 -0.124728,-0.27517 -0.03705,0 -0.09034,-0.1149 -0.118423,-0.25533 -0.02809,-0.14043 -0.147149,-0.45843 -0.264583,-0.70667 -0.117434,-0.24824 -0.213517,-0.51116 -0.213517,-0.58428 0,-0.0731 -0.02857,-0.14564 -0.0635,-0.16116 -0.03493,-0.0155 -0.130175,-0.2092 -0.211667,-0.43039 -0.08149,-0.22119 -0.214841,-0.58314 -0.296333,-0.80433 -0.08149,-0.2212 -0.169071,-0.42122 -0.194622,-0.4445 -0.05346,-0.0487 -0.249878,-0.69702 -0.249878,-0.82474 0,-0.047 0.117342,-0.1089 0.26076,-0.13758 0.143417,-0.0287 0.387525,-0.11231 0.542461,-0.18583 l 0.281702,-0.13368 0.177205,0.15173 c 0.09746,0.0834 0.177205,0.20285 0.177205,0.26534 0,0.0625 0.09525,0.32184 0.211667,0.57636 0.116417,0.25451 0.211667,0.51877 0.211667,0.58724 0,0.0685 0.03507,0.12449 0.07794,0.12449 0.04287,0 0.104264,0.12382 0.136437,0.27517 0.03217,0.15134 0.149501,0.47632 0.260728,0.72217 0.111226,0.24586 0.202229,0.50303 0.202229,0.5715 0,0.0685 0.03507,0.12449 0.07794,0.12449 0.04287,0 0.104263,0.12383 0.136437,0.27517 0.03217,0.15134 0.149501,0.47632 0.260727,0.72217 0.111226,0.24586 0.202229,0.50303 0.202229,0.5715 0,0.0685 0.03183,0.12449 0.07073,0.12449 0.0389,0 0.131675,0.21895 0.206158,0.48656 l 0.135425,0.48655 -0.142659,0.085 c -0.423979,0.25247 -0.976166,0.36255 -1.16278,0.23182 z m 28.1557891,-0.36652 c -0.162984,-0.0454 -0.372534,-0.11944 -0.465667,-0.16444 -0.09313,-0.045 -0.340783,-0.13614 -0.550333,-0.20256 -0.4827311,-0.153 -1.0754591,-0.36712 -1.3758341,-0.49701 l -0.232833,-0.10068 v -0.27015 c 0,-0.14859 0.04372,-0.37741 0.09717,-0.5085 0.226632,-0.55593 0.511789,-1.36431 0.599269,-1.69885 0.05175,-0.19791 0.121536,-0.35983 0.155074,-0.35983 0.03354,0 0.08773,-0.14288 0.120414,-0.3175 0.03269,-0.17463 0.128723,-0.4699 0.213411,-0.65617 0.08469,-0.18626 0.180723,-0.48154 0.213412,-0.65616 0.03269,-0.17463 0.08723,-0.3175 0.121205,-0.3175 0.03397,0 0.1085211,-0.20891 0.1656591,-0.46423 0.05714,-0.25532 0.139402,-0.48617 0.182807,-0.51299 0.0434,-0.0268 0.07892,-0.1276 0.07892,-0.22394 v -0.17515 l 0.355633,0.0569 c 0.195598,0.0313 0.395623,0.0894 0.4445,0.12908 0.04888,0.0397 0.260317,0.12092 0.469867,0.18044 0.20955,0.0595 0.4191,0.13594 0.465667,0.1698 0.04657,0.0339 0.256117,0.10612 0.465667,0.16056 1.12646,0.29268 2.0639506,1.5212 1.4502686,1.90047 -0.040552,0.0251 -0.096877,0.1613 -0.1251666,0.30275 -0.09258,0.4629 -0.457707,1.15262 -0.691154,1.30558 -0.167204,0.10956 -0.203512,0.17507 -0.134999,0.24358 0.143642,0.14364 0.111661,0.62238 -0.06794,1.017 -0.08891,0.19535 -0.188401,0.49806 -0.22109,0.67268 -0.03269,0.17463 -0.09329,0.3175 -0.134677,0.3175 -0.04139,0 -0.07524,0.0566 -0.07524,0.1258 0,0.34755 -0.977126,0.69606 -1.524,0.54356 z m 0.459195,-1.69199 c 0.0444,-0.15933 0.107719,-0.30875 0.140708,-0.33203 0.05937,-0.0419 0.106005,-0.29508 0.08718,-0.47331 -0.0054,-0.0508 -0.221076,-0.14301 -0.479362,-0.20497 -0.258287,-0.062 -0.489136,-0.14425 -0.512997,-0.18286 -0.09525,-0.15411 -0.276496,-0.0554 -0.376489,0.20497 -0.232105,0.60444 -0.331745,0.86852 -0.332961,0.88244 -7.01e-4,0.008 0.141601,0.0583 0.316226,0.11173 0.174625,0.0534 0.3937,0.12979 0.486833,0.16971 0.498082,0.21348 0.567484,0.1953 0.670862,-0.17568 z m 0.785614,-2.21586 c 0.04412,-0.0582 0.127698,-0.27173 0.185739,-0.47448 0.05804,-0.20276 0.124474,-0.41802 0.147628,-0.47836 0.02672,-0.0696 -0.07601,-0.1464 -0.281206,-0.21015 -0.177817,-0.0553 -0.449795,-0.15737 -0.604396,-0.22693 -0.382249,-0.172 -0.482221,-0.11132 -0.602306,0.36558 -0.05654,0.22454 -0.13993,0.45299 -0.185312,0.50767 -0.105197,0.12676 -0.0059,0.19139 0.645113,0.41992 0.645944,0.22674 0.600963,0.22048 0.69474,0.0968 z m -23.9836441,2.49637 c -0.04978,-0.0342 -0.152612,-0.38606 -0.228524,-0.78188 -0.07591,-0.39581 -0.217798,-1.10066 -0.315302,-1.56633 -0.703345,-3.3591 -0.752992,-3.60932 -0.758218,-3.82141 l -0.0045,-0.18074 0.486833,-0.0605 c 0.267758,-0.0333 0.524933,-0.0853 0.5715,-0.11559 0.084,-0.0546 1.326877,-0.31805 1.915197,-0.40594 0.342221,-0.0511 0.772359,0.12848 1.017568,0.4249 0.19299,0.23329 0.288687,0.62557 0.811625,3.32697 0.08265,0.42696 0.178852,0.80478 0.213777,0.83961 0.103399,0.10309 0.07233,0.95291 -0.04233,1.15807 -0.303975,0.54385 -0.557717,0.67344 -1.799166,0.91884 -0.465667,0.092 -0.999067,0.20204 -1.185334,0.24442 -0.418563,0.0952 -0.566973,0.0995 -0.683168,0.0196 z m 1.838295,-1.64215 0.595078,-0.0983 -0.05422,-0.21922 c -0.02982,-0.12057 -0.110908,-0.54307 -0.180197,-0.93889 -0.06929,-0.39582 -0.157181,-0.77737 -0.195316,-0.84789 -0.03813,-0.0705 -0.118925,-0.46154 -0.179533,-0.86892 -0.143756,-0.96626 -0.152413,-0.9705 -1.413821,-0.69316 l -0.188212,0.0414 0.08091,0.18946 c 0.0445,0.1042 0.137012,0.49426 0.205583,0.8668 0.410881,2.23223 0.518256,2.667 0.658674,2.667 0.04178,0 0.343758,-0.0442 0.671051,-0.0983 z m 6.376778,0.60073 c -0.03916,-0.0634 -0.19912,-6.23804 -0.16586,-6.40251 0.0017,-0.009 0.802911,-0.0426 1.780362,-0.0756 l 1.777182,-0.0598 0.109271,0.13166 c 0.07084,0.0854 0.100339,0.32035 0.08387,0.66823 l -0.0254,0.53656 -0.931333,0.0527 c -0.512233,0.029 -1.036108,0.0576 -1.164166,0.0635 l -0.232834,0.0108 v 0.59266 0.59267 h 0.927497 0.927497 l 0.05198,0.27707 c 0.02859,0.15239 0.03984,0.44767 0.025,0.65617 l -0.02698,0.37909 -0.938727,0.0238 -0.938727,0.0238 0.0074,0.63175 0.0074,0.63174 1.1049,6.1e-4 c 1.308849,7.3e-4 1.308099,2.8e-4 1.308099,0.77955 v 0.57573 h -1.815336 c -1.193314,0 -1.834441,-0.0309 -1.871092,-0.0902 z"
       id="path16" /></g></svg>
