<?xml version="1.0" encoding="UTF-8" standalone="no"?>
<!-- Created with Inkscape (http://www.inkscape.org/) -->

<svg
   width="124.17762mm"
   height="89.457878mm"
   viewBox="0 0 124.17762 89.457881"
   version="1.1"
   id="svg1"
   xml:space="preserve"
   inkscape:version="1.3 (0e150ed, 2023-07-21)"
   sodipodi:docname="sposors.svg.2024_04_11_12_57_32.0.svg"
   inkscape:export-filename="../../repos/bridgetownbluegrass.com/public/images/sponsors/eartrumpet.svg"
   inkscape:export-xdpi="300"
   inkscape:export-ydpi="300"
   xmlns:inkscape="http://www.inkscape.org/namespaces/inkscape"
   xmlns:sodipodi="http://sodipodi.sourceforge.net/DTD/sodipodi-0.dtd"
   xmlns="http://www.w3.org/2000/svg"
   xmlns:svg="http://www.w3.org/2000/svg"><sodipodi:namedview
     id="namedview1"
     pagecolor="#ffffff"
     bordercolor="#000000"
     borderopacity="0.25"
     inkscape:showpageshadow="2"
     inkscape:pageopacity="0.0"
     inkscape:pagecheckerboard="0"
     inkscape:deskcolor="#d1d1d1"
     inkscape:document-units="mm"
     inkscape:zoom="0.090542812"
     inkscape:cx="-5621.65"
     inkscape:cy="-1640.1081"
     inkscape:window-width="1680"
     inkscape:window-height="968"
     inkscape:window-x="1988"
     inkscape:window-y="25"
     inkscape:window-maximized="0"
     inkscape:current-layer="layer-MC0"
     showgrid="false"><inkscape:page
       x="-8.5808606e-05"
       y="4.9262991e-07"
       width="124.17761"
       height="89.457878"
       id="page4"
       margin="0"
       bleed="0"
       inkscape:export-filename="../../repos/bridgetownbluegrass.com/public/images/sponsors/eartrumpet.svg"
       inkscape:export-xdpi="300"
       inkscape:export-ydpi="300" /></sodipodi:namedview><defs
     id="defs1" /><g
     inkscape:label="Layer 1"
     inkscape:groupmode="layer"
     id="layer1"
     transform="translate(-399.73876,-343.75099)"><path
       style="fill:#8a8a8a;fill-opacity:1;stroke-width:0.999997"
       d="m 461.0234,432.94905 c -0.10789,-0.14238 -0.30799,-0.65 -0.4446,-1.12804 -0.30691,-1.074 -0.98389,-1.62933 -2.21057,-1.81327 l -0.94141,-0.14115 -0.76237,0.37619 c -0.47199,0.23289 -0.96978,0.73118 -1.30703,1.30823 l -0.54469,0.93204 -0.68198,-0.0335 c -0.79152,-0.0391 -1.03198,-0.32929 -1.03638,-1.25113 -0.008,-1.52818 -1.21615,-2.54697 -3.02211,-2.54697 h -0.99488 l -0.9591,1.03779 -0.9591,1.03782 -0.65859,-0.2297 -0.6586,-0.22946 v -1.27993 c 0,-1.91382 -1.14061,-3.02909 -3.09794,-3.02909 h -0.83614 l -0.80239,0.72494 c -0.91206,0.82396 -1.23627,0.8828 -1.9006,0.34485 l -0.46935,-0.38007 0.23925,-0.68644 c 0.91694,-2.63041 -1.95743,-4.93859 -4.22975,-3.39654 l -0.7987,0.54201 -0.50325,-0.17957 c -0.87509,-0.31219 -0.97881,-0.73951 -0.46788,-1.92727 1.09051,-2.53493 -1.34725,-4.63838 -4.07062,-3.51239 -0.84219,0.3482 -1.3118,0.10788 -1.59056,-0.81428 l -0.19766,-0.65414 -0.73425,-0.11864 c -22.14042,-3.57726 -26.15923,-7.51536 -26.60967,-26.07524 -0.47739,-19.67144 3.93836,-24.87298 24.0113,-28.28413 3.44395,-0.58528 3.41748,-0.57752 3.41748,-1.00088 0,-0.20574 0.22947,-0.58983 0.51006,-0.85337 l 0.51007,-0.47918 1.0569,0.45467 1.05688,0.45467 0.69771,-0.2302 c 1.76209,-0.58153 2.6353,-2.33766 1.95204,-3.92589 l -0.46252,-1.07517 0.55351,-0.55351 0.5535,-0.5535 0.56585,0.35777 c 0.31124,0.19669 0.88306,0.50646 1.27073,0.68817 l 0.70485,0.3304 0.89068,-0.34016 c 0.48989,-0.18714 1.18506,-0.67542 1.54484,-1.08518 l 0.65413,-0.74502 -0.1113,-0.95029 c -0.0611,-0.52263 -0.17491,-1.15671 -0.25251,-1.40902 l -0.14115,-0.45876 0.73685,-0.35138 0.73683,-0.35136 0.8336,0.75309 c 1.38847,1.25439 3.04449,1.13657 4.25563,-0.30275 l 0.52368,-0.62239 v -1.21953 -1.21955 l 0.40063,-0.2143 c 0.72014,-0.38542 1.15688,-0.22848 1.92668,0.6925 0.92862,1.11092 1.51847,1.2799 2.98207,0.85444 l 1.1273,-0.32773 0.40548,-0.66502 c 0.2231,-0.36578 0.40584,-1.00314 0.40628,-1.41639 8.4e-4,-0.82633 0.23436,-1.11106 1.08647,-1.32494 l 0.56556,-0.14189 0.36531,0.66922 c 1.56893,2.87415 4.57593,2.81628 5.60893,-0.10789 l 0.36582,-1.03559 0.5862,-0.068 c 0.73208,-0.0849 0.933,0.11474 1.34573,1.3375 0.45458,1.34653 1.15449,1.82104 2.69947,1.83012 l 1.21995,0.008 0.55553,-0.51781 c 0.30555,-0.28477 0.71288,-0.84399 0.90521,-1.24272 l 0.34967,-0.72491 0.70909,0.0585 c 0.82765,0.0682 1.0284,0.31054 1.03275,1.2463 0.0122,2.64161 3.63833,3.61693 5.15609,1.38683 0.97637,-1.43463 2.09629,-0.89946 2.09629,1.00173 v 1.22861 l 0.70529,0.6652 c 0.3879,0.36584 1.12136,0.78167 1.62987,0.92404 l 0.92455,0.25887 0.59669,-0.31034 c 0.32817,-0.17075 0.82264,-0.5522 1.09879,-0.84781 0.59211,-0.63377 1.04069,-0.67663 1.67834,-0.16024 l 0.4658,0.3772 -0.27462,1.07158 -0.27462,1.07155 0.3426,0.71848 c 0.80239,1.68259 2.82756,2.26603 4.30696,1.24081 l 0.82215,-0.56974 0.51918,0.23655 c 0.71341,0.32505 0.83375,0.77271 0.43341,1.61228 -0.76048,1.59473 -0.0971,3.28429 1.60727,4.09304 l 0.719,0.34118 0.89338,-0.33115 c 1.55407,-0.57606 1.74759,-0.58186 2.11081,-0.0634 0.1847,0.26381 0.33595,0.64531 0.33595,0.84779 0,0.20255 0.0423,0.36817 0.0937,0.36817 0.0516,0 1.89239,0.32925 4.09063,0.73169 8.6132,1.57681 14.42688,3.47527 17.24081,5.62991 7.70338,5.89862 8.27794,34.03044 0.84961,41.59907 l -1.25217,1.2758 -1.96763,0.94603 c -3.8826,1.8667 -9.68008,3.42164 -17.51399,4.69744 l -1.46219,0.23802 -0.19472,0.64353 c -0.28729,0.94914 -0.74355,1.15003 -1.64049,0.72231 -1.62488,-0.77484 -3.30798,-0.12451 -4.12301,1.59299 l -0.34119,0.71901 0.33622,0.89337 c 0.51431,1.36648 0.48035,1.85786 -0.15314,2.21757 l -0.54886,0.31166 -0.84475,-0.55903 c -2.39192,-1.5829 -5.28699,0.67017 -4.3425,3.37952 l 0.23924,0.68643 -0.46937,0.38008 c -0.6431,0.52074 -1.09031,0.47703 -1.68186,-0.16439 -1.87807,-2.03654 -4.95519,-0.71774 -4.95519,2.12373 v 1.27993 l -0.6684,0.23288 -0.66841,0.23289 -0.94199,-1.06842 -0.94198,-1.06842 -0.97412,0.0196 c -1.74885,0.035 -3.05156,1.09879 -3.05748,2.49645 -0.005,1.01358 -0.22799,1.29684 -1.05531,1.33651 l -0.70091,0.0335 -0.35706,-0.71422 c -0.19644,-0.39282 -0.59152,-0.94872 -0.87813,-1.23534 l -0.52108,-0.52108 h -1.09852 c -1.53512,0 -2.43901,0.5572 -2.84495,1.75373 -0.43884,1.29351 -0.56504,1.44185 -1.22679,1.44185 -0.32108,0 -0.67207,-0.11644 -0.77998,-0.25892 z m 7.63857,-9.03813 c 4.37973,-0.88477 8.97073,-2.7374 12.59742,-5.08351 1.91504,-1.23883 2.03963,-1.20341 -2.9144,-0.82814 -9.00006,0.68176 -25.38499,0.61526 -34.64434,-0.14067 -3.22791,-0.26348 -3.25488,-0.24438 -1.37445,0.97202 6.16998,3.99133 12.38523,5.72241 20.0854,5.59422 l 4.03884,-0.0673 z m 4.00207,-6.44773 c 23.05338,-1.11386 40.7196,-4.66948 45.27146,-9.11167 6.80287,-6.63891 6.81244,-32.91717 0.0146,-39.71513 -6.76491,-6.76489 -44.22826,-11.08824 -74.80056,-8.63211 -20.21476,1.62401 -33.69167,4.74955 -37.59908,8.71989 -6.73206,6.84049 -6.65516,32.89232 0.11694,39.62875 4.5272,4.50329 23.05533,8.1546 46.59537,9.18243 3.64783,0.15925 16.55607,0.11351 20.40131,-0.0722 z m -18.6408,-1.15566 c -23.37602,-1.17861 -40.65931,-4.15029 -46.1637,-7.93741 -3.55746,-2.4476 -5.41944,-8.51617 -5.66287,-18.45648 l -0.10935,-4.45929 0.3613,-3.30772 c 1.5271,-13.98095 5.49064,-16.56156 30.34469,-19.75693 15.79486,-2.03068 32.7441,-2.31293 50.22664,-0.83642 2.62005,0.22139 5.13656,0.45056 5.59224,0.50952 17.49672,2.26329 25.97636,4.52237 28.90637,7.70105 1.70328,1.84786 3.05508,5.58429 3.86261,10.67639 l 0.37012,2.33396 v 5.69582 5.6958 l -0.37012,2.33397 c -1.05514,6.65366 -2.83935,10.51439 -5.60928,12.13766 -7.23625,4.24073 -29.07161,7.48027 -51.70344,7.67082 -4.72752,0.0399 -9.24791,0.0394 -10.04534,-7.4e-4 z m 11.86671,-5.20964 0.0609,-1.50162 h -0.90919 -0.9092 l -1.9892,-4.19418 -1.98919,-4.19418 -2.72329,-0.10348 c -1.62393,-0.0616 -2.77778,-0.0245 -2.85826,0.0944 -0.0741,0.10886 -1.06703,1.97297 -2.2062,4.14239 l -2.0712,3.94441 h -0.82847 -0.82849 l -0.10348,1.41798 c -0.12916,1.76709 -0.35114,1.66033 3.65735,1.75831 l 3.34666,0.0817 0.14506,-1.35371 c 0.17858,-1.66757 0.10055,-1.80079 -1.05648,-1.80079 h -0.92512 l 0.32572,-0.62991 0.32573,-0.62989 1.58462,0.0604 1.58459,0.0604 0.40232,0.6902 0.40234,0.69017 -0.96108,-0.14408 -0.96105,-0.14409 v 1.56316 1.56316 l 0.56957,0.0883 c 0.31327,0.0487 2.43368,0.078 4.71199,0.0656 l 4.14239,-0.022 z m -10.38933,-5.03657 0.57122,-1.04948 0.46797,0.89414 c 0.63135,1.20637 0.63208,1.20485 -0.56186,1.20485 h -1.04851 z m 23.95469,6.01191 c 4.49137,-0.637 5.40371,-5.74184 1.03577,-5.79544 -0.20377,-0.002 0.0171,-0.18102 0.49342,-0.39688 1.08823,-0.49411 1.61899,-1.28392 1.59058,-2.36702 l -0.022,-0.8326 -0.7338,-0.67244 c -1.19956,-1.09934 -6.8038,-1.56149 -12.36577,-1.01978 -0.28481,0.0277 -0.91392,0.0651 -1.39807,0.083 l -0.88025,0.0325 v 1.44985 1.44985 h 0.93204 0.93204 v 2.69254 2.69257 h -0.80632 c -0.82294,0 -1.00676,0.18005 -0.95179,0.93204 0.0171,0.22775 0.0463,0.82505 0.0658,1.32712 l 0.0355,0.91289 5.33204,-0.14409 c 2.9326,-0.0793 5.96597,-0.23387 6.7408,-0.34388 z m -5.23786,-3.6938 v -0.80258 l 0.64727,-0.12941 c 1.73408,-0.34681 2.87378,-0.0286 2.87378,0.80259 0,0.69186 -0.55689,0.93204 -2.16115,0.93204 h -1.3599 z m 0,-3.58781 v -0.92943 l 1.33983,-0.0433 c 3.11612,-0.10078 3.16902,1.51972 0.0582,1.78365 l -1.39806,0.11864 z m -27.10345,4.70107 c 0.15852,-3.21536 0.44405,-2.84919 -2.30946,-2.96263 l -2.27647,-0.0939 v 1.29818 1.29817 l -1.08738,-0.13063 c -0.59805,-0.0719 -1.53187,-0.13136 -2.07515,-0.13234 l -0.98777,-0.002 0.0976,-0.46602 c 0.0536,-0.25633 0.15754,-1.46798 0.23093,-2.69257 l 0.13332,-2.22653 h 0.98857 0.98856 l 0.12843,-0.7767 c 0.12843,-0.77653 0.17882,-2.10814 0.0812,-2.13972 -0.34627,-0.11205 -8.96454,-0.77064 -9.044,-0.69116 -0.06,0.06 -0.14531,0.7562 -0.19007,1.54748 l -0.0812,1.43874 0.69652,0.0244 c 0.38309,0.0147 0.77897,0.01 0.87976,-0.01 0.10079,-0.0196 0.12745,0.41306 0.0592,0.95929 -0.0682,0.54621 -0.18493,1.78536 -0.25928,2.75366 l -0.13528,1.7605 -0.88923,-0.0712 -0.88923,-0.0712 -0.14874,1.38877 c -0.10494,0.97959 -0.0773,1.43292 0.0937,1.53857 0.35408,0.21894 13.28997,1.23091 15.03413,1.17623 l 0.82849,-0.0259 z m 42.96477,1.64928 0.43087,-0.0861 -0.0956,-0.65187 -0.0957,-0.65184 -1.06011,0.12745 c -0.58308,0.0699 -1.31643,0.12819 -1.6297,0.12917 l -0.56957,0.002 v 0.70526 0.7053 l 1.29448,-0.0964 c 0.712,-0.0531 1.4884,-0.13529 1.72537,-0.18275 z m -21.24644,-2.0635 c 0,-0.057 -0.0465,-0.10348 -0.10348,-0.10348 -0.057,0 -0.10348,0.0465 -0.10348,0.10348 0,0.057 0.0465,0.10347 0.10348,0.10347 0.057,0 0.10348,-0.0468 0.10348,-0.10347 z m 17.23392,-1.32098 c -0.0441,-0.2072 0.0695,-0.24659 0.41426,-0.14385 1.80373,0.53792 4.16741,0.30269 5.21155,-0.51866 l 0.54483,-0.42857 v -0.76735 c 0,-1.5218 -0.96088,-2.09604 -3.52103,-2.10429 -1.44275,-0.005 -2.01516,-0.20719 -1.75845,-0.62268 0.18495,-0.29935 2.34329,-0.14164 3.0203,0.22066 0.22775,0.12183 0.71026,0.19277 1.07202,0.15754 l 0.65778,-0.0641 -0.0619,-1.03559 c -0.0749,-1.25157 -1.68695,-1.99963 -1.68695,-0.78281 0,0.21698 -0.10812,0.26192 -0.36247,0.15045 -0.19937,-0.0873 -1.01487,-0.1962 -1.81229,-0.2422 l -1.44985,-0.0831 -0.93011,0.47886 c -2.66504,1.37201 -1.59554,3.37589 1.97549,3.70137 1.80561,0.16465 2.25234,0.30029 2.05259,0.62349 -0.18763,0.30369 -2.05609,0.22507 -3.10345,-0.13038 -1.06441,-0.36137 -2.07651,-0.32954 -2.04501,0.0643 0.0122,0.14238 0.0347,0.63709 0.0519,1.09929 l 0.031,0.84041 0.88025,-0.0636 c 0.61674,-0.0445 0.86213,-0.14923 0.81966,-0.34907 z m -72.32786,-2.61432 c 0,-0.28477 0.0932,-0.51778 0.2072,-0.51778 0.114,0 0.2072,0.23289 0.2072,0.51778 v 0.51782 h 0.62137 0.62135 v -1.34628 -1.3463 h -0.62135 -0.62137 v 0.51781 c 0,0.2848 -0.0932,0.51781 -0.2072,0.51781 -0.114,0 -0.2072,-0.23314 -0.2072,-0.51781 v -0.51781 h -0.62136 -0.62136 v 1.3463 1.34628 h 0.62136 0.62136 z m 3.52103,0.31069 c 0,-0.28084 0.77479,-0.26462 0.86905,0.0171 0.0413,0.12379 0.31976,0.19375 0.61877,0.15534 l 0.54366,-0.07 -0.51986,-1.29451 -0.51986,-1.29451 h -0.46881 -0.46881 l -0.54486,1.25638 c -0.6609,1.52387 -0.65923,1.43619 -0.0272,1.43619 0.2848,0 0.51782,-0.0932 0.51782,-0.2072 z m 0.2072,-0.93204 c 0,-0.0571 0.0465,-0.10348 0.10348,-0.10348 0.057,0 0.10348,0.0465 0.10348,0.10348 0,0.057 -0.0465,0.10347 -0.10348,0.10347 -0.057,0 -0.10348,-0.0465 -0.10348,-0.10347 z m 3.52759,0.56959 0.008,-0.56959 0.42494,0.56959 c 0.2589,0.34698 0.62056,0.56958 0.92549,0.56958 h 0.50051 v -1.34628 -1.3463 h -0.41423 -0.41426 l -0.008,0.5696 -0.008,0.56957 -0.42495,-0.56957 c -0.25889,-0.34701 -0.62055,-0.5696 -0.92548,-0.5696 h -0.50054 v 1.3463 1.34628 h 0.41426 0.41423 z m 5.58569,0.15534 c 1.00123,-1.00124 0.16659,-2.27834 -1.48889,-2.27834 h -0.99662 v 1.3463 1.34628 h 1.03559 c 0.75945,0 1.14606,-0.11058 1.44984,-0.41424 z m -1.24272,-0.81626 c 0,-0.34847 0.0932,-0.63358 0.2072,-0.63358 0.114,0 0.20721,0.2275 0.20721,0.50557 0,0.27807 -0.0932,0.56319 -0.20721,0.63359 -0.12085,0.0746 -0.2072,-0.13601 -0.2072,-0.50558 z m 72.29804,0.76447 0.0122,-0.46601 0.18739,0.46601 c 0.10299,0.2563 0.31589,0.46603 0.47302,0.46603 0.15705,0 0.38685,-0.20965 0.51047,-0.46603 l 0.22481,-0.46601 0.0146,0.46601 0.0147,0.46603 h 0.62136 0.62136 v -1.34628 -1.3463 h -0.70765 -0.70766 l -0.19888,0.5696 -0.19889,0.56957 -0.15167,-0.56957 -0.15142,-0.5696 h -0.80603 -0.80604 v 1.3463 1.34628 h 0.51781 0.51781 z m 4.54351,0.2589 c 0,-0.114 0.18641,-0.20721 0.41426,-0.20721 0.22775,0 0.41423,0.0932 0.41423,0.20721 0,0.114 0.27961,0.20719 0.62137,0.20719 0.34174,0 0.62135,-0.0267 0.62135,-0.0592 0,-0.0325 -0.21478,-0.61512 -0.47717,-1.29448 l -0.47717,-1.23521 -0.51962,-0.0619 -0.51965,-0.0619 -0.53811,1.35628 -0.53814,1.35631 h 0.49934 c 0.27462,0 0.49931,-0.0932 0.49931,-0.20721 z m 5.42061,-0.13577 c 1.03538,-0.93701 0.14238,-2.3498 -1.48532,-2.3498 h -1.03559 v 1.3463 1.34627 h 1.07106 c 0.70598,0 1.20018,-0.11693 1.44985,-0.34277 z m -1.27819,-0.88772 c 0,-0.34847 0.0932,-0.63359 0.2072,-0.63359 0.114,0 0.20721,0.22751 0.20721,0.50558 0,0.27807 -0.0932,0.56318 -0.20721,0.63359 -0.12085,0.0746 -0.2072,-0.13602 -0.2072,-0.50558 z m 5.17799,0.81626 v -0.41426 l -0.67312,-0.0281 c -0.4868,-0.0196 -0.54414,-0.0531 -0.20721,-0.11791 0.25633,-0.0494 0.46602,-0.2165 0.46602,-0.37162 0,-0.15509 -0.20964,-0.32227 -0.46602,-0.37163 -0.337,-0.0648 -0.27966,-0.0976 0.20721,-0.11792 l 0.67312,-0.0281 v -0.41423 -0.41426 h -1.24272 -1.24272 v 1.3463 1.34627 h 1.24272 1.24272 z m -93.35927,-8.81999 c 0.0666,-0.0665 -0.0577,-0.64035 -0.27614,-1.27516 l -0.39711,-1.15419 v -4.93847 -4.93844 h 1.00318 c 0.55174,0 1.53038,0.18127 2.17476,0.40307 1.40714,0.48413 1.39246,0.55055 0.47985,-2.17153 l -0.69172,-2.06328 h -5.24441 -5.24437 l -0.69172,2.06328 c -0.91262,2.72208 -0.92729,2.65566 0.47985,2.17153 0.64437,-0.22163 1.62301,-0.40307 2.17475,-0.40307 h 1.00318 v 4.93844 4.93847 l -0.41423,1.20399 c -0.22775,0.66222 -0.41425,1.23603 -0.41425,1.27516 0,0.12501 5.93245,0.0761 6.05838,-0.0499 z m 10.71835,-0.0494 c 0,-0.0937 -0.1463,-0.59925 -0.32485,-1.12359 -0.21747,-0.63839 -0.30305,-1.48889 -0.25889,-2.57411 l 0.0661,-1.62076 0.74265,-0.0621 c 0.95183,-0.0797 0.99109,-0.022 2.05184,3.01372 l 0.88651,2.53723 h 2.56082 c 1.40842,0 2.56078,-0.0624 2.56078,-0.1387 0,-0.0764 -0.26645,-0.61215 -0.59215,-1.19094 -0.32568,-0.57879 -0.94559,-2.00709 -1.37759,-3.17397 l -0.78545,-2.12166 1.06692,-1.12811 1.06691,-1.12808 v -2.13081 -2.1308 l -1.60032,-1.60976 -1.60032,-1.60976 h -5.02752 c -2.76515,0 -5.02651,0.0245 -5.02528,0.0519 8.3e-4,0.0284 0.1409,0.5093 0.31067,1.06852 l 0.30844,1.01674 v 6.05107 6.05109 l -0.31069,0.88057 c -0.171,0.4843 -0.31068,0.96204 -0.31068,1.06162 0,0.0996 1.25826,0.18103 2.79612,0.18103 1.53787,0 2.79612,-0.0765 2.79612,-0.17026 z m -0.43149,-9.23559 c -0.0474,-0.047 -0.0553,-0.74603 -0.0171,-1.55341 l 0.0688,-1.46797 h 1.22571 1.22572 l 0.41424,0.41423 c 0.57575,0.57577 0.53348,1.55653 -0.0942,2.18418 l -0.50839,0.50839 h -1.11404 c -0.61275,0 -1.1529,-0.0384 -1.20035,-0.0854 z m 21.44943,7.96077 1.43398,-1.44505 -0.0534,-5.64883 -0.0534,-5.6488 0.32039,-1.03559 c 0.17614,-0.5696 0.3214,-1.05891 0.32265,-1.08738 8.3e-4,-0.0284 -1.20943,-0.0519 -2.69032,-0.0519 -1.48092,0 -2.69157,0.0244 -2.69032,0.0519 8.4e-4,0.0283 0.1409,0.50929 0.31068,1.06852 l 0.30843,1.01672 v 4.49579 4.49579 l -0.41676,0.52985 c -0.81307,1.03363 -2.396,0.90255 -2.99079,-0.24767 l -0.32062,-0.61999 v -4.34632 c 0,-2.39047 0.0795,-4.5621 0.17687,-4.82581 0.0971,-0.26374 0.23877,-0.73583 0.31463,-1.0491 l 0.13772,-0.56957 h -2.82312 -2.82312 l 0.17835,0.7767 c 0.0981,0.42717 0.17833,3.42107 0.17833,6.6531 v 5.87643 l 1.5534,1.52483 1.5534,1.52483 3.31948,0.003 3.31948,0.002 z m 9.14521,1.08259 c -0.0572,-0.19938 -0.20842,-0.73529 -0.33563,-1.19093 -0.1414,-0.50624 -0.20696,-2.17095 -0.16856,-4.27995 l 0.0629,-3.45144 1.83898,4.53882 c 2.21362,5.46349 1.77465,5.44828 3.96807,0.13747 0.99978,-2.42071 1.85564,-4.446 1.9019,-4.50062 0.14434,-0.17027 -0.091,7.72549 -0.25128,8.43592 l -0.15191,0.67314 h 2.71605 c 1.49386,0 2.71607,-0.0815 2.71607,-0.18102 0,-0.0996 -0.13992,-0.57732 -0.31067,-1.06162 l -0.31068,-0.88057 v -6.0511 -6.05107 l 0.30843,-1.01673 c 0.16977,-0.55923 0.30945,-1.04254 0.31068,-1.07407 8.3e-4,-0.0315 -1.36,-0.0315 -3.02498,0 l -3.02725,0.0572 -1.25519,3.15858 c -1.51747,3.81861 -1.2381,3.82375 -2.81934,-0.0519 l -1.30984,-3.21036 h -2.90195 -2.90195 l 0.18127,0.67315 c 0.23435,0.87079 0.2368,13.89345 0.003,14.91265 l -0.17834,0.7767 h 2.52245 2.52246 z m 20.42741,0.24023 c 0.0673,-0.0673 -0.01,-0.49841 -0.1727,-0.9581 -0.17026,-0.48229 -0.29488,-1.61321 -0.29488,-2.67383 v -1.83803 h 2.42908 2.42908 l 1.60976,-1.60032 1.60976,-1.60034 -0.002,-2.17961 -0.003,-2.17963 -1.57567,-1.60516 -1.57563,-1.60519 h -5.0489 c -2.77692,0 -5.04792,0.0244 -5.04667,0.0519 8.4e-4,0.0283 0.14091,0.50929 0.31068,1.06852 l 0.30843,1.01673 v 6.05107 6.0511 l -0.31068,0.88057 c -0.171,0.48429 -0.31068,0.96203 -0.31068,1.06162 0,0.19912 5.44848,0.25581 5.6455,0.0587 z m -0.46749,-10.75152 v -1.55341 h 1.24273 1.24272 l 0.41423,0.41424 c 0.57577,0.57576 0.53349,1.55653 -0.0942,2.18418 l -0.50839,0.50839 h -1.14859 -1.14856 z m 20.76501,8.51041 c 0.90577,-2.63122 0.92319,-2.57206 -0.62125,-2.1103 -0.8594,0.25696 -1.74166,0.33849 -3.15992,0.29211 l -1.96763,-0.0643 v -1.24271 -1.24272 l 0.68841,-0.0661 c 0.37864,-0.0365 1.11757,0.0802 1.64208,0.25892 0.52451,0.17858 0.98366,0.32494 1.02033,0.32494 0.0367,0 0.0666,-1.11845 0.0666,-2.48544 0,-1.367 -0.0301,-2.48544 -0.0666,-2.48544 -0.0367,0 -0.49582,0.14629 -1.02033,0.32494 -0.52451,0.17858 -1.26344,0.29522 -1.64208,0.25889 l -0.68841,-0.0661 v -0.93204 -0.93204 l 1.93295,-0.0365 c 1.23361,-0.0244 2.23593,0.0704 2.77038,0.2589 1.4338,0.50587 1.44057,0.48627 0.64842,-1.8793 l -0.72824,-2.17476 h -4.87487 -4.87486 l 0.18127,0.67315 c 0.23655,0.87891 0.23607,14.13944 -7.4e-4,15.01994 l -0.182,0.6769 5.04928,-0.0555 5.04932,-0.0555 z m 11.75284,2.19649 c 0,-0.0917 -0.18812,-0.72424 -0.41824,-1.4054 l -0.41825,-1.23847 0.0558,-4.75644 0.0558,-4.75644 0.93204,-0.0597 c 0.52167,-0.0335 1.4564,0.114 2.12297,0.33465 1.42103,0.47052 1.40288,0.54856 0.49932,-2.14694 l -0.69163,-2.06329 -5.193,-0.0553 -5.19298,-0.0553 -0.74324,2.23047 c -0.40875,1.22674 -0.74321,2.29515 -0.74321,2.37423 0,0.079 0.5272,-0.0377 1.17158,-0.25928 0.64439,-0.22164 1.62302,-0.40308 2.17477,-0.40308 h 1.00317 v 4.93845 4.93847 l -0.3971,1.15418 c -0.21846,0.63482 -0.34268,1.20863 -0.27617,1.27516 0.18714,0.18714 6.05839,0.14262 6.05839,-0.046 z m -71.20545,-19.91455 c 1.74157,-0.22287 4.65776,-0.50637 6.48042,-0.6302 1.82266,-0.12378 3.61683,-0.272 3.98706,-0.32927 l 0.67314,-0.10421 v -2.3725 -2.3725 l -0.7767,0.002 c -0.42717,8.2e-4 -1.40581,0.0609 -2.17476,0.13357 l -1.39806,0.13209 v 0.97678 0.97682 l -1.08738,0.13063 c -0.59805,0.0719 -1.4271,0.13136 -1.84233,0.13234 l -0.75493,0.002 -0.077,-0.80919 -0.077,-0.80918 0.72855,-0.12061 c 0.40071,-0.0663 0.98485,-0.12158 1.29813,-0.12281 l 0.56958,-0.002 v -0.82847 -0.82849 h -1.34628 -1.34629 v -0.69903 -0.69902 l 0.64726,-0.12942 c 0.35599,-0.0712 1.19482,-0.1294 1.86408,-0.1294 h 1.21681 v 1.06374 1.06376 l 0.96096,-0.13161 c 0.52852,-0.0724 1.46056,-0.13162 2.07121,-0.13162 h 1.11025 v -2.41481 -2.41482 l -5.02267,0.13846 c -2.76246,0.0761 -6.16441,0.1984 -7.55987,0.27161 l -2.53724,0.13308 v 1.53454 1.53452 l 0.93204,-0.13968 0.93204,-0.13969 0.003,1.00734 c 0.002,0.55404 0.0609,1.77628 0.1321,2.71608 l 0.12916,1.70874 h -0.72801 c -1.02821,0 -1.21735,0.32724 -1.05991,1.83355 l 0.13308,1.27325 h 0.3768 c 0.20721,0 1.80175,-0.18225 3.54332,-0.40504 z m 48.67165,-0.57726 0.66876,-0.66877 0.0805,-1.42296 0.0805,-1.42297 -0.48769,-0.13063 c -0.94369,-0.25263 -1.21263,-0.16488 -1.21263,0.3952 0,1.42181 -0.78397,1.59787 -1.4397,0.3233 -0.45665,-0.88761 -1.35756,-1.78467 -2.08134,-2.07243 l -0.51781,-0.20598 0.62137,-0.0146 c 1.01849,-0.0244 2.08331,-0.39752 2.66443,-0.93609 l 0.54592,-0.50595 v -0.82247 c 0,-2.50303 -2.62138,-3.24015 -12.01295,-3.37793 l -4.4531,-0.0653 v 1.34628 1.34629 l 0.88027,0.0636 0.88026,0.0636 v 2.36995 2.36998 h -0.93204 -0.93205 v 1.35278 c 0,0.90459 0.0859,1.37737 0.2589,1.42696 0.35682,0.10225 8.0704,0.55875 8.14696,0.48218 0.034,-0.034 0.0905,-0.66527 0.12574,-1.40292 l 0.0641,-1.34119 -0.67315,-0.0648 -0.67315,-0.0648 v -0.81537 -0.81536 h 0.69402 c 0.38172,0 0.98547,0.10152 1.34169,0.2258 l 0.64769,0.22579 0.21063,0.75806 c 0.11571,0.4169 0.21111,0.92576 0.2116,1.13078 0.005,1.80131 2.14878,3.07659 5.02125,2.98784 l 1.60262,-0.0494 z m -9.51802,-6.41855 -0.88028,-0.0793 v -0.71302 -0.713 l 1.39806,0.003 c 1.99721,0.005 2.96249,0.57772 2.221,1.31919 -0.32947,0.32947 -0.77939,0.35956 -2.73878,0.18299 z m -58.45966,5.78998 c 0,-0.0886 -0.13822,-0.35842 -0.30721,-0.59967 l -0.30723,-0.43859 1.80884,-0.1211 c 0.99486,-0.0666 2.95059,-0.18004 4.34605,-0.25172 2.86819,-0.14752 2.80363,-0.10519 1.77027,-1.16341 l -0.76694,-0.78544 h 3.38269 3.3827 l -0.14898,-1.70681 c -0.082,-0.93874 -0.18054,-1.7581 -0.21944,-1.82083 -0.0386,-0.0627 -1.96438,0.0455 -4.27916,0.24048 -2.31476,0.19497 -4.67471,0.37677 -5.24428,0.40385 -1.44474,0.0688 -1.45912,0.10202 -0.52666,1.21567 l 0.83156,0.9932 -1.6023,0.12574 c -0.88125,0.0693 -2.69744,0.1869 -4.03595,0.26178 -1.3385,0.0748 -2.43366,0.17979 -2.43366,0.23337 0,0.0536 0.29084,0.46461 0.64634,0.91345 0.85007,1.07329 1.03824,0.99767 -4.11979,1.65536 -2.47536,0.31563 -4.59389,0.59685 -4.70778,0.62493 -0.35921,0.0886 5.02634,0.29442 8.85439,0.33845 2.02201,0.0244 3.67637,-0.0301 3.67637,-0.11865 z m 36.61793,-0.0442 2.33958,-0.002 -0.0611,-1.39806 -0.0611,-1.39806 -0.88025,0.022 c -0.97606,0.0244 -1.02393,-0.0357 -0.55786,-0.701 l 0.32245,-0.46032 h 1.52988 1.52993 l 0.32241,0.46032 c 0.45796,0.65382 0.42043,0.69912 -0.50603,0.61079 l -0.82849,-0.079 v 1.4716 1.4716 h 4.55665 4.55662 v -1.34627 -1.3463 h -0.77697 -0.77697 l -1.99065,-3.77993 -1.99063,-3.77994 h -2.87562 -2.87561 l -1.90126,3.72816 -1.90125,3.72816 -0.84386,0.0636 -0.84391,0.0636 v 1.46678 1.46678 l 1.08738,-0.13064 c 0.59808,-0.0719 2.1402,-0.13137 3.42695,-0.13235 z m 2.15985,-5.90956 0.45516,-0.93686 0.47311,0.78152 c 0.63509,1.04908 0.61715,1.09223 -0.45411,1.09223 h -0.92935 z m 52.82108,5.2871 c 1.22461,-3.7e-4 2.22655,-0.0736 2.22655,-0.16293 0,-0.0893 -1.00194,-0.27717 -2.22655,-0.41768 -1.22459,-0.14042 -3.13019,-0.3609 -4.23467,-0.48982 l -2.00815,-0.23435 0.71364,-0.87091 c 0.39251,-0.47899 0.71363,-0.92128 0.71363,-0.98285 0,-0.0616 -1.52654,-0.17932 -3.39235,-0.26162 -1.8658,-0.0822 -3.51108,-0.22309 -3.65619,-0.3127 l -0.26384,-0.16292 0.64725,-0.7852 c 0.35596,-0.43186 0.61321,-0.81919 0.57167,-0.86075 -0.0563,-0.0563 -8.79171,-0.84468 -9.69004,-0.8747 -0.15632,-0.005 -0.29862,0.74612 -0.43999,2.32524 l -0.0881,0.98383 h 3.12338 3.12339 l -0.7804,0.7992 -0.78039,0.79918 0.79015,0.13064 c 0.43456,0.0719 1.34936,0.1321 2.03286,0.13405 0.68349,0.002 2.14735,0.0632 3.25304,0.1365 l 2.01029,0.13309 -0.1979,0.36997 c -0.10887,0.20353 -0.19791,0.48391 -0.19791,0.62315 v 0.25316 l 3.26214,-0.13527 c 1.79417,-0.0744 4.26408,-0.13553 5.48867,-0.13602 z m -64.88044,-15.7556 c 7.77921,-0.56661 22.68963,-0.45188 31.74043,0.24414 3.56144,0.27392 3.62615,0.24755 2.0044,-0.81704 -11.78189,-7.73419 -27.43553,-7.77696 -39.15698,-0.1069 l -1.7335,1.1343 2.17477,-0.1255 c 1.19612,-0.069 3.43301,-0.21698 4.97088,-0.3291 z"
       id="path17" /></g></svg>
