<?xml version="1.0" encoding="UTF-8" standalone="no"?>
<!-- Created with Inkscape (http://www.inkscape.org/) -->

<svg
   width="104.80632mm"
   height="104.8201mm"
   viewBox="0 0 104.80633 104.8201"
   version="1.1"
   id="svg1"
   xml:space="preserve"
   inkscape:version="1.3 (0e150ed, 2023-07-21)"
   sodipodi:docname="sposors.svg"
   inkscape:export-filename="../../repos/bridgetownbluegrass.com/public/images/sponsors/eartrumpet.svg"
   inkscape:export-xdpi="300"
   inkscape:export-ydpi="300"
   xmlns:inkscape="http://www.inkscape.org/namespaces/inkscape"
   xmlns:sodipodi="http://sodipodi.sourceforge.net/DTD/sodipodi-0.dtd"
   xmlns="http://www.w3.org/2000/svg"
   xmlns:svg="http://www.w3.org/2000/svg"><sodipodi:namedview
     id="namedview1"
     pagecolor="#ffffff"
     bordercolor="#000000"
     borderopacity="0.25"
     inkscape:showpageshadow="2"
     inkscape:pageopacity="0.0"
     inkscape:pagecheckerboard="0"
     inkscape:deskcolor="#d1d1d1"
     inkscape:document-units="mm"
     inkscape:zoom="0.090542812"
     inkscape:cx="-5621.65"
     inkscape:cy="-1640.1081"
     inkscape:window-width="1680"
     inkscape:window-height="968"
     inkscape:window-x="1988"
     inkscape:window-y="25"
     inkscape:window-maximized="0"
     inkscape:current-layer="layer-MC0"
     showgrid="false"><inkscape:page
       x="0"
       y="0"
       width="104.80633"
       height="104.82011"
       id="page3"
       margin="0"
       bleed="0"
       inkscape:export-filename="../../repos/bridgetownbluegrass.com/public/images/sponsors/hub.svg"
       inkscape:export-xdpi="300"
       inkscape:export-ydpi="300" /><inkscape:page
       x="1131.5959"
       y="7.7108698"
       width="203.20001"
       height="203.2"
       id="page4"
       margin="0"
       bleed="0" /></sodipodi:namedview><defs
     id="defs1"><clipPath
       clipPathUnits="userSpaceOnUse"
       id="clipPath3"><path
         d="M 0,576 H 576 V 0 H 0 Z"
         transform="translate(-171.2485,-197.44731)"
         id="path3-3" /></clipPath><clipPath
       clipPathUnits="userSpaceOnUse"
       id="clipPath5"><path
         d="M 0,576 H 576 V 0 H 0 Z"
         transform="translate(-189.08301,-209.96971)"
         id="path5" /></clipPath><clipPath
       clipPathUnits="userSpaceOnUse"
       id="clipPath7"><path
         d="M 0,576 H 576 V 0 H 0 Z"
         transform="translate(-206.74221,-201.39451)"
         id="path7" /></clipPath><clipPath
       clipPathUnits="userSpaceOnUse"
       id="clipPath9"><path
         d="M 0,576 H 576 V 0 H 0 Z"
         transform="translate(-228.79101,-199.998)"
         id="path9" /></clipPath><clipPath
       clipPathUnits="userSpaceOnUse"
       id="clipPath11"><path
         d="M 0,576 H 576 V 0 H 0 Z"
         id="path11" /></clipPath><clipPath
       clipPathUnits="userSpaceOnUse"
       id="clipPath13"><path
         d="M 0,576 H 576 V 0 H 0 Z"
         transform="translate(-255.4546,-205.87701)"
         id="path13-8" /></clipPath><clipPath
       clipPathUnits="userSpaceOnUse"
       id="clipPath15"><path
         d="M 0,576 H 576 V 0 H 0 Z"
         transform="translate(-277.15821,-200.73931)"
         id="path15" /></clipPath><clipPath
       clipPathUnits="userSpaceOnUse"
       id="clipPath17"><path
         d="M 0,576 H 576 V 0 H 0 Z"
         transform="translate(-307.85641,-195.0742)"
         id="path17-0" /></clipPath><clipPath
       clipPathUnits="userSpaceOnUse"
       id="clipPath19"><path
         d="M 0,576 H 576 V 0 H 0 Z"
         transform="translate(-315.24411,-190.6797)"
         id="path19" /></clipPath><clipPath
       clipPathUnits="userSpaceOnUse"
       id="clipPath21"><path
         d="M 0,576 H 576 V 0 H 0 Z"
         transform="translate(-338.43161,-192.5254)"
         id="path21" /></clipPath><clipPath
       clipPathUnits="userSpaceOnUse"
       id="clipPath23"><path
         d="M 0,576 H 576 V 0 H 0 Z"
         transform="translate(-356.80181,-209.96971)"
         id="path23" /></clipPath><clipPath
       clipPathUnits="userSpaceOnUse"
       id="clipPath25"><path
         d="M 0,576 H 576 V 0 H 0 Z"
         transform="translate(-372.56541,-193.36131)"
         id="path25" /></clipPath><clipPath
       clipPathUnits="userSpaceOnUse"
       id="clipPath27"><path
         d="M 0,576 H 576 V 0 H 0 Z"
         transform="translate(-390.14061,-205.87701)"
         id="path27" /></clipPath><clipPath
       clipPathUnits="userSpaceOnUse"
       id="clipPath29"><path
         d="M 0,576 H 576 V 0 H 0 Z"
         transform="translate(-409.11721,-193.8037)"
         id="path29" /></clipPath><clipPath
       clipPathUnits="userSpaceOnUse"
       id="clipPath31"><path
         d="M 0,576 H 576 V 0 H 0 Z"
         transform="translate(-545.70701,-238.33011)"
         id="path31" /></clipPath><clipPath
       clipPathUnits="userSpaceOnUse"
       id="clipPath33"><path
         d="M 0,576 H 576 V 0 H 0 Z"
         transform="translate(-52.480001,-244.05571)"
         id="path33" /></clipPath><clipPath
       clipPathUnits="userSpaceOnUse"
       id="clipPath35"><path
         d="M 0,576 H 576 V 0 H 0 Z"
         transform="translate(-431.65631,-227.59671)"
         id="path35" /></clipPath><clipPath
       clipPathUnits="userSpaceOnUse"
       id="clipPath37"><path
         d="M 0,576 H 576 V 0 H 0 Z"
         transform="translate(-455.87111,-261.11131)"
         id="path37" /></clipPath><clipPath
       clipPathUnits="userSpaceOnUse"
       id="clipPath39"><path
         d="M 0,576 H 576 V 0 H 0 Z"
         transform="translate(-400.96681,-274.39941)"
         id="path39" /></clipPath><clipPath
       clipPathUnits="userSpaceOnUse"
       id="clipPath41"><path
         d="M 0,576 H 576 V 0 H 0 Z"
         transform="translate(-345.55861,-282.8428)"
         id="path41" /></clipPath><clipPath
       clipPathUnits="userSpaceOnUse"
       id="clipPath43"><path
         d="M 0,576 H 576 V 0 H 0 Z"
         transform="translate(-270.5635,-285.4453)"
         id="path43" /></clipPath><clipPath
       clipPathUnits="userSpaceOnUse"
       id="clipPath45"><path
         d="M 0,576 H 576 V 0 H 0 Z"
         transform="translate(-215.27691,-280.4932)"
         id="path45" /></clipPath><clipPath
       clipPathUnits="userSpaceOnUse"
       id="clipPath47"><path
         d="M 0,576 H 576 V 0 H 0 Z"
         transform="translate(-158.12991,-275.97171)"
         id="path47" /></clipPath><clipPath
       clipPathUnits="userSpaceOnUse"
       id="clipPath49"><path
         d="M 0,576 H 576 V 0 H 0 Z"
         transform="translate(-107.96781,-260.7949)"
         id="path49" /></clipPath><clipPath
       clipPathUnits="userSpaceOnUse"
       id="clipPath51"><path
         d="M 0,576 H 576 V 0 H 0 Z"
         transform="translate(-50.409701,-244.31541)"
         id="path51" /></clipPath><clipPath
       clipPathUnits="userSpaceOnUse"
       id="clipPath53"><path
         d="M 0,576 H 576 V 0 H 0 Z"
         transform="translate(-371.87211,-309.23631)"
         id="path53" /></clipPath><clipPath
       clipPathUnits="userSpaceOnUse"
       id="clipPath55"><path
         d="M 0,576 H 576 V 0 H 0 Z"
         transform="translate(-419.40141,-284.2354)"
         id="path55" /></clipPath><clipPath
       clipPathUnits="userSpaceOnUse"
       id="clipPath57"><path
         d="M 0,576 H 576 V 0 H 0 Z"
         transform="translate(-129.92631,-266.04201)"
         id="path57" /></clipPath><clipPath
       clipPathUnits="userSpaceOnUse"
       id="clipPath59"><path
         d="M 0,576 H 576 V 0 H 0 Z"
         transform="translate(-106.9551,-259.5127)"
         id="path59" /></clipPath><clipPath
       clipPathUnits="userSpaceOnUse"
       id="clipPath61"><path
         d="M 0,576 H 576 V 0 H 0 Z"
         transform="translate(-213.7612,-286.9297)"
         id="path61" /></clipPath><clipPath
       clipPathUnits="userSpaceOnUse"
       id="clipPath63"><path
         d="M 0,576 H 576 V 0 H 0 Z"
         transform="translate(-159.5464,-276.3643)"
         id="path63" /></clipPath><clipPath
       clipPathUnits="userSpaceOnUse"
       id="clipPath65"><path
         d="M 0,576 H 576 V 0 H 0 Z"
         transform="translate(-102.2148,-325.98341)"
         id="path65" /></clipPath><clipPath
       clipPathUnits="userSpaceOnUse"
       id="clipPath67"><path
         d="M 0,576 H 576 V 0 H 0 Z"
         transform="translate(-220.3057,-359.09911)"
         id="path67" /></clipPath><clipPath
       clipPathUnits="userSpaceOnUse"
       id="clipPath69"><path
         d="M 0,576 H 576 V 0 H 0 Z"
         transform="translate(-222.59131,-342.90671)"
         id="path69" /></clipPath><clipPath
       clipPathUnits="userSpaceOnUse"
       id="clipPath71"><path
         d="M 0,576 H 576 V 0 H 0 Z"
         transform="translate(-106.69731,-314.72221)"
         id="path71" /></clipPath><clipPath
       clipPathUnits="userSpaceOnUse"
       id="clipPath73"><path
         d="M 0,576 H 576 V 0 H 0 Z"
         transform="translate(-242.4448,-283.00201)"
         id="path73" /></clipPath><clipPath
       clipPathUnits="userSpaceOnUse"
       id="clipPath75"><path
         d="M 0,576 H 576 V 0 H 0 Z"
         transform="translate(-373.71481,-279.06051)"
         id="path75" /></clipPath><clipPath
       clipPathUnits="userSpaceOnUse"
       id="clipPath77"><path
         d="M 0,576 H 576 V 0 H 0 Z"
         transform="translate(-249.50541,-309.62791)"
         id="path77" /></clipPath><clipPath
       clipPathUnits="userSpaceOnUse"
       id="clipPath79"><path
         d="M 0,576 H 576 V 0 H 0 Z"
         transform="translate(-271.72411,-286.13091)"
         id="path79" /></clipPath><clipPath
       clipPathUnits="userSpaceOnUse"
       id="clipPath81"><path
         d="M 0,576 H 576 V 0 H 0 Z"
         transform="translate(-324.34571,-284.07421)"
         id="path81" /></clipPath><clipPath
       clipPathUnits="userSpaceOnUse"
       id="clipPath83"><path
         d="M 0,576 H 576 V 0 H 0 Z"
         transform="translate(-344.18071,-282.81451)"
         id="path83" /></clipPath><clipPath
       clipPathUnits="userSpaceOnUse"
       id="clipPath85"><path
         d="M 0,576 H 576 V 0 H 0 Z"
         transform="translate(-399.48141,-275.05861)"
         id="path85" /></clipPath><clipPath
       clipPathUnits="userSpaceOnUse"
       id="clipPath87"><path
         d="M 0,576 H 576 V 0 H 0 Z"
         transform="translate(-383.82621,-233.52051)"
         id="path87" /></clipPath><clipPath
       clipPathUnits="userSpaceOnUse"
       id="clipPath89"><path
         d="M 0,576 H 576 V 0 H 0 Z"
         transform="translate(-397.23051,-229.2568)"
         id="path89" /></clipPath><clipPath
       clipPathUnits="userSpaceOnUse"
       id="clipPath91"><path
         d="M 0,576 H 576 V 0 H 0 Z"
         transform="translate(-479.05661,-253.73541)"
         id="path91" /></clipPath><clipPath
       clipPathUnits="userSpaceOnUse"
       id="clipPath93"><path
         d="M 0,576 H 576 V 0 H 0 Z"
         transform="translate(-366.59671,-331.04251)"
         id="path93" /></clipPath><clipPath
       clipPathUnits="userSpaceOnUse"
       id="clipPath95"><path
         d="M 0,576 H 576 V 0 H 0 Z"
         transform="translate(-101.66061,-260.665)"
         id="path95" /></clipPath><clipPath
       clipPathUnits="userSpaceOnUse"
       id="clipPath97"><path
         d="M 0,576 H 576 V 0 H 0 Z"
         transform="translate(-259.33251,-357.08941)"
         id="path97" /></clipPath><clipPath
       clipPathUnits="userSpaceOnUse"
       id="clipPath99"><path
         d="M 0,576 H 576 V 0 H 0 Z"
         transform="translate(-325.81841,-284.70021)"
         id="path99" /></clipPath><clipPath
       clipPathUnits="userSpaceOnUse"
       id="clipPath101"><path
         d="M 0,576 H 576 V 0 H 0 Z"
         transform="translate(-394.66411,-359.34521)"
         id="path101" /></clipPath><clipPath
       clipPathUnits="userSpaceOnUse"
       id="clipPath103"><path
         d="M 0,576 H 576 V 0 H 0 Z"
         transform="translate(-480.80961,-253.5391)"
         id="path103" /></clipPath><clipPath
       clipPathUnits="userSpaceOnUse"
       id="clipPath105"><path
         d="M 0,576 H 576 V 0 H 0 Z"
         transform="translate(-132.1396,-267.25101)"
         id="path105" /></clipPath><clipPath
       clipPathUnits="userSpaceOnUse"
       id="clipPath107"><path
         d="M 0,576 H 576 V 0 H 0 Z"
         transform="translate(-523.89361,-316.07371)"
         id="path107" /></clipPath><clipPath
       clipPathUnits="userSpaceOnUse"
       id="clipPath109"><path
         d="M 0,576 H 576 V 0 H 0 Z"
         transform="translate(-73.233402,-304.85211)"
         id="path109" /></clipPath><clipPath
       clipPathUnits="userSpaceOnUse"
       id="clipPath111"><path
         d="M 0,576 H 576 V 0 H 0 Z"
         transform="translate(-189.1821,-335.41161)"
         id="path111" /></clipPath><clipPath
       clipPathUnits="userSpaceOnUse"
       id="clipPath113"><path
         d="M 0,576 H 576 V 0 H 0 Z"
         transform="translate(-293.84571,-286.957)"
         id="path113" /></clipPath><clipPath
       clipPathUnits="userSpaceOnUse"
       id="clipPath115"><path
         d="M 0,576 H 576 V 0 H 0 Z"
         transform="translate(-254.60451,-328.96581)"
         id="path115" /></clipPath><clipPath
       clipPathUnits="userSpaceOnUse"
       id="clipPath117"><path
         d="M 0,576 H 576 V 0 H 0 Z"
         transform="translate(-345.31151,-284.00881)"
         id="path117" /></clipPath><clipPath
       clipPathUnits="userSpaceOnUse"
       id="clipPath119"><path
         d="M 0,576 H 576 V 0 H 0 Z"
         transform="translate(-425.43361,-270.415)"
         id="path119" /></clipPath><clipPath
       clipPathUnits="userSpaceOnUse"
       id="clipPath121"><path
         d="M 0,576 H 576 V 0 H 0 Z"
         transform="translate(-455.76371,-262.4473)"
         id="path121" /></clipPath><clipPath
       clipPathUnits="userSpaceOnUse"
       id="clipPath123"><path
         d="M 0,576 H 576 V 0 H 0 Z"
         transform="translate(-131.09961,-267.8242)"
         id="path123" /></clipPath><clipPath
       clipPathUnits="userSpaceOnUse"
       id="clipPath125"><path
         d="M 0,576 H 576 V 0 H 0 Z"
         transform="translate(-547.53131,-239.88181)"
         id="path125" /></clipPath><clipPath
       clipPathUnits="userSpaceOnUse"
       id="clipPath127"><path
         d="M 0,576 H 576 V 0 H 0 Z"
         transform="translate(-99.688,-261.37501)"
         id="path127" /></clipPath><clipPath
       clipPathUnits="userSpaceOnUse"
       id="clipPath129"><path
         d="M 0,576 H 576 V 0 H 0 Z"
         transform="translate(-211.78611,-287.84181)"
         id="path129" /></clipPath><clipPath
       clipPathUnits="userSpaceOnUse"
       id="clipPath131"><path
         d="M 0,576 H 576 V 0 H 0 Z"
         transform="translate(-548.38181,-239.17971)"
         id="path131" /></clipPath></defs><g
     inkscape:label="Layer 1"
     inkscape:groupmode="layer"
     id="layer1"
     transform="translate(597.67943,-336.04013)"><path
       style="fill:#8a8a8a;fill-opacity:1;stroke-width:0.999998"
       d="m -551.14993,438.94847 c -1.37914,-3.44676 -3.55865,-3.80201 -5.94276,-0.96866 -1.65293,1.96438 -2.2127,1.87771 -2.62192,-0.4059 -0.42916,-2.395 -1.52531,-3.6627 -3.16705,-3.6627 h -1.28336 l -1.37588,1.31818 -1.3759,1.31821 -0.54626,-0.33761 c -0.30042,-0.18559 -0.54625,-1.23355 -0.54625,-2.32859 v -1.99099 l -1.0104,-1.01041 c -1.26,-1.26 -1.5771,-1.25727 -4.11067,0.0353 -2.51615,1.28364 -2.67223,1.1421 -2.51373,-2.27971 l 0.12662,-2.73459 -1.10409,-0.59088 -1.10406,-0.59089 -2.22915,0.62412 c -2.77497,0.77696 -2.99761,0.5543 -2.22068,-2.22066 l 0.62413,-2.22917 -0.60349,-1.1276 -0.60349,-1.12764 -2.75097,0.22814 c -3.31689,0.27504 -3.54965,0.002 -2.22198,-2.59972 1.27534,-2.49987 1.27685,-2.8213 0.0182,-4.07904 l -1.0104,-1.0104 h -1.99098 c -1.09505,0 -2.14291,-0.2458 -2.3286,-0.54625 l -0.33759,-0.54627 1.31818,-1.37587 1.31818,-1.3759 v -1.32557 c 0,-1.78687 -1.0403,-2.7082 -3.50249,-3.10193 -2.53502,-0.40536 -2.57658,-1.02141 -0.20708,-3.06969 l 1.84764,-1.59715 -0.35087,-1.39803 -0.35088,-1.39803 -2.25456,-0.9973 c -2.76815,-1.22448 -2.79583,-1.60605 -0.23374,-3.22342 l 2.02078,-1.27567 v -1.50292 -1.50292 l -2.02078,-1.27569 c -2.56209,-1.61737 -2.53441,-1.99892 0.23374,-3.22342 l 2.25456,-0.9973 0.35088,-1.398 0.35087,-1.39804 -1.84764,-1.59716 c -2.3695,-2.04827 -2.32794,-2.66434 0.20708,-3.06969 2.46219,-0.39371 3.50249,-1.31506 3.50249,-3.10193 v -1.32556 l -1.31818,-1.37589 -1.31818,-1.3759 0.33759,-0.54625 c 0.18559,-0.30044 1.23355,-0.54624 2.3286,-0.54624 h 1.99098 l 1.0104,-1.0104 c 1.26,-1.26003 1.25728,-1.57712 -0.0353,-4.1107 -1.28365,-2.51615 -1.14209,-2.67221 2.27969,-2.5137 l 2.7346,0.12662 0.59088,-1.10406 0.59089,-1.10409 -0.62413,-2.22914 c -0.77693,-2.77499 -0.55429,-2.99763 2.22069,-2.22069 l 2.22914,0.62412 1.10407,-0.59088 1.10408,-0.59086 -0.12662,-2.73462 c -0.15852,-3.42178 -0.002,-3.56334 2.51373,-2.27969 2.53357,1.29253 2.85067,1.29524 4.11067,0.0353 l 1.0104,-1.0104 v -1.99098 c 0,-1.09503 0.24583,-2.14292 0.54626,-2.32858 l 0.54625,-0.33761 1.3759,1.31818 1.37588,1.31819 h 1.32557 c 1.78687,0 2.7082,-1.04032 3.10193,-3.50249 0.40421,-2.52773 0.85123,-2.55906 3.00356,-0.21044 l 1.69016,1.84426 1.38458,-0.34751 1.3846,-0.34751 0.9973,-2.25455 c 1.2245,-2.76816 1.60605,-2.79582 3.22341,-0.23375 l 1.27568,2.0208 h 1.50294 1.50292 l 1.27567,-2.0208 c 1.61737,-2.56207 1.99893,-2.53441 3.22341,0.23375 l 0.9973,2.25455 1.3846,0.34751 1.3846,0.34751 1.69014,-1.84426 c 2.15233,-2.34862 2.59938,-2.31729 3.00357,0.21044 0.39372,2.46217 1.31505,3.50249 3.10192,3.50249 h 1.32557 l 1.37588,-1.31819 1.3759,-1.31818 0.54626,0.33761 c 0.30043,0.18559 0.54625,1.23355 0.54625,2.32858 v 1.99098 l 1.01041,1.0104 c 1.26,1.26001 1.57709,1.2573 4.11067,-0.0353 2.51614,-1.28365 2.67223,-1.14209 2.51372,2.27969 l -0.12662,2.73462 1.10406,0.59086 1.10409,0.59088 2.22915,-0.62412 c 2.77497,-0.77694 2.99762,-0.5543 2.22068,2.22069 l -0.62412,2.22914 0.59088,1.10409 0.59087,1.10406 2.73461,-0.12662 c 3.42178,-0.15853 3.56334,-0.002 2.27969,2.5137 -1.29253,2.53358 -1.29524,2.85067 -0.0353,4.1107 l 1.0104,1.0104 h 1.99098 c 1.09506,0 2.14292,0.2458 2.3286,0.54624 l 0.33759,0.54625 -1.31818,1.3759 -1.31818,1.37589 v 1.32556 c 0,1.78687 1.0403,2.70822 3.5025,3.10193 2.53501,0.40535 2.57657,1.02142 0.20705,3.06969 l -1.84762,1.59716 0.35088,1.39804 0.35088,1.398 2.25455,0.9973 c 2.76815,1.2245 2.79584,1.60605 0.23374,3.22342 l -2.02078,1.27569 v 1.50292 1.50292 l 2.02078,1.27567 c 2.5621,1.61737 2.53441,1.99894 -0.23374,3.22342 l -2.25455,0.9973 -0.35088,1.39803 -0.35088,1.39803 1.84762,1.59715 c 2.36952,2.04828 2.32796,2.66433 -0.20705,3.06969 -2.4622,0.39373 -3.5025,1.31506 -3.5025,3.10193 v 1.32557 l 1.31818,1.3759 1.31818,1.37587 -0.33759,0.54627 c -0.18558,0.30045 -1.23354,0.54625 -2.3286,0.54625 h -1.99098 l -1.0104,1.0104 c -1.25774,1.25774 -1.25623,1.57917 0.0202,4.07904 1.32768,2.60244 1.09492,2.87476 -2.22197,2.59972 l -2.75097,-0.22814 -0.60348,1.12764 -0.60349,1.1276 0.62412,2.22917 c 0.77693,2.77496 0.55429,2.99762 -2.22069,2.22066 l -2.22915,-0.62412 -1.10408,0.59089 -1.10406,0.59088 0.12662,2.73459 c 0.15853,3.42181 0.002,3.56335 -2.51372,2.27971 -2.53359,-1.29253 -2.85067,-1.29525 -4.11068,-0.0353 l -1.01039,1.01041 v 1.99099 c 0,1.09504 -0.24584,2.1429 -0.54627,2.32859 l -0.54625,0.33761 -1.3759,-1.31821 -1.37587,-1.31818 h -1.32558 c -1.78688,0 -2.7082,1.04031 -3.10193,3.5025 -0.39058,2.4425 -0.96286,2.565 -2.64482,0.5661 -2.3841,-2.83335 -4.56363,-2.4781 -5.94274,0.96866 -1.01852,2.54549 -1.49703,2.54777 -3.09605,0.0142 l -1.27567,-2.0208 h -1.50293 -1.50293 l -1.27568,2.0208 c -1.59903,2.53303 -2.07753,2.53075 -3.09602,-0.0142 z m 6.50686,-8.95255 c 0.13066,-1.04199 0.0309,-2.15845 -0.22185,-2.48103 l -0.45945,-0.58652 0.52974,-0.3274 c 0.29135,-0.18013 0.52972,-1.22333 0.52972,-2.31838 v -1.99098 h -3.71593 -3.71596 l -0.32206,3.41011 c -0.1771,1.87555 -0.32367,3.90788 -0.32565,4.51629 l -0.004,1.10621 1.89451,0.1981 c 1.04197,0.10905 2.72215,0.2364 3.73373,0.28311 l 1.83921,0.085 z m -5.17903,-1.44335 v -0.81185 l 0.79911,0.30665 c 0.43952,0.16862 1.00787,0.30665 1.26301,0.30665 0.25513,0 0.46388,0.22733 0.46388,0.5052 0,0.27786 -0.56835,0.50518 -1.26301,0.50518 h -1.26299 z m 0.25259,-3.22975 -0.31222,-0.5052 h 1.57523 1.57524 l -0.31225,0.5052 c -0.17165,0.27785 -0.74008,0.5052 -1.26299,0.5052 -0.52293,0 -1.09128,-0.22735 -1.26301,-0.5052 z m 9.79755,6.10637 0.70395,-0.44575 -0.27776,-1.06212 -0.27775,-1.0621 h 0.94534 c 0.51992,0 1.18866,0.45467 1.48608,1.01038 0.2974,0.55573 0.97131,1.0104 1.49755,1.0104 h 0.9568 l -0.16862,-3.74465 c -0.0927,-2.05955 -0.32541,-4.23854 -0.51701,-4.84221 l -0.34836,-1.09755 -1.08906,0.25915 c -0.599,0.14257 -2.16895,0.41495 -3.48876,0.60538 l -2.39971,0.34621 v 1.1214 c 0,1.06563 0.89085,6.38665 1.29437,7.73118 0.22187,0.73929 0.70686,0.78837 1.68297,0.17024 z m -0.45135,-6.04749 v -0.95149 l 1.30282,-0.24906 1.30281,-0.24905 0.28642,0.74634 0.2864,0.74634 -0.70513,0.4465 c -0.38781,0.24556 -1.10295,0.44994 -1.58921,0.4542 l -0.88411,0.008 z m 12.7731,2.65895 c 3.24755,-1.6312 3.04524,-1.42685 2.64884,-2.67579 l -0.3315,-1.04449 -1.35652,0.68982 c -0.74608,0.37941 -1.86803,0.84761 -2.4932,1.04047 l -1.13672,0.35063 v -0.56501 c 0,-0.31078 0.80091,-0.89966 1.77976,-1.30865 l 1.77977,-0.74364 -0.53455,-0.99879 c -0.64076,-1.1973 -0.66582,-1.1997 -2.51618,-0.24283 l -1.46185,0.75595 -0.30732,-0.49727 -0.30734,-0.49726 2.23414,-1.08542 2.23414,-1.08543 -0.24621,-0.94146 c -0.31285,-1.19635 -0.28638,-1.19895 -4.05245,0.39961 l -3.16631,1.34399 0.31125,0.98067 c 0.71565,2.25478 3.37397,7.44865 3.81237,7.44865 0.26091,0 1.66036,-0.59569 3.10988,-1.32375 z m -31.78357,-3.57558 1.92432,-3.88895 -0.91745,-0.67085 -0.91745,-0.67083 -0.83416,1.10586 -0.83415,1.10585 -0.56712,-1.05965 c -0.31191,-0.5828 -0.56711,-1.41562 -0.56711,-1.85067 0,-0.43506 -0.0951,-0.79103 -0.21129,-0.79103 -0.11612,0 -0.57245,-0.13853 -1.0139,-0.30798 l -0.80262,-0.30801 -1.7882,3.92399 c -0.98353,2.1582 -1.6711,4.22918 -1.52797,4.60219 0.49246,1.28329 1.65583,0.67443 2.56539,-1.34258 1.04697,-2.32181 1.56841,-2.50679 2.33341,-0.82782 l 0.54354,1.19298 -0.79947,1.54601 -0.79949,1.54604 0.624,0.25231 c 1.36801,0.55316 1.7369,0.1876 3.58972,-3.55686 z m 39.305,-0.48356 0.92387,-0.8361 v -1.43729 -1.43731 l 1.64192,-0.0161 c 0.90303,-0.008 2.07363,-0.34285 2.6013,-0.74228 l 0.95943,-0.7262 -2.95517,-3.42562 c -1.62534,-1.88411 -3.02868,-3.52577 -3.11854,-3.64817 -0.0899,-0.12237 -0.53598,0.15005 -0.99136,0.60545 l -0.82799,0.82798 1.88423,2.29945 1.88423,2.29944 h -1.49466 -1.49464 l -0.34866,1.38913 -0.34863,1.38911 -1.85323,-2.13254 -1.85323,-2.13254 -0.93534,0.71031 -0.93536,0.7103 2.95614,3.5302 c 3.38955,4.04779 3.10164,3.86238 4.30569,2.77274 z m -48.217,-3.58441 c 1.36921,-1.59769 2.65355,-3.18593 2.85408,-3.52942 l 0.36462,-0.62454 -1.86084,-1.64887 c -1.02347,-0.90687 -2.18355,-1.83732 -2.57796,-2.06767 l -0.71712,-0.41879 -0.75276,0.62473 -0.75277,0.62473 0.50205,0.50205 0.50205,0.50205 -2.78053,1.9911 c -2.91093,2.08447 -3.27348,3.14405 -1.08966,3.18464 0.71284,0.0141 1.66179,0.32759 2.10873,0.69852 l 0.81266,0.67445 -0.49943,0.60175 -0.49941,0.60175 0.59422,0.59421 c 0.92028,0.92028 1.13558,0.78908 3.79207,-2.31069 z m -2.6629,-2.1807 c -0.36207,-0.58586 1.14095,-1.94517 2.17952,-1.97112 l 0.64315,-0.0161 -0.82756,1.263 c -0.89361,1.36384 -1.47039,1.57319 -1.99511,0.72418 z m 34.45092,-2.24942 c 5.82911,-1.95677 12.80331,-7.07116 14.84518,-10.8864 l 0.52242,-0.97616 h -1.54435 -1.54436 l -2.67819,2.67817 c -4.55285,4.55287 -9.91355,7.07291 -16.35738,7.68958 l -3.42387,0.32768 -3.78899,-0.79525 c -2.08395,-0.43739 -5.24024,-1.52926 -7.01397,-2.42634 l -3.22497,-1.6311 -2.96708,-2.92137 -2.96707,-2.92137 h -1.53004 -1.53002 l 0.52242,0.97616 c 2.02121,3.77663 8.98013,8.90473 14.75178,10.87071 l 3.70634,1.26248 5.21554,0.0121 5.21552,0.0122 z m -39.81614,-1.25336 c 0.91263,-0.83358 1.81583,-1.51674 2.00709,-1.51811 0.19124,-0.001 1.01165,-0.53377 1.82316,-1.1831 l 1.47543,-1.18058 -1.98063,-2.87139 -1.98066,-2.8714 -0.77835,0.19043 c -1.43862,0.35217 -7.03275,4.62843 -6.8238,5.21627 0.34193,0.96189 3.88153,5.73338 4.25317,5.73338 0.18983,0 1.09192,-0.68202 2.00459,-1.5156 z m -2.66261,-2.99296 -0.85821,-0.94834 0.57172,-0.35334 c 0.31445,-0.19427 0.62093,-0.27374 0.68108,-0.1765 0.0602,0.0973 0.39705,0.5545 0.74869,1.01602 l 0.63939,0.83911 -0.46222,0.28567 c -0.25421,0.15711 -0.8484,-0.14116 -1.32045,-0.66266 z m 3.02889,-2.02339 c -0.52376,-0.57875 -0.79671,-1.20784 -0.60656,-1.39799 0.4794,-0.47937 1.99974,1.12751 1.75671,1.85667 l -0.19791,0.59359 z m 66.49379,3.14591 1.8605,-2.86732 -0.8501,-0.6466 -0.85008,-0.64663 -0.75779,0.89582 c -0.41679,0.4927 -1.1308,1.45183 -1.58669,2.13139 -1.27262,1.89705 -1.70684,0.76888 -0.47267,-1.22807 l 1.08712,-1.759 -0.90318,-0.52317 -0.9032,-0.52317 -1.35041,1.62086 c -1.84563,2.21523 -2.32331,1.43708 -0.66039,-1.07575 1.34561,-2.03335 1.33363,-3.10673 -0.0348,-3.10673 -0.76088,0 -4.60876,5.38638 -4.16494,5.83021 0.82292,0.82292 6.7988,4.76787 7.2208,4.76681 0.27785,-7.1e-4 1.34242,-1.29159 2.36568,-2.86865 z m -30.24932,-0.90395 c 4.02589,-1.04861 7.32022,-2.81975 10.23829,-5.50443 l 2.48937,-2.29027 -2.32142,-0.0202 -2.3214,-0.0202 -0.8628,0.9534 c -1.24209,1.37248 -6.39357,3.56578 -9.91187,4.22008 l -3.02231,0.56205 -3.02234,-0.56205 c -3.5183,-0.6543 -8.66978,-2.8476 -9.91187,-4.22008 l -0.8628,-0.9534 -2.3214,0.0202 -2.32142,0.0202 2.48938,2.29027 c 5.82252,5.35683 14.1274,7.46709 21.66259,5.50443 z m -0.0747,-5.29233 c 1.76985,-0.54666 3.66934,-1.3351 4.22112,-1.75213 l 1.00321,-0.75821 -10.83655,-0.0161 -10.83652,-0.0161 0.58632,0.58632 c 0.3225,0.32248 2.12983,1.1123 4.01634,1.75517 l 3.43001,1.16882 2.59908,0.0121 c 1.42949,0.008 4.04714,-0.43422 5.81699,-0.98086 z m -42.51708,-0.62 c 0.8229,0.0238 6.56761,-1.92787 6.56761,-2.23137 0,-0.36842 -2.63724,-6.76392 -2.78916,-6.76392 -0.75565,0 -8.32523,3.21807 -8.32523,3.53932 0,0.23079 0.13308,0.76627 0.29558,1.18992 l 0.29559,0.77028 1.20212,-0.45706 1.20212,-0.45704 0.32341,0.5233 c 0.17792,0.28781 -0.16155,1.03946 -0.75419,1.67035 l -1.07761,1.14705 0.33207,0.86539 0.33208,0.86537 0.81892,-0.34182 c 0.45039,-0.188 1.1599,-0.33188 1.57669,-0.31977 z m 1.25598,-3.96541 -0.34595,-1.08999 0.55539,-0.55539 0.55539,-0.55538 0.46297,0.47994 c 0.25465,0.26398 0.53882,0.92637 0.63152,1.47202 l 0.16842,0.99209 -0.84096,0.17327 -0.84093,0.17327 z m 75.68135,3.55642 0.26477,-1.0125 -1.23825,-0.3108 c -1.52546,-0.38286 -1.29922,-1.39536 0.36093,-1.61524 2.24132,-0.29685 3.32594,-2.61656 1.22343,-2.61656 h -1.26302 v -0.67782 -0.6778 l -3.03443,-0.91875 c -1.66894,-0.50533 -3.10857,-0.82549 -3.19918,-0.71149 -0.39238,0.49356 -2.47182,6.56987 -2.29624,6.70972 0.50805,0.40465 7.36641,2.79111 8.09204,2.81572 l 0.82518,0.0281 z m -5.55885,-2.92861 -0.61249,-0.38924 0.29251,-1.11862 0.29254,-1.11863 h 0.95147 c 1.03246,0 1.09258,0.17993 0.63308,1.89449 -0.3264,1.21792 -0.59428,1.34385 -1.55711,0.732 z m -7.80618,-3.05097 c 2.88567,-6.70788 2.88567,-15.68235 0,-22.39025 l -1.05192,-2.44526 h -25.64079 -25.64076 l -1.05194,2.44526 c -2.88565,6.7079 -2.88565,15.68237 0,22.39025 l 1.05194,2.44529 h 25.64076 25.64079 z m -50.4371,-11.19511 v -8.08321 h 1.49151 2.30483 l 0.15045,3.15749 0.15045,3.15751 2.09154,0.15146 2.90491,0.15145 v -3.30901 -3.30902 h 1.51561 2.53224 v 8.08321 8.08319 h -2.53224 -1.51561 v -3.30902 -3.30899 l -2.90491,0.15145 -2.09154,0.15146 -0.15045,3.1575 -0.15045,3.1575 h -2.30483 -1.49151 z m 17.27533,0 v -8.08321 h 1.92228 1.51558 v 6.315 6.31499 h 3.0312 3.03121 v -6.31499 -6.315 h 1.76819 1.76821 v 8.08321 8.08319 h -6.31499 -6.72168 z m 18.08867,0 v -8.08321 h 6.0624 6.06239 v 3.35441 3.35439 l -0.88408,0.68722 -0.88411,0.68719 0.88411,0.68719 0.88408,0.68719 v 3.35442 3.35439 h -6.06239 -6.0624 z m 8.5884,3.59826 c 0,-0.5217 0.0697,-0.79794 -0.31587,-1.14152 l -1.12921,-1.00635 -1.92976,0.15893 -1.99754,-0.11228 -0.0921,1.66042 -0.15994,1.38929 h 2.81216 2.81215 z m -0.13186,-6.19454 c 0.6217,-0.87835 0.13186,-0.54103 0.13186,-1.04116 v -0.90937 h -2.77861 -2.77859 v 3.41548 c 3.05,0.14015 4.36065,0.0394 5.4254,-1.46495 z m -56.32431,10.39538 2.90489,-0.33753 v -1.23575 -1.23573 l -2.39969,0.31114 c -1.31983,0.17104 -2.91123,0.41672 -3.5364,0.54577 l -1.1367,0.23465 v -1.46631 -1.4663 l 1.1367,-0.30463 c 0.62517,-0.16762 1.74329,-0.30772 2.48469,-0.31152 2.0415,-0.0101 2.9462,-0.51279 2.9462,-1.6359 v -1.01571 l -3.91529,0.34352 c -2.15342,0.18902 -4.30492,0.45569 -4.78112,0.59278 l -0.86583,0.2493 0.21464,1.36106 c 0.11794,0.74858 0.35439,2.46298 0.52521,3.80979 l 0.31061,2.44875 1.6036,-0.27493 c 0.88196,-0.15126 2.9108,-0.42683 4.50849,-0.61245 z m 75.9443,-0.95045 0.30984,-1.23454 1.59428,-0.15468 1.59428,-0.15469 v -1.01041 -1.0104 l -1.66791,-0.16034 -1.66791,-0.16034 0.15227,-1.10275 0.15226,-1.10275 -2.69995,-0.45788 -2.69998,-0.45789 -0.44933,0.71047 c -0.71304,1.12751 -0.25914,1.70867 1.46767,1.87921 l 1.603,0.15832 v 1.50647 1.50648 l -1.76821,-0.33172 -1.76819,-0.33171 v 0.81403 c 0,0.44771 -0.008,0.98452 -0.0202,1.19292 -0.0202,0.38008 2.32208,0.94576 4.43075,1.0702 l 1.12709,0.0665 z m 3.22743,-6.57393 c 0.76408,-0.92065 0.26772,-1.79033 -1.02185,-1.79033 h -0.9806 v 0.92619 c 0,1.65431 0.99155,2.0822 2.00245,0.86414 z m -61.18165,-18.85729 2.96708,-2.92137 3.22497,-1.63061 c 7.79639,-3.94205 16.33554,-3.94205 24.13193,0 l 3.22497,1.63061 2.96708,2.92137 2.96707,2.92136 h 1.53004 1.53002 l -0.56427,-1.05436 c -0.31036,-0.5799 -1.89093,-2.36057 -3.51241,-3.95707 l -2.94813,-2.90271 -3.45187,-1.80406 c -1.89852,-0.99223 -4.68667,-2.16695 -6.19585,-2.61052 l -2.74401,-0.80648 h -4.8686 -4.86862 l -2.74398,0.80648 c -1.5092,0.44357 -4.29735,1.61829 -6.19588,2.61052 l -3.45186,1.80406 -2.94813,2.90271 c -1.62146,1.5965 -3.20205,3.37717 -3.51241,3.95707 l -0.56427,1.05436 h 1.53002 1.53004 z m 6.56875,1.20004 c 1.40684,-0.94673 3.75992,-2.13567 5.22907,-2.64206 l 2.67119,-0.92073 h 3.78901 3.789 l 2.67118,0.92073 c 1.46916,0.50639 3.82224,1.69533 5.22908,2.64206 l 2.55786,1.72132 2.09633,-0.0202 2.09635,-0.0202 -2.48937,-2.29026 c -9.00062,-8.28077 -22.90026,-8.28077 -31.90088,0 l -2.48937,2.29026 2.09636,0.0202 2.09633,0.0202 z m 21.54785,0.93096 c -4.39891,-3.32469 -15.31827,-3.32469 -19.71717,0 l -1.00321,0.75824 h 10.8618 10.86179 z m -38.68263,-1.684 0.51312,-0.95875 -1.25314,-0.8211 c -1.43688,-0.94147 -1.48955,-1.20099 -0.50707,-2.49821 l 0.71393,-0.94265 1.38138,1.08661 1.38142,1.0866 0.79349,-0.81371 0.79351,-0.8137 -1.76819,-1.49483 c -0.97251,-0.82218 -2.63124,-2.09353 -3.68607,-2.82527 l -1.91787,-1.33042 -0.77449,0.77451 -0.77451,0.77451 1.36739,1.07559 1.36742,1.07561 -0.67919,0.8871 c -0.37354,0.48789 -0.72777,0.96605 -0.78716,1.0626 -0.0594,0.0965 -0.81534,-0.24233 -1.67992,-0.75304 l -1.57194,-0.92858 -0.47611,0.75305 c -0.69545,1.1 -0.74542,1.03384 2.9364,3.88693 3.86145,2.99232 3.9313,3.01822 4.6276,1.71715 z m 60.9138,-0.73813 2.22235,-1.69688 -1.50983,-2.05303 -1.50983,-2.05306 0.50108,-0.30968 c 0.2756,-0.17023 1.10825,0.60777 1.85031,1.72912 1.48014,2.23666 1.80668,2.39424 2.70878,1.30728 l 0.60714,-0.73156 -1.93457,-2.78568 c -2.25859,-3.25221 -2.12895,-3.21122 -4.72401,-1.49388 -2.37296,1.57035 -2.40556,1.75503 -0.70367,3.98634 l 1.3063,1.71265 -0.34552,0.55908 -0.34552,0.55908 -1.50969,-2.05283 c -1.60601,-2.18385 -1.78873,-2.28527 -2.87629,-1.5964 l -0.69624,0.44098 0.41744,0.68799 c 3.42347,5.64242 3.81743,5.87068 6.54177,3.79048 z m -53.46554,-7.47017 c 3.61596,-2.78968 3.5809,-2.52917 0.81856,-6.08143 -1.33615,-1.71828 -2.57045,-3.33236 -2.74287,-3.5869 l -0.31347,-0.46275 -3.09662,2.40474 c -3.70343,2.87598 -3.64901,2.10318 -0.44431,6.30737 3.15382,4.13749 2.47202,3.97005 5.77871,1.41897 z m -4.06444,-3.16037 -1.31057,-1.71821 1.33519,-0.87486 1.33516,-0.87483 1.41932,1.70898 1.41929,1.70896 -1.05464,0.88409 c -1.42927,1.19813 -1.63539,1.14344 -3.14375,-0.83413 z m 51.41648,3.69627 c 0.72123,-0.85711 1.16144,-1.80087 0.97828,-2.09724 l -0.33305,-0.53884 1.71896,-1.44301 1.71896,-1.443 -0.94858,-0.73051 -0.94857,-0.73051 -1.62512,1.23954 c -2.87157,2.19026 -3.72629,1.41611 -1.43844,-1.30283 l 1.35429,-1.60948 -0.97538,-0.54586 c -1.2008,-0.67201 -0.75125,-0.99358 -4.10833,2.93896 l -2.84041,3.32733 0.82385,0.82383 0.82384,0.82384 1.04185,-0.94287 1.04184,-0.94284 0.7914,0.79139 0.79139,0.79139 -0.60668,1.13359 -0.60668,1.13359 0.68366,0.4332 c 1.03936,0.65862 1.24823,0.57158 2.66292,-1.10967 z m -41.59783,-4.52524 0.98362,-0.52643 -0.53498,-0.99961 c -0.70883,-1.32447 -0.41782,-1.68395 2.0124,-2.486 2.38974,-0.78867 2.35502,-0.64596 0.96838,-3.98258 -1.24288,-2.9907 -1.36495,-3.02145 -5.22267,-1.31538 l -2.88977,1.27797 0.32329,0.86913 c 1.06041,2.85063 3.08137,7.67779 3.21661,7.68308 0.0877,0.004 0.60213,-0.23066 1.14312,-0.52018 z m -1.27727,-5.90469 -0.31218,-0.81353 0.64862,-0.41865 c 0.35673,-0.23026 0.97078,-0.3621 1.36455,-0.293 1.22258,0.21461 1.13758,1.18761 -0.1553,1.77663 l -1.23361,0.56208 z m 34.07564,5.65745 c 0,-0.42551 0.3343,-0.90196 0.74289,-1.05875 0.59201,-0.22716 3.29872,-5.21632 3.29872,-6.08038 0,-0.24607 -6.6844,-3.29387 -6.76996,-3.08682 -0.0313,0.0757 -0.92298,1.9338 -1.98149,4.12894 l -1.92455,3.99114 0.6649,0.42162 c 1.10119,0.69828 1.84141,0.49503 2.18932,-0.60112 0.42893,-1.35142 1.46443,-0.99381 1.65785,0.57259 0.0832,0.67287 0.24645,1.5076 0.36303,1.85492 0.30247,0.90109 1.75929,0.78338 1.75929,-0.14216 z m -1.24851,-4.96309 -0.93645,-0.68475 0.32718,-0.85265 0.32719,-0.85264 1.14419,0.59543 c 1.52088,0.79144 1.46392,0.70619 1.10204,1.64923 -0.3871,1.00877 -0.74698,1.0354 -1.96415,0.1454 z m -21.72937,0.82649 1.01913,-1.22996 1.33397,1.0493 c 0.73368,0.57711 1.8361,1.0493 2.44983,1.0493 h 1.11586 l -0.3327,-3.41009 c -0.18297,-1.87557 -0.45488,-4.03529 -0.6042,-4.7994 l -0.27149,-1.38931 h -0.88607 c -1.31721,0 -1.39086,0.22739 -1.05684,3.26209 l 0.30653,2.78477 -1.25229,-0.82051 -1.2523,-0.82054 -0.9025,1.11455 -0.9025,1.11454 -0.25845,-1.17034 c -0.14216,-0.64369 -0.32078,-1.85239 -0.39697,-2.68597 l -0.13854,-1.51557 -1.20632,-0.17065 -1.20635,-0.17064 0.35508,3.70696 c 0.19528,2.03884 0.47205,4.19247 0.61507,4.78585 l 0.26005,1.07888 1.09644,-0.26674 c 0.60305,-0.14661 1.55504,-0.82019 2.11556,-1.49666 z m 15.78427,-1.91583 c 0.35625,-1.94179 0.586,-3.97279 0.51057,-4.51333 l -0.13712,-0.9828 -3.50809,-0.64532 c -1.92945,-0.35492 -3.61086,-0.54252 -3.73652,-0.41688 -0.24958,0.24959 -1.52693,7.07494 -1.56982,8.38821 l -0.0267,0.81359 3.15751,0.51039 c 1.73662,0.2807 3.49609,0.48028 3.90994,0.44351 l 0.75241,-0.0668 z m -5.63264,-0.87824 c 0.46288,-2.67899 0.61209,-2.90488 1.91879,-2.90488 1.60346,0 1.84317,0.43838 1.4762,2.69969 l -0.29974,1.84711 h -1.68946 -1.68948 z"
       id="path136"
       sodipodi:nodetypes="cssscccsscssscccsscccscccsscccssscccsscccsscccssscccsscssscccsscccssscsscccssscccsscccsscccssscccsscssscccsscccssscsscccssscccsscccsscccssscccsscssscccsscccssscsscccssssscccsccsscsscccsscsscsccssssccscccsssccccssscsscsscssscccccccscccsscsscsscsscccccsscsssscccccsssscsssscccsscccccscssscccccccccccsscsscsscccccscscccsssscssscscccsscsscccccssccccssscccsssssccssscsscssscsccccssscccsssssscsscccsscsscccsscscccssccccssssscccsscccssccccssccccccssscccssssccscccssssscccsscccscccccccccccccccccccccccccccccccccccccccccccccccccccccccccsscccccccsssccccsscccsscccscscsscsscsscsccccccccccsscccccsssccsccsscssscccccsscsscccsscssccccsscccsscccsscccssscccssssscccccsscccccssscsssssccssscssscccsscssssscsssssccccsssscccccsscsscccccccccssscsssscscscssssccscssscssssssccccsssccssscsscsscccccsscccsscsscsscssscsscsssscccss" /></g><g
     id="layer-MC0"
     inkscape:groupmode="layer"
     inkscape:label="Layer 1"
     transform="matrix(0.26458335,0,0,0.26458334,1131.5958,7.7108709)"><path
       id="path2-8"
       d="m 0,0 v -9.44 h 2.766 c 1.617,0 2.499,0.744 2.499,3.028 v 2.676 C 5.265,-0.879 4.343,0 2.151,0 Z M 0,12.522 V 4.396 h 1.887 c 1.8,0 2.895,0.78 2.895,3.247 v 1.716 c 0,2.192 -0.74,3.163 -2.455,3.163 z M 9.622,9.838 V 8.744 c 0,-3.169 -0.965,-5.19 -3.124,-6.193 2.592,-1.009 3.604,-3.342 3.604,-6.596 v -2.5 c 0,-4.746 -2.51,-7.292 -7.336,-7.292 h -7.6 v 30.745 h 7.288 c 5.012,0 7.168,-2.327 7.168,-7.07"
       style="fill:#333333;fill-opacity:1;fill-rule:nonzero;stroke:none"
       transform="matrix(1.3333333,0,0,-1.3333333,228.33133,504.73693)"
       clip-path="url(#clipPath3)" /><path
       id="path4"
       d="m 0,0 v -9.447 h 1.883 c 1.805,0 2.902,0.793 2.902,3.254 v 3.03 C 4.785,-0.972 4.035,0 2.323,0 Z m 5.271,-26.359 c -0.265,0.789 -0.441,1.273 -0.441,3.777 v 4.83 c 0,2.856 -0.967,3.908 -3.163,3.908 H 0 V -26.359 H -4.837 V 4.386 h 7.296 c 5.006,0 7.157,-2.327 7.157,-7.071 v -2.418 c 0,-3.157 -1.007,-5.222 -3.157,-6.236 2.416,-1.003 3.205,-3.337 3.205,-6.551 v -4.739 c 0,-1.497 0.042,-2.587 0.525,-3.73 z"
       style="fill:#333333;fill-opacity:1;fill-rule:nonzero;stroke:none"
       transform="matrix(1.3333333,0,0,-1.3333333,252.11067,488.0404)"
       clip-path="url(#clipPath5)" /><path
       id="path6"
       d="M 0,0 H 6.632 V -4.386 H 0 v -9.002 h 8.347 v -4.396 H -4.831 V 12.961 H 8.347 V 8.575 H 0 Z"
       style="fill:#333333;fill-opacity:1;fill-rule:nonzero;stroke:none"
       transform="matrix(1.3333333,0,0,-1.3333333,275.65627,499.474)"
       clip-path="url(#clipPath7)" /><path
       id="path8"
       d="m 0,0 -1.76,-16.388 h -6.623 l -3.429,30.745 h 4.7 l 2.589,-24.241 2.331,24.241 h 4.653 l 2.414,-24.415 2.507,24.415 h 4.214 L 8.178,-16.388 H 1.762 Z"
       style="fill:#333333;fill-opacity:1;fill-rule:nonzero;stroke:none"
       transform="matrix(1.3333333,0,0,-1.3333333,305.05467,501.336)"
       clip-path="url(#clipPath9)" /><path
       id="path10"
       d="m 242.803,214.355 h 4.839 V 183.61 h -4.839 z"
       style="fill:#333333;fill-opacity:1;fill-rule:nonzero;stroke:none"
       transform="matrix(1.3333333,0,0,-1.3333333,0,768)"
       clip-path="url(#clipPath11)" /><path
       id="path12"
       d="M 0,0 V -22.267 H -4.347 V 8.479 h 6.06 L 6.679,-9.923 V 8.479 h 4.302 V -22.267 H 6.022 Z"
       style="fill:#333333;fill-opacity:1;fill-rule:nonzero;stroke:none"
       transform="matrix(1.3333333,0,0,-1.3333333,340.60613,493.49733)"
       clip-path="url(#clipPath13)" /><path
       id="path14"
       d="m 0,0 h 6.761 v -9.75 c 0,-4.919 -2.451,-7.729 -7.206,-7.729 -4.741,0 -7.204,2.81 -7.204,7.729 V 6.239 c 0,4.922 2.463,7.727 7.204,7.727 4.755,0 7.206,-2.805 7.206,-7.727 V 3.254 H 2.197 v 3.292 c 0,2.194 -0.968,3.028 -2.502,3.028 -1.537,0 -2.507,-0.834 -2.507,-3.028 V -10.06 c 0,-2.187 0.97,-2.989 2.507,-2.989 1.534,0 2.502,0.802 2.502,2.989 v 5.668 H 0 Z"
       style="fill:#333333;fill-opacity:1;fill-rule:nonzero;stroke:none"
       transform="matrix(1.3333333,0,0,-1.3333333,369.54427,500.3476)"
       clip-path="url(#clipPath15)" /><path
       id="path16-3"
       d="m 0,0 v -4.085 c 0,-4.919 -2.447,-7.728 -7.194,-7.728 -4.745,0 -7.203,2.809 -7.203,7.728 v 15.989 c 0,4.922 2.458,7.727 7.203,7.727 C -2.447,19.631 0,16.826 0,11.904 V 8.919 h -4.563 v 3.292 c 0,2.194 -0.965,3.028 -2.503,3.028 -1.535,0 -2.505,-0.834 -2.505,-3.028 V -4.395 c 0,-2.187 0.97,-2.989 2.505,-2.989 1.538,0 2.503,0.802 2.503,2.989 V 0 Z"
       style="fill:#333333;fill-opacity:1;fill-rule:nonzero;stroke:none"
       transform="matrix(1.3333333,0,0,-1.3333333,410.4752,507.90107)"
       clip-path="url(#clipPath17)" /><path
       id="path18"
       d="m 0,0 c 0,-2.188 0.964,-3.03 2.507,-3.03 1.539,0 2.501,0.842 2.501,3.03 v 16.605 c 0,2.195 -0.962,3.029 -2.501,3.029 C 0.964,19.634 0,18.8 0,16.605 Z m -4.828,16.299 c 0,4.922 2.587,7.726 7.335,7.726 4.74,0 7.337,-2.804 7.337,-7.726 V 0.31 c 0,-4.919 -2.597,-7.729 -7.337,-7.729 -4.748,0 -7.335,2.81 -7.335,7.729 z"
       style="fill:#333333;fill-opacity:1;fill-rule:nonzero;stroke:none"
       transform="matrix(1.3333333,0,0,-1.3333333,420.32547,513.7604)"
       clip-path="url(#clipPath19)" /><path
       id="path20"
       d="m 0,0 3.302,21.83 h 6.719 V -8.915 H 5.453 V 13.14 L 2.11,-8.915 H -2.448 L -6.053,12.826 V -8.915 h -4.218 V 21.83 h 6.719 z"
       style="fill:#333333;fill-opacity:1;fill-rule:nonzero;stroke:none"
       transform="matrix(1.3333333,0,0,-1.3333333,451.24213,511.29947)"
       clip-path="url(#clipPath21)" /><path
       id="path22"
       d="m 0,0 v -10.41 h 2.283 c 1.532,0 2.367,0.695 2.367,2.897 V -2.91 C 4.65,-0.706 3.815,0 2.283,0 Z m 9.486,-3.213 v -3.995 c 0,-4.918 -2.37,-7.599 -7.203,-7.599 H 0 V -26.359 H -4.836 V 4.386 h 7.119 c 4.833,0 7.203,-2.682 7.203,-7.599"
       style="fill:#333333;fill-opacity:1;fill-rule:nonzero;stroke:none"
       transform="matrix(1.3333333,0,0,-1.3333333,475.73573,488.0404)"
       clip-path="url(#clipPath23)" /><path
       id="path24"
       d="M 0,0 H 4.661 L 2.338,15.55 Z M 11.025,-9.751 H 6.151 L 5.324,-4.175 H -0.61 l -0.832,-5.576 h -4.436 l 4.912,30.745 H 6.11 Z"
       style="fill:#333333;fill-opacity:1;fill-rule:nonzero;stroke:none"
       transform="matrix(1.3333333,0,0,-1.3333333,496.75387,510.18493)"
       clip-path="url(#clipPath25)" /><path
       id="path26"
       d="M 0,0 V -22.267 H -4.346 V 8.479 H 1.713 L 6.674,-9.923 V 8.479 H 10.98 V -22.267 H 6.021 Z"
       style="fill:#333333;fill-opacity:1;fill-rule:nonzero;stroke:none"
       transform="matrix(1.3333333,0,0,-1.3333333,520.18747,493.49733)"
       clip-path="url(#clipPath27)" /><path
       id="path28"
       d="m 0,0 -6.104,20.552 h 5.052 L 2.643,6.54 6.332,20.552 h 4.607 L 4.834,0 V -10.193 H 0 Z"
       style="fill:#333333;fill-opacity:1;fill-rule:nonzero;stroke:none"
       transform="matrix(1.3333333,0,0,-1.3333333,545.4896,509.59507)"
       clip-path="url(#clipPath29)" /><path
       id="path30"
       d="m 0,0 c -1.97,0.198 -4.275,0.357 -5.153,2.58 -0.416,1.044 -0.319,1.443 -1.382,2.058 -2.049,1.182 -5.153,1.552 -7.383,2.015 -7.761,1.613 -14.655,4.856 -20.951,10.458 -3.078,2.736 -6.122,5.946 -8.666,9.27 -1.66,2.174 -2.724,5.011 -3.966,7.466 -0.008,0.017 -0.018,0.034 -0.024,0.052 -0.026,0.059 4.805,2.388 5.07,2.518 9.134,4.523 18.165,8.954 27.075,13.281 4.124,2.002 8.223,3.986 12.288,5.945 1.279,0.614 2.55,1.227 3.821,1.836 0.296,0.145 0.881,0.269 1.084,0.521 0.706,0.861 -0.21,3.258 -0.57,4.68 -0.611,2.435 -1.349,4.846 -2.475,7.28 -2.655,5.733 -6.84,10.192 -11.942,14.323 -4.809,3.893 -9.328,7.156 -14.796,9.226 -3.827,1.443 -7.806,2.395 -11.634,3.497 -3.613,1.042 -7.454,2.497 -10.982,2.967 -7.453,0.992 -11.09,-4.364 -15.755,-8.368 -5.562,-4.787 -11.274,-9.636 -17.124,-14.532 -6.297,17.395 -13.413,34.804 -21.121,52.229 -1.558,-7 -3.337,-14.01 -5.313,-21.033 -0.194,-0.643 -0.388,-1.287 -0.581,-1.927 -4.128,5.3 -8.28,10.592 -12.439,15.876 -18.838,8.544 -37.33,16.77 -55.316,24.618 0.15,0.003 -3.549,-23.996 -3.706,-24.108 -0.6,-3.437 1.135,-7.498 0.725,-11.062 -0.379,-3.362 -1.525,-8.291 -5.628,-8.045 -1.823,0.108 -5.102,1.434 -5.746,3.484 -0.871,2.802 0.363,5.875 0.237,8.669 -0.143,3.49 0.479,7.086 0.697,10.521 0.16,2.476 0.307,4.958 0.445,7.436 0.015,0.287 0.374,2.557 0.15,2.779 -4.809,4.804 -9.56,9.583 -14.244,14.335 0.169,0.002 -6.551,-27.33 -6.771,-27.564 -0.363,-1.379 2.253,-5.562 0.149,-6.239 -1.136,-0.365 -3.362,0.446 -4.51,0.687 -2.383,0.501 -4.886,1.776 -6.702,3.558 -1.506,1.47 -2.251,3.245 -4.161,4.356 -3.675,2.136 -8.084,1.29 -11.382,-0.889 -4.255,-2.793 -8.881,3.008 -8.719,7.124 0.233,6.89 -1.317,14.043 -0.807,20.903 0.206,-0.003 -5.29,-65.318 -5.449,-65.316 -6.041,21.667 -11.848,43.257 -16.966,64.746 -5.741,-6.512 -11.649,-13.048 -17.684,-19.602 -0.752,-5.31 -1.493,-10.616 -2.229,-15.921 -1.193,-8.536 -1.475,-17.745 -4.903,-25.806 -0.087,-0.196 -0.168,-0.393 -0.253,-0.59 -0.76,-1.792 -1.203,-3.708 -2.145,-5.43 -0.365,-0.676 -3.94,-3.731 -4.339,-2.734 -7.607,19.094 -14.999,41.58 -21.309,61.367 -13.025,-5.206 -26.33,-10.561 -39.872,-16.046 -6.208,-8.644 -12.439,-17.277 -18.623,-25.905 -7.582,10.757 -14.747,15.925 -21.499,26.408 -6.661,-17.612 -12.905,-29.742 -18.441,-47.256 -3.257,4.408 -6.623,8.6 -9.51,13.11 -3.228,5.052 -4.745,9.728 -8.773,13.771 0.075,0.036 -49.251,-22.041 -49.545,-22.758 -0.63,-0.752 -19.212,-31.85 -18.825,-31.798 1.084,-15.209 4.339,-29.653 7.477,-44.899 29.467,-8.526 59.686,-17.909 88.823,-27.992 15.986,-0.942 31.17,7.802 31.209,7.816 0.053,1.705 0.741,1.403 0.811,3.472 4.021,-2.015 3.921,-1.451 7.935,-3.495 6.075,1.521 12.167,3.025 18.27,4.507 -0.842,5.816 -1.632,11.631 -2.365,17.451 6.621,-5.523 11.92,-9.669 13.605,-10.176 5.766,-1.769 4.944,-5.65 29.022,2.319 3.074,1.01 4.629,3.877 7.118,5.461 0.922,-1.34 1.841,-2.679 2.761,-4.019 6.646,0.647 13.295,1.263 19.943,1.849 1.19,5.647 2.402,11.291 3.628,16.936 2.996,1.636 5.992,3.264 8.992,4.888 1.396,-7.269 2.802,-14.546 4.214,-21.829 0,0 1.454,0.014 1.454,0.005 0.476,0.009 0.93,0.019 1.374,0.029 1.863,0.017 3.724,0.032 5.585,0.045 3.913,0.007 10.034,-0.036 10.36,-0.041 0.307,-0.004 0.627,-0.012 0.944,-0.018 0,-0.02 -0.003,-0.039 -0.007,-0.059 1.875,0.007 3.522,0.015 5.035,0.018 1.515,0.002 2.923,0.008 4.33,-0.011 1.398,0.002 2.81,-0.018 4.331,-0.036 1.528,-0.02 3.162,-0.047 5.052,-0.08 1.136,5.127 2.267,10.26 3.381,15.39 0.552,-1.234 1.103,-2.467 1.645,-3.698 1.944,-4.441 3.843,-8.876 5.648,-13.299 0.038,0.067 0.081,0.14 0.117,0.21 -0.048,-0.115 -0.097,-0.226 -0.142,-0.34 2,-0.196 3.756,-0.377 5.378,-0.555 1.629,-0.171 3.127,-0.348 4.626,-0.526 1.493,-0.179 2.987,-0.371 4.604,-0.584 1.622,-0.214 3.359,-0.455 5.349,-0.74 6.687,10.065 13.333,20.107 19.829,30.114 -0.026,-10.438 -0.203,-20.872 -0.532,-31.31 6.037,-1.24 12.051,-2.508 18.05,-3.803 5.172,4.343 10.334,8.666 15.47,12.968 -0.564,-5.919 -1.197,-11.839 -1.897,-17.758 6.084,-1.593 12.144,-3.216 18.168,-4.865 4.518,2.11 9.044,4.202 13.562,6.278 0.344,-0.516 0.7,-1.026 1.066,-1.52 0.623,-0.841 1.287,-1.649 1.967,-2.423 0.686,-0.772 1.403,-1.508 2.152,-2.216 0.746,-0.703 1.528,-1.371 2.344,-2.009 0.824,-0.635 1.671,-1.231 2.555,-1.781 0.881,-0.544 1.783,-1.046 2.72,-1.505 0.936,-0.466 1.897,-0.88 2.886,-1.256 0.99,-0.384 2.017,-0.72 3.059,-1.017 0.319,-0.091 0.65,-0.182 0.963,-0.265 0.323,-0.086 0.636,-0.163 0.954,-0.244 0.314,-0.08 0.634,-0.152 0.945,-0.215 0.309,-0.074 0.628,-0.143 0.938,-0.2 0.317,-0.058 0.638,-0.113 0.957,-0.165 0.327,-0.062 0.655,-0.115 0.983,-0.164 0.332,-0.052 0.673,-0.1 1.011,-0.146 0.339,-0.042 0.687,-0.092 1.039,-0.132 0.228,-0.024 0.453,-0.049 0.683,-0.069 0.231,-0.032 0.473,-0.054 0.71,-0.074 0.245,-0.019 0.486,-0.043 0.739,-0.062 0.243,-0.023 0.499,-0.041 0.755,-0.059 0.145,-0.01 0.289,-0.022 0.43,-0.022 0.153,-0.015 0.3,-0.019 0.445,-0.036 0.153,0 0.3,-0.006 0.454,-0.018 0.152,-0.008 0.301,-0.021 0.461,-0.033 28.56,8.317 57.123,15.964 85.448,22.847 C 1.037,-0.12 0.823,-0.088 0.61,-0.068 0.411,-0.044 0.209,-0.023 0,0"
       style="fill:#065e90;fill-opacity:1;fill-rule:nonzero;stroke:none"
       transform="matrix(1.3333333,0,0,-1.3333333,727.60933,450.22653)"
       clip-path="url(#clipPath31)" /><path
       id="path32"
       d="m 0,0 c 0.024,0.015 14.084,-1.642 28.707,5.092 14.475,6.648 16.638,9.176 16.617,9.178 0.643,0.105 1.285,0.215 1.926,0.323 C 67.848,5.117 89.136,-5.554 111.348,-16.686 111.286,-16.7 97.313,-28.124 81.105,-25.666 53.322,-16.146 26.237,-7.605 0,0"
       style="fill:#5584bd;fill-opacity:1;fill-rule:nonzero;stroke:none"
       transform="matrix(1.3333333,0,0,-1.3333333,69.973333,442.5924)"
       clip-path="url(#clipPath33)" /><path
       id="path34"
       d="M 0,0 C 22.221,9.652 44.404,18.89 66.285,27.641 66.381,27.625 77.033,12.02 93.516,9.671 110.084,7.278 106.809,7.822 106.82,7.837 81.369,1.414 55.744,-5.616 30.134,-13.189 30.068,-13.174 12.514,-13.892 0,0"
       style="fill:#5788c2;fill-opacity:1;fill-rule:nonzero;stroke:none"
       transform="matrix(1.3333333,0,0,-1.3333333,575.54173,464.53773)"
       clip-path="url(#clipPath35)" /><path
       id="path36"
       d="m 0,0 c -18.778,-10.453 -37.894,-21.268 -57.035,-32.368 5.939,-1.613 11.85,-3.252 17.732,-4.919 C -17.789,-26.98 3.72,-17.052 24.938,-7.572 16.671,-4.998 8.354,-2.474 0,0"
       style="fill:#5788c2;fill-opacity:1;fill-rule:nonzero;stroke:none"
       transform="matrix(1.3333333,0,0,-1.3333333,607.82813,419.8516)"
       clip-path="url(#clipPath37)" /><path
       id="path38"
       d="m 0,0 c -11.18,-12.284 -22.704,-24.693 -34.313,-37.193 6.232,-1.19 12.449,-2.409 18.646,-3.654 13.895,11.887 27.712,23.623 41.172,35.173 C 17.019,-3.723 8.515,-1.831 0,0"
       style="fill:#5788c2;fill-opacity:1;fill-rule:nonzero;stroke:none"
       transform="matrix(1.3333333,0,0,-1.3333333,534.6224,402.13413)"
       clip-path="url(#clipPath39)" /><path
       id="path40"
       d="m 0,0 c -5.726,-13.884 -11.692,-27.787 -17.72,-41.701 6.704,-0.855 13.4,-1.741 20.08,-2.663 9.045,13.507 18.017,26.972 26.659,40.371 C 19.353,-2.583 9.681,-1.249 0,0"
       style="fill:#5788c2;fill-opacity:1;fill-rule:nonzero;stroke:none"
       transform="matrix(1.3333333,0,0,-1.3333333,460.7448,390.87627)"
       clip-path="url(#clipPath41)" /><path
       id="path42"
       d="M 0,0 C 0.001,0.244 54.206,0.329 55.255,-0.745 52.445,-14.649 49.479,-28.552 46.457,-42.448 33.481,-42.31 20.489,-42.293 7.481,-42.407 4.955,-28.254 2.436,-14.117 0,0"
       style="fill:#5788c2;fill-opacity:1;fill-rule:nonzero;stroke:none"
       transform="matrix(1.3333333,0,0,-1.3333333,360.75133,387.40627)"
       clip-path="url(#clipPath43)" /><path
       id="path44"
       d="M 0,0 C 9.652,1.007 19.294,1.948 28.928,2.809 34.602,-10.573 40.458,-24.025 46.33,-37.535 39.485,-38.257 32.638,-39.006 25.798,-39.789 17.084,-26.402 8.407,-13.133 0,0"
       style="fill:#5788c2;fill-opacity:1;fill-rule:nonzero;stroke:none"
       transform="matrix(1.3333333,0,0,-1.3333333,287.03587,394.00907)"
       clip-path="url(#clipPath45)" /><path
       id="path46"
       d="m 0,0 c 0.751,-0.246 1.737,-1.555 2.335,-2.091 0.923,-0.827 1.845,-1.651 2.767,-2.479 1.78,-1.593 3.563,-3.189 5.343,-4.783 3.585,-3.212 7.171,-6.427 10.754,-9.643 3.61,-3.24 7.217,-6.485 10.82,-9.734 1.665,-1.501 3.351,-2.987 4.995,-4.512 0.554,-0.514 0.983,-1.287 1.523,-1.749 0.745,-0.641 1.788,-0.717 2.619,-1.236 1.881,-1.168 3.632,-2.49 5.645,-3.441 2.69,-1.266 5.474,-2.008 8.475,-1.823 2.126,0.133 4.148,0.415 6.227,0.894 1.962,0.453 3.866,1.122 5.746,1.835 0.925,0.354 1.845,0.719 2.768,1.079 0.462,0.181 0.939,0.42 1.419,0.547 0.368,0.096 0.74,0.115 1.111,0.237 1.015,0.328 1.979,0.711 2.943,1.234 1.673,0.907 3.975,2.956 4.755,4.671 -0.976,1.214 -1.952,2.416 -2.655,3.775 -0.882,1.701 -2.335,3.126 -3.359,4.747 -2.277,3.606 -4.539,7.22 -6.792,10.84 C 62.878,-4.308 58.029,3.637 53.475,10.962 53.451,10.908 29.692,-7.398 0,0"
       style="fill:#5788c2;fill-opacity:1;fill-rule:nonzero;stroke:none"
       transform="matrix(1.3333333,0,0,-1.3333333,210.83987,400.03773)"
       clip-path="url(#clipPath47)" /><path
       id="path48"
       d="M 0,0 C 7.003,2.015 14.136,4.033 21.401,6.057 41.145,-5.01 62.132,-17.107 84.081,-30.303 77.482,-31.79 70.994,-33.282 64.616,-34.772 41.955,-22.058 20.334,-10.485 0,0"
       style="fill:#5788c2;fill-opacity:1;fill-rule:nonzero;stroke:none"
       transform="matrix(1.3333333,0,0,-1.3333333,143.95707,420.27347)"
       clip-path="url(#clipPath49)" /><path
       id="path50"
       d="m 0,0 c 0.022,0.017 14.94,-1.795 30.153,5.083 15.235,6.88 17.543,9.547 17.519,9.549 0.681,0.111 1.361,0.22 2.042,0.326 C 71.003,4.806 92.458,-5.841 113.777,-16.916 113.716,-16.932 98.83,-28.201 83.024,-25.855 55.548,-16.574 27.792,-7.946 0,0"
       style="fill:#5788c2;fill-opacity:1;fill-rule:nonzero;stroke:none"
       transform="matrix(1.3333333,0,0,-1.3333333,67.212933,442.24613)"
       clip-path="url(#clipPath51)" /><path
       id="path52"
       d="m 0,0 c 8,17.122 15.331,34.176 21.587,51.146 0.909,-0.437 1.824,-0.872 2.738,-1.31 C 17.506,33.095 9.596,16.255 1.014,-0.656 0.675,-0.436 0.337,-0.218 0,0"
       style="fill:#231f20;fill-opacity:1;fill-rule:nonzero;stroke:none"
       transform="matrix(1.3333333,0,0,-1.3333333,495.82947,355.68493)"
       clip-path="url(#clipPath53)" /><path
       id="path54"
       d="m 0,0 c 8.388,16.969 15.993,33.847 22.417,50.611 0.66,-0.47 1.315,-0.94 1.973,-1.412 C 17.605,32.626 9.652,15.932 0.927,-0.856 0.616,-0.572 0.31,-0.287 0,0"
       style="fill:#231f20;fill-opacity:1;fill-rule:nonzero;stroke:none"
       transform="matrix(1.3333333,0,0,-1.3333333,559.20187,389.01947)"
       clip-path="url(#clipPath55)" /><path
       id="path56"
       d="m 0,0 c 1.074,0.229 2.224,0.629 3.231,0.837 23.178,-14.002 44.202,-26.742 59.618,-36.502 -0.132,-0.051 -2.23,-0.489 -2.369,-0.537"
       style="fill:#231f20;fill-opacity:1;fill-rule:nonzero;stroke:none"
       transform="matrix(1.3333333,0,0,-1.3333333,173.23507,413.27733)"
       clip-path="url(#clipPath57)" /><path
       id="path58"
       d="m 0,0 c 1.078,0.326 2.148,0.65 3.219,0.971 22.035,-11.322 43.696,-23.352 63.55,-34.468 -0.322,-0.112 -1.534,-0.397 -1.856,-0.506 C 44.406,-23.083 22.888,-11.094 0,0"
       style="fill:#231f20;fill-opacity:1;fill-rule:nonzero;stroke:none"
       transform="matrix(1.3333333,0,0,-1.3333333,142.6068,421.98307)"
       clip-path="url(#clipPath59)" /><path
       id="path60"
       d="m 0,0 c 9.078,-14.745 19.386,-30.597 28.9,-45.664 -0.594,-0.264 -1.06,-0.893 -1.653,-1.159 C 17.072,-31.958 5.97,-15.958 -3.778,-1.449 -2.518,-0.965 -1.258,-0.482 0,0"
       style="fill:#231f20;fill-opacity:1;fill-rule:nonzero;stroke:none"
       transform="matrix(1.3333333,0,0,-1.3333333,285.01493,385.42707)"
       clip-path="url(#clipPath61)" /><path
       id="path62"
       d="m 0,0 c 13.02,-11.823 28.713,-25.7 42.219,-38.089 -0.954,0.282 -8.269,5.571 -9.078,6.027 C 17.969,-19.074 7.097,-9.398 -7.314,2.97 -4.879,1.986 -2.443,0.994 0,0"
       style="fill:#231f20;fill-opacity:1;fill-rule:nonzero;stroke:none"
       transform="matrix(1.3333333,0,0,-1.3333333,212.72853,399.51427)"
       clip-path="url(#clipPath63)" /><path
       id="path64"
       d="M 0,0 C 0.814,0.301 0.508,1.897 1.321,2.199 5.417,-1.892 10.73,-7.317 15.008,-11.502 14.745,-11.863 14.48,-12.224 14.217,-12.584 9.384,-8.331 4.643,-4.139 0,0"
       style="fill:#231f20;fill-opacity:1;fill-rule:nonzero;stroke:none"
       transform="matrix(1.3333333,0,0,-1.3333333,136.2864,333.35547)"
       clip-path="url(#clipPath65)" /><path
       id="path66"
       d="m 0,0 c 4.401,-11.573 9.199,-23.227 14.275,-34.96 -0.363,-0.173 -0.726,-0.348 -1.087,-0.521 C 7.68,-23.789 2.456,-12.185 -2.349,-0.67 -1.566,-0.445 -0.783,-0.222 0,0"
       style="fill:#231f20;fill-opacity:1;fill-rule:nonzero;stroke:none"
       transform="matrix(1.3333333,0,0,-1.3333333,293.74093,289.2012)"
       clip-path="url(#clipPath67)" /><path
       id="path68"
       d="M 0,0 C 4.454,-10.602 9.197,-21.27 14.133,-32.006 13.685,-32.26 13.235,-32.509 12.784,-32.764 7.685,-22.4 2.77,-12.104 -1.869,-1.881 -1.244,-1.254 -0.622,-0.627 0,0"
       style="fill:#231f20;fill-opacity:1;fill-rule:nonzero;stroke:none"
       transform="matrix(1.3333333,0,0,-1.3333333,296.7884,310.79107)"
       clip-path="url(#clipPath69)" /><path
       id="path70"
       d="m 0,0 c 7.385,-5.919 14.958,-11.968 22.677,-18.148 -0.162,-0.221 -0.325,-0.44 -0.488,-0.656 C 14.269,-13.147 6.477,-7.608 -1.165,-2.209 -0.777,-1.472 -0.391,-0.736 0,0"
       style="fill:#231f20;fill-opacity:1;fill-rule:nonzero;stroke:none"
       transform="matrix(1.3333333,0,0,-1.3333333,142.26307,348.3704)"
       clip-path="url(#clipPath71)" /><path
       id="path72"
       d="m 0,0 c 0.741,0.078 2.348,0.292 3.11,0.372 4.61,-11.396 10.616,-25.387 17.132,-40.952 -0.49,0.07 -1.677,-0.206 -2.154,-0.135 C 11.392,-25.377 4.971,-11.385 0.219,-0.246 0.146,-0.163 0.075,-0.081 0,0"
       style="fill:#231f20;fill-opacity:1;fill-rule:nonzero;stroke:none"
       transform="matrix(1.3333333,0,0,-1.3333333,323.25973,390.664)"
       clip-path="url(#clipPath73)" /><path
       id="path74"
       d="m 0,0 c 0.713,-0.097 1.43,-0.199 2.138,-0.301 -8.673,-13.407 -17.854,-27.201 -27.274,-40.532 -0.26,0.018 -1.376,0.2 -1.637,0.222 C -17.806,-27.204 -8.531,-13.237 0,0"
       style="fill:#231f20;fill-opacity:1;fill-rule:nonzero;stroke:none"
       transform="matrix(1.3333333,0,0,-1.3333333,498.2864,395.91933)"
       clip-path="url(#clipPath75)" /><path
       id="path76"
       d="m 0,0 c 0.814,0.165 1.629,0.327 2.445,0.489 4.526,-15.856 9.986,-33.627 14.921,-49.628 -0.17,-0.561 -0.65,-1.946 -0.821,-2.508 C 10.955,-35.237 5.137,-16.24 0,0"
       style="fill:#231f20;fill-opacity:1;fill-rule:nonzero;stroke:none"
       transform="matrix(1.3333333,0,0,-1.3333333,332.67387,355.1628)"
       clip-path="url(#clipPath77)" /><path
       id="path78"
       d="M 0,0 C 0.204,0.146 0.41,0.291 0.614,0.437 2.915,-16.555 5.65,-31.941 7.32,-44.175 7.114,-44.188 5.655,-44.14 5.45,-44.152 3.113,-32.348 1.052,-17.914 -2.01,-1.725 -1.342,-1.24 -0.669,-0.49 0,0"
       style="fill:#231f20;fill-opacity:1;fill-rule:nonzero;stroke:none"
       transform="matrix(1.3333333,0,0,-1.3333333,362.2988,386.49213)"
       clip-path="url(#clipPath79)" /><path
       id="path80-9"
       d="m 0,0 c 0.776,-0.061 1.754,-0.351 2.531,-0.414 -3.469,-15.908 -5.772,-30.077 -8.466,-41.42 -0.292,-0.031 -1.542,0.124 -1.829,0.096 C -5.559,-30.312 -2.899,-16.004 0,0"
       style="fill:#231f20;fill-opacity:1;fill-rule:nonzero;stroke:none"
       transform="matrix(1.3333333,0,0,-1.3333333,432.46093,389.2344)"
       clip-path="url(#clipPath81)" /><path
       id="path82"
       d="m 0,0 c 0.754,-0.085 1.511,-0.176 2.265,-0.265 -5.983,-13.915 -11.893,-28.36 -18.01,-41.918 -0.376,0.061 -1.402,0.159 -1.777,0.218 C -11.785,-28.378 -5.602,-13.946 0,0"
       style="fill:#231f20;fill-opacity:1;fill-rule:nonzero;stroke:none"
       transform="matrix(1.3333333,0,0,-1.3333333,458.9076,390.914)"
       clip-path="url(#clipPath83)" /><path
       id="path84"
       d="m 0,0 c 0.967,-0.164 1.936,-0.33 2.904,-0.495 -10.776,-11.687 -22.852,-25.168 -34.717,-37.804 -0.383,0.112 -1.597,0.297 -1.979,0.409 C -22.514,-25.212 -10.202,-11.752 0,0"
       style="fill:#231f20;fill-opacity:1;fill-rule:nonzero;stroke:none"
       transform="matrix(1.3333333,0,0,-1.3333333,532.64187,401.2552)"
       clip-path="url(#clipPath85)" /><path
       id="path86"
       d="M 0,0 C 13.671,11.402 27.869,23.858 41.321,35.119 42.1,34.874 42.881,34.631 43.658,34.382 24.409,18.683 10.643,6.439 2.113,-0.505 1.635,-0.29 0.48,-0.21 0,0"
       style="fill:#231f20;fill-opacity:1;fill-rule:nonzero;stroke:none"
       transform="matrix(1.3333333,0,0,-1.3333333,511.76827,456.63933)"
       clip-path="url(#clipPath87)" /><path
       id="path88"
       d="m 0,0 c 19.367,11.414 39.374,22.486 57.866,32.97 0.583,-0.591 1.167,-1.181 1.751,-1.769 C 41.068,21.195 20.794,9.766 1.445,-1.161 0.878,-1.055 0.568,-0.107 0,0"
       style="fill:#231f20;fill-opacity:1;fill-rule:nonzero;stroke:none"
       transform="matrix(1.3333333,0,0,-1.3333333,529.64067,462.32427)"
       clip-path="url(#clipPath89)" /><path
       id="path90"
       d="m 0,0 c 0.911,-0.468 1.819,-0.944 2.728,-1.417 -21.288,-8.871 -42.623,-19.235 -64.664,-29.16 -0.456,0.218 -1.8,0.549 -2.261,0.765 C -42.587,-19.641 -20.816,-9.138 0,0"
       style="fill:#231f20;fill-opacity:1;fill-rule:nonzero;stroke:none"
       transform="matrix(1.3333333,0,0,-1.3333333,638.74213,429.68613)"
       clip-path="url(#clipPath91)" /><path
       id="path92"
       d="M 0,0 C 2.029,6.371 3.961,12.736 5.78,19.098 6.584,19.369 7.383,19.634 8.183,19.9 5.987,12.878 3.647,5.849 1.187,-1.19 0.557,-0.744 -0.073,-0.295 -0.703,0.15 -0.468,0.099 -0.233,0.049 0,0"
       style="fill:#231f20;fill-opacity:1;fill-rule:nonzero;stroke:none"
       transform="matrix(1.3333333,0,0,-1.3333333,488.7956,326.61)"
       clip-path="url(#clipPath93)" /><path
       id="path94"
       d="m 0,0 c 20.803,-10.406 42.923,-22.376 64.062,-33.864 -0.303,-0.273 -0.9,-0.657 -1.254,-0.82 -21.682,11.294 -44.016,23.06 -65.391,33.238"
       style="fill:#231f20;fill-opacity:1;fill-rule:nonzero;stroke:none"
       transform="matrix(1.3333333,0,0,-1.3333333,135.54747,420.44667)"
       clip-path="url(#clipPath95)" /><path
       id="path96"
       d="M 0,0 C 1.294,-8.214 2.669,-16.435 4.104,-24.664 0.717,-26.417 -2.685,-28.175 -6.1,-29.943 -4.082,-19.969 -2.04,-9.988 0,0 m -14.625,-73.362 c 1.618,8.585 3.291,17.173 4.992,25.768 5.461,2.846 10.899,5.678 16.314,8.489 1.446,-10.838 2.974,-21.682 4.55,-32.539 15.924,0.707 25.147,0.469 25.149,0.479 0.053,0 0.104,-0.002 0.157,-0.002 0.003,0 0.247,0.002 0.723,0 C 29.613,-36.145 21.954,-1.257 15.752,33.452 7.344,33.05 -0.802,32.447 -8.712,31.671 -20.545,-4.527 -33.081,-40.642 -44.056,-76.596 c 10.65,1.407 20.518,2.457 29.431,3.234"
       style="fill:#fff8d7;fill-opacity:1;fill-rule:nonzero;stroke:none"
       transform="matrix(1.3333333,0,0,-1.3333333,345.77667,291.8808)"
       clip-path="url(#clipPath97)" /><path
       id="path98"
       d="M 0,0 C -1.63,20.956 -3.533,41.901 -5.604,62.842 2.521,41.438 10.843,19.94 18.789,-1.634 c 8.961,-0.92 18.924,-2.147 29.701,-3.78 0.322,0.099 0.559,0.171 0.559,0.171 -2.444,35.74 -6.807,71.485 -12.689,107.24 -7.054,0.969 -14.306,1.804 -21.776,2.478 3.772,-18.598 7.393,-37.202 10.723,-55.812 -9.096,19.085 -18.239,38.091 -26.95,56.989 -8.281,0.465 -16.819,0.728 -25.649,0.759 0,0.004 -0.003,0.006 -0.003,0.008 -0.135,-0.002 -0.271,-0.002 -0.409,-0.002 h -0.409 c 0,-0.002 0,-0.002 -0.002,-0.006 h -0.212 C -27.441,71.342 -26.725,36.267 -26.229,1.188 -21.502,1.114 -12.44,0.878 0,0"
       style="fill:#fff8d7;fill-opacity:1;fill-rule:nonzero;stroke:none"
       transform="matrix(1.3333333,0,0,-1.3333333,434.42453,388.39973)"
       clip-path="url(#clipPath99)" /><path
       id="path100"
       d="m 0,0 c 3.304,-28.165 5.027,-56.316 5.185,-84.462 8.574,-1.657 17.477,-3.559 26.646,-5.743 -1.501,28.827 -5.032,57.664 -10.416,86.525 8.787,-6.769 17.635,-13.593 26.487,-20.469 -1.981,11.395 -4.316,22.794 -6.995,34.202 -20.332,6.327 -42.961,11.898 -68.099,15.768 1.971,-11.367 3.78,-22.734 5.404,-34.097 C -14.441,-5.454 -7.176,-2.695 0,0"
       style="fill:#fff8d7;fill-opacity:1;fill-rule:nonzero;stroke:none"
       transform="matrix(1.3333333,0,0,-1.3333333,526.2188,288.87307)"
       clip-path="url(#clipPath101)" /><path
       id="path102"
       d="m 0,0 c -1.089,35.155 -6.528,70.358 -15.859,105.628 -7.53,2.911 -15.47,5.749 -23.829,8.465 C -31.586,78.738 -26.938,43.431 -26.009,8.157 -17.437,5.683 -8.734,2.968 0,0"
       style="fill:#fff8d7;fill-opacity:1;fill-rule:nonzero;stroke:none"
       transform="matrix(1.3333333,0,0,-1.3333333,641.07947,429.94787)"
       clip-path="url(#clipPath103)" /><path
       id="path104"
       d="M 0,0 C 0.257,34.199 3.229,64.354 9.3,98.707 1.492,96.337 -5.947,93.883 -13.019,91.38 -20.08,57.355 -23.718,27.518 -24.178,-6.306 -16.031,-4.035 -7.952,-1.936 0,0"
       style="fill:#fff8d7;fill-opacity:1;fill-rule:nonzero;stroke:none"
       transform="matrix(1.3333333,0,0,-1.3333333,176.18613,411.66533)"
       clip-path="url(#clipPath105)" /><path
       id="path106"
       d="m 0,0 c -6.17,2.443 -9.681,4.049 -13.329,3.264 -7.513,-1.634 -5.956,-10.889 -5.86,-19.401 0.443,-6.854 2.376,-16.481 2.759,-18.121 0.68,-2.723 2.087,-6.855 3.548,-10.007 6.322,-13.745 15.988,-17.293 22.884,-18.742 3.947,-0.91 12.614,0.692 17.408,2.572 -0.83,-5.485 -1.804,-10.974 -2.922,-16.459 -3.794,-1.917 -6.555,-2.725 -12.055,-3.038 -18.223,-0.359 -27.599,8.404 -30.5,10.663 -4.437,3.921 -6.871,6.581 -10.837,11.981 -11.927,16.502 -13.496,43.92 -13.918,55.03 -0.146,7.842 0.614,13.808 3.816,18.842 2.417,4.416 5.906,5.645 10.241,6.495 5.805,0.838 13.625,-0.121 25.769,-6.819 C 3.698,12.983 12.796,5.698 20.326,-1.385 21.729,-7.574 22.949,-13.757 23.987,-19.936 11.193,-7.92 7.045,-3.98 0,0"
       style="fill:#fff8d7;fill-opacity:1;fill-rule:nonzero;stroke:none"
       transform="matrix(1.3333333,0,0,-1.3333333,698.5248,346.5684)"
       clip-path="url(#clipPath107)" /><path
       id="path108"
       d="m 0,0 c 1.618,-11.71 3.802,-23.454 6.503,-35.214 0,0 -3.802,-1.472 -5.539,-2.014 -8.719,-2.73 -14.993,-1.434 -18.918,3.823 -4.283,5.749 -6.182,12.936 -5.423,21.351 0.56,6.164 2.402,12.157 5.401,17.82 2.854,5.401 6.291,9.775 10.093,13.026 3.641,3.115 7.301,5.099 11.147,6.068 5.613,1.413 11.079,1.403 16.308,-0.033 1.371,-0.378 2.744,-0.757 4.118,-1.14 0.379,-0.107 0.76,-0.212 1.139,-0.319 1.519,-0.508 3.04,-1.014 4.564,-1.528 0.056,0.558 0.113,1.116 0.172,1.672 0.028,0.256 0.054,0.511 0.082,0.766 h 0.002 c 0.154,1.467 0.317,2.937 0.489,4.408 0.354,3.05 0.741,6.103 1.158,9.156 0.079,0.567 0.159,1.141 0.237,1.711 v 0.004 c 0.043,0.29 0.083,0.58 0.125,0.87 0.039,0.28 0.08,0.562 0.119,0.843 0.052,0.36 0.106,0.718 0.157,1.076 0,0 -1.4,0.555 -4.582,1.06 -0.682,0.113 -1.642,0.189 -1.642,0.189 -6.649,0.623 -12.965,0.218 -18.818,-1.184 -8.099,-1.94 -16.257,-5.706 -24.178,-11.203 -8.262,-5.732 -15.501,-13.103 -21.087,-21.923 -5.626,-8.869 -9.146,-18.409 -10.136,-28.407 -1.024,-10.343 0.83,-19.262 5.119,-26.477 4.41,-7.422 10.849,-12.209 18.709,-14.19 7.648,-1.924 16.143,-1.364 25.244,1.651 6.094,2.02 12.717,5.23 19.718,9.514 2.394,1.532 4.799,3.061 7.21,4.585 C 28,-26.572 29.545,-9.062 32.073,8.486 21.419,5.719 10.721,2.888 0,0"
       style="fill:#fff8d7;fill-opacity:1;fill-rule:nonzero;stroke:none"
       transform="matrix(1.3333333,0,0,-1.3333333,97.644533,361.53053)"
       clip-path="url(#clipPath109)" /><path
       id="path110"
       d="m 0,0 c 1.043,-12.613 2.413,-25.236 4.062,-37.872 -0.002,0 -3.807,-1.158 -5.542,-1.56 -8.67,-2.016 -14.691,-0.243 -18.186,5.362 -3.892,6.231 -5.423,13.907 -4.445,22.858 0.735,6.693 2.702,13.198 5.778,19.332 2.972,5.936 6.484,10.697 10.361,14.132 3.745,3.321 7.48,5.302 11.409,6.041 5.745,1.078 11.313,0.454 16.628,-1.851 1.384,-0.603 2.773,-1.208 4.167,-1.817 0.384,-0.168 0.769,-0.337 1.15,-0.509 1.532,-0.764 3.065,-1.532 4.6,-2.304 0.076,0.65 0.152,1.302 0.228,1.953 0.038,0.298 0.073,0.598 0.106,0.897 0.206,1.734 0.413,3.466 0.625,5.197 0.447,3.674 0.902,7.348 1.379,11.024 0.089,0.7 0.179,1.395 0.271,2.096 L 32.59,42.98 c 0.047,0.356 0.092,0.711 0.138,1.069 0.044,0.345 0.09,0.693 0.138,1.037 0.058,0.441 0.113,0.884 0.174,1.327 10e-4,-0.002 -1.441,0.871 -4.715,1.908 -0.706,0.231 -1.693,0.441 -1.693,0.439 C 19.771,50.38 13.268,50.65 7.234,49.581 -1.095,48.106 -9.429,44.305 -17.568,38.338 -25.942,32.195 -33.25,24.035 -38.955,14.177 -44.547,4.503 -48.126,-5.885 -49.298,-16.67 c -1.178,-10.85 0.28,-20.143 4.103,-27.677 3.842,-7.593 9.68,-12.639 17.09,-15.068 7.157,-2.344 15.371,-2.411 24.363,-0.24 6.049,1.459 12.74,4.014 19.878,7.564 2.471,1.289 4.943,2.568 7.413,3.849 2.508,18.096 5.415,36.233 8.599,54.405 C 21.506,4.208 10.791,2.153 0,0"
       style="fill:#fff8d7;fill-opacity:1;fill-rule:nonzero;stroke:none"
       transform="matrix(1.3333333,0,0,-1.3333333,252.2428,320.78453)"
       clip-path="url(#clipPath111)" /><path
       id="path112"
       d="m 0,0 c -3.368,0.021 -11.145,0.021 -22.414,-0.465 -1.601,11.02 -3.151,22.03 -4.62,33.032 -5.969,-3.1 -11.971,-6.228 -17.999,-9.375 -1.689,-8.501 -3.349,-17.001 -4.954,-25.492 -8.293,-0.734 -17.392,-1.702 -27.173,-2.972 10.788,35.246 23.026,70.653 34.583,106.137 7.469,0.723 15.144,1.285 23.055,1.677 C -13.462,68.514 -5.997,34.314 1.497,-0.014 1.183,-0.01 0.685,-0.005 0,0 m -18.006,104.632 c -0.253,-0.013 -0.507,-0.026 -0.762,-0.04 -8.402,-0.404 -16.544,-1.01 -24.45,-1.788 -0.219,-0.021 -0.438,-0.044 -0.654,-0.066 C -55.982,65.83 -68.378,31.607 -79.54,-5.045 c 0.216,-0.846 0.898,-2.406 1.397,-2.341 10.641,1.398 20.162,2.38 29.066,3.156 0.264,0.023 0.526,0.046 0.788,0.07 0.046,0.257 0.095,0.513 0.143,0.769 1.585,8.422 3.222,16.848 4.884,25.279 4.892,2.549 9.77,5.084 14.622,7.602 1.431,-10.672 2.935,-21.354 4.486,-32.049 0.303,0.012 0.607,0.026 0.908,0.039 11.733,0.524 19.819,0.524 23.251,0.501 1.223,-0.009 1.85,-0.023 1.85,-0.023 h 0.171 c 0.013,-0.003 0.256,0 0.725,-0.003 C 3.167,-2.047 3.988,-2.051 4.4,-2.054 -3.398,33.661 -11.658,69.24 -18.006,104.632"
       style="fill:#231f20;fill-opacity:1;fill-rule:nonzero;stroke:none"
       transform="matrix(1.3333333,0,0,-1.3333333,391.79427,385.39067)"
       clip-path="url(#clipPath113)" /><path
       id="path114"
       d="M 0,0 C 1.524,7.562 3.062,15.126 4.6,22.692 5.602,16.47 6.645,10.238 7.728,4.001 5.159,2.674 2.582,1.339 0,0 M 4.841,32.494 C 2.308,20.441 -0.24,8.398 -2.741,-3.637 1.503,-1.438 5.729,0.744 9.936,2.914 8.447,11.4 7.023,19.873 5.681,28.337 5.398,29.722 5.118,31.109 4.841,32.494"
       style="fill:#231f20;fill-opacity:1;fill-rule:nonzero;stroke:none"
       transform="matrix(1.3333333,0,0,-1.3333333,339.47267,329.37893)"
       clip-path="url(#clipPath115)" /><path
       id="path116"
       d="m 0,0 c -7.881,21.364 -16.133,42.66 -24.201,63.863 -0.863,2.124 -1.724,4.249 -2.582,6.369 2.287,-22.806 4.399,-45.624 6.202,-68.45 -11.069,0.757 -19.359,1.004 -24.15,1.094 -0.496,34.407 -1.232,68.815 -2.144,103.216 0.032,0 0.068,0.004 0.104,0.004 8.633,-0.035 16.983,-0.29 25.09,-0.733 C -13.072,86.665 -4.043,67.861 4.941,48.976 5.861,46.922 6.776,44.864 7.694,42.809 4.194,63.23 0.318,83.646 -3.759,104.051 3.035,103.427 9.646,102.664 16.094,101.794 21.806,66.642 26.065,31.504 28.495,-3.63 18.193,-2.075 8.636,-0.898 0,0 m 17.635,103.586 c -0.273,0.038 -0.546,0.074 -0.815,0.111 -7.055,0.974 -14.3,1.806 -21.767,2.48 -0.367,0.035 -0.739,0.066 -1.107,0.099 3.367,-16.69 6.617,-33.383 9.658,-50.086 -8.183,17.122 -16.368,34.172 -24.199,51.139 -0.191,0.011 -0.384,0.02 -0.575,0.03 -8.143,0.454 -16.533,0.716 -25.203,0.759 -0.002,0.003 -0.004,0.003 -0.008,0.005 -0.142,0 -0.287,0 -0.43,-0.002 h -0.41 c -0.125,0 -0.258,0 -0.397,0.002 -0.164,0 -0.329,0.002 -0.495,0.002 -0.002,-0.002 -0.004,-0.007 -0.006,-0.014 -0.216,-0.002 -0.43,-0.005 -0.645,-0.007 0.851,-35.734 1.061,-71.474 1.548,-107.216 0.332,-0.006 1.162,-0.01 1.493,-0.016 4.712,-0.077 13.768,-0.311 26.192,-1.189 0.375,-0.027 0.748,-0.054 1.125,-0.078 -0.032,0.375 -0.058,0.754 -0.088,1.132 -1.45,18.572 -3.116,37.135 -4.934,55.693 7.364,-19.364 14.842,-38.808 22.016,-58.311 0.219,-0.019 0.436,-0.046 0.652,-0.067 8.949,-0.921 18.905,-2.148 29.674,-3.775 0.072,-0.01 0.146,-0.023 0.221,-0.034 0.071,0.022 0.137,0.041 0.211,0.063 0.315,0.098 0.553,0.173 0.553,0.173 0.237,0.07 0.472,0.142 0.705,0.215 C 28.147,30.98 23.682,67.28 17.635,103.586"
       style="fill:#231f20;fill-opacity:1;fill-rule:nonzero;stroke:none"
       transform="matrix(1.3333333,0,0,-1.3333333,460.41533,389.3216)"
       clip-path="url(#clipPath117)" /><path
       id="path118"
       d="m 0,0 c -8.442,1.992 -16.661,3.749 -24.593,5.295 -0.196,28.349 -1.986,56.704 -5.402,85.071 -0.414,-0.156 -0.832,-0.315 -1.249,-0.47 -6.778,-2.548 -13.63,-5.153 -20.562,-7.819 -1.528,10.497 -3.212,20.998 -5.036,31.504 24.396,-3.809 46.406,-9.212 66.225,-15.331 2.423,-10.443 4.562,-20.879 6.41,-31.312 -8.862,6.876 -17.714,13.7 -26.497,20.464 C -5.203,58.248 -1.571,29.115 0,0 m 18.469,62.618 c -2.118,12.361 -4.646,24.727 -7.58,37.101 -0.254,0.078 -0.503,0.156 -0.754,0.234 -20.362,6.347 -43.006,11.928 -68.142,15.804 -0.356,0.058 -0.716,0.113 -1.075,0.167 2.117,-12.232 4.045,-24.462 5.769,-36.691 7.335,2.815 14.591,5.572 21.762,8.261 3.198,-27.961 4.849,-55.909 4.974,-83.849 0.293,-0.057 0.585,-0.115 0.879,-0.168 C -17.138,1.821 -8.237,-0.082 0.91,-2.26 1.313,-2.354 1.714,-2.45 2.113,-2.544 0.694,25.985 -2.743,54.53 -8.012,83.098 0.775,76.327 9.622,69.498 18.469,62.618"
       style="fill:#231f20;fill-opacity:1;fill-rule:nonzero;stroke:none"
       transform="matrix(1.3333333,0,0,-1.3333333,567.2448,407.44667)"
       clip-path="url(#clipPath119)" /><path
       id="path120"
       d="M 0,0 C -0.955,34.567 -5.509,69.167 -13.4,103.811 -5.773,101.312 1.508,98.713 8.433,96.053 17.494,61.471 22.834,26.952 24.021,-7.522 15.951,-4.804 7.921,-2.3 0,0 m 26.026,-8.947 c -1.086,35.389 -6.603,70.83 -16.085,106.34 -0.238,0.09 -0.471,0.18 -0.705,0.271 -7.545,2.917 -15.505,5.761 -23.877,8.486 -0.413,0.137 -0.831,0.273 -1.244,0.408 C -7.575,70.493 -2.83,34.479 -1.938,-1.5 c 0.259,-0.073 0.518,-0.146 0.779,-0.224 8.559,-2.465 17.24,-5.177 25.962,-8.139 0.419,-0.143 0.84,-0.287 1.261,-0.431 -0.008,0.449 -0.025,0.898 -0.038,1.347"
       style="fill:#231f20;fill-opacity:1;fill-rule:nonzero;stroke:none"
       transform="matrix(1.3333333,0,0,-1.3333333,607.68493,418.07027)"
       clip-path="url(#clipPath121)" /><path
       id="path122"
       d="m 0,0 c -7.269,-1.778 -14.638,-3.696 -22.068,-5.762 0.537,33.246 4.103,62.489 10.959,95.931 6.435,2.265 13.172,4.493 20.217,6.654 C 3.188,63.097 0.283,33.574 0,0 M 10.269,99.114 C 2.45,96.734 -5.01,94.263 -12.093,91.751 c -0.251,-0.09 -0.5,-0.179 -0.75,-0.265 -7.292,-34.762 -11.003,-65.319 -11.349,-99.863 0.442,0.121 0.883,0.247 1.325,0.368 8.13,2.271 16.187,4.37 24.131,6.3 0.276,0.07 0.552,0.139 0.826,0.203 0,0.266 0.002,0.531 0.002,0.801 C 2.343,34 5.376,64.653 11.579,99.516 11.145,99.383 10.707,99.251 10.269,99.114"
       style="fill:#231f20;fill-opacity:1;fill-rule:nonzero;stroke:none"
       transform="matrix(1.3333333,0,0,-1.3333333,174.79947,410.90107)"
       clip-path="url(#clipPath123)" /><path
       id="path124"
       d="m 0,0 c -3.518,-1.729 -6.045,-2.431 -11.288,-2.74 -2.775,-0.05 -5.364,0.115 -7.743,0.44 -12.822,1.759 -19.64,8.08 -22.117,10.009 -4.358,3.858 -6.681,6.386 -10.635,11.756 -9.142,12.449 -11.975,31.763 -13.174,44.889 -0.32,3.722 -0.477,6.95 -0.51,9.369 -0.141,7.761 0.606,13.489 3.699,18.351 2.347,4.228 5.536,5.349 9.834,6.204 2.119,0.303 4.554,0.36 7.404,-0.051 4.587,-0.67 10.292,-2.552 17.671,-6.624 6.396,-3.121 15.287,-10.188 22.666,-17.116 1.178,-5.246 2.233,-10.492 3.152,-15.733 -11.299,10.571 -15.463,14.415 -22.324,18.288 -0.029,0.016 -0.057,0.031 -0.083,0.048 -0.026,0.009 -0.053,0.016 -0.078,0.027 -4.228,1.672 -7.269,2.996 -10.126,3.422 -1.286,0.19 -2.542,0.179 -3.767,-0.093 -4.103,-0.863 -5.779,-3.98 -6.314,-7.723 -0.557,-3.76 -0.136,-8.24 -0.085,-12.463 0.017,-0.423 0.048,-0.806 0.079,-1.201 0.591,-6.881 2.324,-15.55 2.718,-17.216 0.708,-2.824 2.119,-6.981 3.625,-10.24 6.466,-14.157 16.639,-17.958 23.645,-19.398 0.246,-0.058 0.519,-0.101 0.796,-0.141 4.042,-0.545 10.763,0.627 15.498,2.168 C 1.804,9.494 0.953,4.749 0,0 m 3.348,16.692 c -4.335,-1.721 -12.342,-3.216 -16.21,-2.646 -0.239,0.03 -0.453,0.071 -0.648,0.117 -6.794,1.467 -15.958,4.755 -22.133,18.087 -1.416,3.048 -2.813,7.152 -3.468,9.776 -0.344,1.438 -2.097,10.173 -2.652,16.769 -0.03,0.376 -0.053,0.743 -0.076,1.105 -0.06,4.249 -0.444,8.643 0.071,12.05 0.547,3.417 1.823,5.752 5.253,6.514 1.042,0.229 2.045,0.24 3.148,0.081 2.404,-0.342 5.317,-1.569 9.538,-3.248 6.794,-3.853 10.848,-7.696 23.607,-19.693 0.273,-0.268 0.548,-0.536 0.824,-0.802 0.292,0.142 0.586,0.29 0.878,0.433 -1.096,6.626 -2.398,13.259 -3.912,19.894 -0.109,0.101 -0.218,0.204 -0.33,0.305 -7.613,7.143 -16.758,14.485 -23.714,17.902 -7.545,4.167 -13.547,6.176 -18.436,6.889 -3.032,0.441 -5.639,0.383 -7.924,0.05 -4.416,-0.852 -8.195,-2.189 -10.707,-6.829 -3.289,-5.175 -4.057,-11.378 -3.906,-19.298 0.039,-2.486 0.193,-5.769 0.518,-9.556 1.246,-13.353 3.983,-32.982 13.623,-46.244 3.988,-5.439 6.532,-8.225 10.995,-12.17 2.422,-1.9 9.774,-8.662 23.034,-10.457 0.017,-0.003 0.044,-0.005 0.059,-0.012 2.475,-0.336 5.157,-0.502 8.061,-0.447 5.593,0.308 8.591,1.177 12.455,3.136 0.136,0.067 0.267,0.133 0.399,0.201 1.288,6.25 2.393,12.502 3.306,18.746 -0.55,-0.217 -1.102,-0.434 -1.653,-0.653"
       style="fill:#231f20;fill-opacity:1;fill-rule:nonzero;stroke:none"
       transform="matrix(1.3333333,0,0,-1.3333333,730.04173,448.1576)"
       clip-path="url(#clipPath125)" /><path
       id="path126"
       d="m 0,0 c -2.248,-1.422 -4.489,-2.848 -6.721,-4.271 -6.932,-4.245 -13.497,-7.423 -19.493,-9.404 -3.962,-1.31 -7.785,-2.145 -11.456,-2.513 -4.649,-0.458 -9.058,-0.166 -13.195,0.873 -7.586,1.92 -13.755,6.501 -18.05,13.74 -3.437,5.806 -5.275,12.768 -5.25,20.757 0.005,1.698 0.095,3.443 0.271,5.228 0.979,9.868 4.438,19.263 9.958,27.991 5.483,8.673 12.552,15.882 20.635,21.501 7.773,5.394 15.748,9.074 23.682,10.969 1.812,0.439 3.682,0.775 5.598,1.011 4.106,0.509 8.422,0.561 12.902,0.14 0.02,-0.002 0.955,-0.075 1.585,-0.176 C 2.034,85.595 3.148,85.336 3.874,85.14 4.053,85.091 4.21,85.047 4.336,85.008 4.319,84.881 4.3,84.754 4.282,84.628 4.241,84.345 4.201,84.065 4.161,83.786 4.119,83.492 4.076,83.202 4.035,82.914 3.956,82.341 3.876,81.772 3.797,81.197 3.378,78.149 2.99,75.094 2.635,72.045 2.461,70.576 2.299,69.107 2.141,67.638 2.115,67.381 2.087,67.132 2.059,66.878 2.056,66.852 2.053,66.823 2.051,66.795 0.999,67.148 -0.053,67.5 -1.104,67.85 c -0.391,0.112 -0.784,0.223 -1.176,0.33 -1.373,0.383 -2.744,0.765 -4.114,1.143 -3.941,1.086 -8.032,1.383 -12.225,0.882 -1.516,-0.18 -3.042,-0.467 -4.582,-0.856 -4.055,-1.019 -7.947,-3.135 -11.728,-6.372 -3.974,-3.394 -7.521,-7.914 -10.441,-13.428 -3.072,-5.791 -4.965,-11.913 -5.531,-18.204 -0.07,-0.799 -0.12,-1.594 -0.145,-2.379 -0.246,-7.578 1.739,-14.176 5.756,-19.547 3.128,-4.235 7.937,-6.118 13.889,-5.481 1.925,0.196 3.976,0.642 6.165,1.324 1.812,0.569 5.59,2.032 5.605,2.035 0.309,0.116 0.617,0.233 0.921,0.352 -2.707,11.735 -4.906,23.437 -6.546,35.121 9.906,2.66 19.79,5.272 29.636,7.832 C 1.985,33.698 0.509,16.827 0,0 m -27.658,44.188 c 0.045,-0.343 0.093,-0.685 0.14,-1.025 1.583,-11.408 3.707,-22.838 6.322,-34.286 -1.238,-0.47 -3.403,-1.283 -4.546,-1.638 -2.074,-0.647 -3.985,-1.058 -5.732,-1.232 -5.418,-0.53 -9.264,1.007 -12.054,4.722 -3.744,5.044 -5.611,11.24 -5.378,18.491 0.025,0.75 0.075,1.509 0.143,2.276 0.544,6.046 2.352,11.905 5.268,17.441 2.789,5.289 6.119,9.52 9.744,12.626 3.505,2.992 6.934,4.846 10.573,5.765 1.442,0.366 2.872,0.625 4.29,0.792 3.927,0.466 7.769,0.193 11.515,-0.834 1.375,-0.378 2.75,-0.754 4.126,-1.142 0.379,-0.105 0.757,-0.213 1.138,-0.321 1.976,-0.656 3.957,-1.32 5.939,-1.985 0.099,0.992 0.197,1.987 0.302,2.983 h 0.002 c 0.188,1.817 0.388,3.641 0.598,5.458 0.353,3.054 0.739,6.11 1.154,9.162 0.076,0.573 0.155,1.143 0.235,1.711 v 0 c 0.04,0.29 0.083,0.584 0.124,0.871 0.04,0.283 0.079,0.562 0.118,0.848 0.054,0.358 0.105,0.716 0.156,1.073 0.033,0.219 0.065,0.438 0.097,0.659 -0.182,0.074 -0.364,0.146 -0.544,0.218 -0.055,0.02 -1.514,0.591 -4.745,1.107 -0.742,0.125 -1.699,0.195 -1.711,0.195 -4.57,0.429 -9.015,0.373 -13.279,-0.159 -1.985,-0.248 -3.936,-0.599 -5.843,-1.061 C -27.77,84.926 -36.11,81.07 -44.182,75.47 -52.628,69.614 -60.03,62.089 -65.722,53.127 c -5.729,-9.007 -9.313,-18.7 -10.315,-28.83 -0.18,-1.838 -0.276,-3.632 -0.276,-5.386 -0.019,-8.229 1.902,-15.48 5.537,-21.575 4.529,-7.606 11.234,-12.597 19.373,-14.638 4.402,-1.113 9.072,-1.421 13.937,-0.941 3.848,0.384 7.817,1.248 11.899,2.6 6.192,2.048 12.871,5.298 19.922,9.616 2.561,1.636 5.133,3.273 7.716,4.908 0.507,18.105 2.123,36.256 4.785,54.448 -11.459,-2.976 -22.97,-6.026 -34.514,-9.141"
       style="fill:#231f20;fill-opacity:1;fill-rule:nonzero;stroke:none"
       transform="matrix(1.3333333,0,0,-1.3333333,132.91733,419.5)"
       clip-path="url(#clipPath127)" /><path
       id="path128"
       d="m 0,0 c -2.304,-1.2 -4.611,-2.401 -6.918,-3.604 -7.064,-3.515 -13.688,-6.036 -19.64,-7.469 -3.448,-0.832 -6.768,-1.33 -9.944,-1.493 -4.977,-0.252 -9.6,0.316 -13.836,1.707 -7.151,2.351 -12.766,7.187 -16.518,14.603 -3.341,6.603 -4.846,14.616 -4.283,23.932 0.065,1.069 0.159,2.155 0.276,3.256 1.149,10.659 4.668,20.9 10.17,30.436 5.604,9.707 12.765,17.71 20.973,23.731 8.001,5.863 16.167,9.58 24.333,11.023 1.492,0.261 3.013,0.443 4.574,0.54 4.59,0.285 9.441,-0.162 14.512,-1.356 C 3.72,95.3 4.689,95.094 5.334,94.883 6.948,94.372 8.101,93.906 8.84,93.57 9.055,93.476 9.236,93.389 9.386,93.314 9.356,93.104 9.329,92.894 9.3,92.682 9.253,92.335 9.21,91.987 9.163,91.641 9.115,91.279 9.07,90.913 9.021,90.55 8.931,89.858 8.84,89.165 8.75,88.477 8.272,84.8 7.809,81.125 7.359,77.453 7.147,75.721 6.937,73.989 6.731,72.257 6.694,71.958 6.659,71.658 6.621,71.361 6.607,71.234 6.594,71.113 6.581,70.989 c -1.104,0.555 -9.326,7.054 -21.899,6.384 -1.284,-0.073 -2.579,-0.237 -3.876,-0.48 -4.14,-0.778 -8.09,-2.888 -11.965,-6.33 -4.033,-3.572 -7.642,-8.478 -10.674,-14.52 -3.145,-6.256 -5.16,-12.891 -5.909,-19.699 -0.098,-0.876 -0.168,-1.74 -0.217,-2.588 -0.468,-8.033 1.159,-15.052 4.791,-20.856 2.885,-4.676 7.661,-6.913 13.829,-6.575 1.697,0.089 3.505,0.355 5.428,0.801 1.811,0.421 5.599,1.577 5.612,1.58 0.301,0.091 0.601,0.178 0.901,0.273 -1.66,12.596 -3.043,25.19 -4.107,37.771 10.006,1.987 19.944,3.889 29.819,5.71 C 5.241,34.938 2.434,17.448 0,0 m -23.707,48.391 c 0.027,-0.345 0.058,-0.684 0.086,-1.025 1.013,-12.305 2.338,-24.62 3.933,-36.942 -1.233,-0.366 -3.42,-1.011 -4.567,-1.275 -1.822,-0.422 -3.507,-0.67 -5.055,-0.749 -5.647,-0.257 -9.47,1.585 -12.066,5.702 -3.403,5.46 -4.957,12.074 -4.52,19.789 0.043,0.817 0.113,1.646 0.207,2.484 0.719,6.572 2.642,12.952 5.647,18.963 2.913,5.823 6.331,10.448 10.043,13.738 3.62,3.21 7.138,5.06 10.857,5.76 1.223,0.231 2.434,0.376 3.64,0.446 11.907,1.184 21.721,-6.521 23.681,-7.511 0.134,1.179 0.272,2.359 0.409,3.537 0.036,0.298 0.07,0.599 0.105,0.897 0.202,1.734 0.411,3.466 0.619,5.2 0.442,3.675 0.898,7.348 1.368,11.022 0.089,0.711 0.18,1.421 0.271,2.129 0.041,0.347 0.087,0.695 0.132,1.042 0.044,0.345 0.09,0.69 0.135,1.037 0.086,0.661 0.174,1.322 0.26,1.981 -0.165,0.102 -0.331,0.199 -0.497,0.298 -0.055,0.037 -1.555,0.931 -4.877,1.988 -0.766,0.247 -1.756,0.46 -1.768,0.46 -5.167,1.221 -10.159,1.687 -14.925,1.389 -1.616,-0.102 -3.204,-0.291 -4.769,-0.569 -8.485,-1.504 -16.985,-5.389 -25.269,-11.463 -8.539,-6.267 -15.997,-14.59 -21.794,-24.591 -5.689,-9.813 -9.33,-20.35 -10.517,-31.271 -0.123,-1.13 -0.223,-2.245 -0.289,-3.345 -0.586,-9.567 0.961,-17.893 4.481,-24.814 3.934,-7.768 9.996,-13.021 17.665,-15.523 4.5,-1.476 9.401,-2.068 14.6,-1.809 3.325,0.166 6.775,0.686 10.342,1.544 6.151,1.48 12.909,4.06 20.1,7.636 2.643,1.376 5.285,2.747 7.926,4.119 2.582,18.739 5.592,37.523 8.884,56.346 -11.402,-2.095 -22.896,-4.302 -34.478,-6.62"
       style="fill:#231f20;fill-opacity:1;fill-rule:nonzero;stroke:none"
       transform="matrix(1.3333333,0,0,-1.3333333,282.38147,384.21093)"
       clip-path="url(#clipPath129)" /><path
       id="path130"
       d="m 0,0 c -0.683,-0.344 -1.328,-0.651 -1.969,-0.927 0.18,-0.021 0.366,-0.045 0.542,-0.062 -0.582,-0.143 -1.163,-0.283 -1.747,-0.426 -1.615,-0.606 -3.243,-1.019 -5.256,-1.292 -26.026,-6.429 -52.235,-13.496 -78.445,-21.13 -0.162,0.013 -0.311,0.025 -0.461,0.033 -0.154,0.012 -0.301,0.019 -0.454,0.019 -0.148,0.016 -0.292,0.02 -0.444,0.035 -0.139,0 -0.287,0.013 -0.431,0.022 -0.256,0.018 -0.515,0.037 -0.755,0.059 -0.253,0.02 -0.496,0.043 -0.739,0.063 -0.237,0.019 -0.474,0.042 -0.71,0.074 -0.23,0.019 -0.455,0.045 -0.683,0.068 -0.352,0.04 -0.7,0.088 -1.039,0.132 -0.34,0.047 -0.675,0.095 -1.011,0.146 -0.322,0.049 -0.659,0.102 -0.983,0.165 -0.321,0.051 -0.64,0.106 -0.957,0.165 -0.31,0.056 -0.627,0.126 -0.937,0.2 -0.312,0.062 -0.631,0.135 -0.946,0.215 -0.313,0.081 -0.629,0.158 -0.954,0.244 -0.318,0.083 -0.64,0.174 -0.963,0.264 -1.048,0.297 -2.066,0.633 -3.058,1.017 -0.99,0.376 -1.951,0.79 -2.887,1.257 -0.931,0.459 -1.842,0.961 -2.72,1.505 -0.884,0.55 -1.731,1.145 -2.555,1.78 -0.816,0.639 -1.596,1.307 -2.344,2.01 -0.749,0.708 -1.466,1.443 -2.152,2.216 -0.686,0.773 -1.341,1.582 -1.966,2.422 -0.363,0.495 -0.723,1.004 -1.067,1.52 -4.519,-2.075 -9.044,-4.168 -13.561,-6.277 -6.025,1.648 -12.084,3.271 -18.169,4.865 0.7,5.919 1.333,11.839 1.897,17.758 -5.136,-4.303 -10.298,-8.625 -15.47,-12.969 -5.999,1.296 -12.013,2.563 -18.049,3.804 0.328,10.437 0.505,20.872 0.531,31.309 -6.496,-10.007 -13.142,-20.049 -19.829,-30.114 -1.989,0.285 -3.727,0.526 -5.349,0.74 -1.617,0.213 -3.116,0.405 -4.603,0.584 -1.499,0.179 -3.001,0.356 -4.626,0.527 -1.624,0.177 -3.377,0.358 -5.379,0.554 0.046,0.114 0.094,0.226 0.142,0.34 -0.036,-0.069 -0.079,-0.143 -0.117,-0.21 -1.803,4.423 -3.701,8.858 -5.648,13.3 -0.542,1.23 -1.095,2.464 -1.645,3.697 -1.114,-5.13 -2.243,-10.263 -3.381,-15.389 -1.887,0.033 -3.524,0.059 -5.051,0.08 -1.524,0.017 -2.93,0.038 -4.331,0.036 -1.406,0.018 -2.816,0.016 -4.331,0.01 -1.516,-0.002 -3.16,-0.01 -5.035,-0.018 0,0.02 0.004,0.039 0.007,0.059 -0.317,0.006 -0.637,0.014 -0.944,0.018 -0.325,0.005 -6.448,0.048 -10.36,0.041 -1.86,-0.013 -3.722,-0.027 -5.585,-0.045 -0.445,-0.01 -0.898,-0.021 -1.374,-0.028 -0.002,0.009 -1.457,-0.006 -1.454,-0.006 -1.412,7.283 -2.819,14.561 -4.214,21.829 -2.998,-1.624 -5.996,-3.252 -8.992,-4.888 -1.227,-5.644 -2.438,-11.289 -3.628,-16.935 -6.648,-0.587 -13.298,-1.202 -19.943,-1.85 -0.921,1.34 -2.358,3.523 -3.28,4.863 -1.13,-2.028 -4.654,-5.225 -10.925,-8.114 -7.75,-3.346 -12.692,-3.603 -16.349,-3.362 -2.743,0.287 -5.68,1.563 -8.906,3.346 -2.404,1.439 -6.107,4.423 -13.046,9.682 0.735,-5.82 1.522,-11.635 2.365,-17.451 -6.103,-1.481 -12.196,-2.985 -18.27,-4.507 -4.014,2.044 -5.094,2.749 -9.114,4.763 -0.058,-1.655 -0.177,-2.074 -0.227,-3.736 -0.041,-0.012 -13.649,-9.178 -29.633,-8.239 -28.746,9.946 -57.706,18.576 -86.762,27.01 -0.329,0.089 -0.656,0.185 -0.979,0.283 -0.055,0.016 -0.111,0.031 -0.168,0.047 0,0 -0.001,0.005 -0.002,0.007 -6.936,2.19 -12.729,7.239 -16.723,13.84 -4.252,7.025 -6.077,15.709 -5.049,25.774 0.978,9.733 4.209,19.797 9.828,28.426 5.572,8.581 12.773,15.752 21.012,21.331 7.896,5.349 16.035,9.015 24.125,10.897 5.849,1.363 12.17,1.755 18.825,1.149 0.004,0 0.955,-0.071 1.645,-0.185 3.185,-0.489 4.59,-1.034 4.59,-1.034 2.983,-4.724 6.087,-9.468 9.294,-14.228 -0.04,0 2.74,15.403 5.022,25.978 7.089,2.605 14.544,5.162 22.368,7.634 4.308,-5.314 6.079,-8.061 10.778,-13.2 5.131,7.573 12.522,15.936 19.395,20.98 8.14,5.971 16.476,9.768 24.802,11.243 6.03,1.069 12.537,0.799 19.399,-0.821 0,0 0.986,-0.208 1.692,-0.439 3.273,-1.037 4.637,-2.686 4.636,-2.686 3.919,-12.284 8.498,-27.471 12.897,-39.25 5.168,15.524 10.494,31.404 15.581,46.964 7.908,0.775 16.053,1.378 24.464,1.78 5.117,-21.488 10.924,-43.078 16.965,-64.746 0.145,-0.002 5.47,62.911 5.441,65.242 v 0.074 h 0.212 c 0,0.005 0.002,0.005 0.002,0.007 h 0.409 c 0.138,0 0.273,0 0.41,0.002 0,-0.002 0.003,-0.004 0.003,-0.009 8.83,-0.03 17.368,-0.294 25.649,-0.758 3.567,-7.739 7.208,-15.497 10.888,-23.269 2.129,8.039 5.373,22.091 5.339,22.091 7.471,-0.673 14.717,-1.509 21.776,-2.478 0.991,-6.036 1.942,-12.069 2.849,-18.107 1.162,7.078 2.457,16.577 2.444,16.577 25.139,-3.871 47.765,-9.442 68.099,-15.769 1.011,-4.309 1.974,-8.614 2.886,-12.921 0.949,3.724 1.838,7.442 2.664,11.156 8.357,-2.717 16.303,-5.555 23.829,-8.465 3.071,-11.602 5.717,-23.198 7.929,-34.788 2.184,1.862 4.346,3.713 6.487,5.556 3.891,3.345 7.091,7.618 12.367,8.364 1.069,0.354 2.198,0.62 3.396,0.853 5.805,0.839 13.625,-0.121 25.769,-6.819 6.694,-3.277 15.792,-10.562 23.322,-17.645 1.093,-4.825 2.078,-9.647 2.948,-14.465 0.317,-1.091 0.7,-2.408 0.576,-3.28 0.044,-0.269 0.09,-0.536 0.137,-0.806 -0.103,0.096 -0.207,0.192 -0.311,0.293 -0.018,-0.033 -0.023,-0.075 -0.05,-0.101 -0.206,-0.252 -0.784,-0.376 -1.083,-0.52 -1.272,-0.609 -2.547,-1.223 -3.822,-1.837 -4.067,-1.959 -8.164,-3.942 -12.288,-5.944 -7.107,-3.454 -14.294,-6.972 -21.55,-10.55 0.659,-1.923 1.436,-3.941 2.235,-5.67 6.322,-13.745 15.988,-17.293 22.884,-18.742 3.947,-0.91 12.614,0.692 17.408,2.572 C 2.092,10.974 1.118,5.485 0,0 m 2.237,17.96 c -4.223,-1.701 -12.258,-3.175 -15.926,-2.618 -0.221,0.031 -0.418,0.069 -0.602,0.109 -6.733,1.477 -15.595,4.606 -21.676,17.696 -0.593,1.271 -1.18,2.742 -1.716,4.208 6.906,3.397 13.748,6.736 20.522,10.016 4.135,2.004 8.24,3.982 12.32,5.942 1.28,0.616 2.557,1.229 3.827,1.839 0.01,0.005 0.127,0.048 0.287,0.109 0.476,0.186 0.949,0.377 1.425,0.565 0.209,0.281 -3.268,20.192 -3.452,20.192 -0.175,0.165 -0.352,0.332 -0.528,0.497 -7.638,7.15 -16.766,14.498 -23.87,18.013 -7.664,4.228 -13.756,6.274 -18.728,6.998 -3.089,0.452 -5.741,0.391 -8.067,0.054 -1.245,-0.246 -2.4,-0.513 -3.495,-0.873 -5.787,-0.914 -9.01,-5.403 -12.775,-8.601 -1.442,-1.247 -2.897,-2.502 -4.364,-3.758 -2.163,10.899 -4.718,21.803 -7.648,32.716 -0.375,0.143 -0.749,0.288 -1.125,0.433 -7.554,2.922 -15.524,5.774 -23.898,8.501 -0.428,0.141 -0.852,0.276 -1.276,0.415 -0.45,-2.066 -0.923,-4.132 -1.412,-6.202 -0.542,2.394 -1.098,4.789 -1.67,7.185 -0.402,0.124 -0.801,0.252 -1.203,0.375 -20.376,6.353 -43.031,11.946 -68.167,15.829 -0.412,0.064 -0.824,0.125 -1.236,0.19 -0.056,-0.428 -0.114,-0.859 -0.171,-1.285 -0.006,0 -0.42,-3.149 -1.013,-7.175 -0.514,3.208 -1.038,6.416 -1.578,9.624 -0.436,0.059 -0.865,0.119 -1.3,0.178 -7.052,0.972 -14.302,1.807 -21.766,2.482 -0.37,0.032 -0.741,0.065 -1.112,0.097 -0.086,-0.382 -0.175,-0.766 -0.262,-1.148 0.015,0 -2.318,-10.212 -4.374,-18.21 -3.222,6.808 -6.414,13.608 -9.546,20.393 -0.306,0.016 -0.614,0.031 -0.92,0.052 -8.06,0.449 -16.359,0.708 -24.938,0.752 -0.003,0.002 -0.006,0.005 -0.009,0.011 -0.231,0 -0.46,-0.004 -0.691,-0.004 -0.138,-0.002 -0.271,0 -0.408,-0.002 -0.12,0 -0.253,0 -0.393,0.002 -0.261,0.004 -0.525,0.004 -0.787,0.004 -0.004,-0.006 -0.007,-0.011 -0.01,-0.016 -0.304,-0.002 -0.604,-0.005 -0.908,-0.011 0.015,-0.533 -1.298,-19.319 -2.662,-35.026 -0.741,-8.606 -1.504,-17.124 -2.058,-23.165 -5.342,19.3 -10.465,38.53 -15.041,57.688 -0.379,-0.018 -0.762,-0.036 -1.143,-0.056 -8.401,-0.404 -16.538,-1.011 -24.443,-1.791 -0.349,-0.038 -0.697,-0.071 -1.048,-0.108 -4.76,-14.476 -9.63,-28.939 -14.468,-43.379 -3.898,10.577 -8.073,25.133 -11.594,36.182 -0.144,0.086 -0.288,0.171 -0.433,0.26 -0.085,0.051 -1.618,0.965 -4.969,2.032 -0.801,0.257 -1.791,0.465 -1.81,0.472 -5.191,1.227 -10.226,1.698 -15.047,1.397 -1.634,-0.103 -3.242,-0.295 -4.822,-0.574 -8.582,-1.528 -17.185,-5.465 -25.551,-11.598 -6.425,-4.719 -13.85,-12.465 -18.822,-19.309 -4.216,4.9 -5.512,6.75 -9.691,12.136 -0.347,-0.112 -0.695,-0.22 -1.043,-0.33 -7.847,-2.486 -15.326,-5.056 -22.445,-7.677 -0.397,-0.145 -0.799,-0.289 -1.197,-0.44 -2.129,-9.734 -4.318,-21.293 -4.596,-22.545 -2.429,4.041 -4.516,7.027 -6.788,11.046 0,0 -0.536,0.184 -0.614,0.215 -0.087,0.032 -1.581,0.597 -4.85,1.102 -0.774,0.124 -1.735,0.192 -1.755,0.194 -4.597,0.42 -9.081,0.371 -13.393,-0.154 -2.011,-0.244 -3.984,-0.591 -5.917,-1.046 -8.354,-1.947 -16.779,-5.749 -24.918,-11.256 -8.527,-5.77 -15.994,-13.187 -21.731,-21.992 -5.789,-8.849 -9.118,-19.143 -10.115,-29.084 -0.182,-1.799 -0.278,-3.559 -0.283,-5.278 -0.034,-8.085 1.888,-15.229 5.556,-21.251 3.995,-6.579 9.828,-11.801 16.77,-14.213 0.003,-0.015 0.007,-0.029 0.01,-0.046 0.366,-0.103 0.729,-0.212 1.094,-0.317 0.321,-0.101 0.665,-0.198 1.006,-0.289 29.148,-8.463 58.189,-17.118 87.005,-27.088 0.077,-0.003 0.156,-0.009 0.233,-0.013 1.477,-0.083 2.928,-0.077 4.348,0.004 14.673,0.89 26.176,8.474 26.328,8.556 0.196,0.151 0.389,0.304 0.585,0.457 0.033,1.076 0.016,1.255 0.052,2.334 3.452,-1.734 4.076,-2.5 7.523,-4.255 6.73,1.689 13.482,3.35 20.249,4.985 -0.717,4.936 -1.395,9.864 -2.035,14.79 2.05,-1.673 3.915,-3.151 5.515,-4.365 3.972,-3.316 6.735,-4.31 8.16,-4.904 1.419,-0.595 4.331,-1.636 7.169,-1.683 3.464,0.047 9.285,0 18.908,4.954 3,1.584 4.761,3.081 7.361,5.367 1.117,-1.625 1.931,-2.805 2.438,-3.546 7.354,0.718 14.71,1.4 22.07,2.04 1.215,5.791 2.459,11.585 3.716,17.38 2.133,1.159 5.531,3.099 7.666,4.255 1.344,-6.985 1.79,-14.57 2.789,-21.754 0.935,0.002 1.87,0.004 2.802,0.004 0.501,0.011 0.956,0.021 1.399,0.03 1.858,0.017 3.712,0.033 5.569,0.047 3.136,0.01 14.81,-0.096 16.334,-0.105 1.508,0.002 2.912,0.009 4.302,-0.012 1.405,0.003 2.807,-0.016 4.336,-0.036 1.524,-0.022 3.153,-0.047 5.042,-0.079 0.426,-0.008 0.856,-0.015 1.283,-0.023 0.881,3.962 1.229,9.228 2.095,13.194 1.731,-3.956 3.959,-9.214 5.574,-13.152 0.225,-0.555 0.452,-1.109 0.676,-1.663 0.631,-0.062 1.264,-0.126 1.891,-0.189 1.594,-0.159 3.025,-0.308 4.369,-0.455 1.619,-0.169 3.114,-0.345 4.608,-0.523 1.479,-0.175 2.969,-0.371 4.588,-0.583 1.613,-0.214 3.346,-0.453 5.329,-0.739 0.325,-0.046 0.653,-0.095 0.973,-0.142 5.863,8.807 11.722,20.404 17.451,29.162 -0.063,-9.038 -0.275,-20.883 -0.564,-29.919 6.726,-1.379 13.436,-2.791 20.122,-4.239 4.362,3.658 8.829,8.47 13.171,12.103 -0.507,-5.065 -1.171,-11.294 -1.776,-16.357 6.718,-1.759 13.402,-3.548 20.049,-5.37 4.3,2.006 8.482,4.257 12.782,6.236 0.112,-0.161 0.342,-0.581 0.462,-0.739 0.66,-0.885 1.344,-1.728 2.055,-2.533 0.718,-0.818 1.473,-1.584 2.25,-2.325 0.795,-0.738 1.607,-1.443 2.462,-2.107 0.862,-0.674 1.761,-1.295 2.684,-1.876 0.929,-0.576 1.879,-1.097 2.85,-1.579 0.982,-0.487 1.99,-0.923 3.016,-1.316 1.034,-0.394 2.092,-0.746 3.176,-1.056 0.331,-0.094 0.669,-0.184 0.985,-0.272 0.339,-0.089 0.659,-0.17 0.978,-0.247 0.334,-0.086 0.671,-0.164 1.003,-0.23 0.286,-0.071 0.625,-0.141 0.962,-0.206 0.342,-0.064 0.667,-0.119 0.984,-0.171 0.323,-0.057 0.675,-0.116 1.01,-0.165 0.339,-0.053 0.684,-0.106 1.033,-0.149 0.339,-0.044 0.693,-0.089 1.058,-0.135 0.212,-0.023 0.398,-0.041 0.585,-0.059 0.061,-0.006 0.055,-0.006 0.055,-0.006 0.178,-0.025 0.32,-0.039 0.455,-0.051 0.129,-0.014 0.237,-0.02 0.318,-0.029 0.269,-0.023 0.509,-0.046 0.766,-0.066 0.26,-0.024 0.527,-0.042 0.776,-0.061 0.121,-0.007 0.303,-0.022 0.516,-0.026 0.095,-0.007 0.226,-0.016 0.326,-0.027 0.018,0 0.039,-0.002 0.057,-0.002 0.021,-0.001 0.041,-0.001 0.065,-0.001 0.111,0 0.239,-0.011 0.394,-0.016 0.114,-0.008 0.247,-0.02 0.406,-0.033 0.094,-0.009 0.187,-0.016 0.28,-0.025 26.221,7.355 87.297,22.129 88.114,24.351 1.392,6.71 2.572,13.417 3.535,20.122 C 4.003,18.654 3.122,18.308 2.237,17.96"
       style="fill:#231f20;fill-opacity:1;fill-rule:nonzero;stroke:none"
       transform="matrix(1.3333333,0,0,-1.3333333,731.17573,449.09373)"
       clip-path="url(#clipPath131)" /></g></svg>
