<?xml version="1.0" encoding="UTF-8" standalone="no"?>
<!-- Created with Inkscape (http://www.inkscape.org/) -->

<svg
   width="130.5791mm"
   height="57.226002mm"
   viewBox="0 0 130.57911 57.226002"
   version="1.1"
   id="svg1"
   xml:space="preserve"
   inkscape:version="1.3 (0e150ed, 2023-07-21)"
   sodipodi:docname="sposors.svg"
   inkscape:export-filename="../../repos/bridgetownbluegrass.com/public/images/sponsors/breakside.svg"
   inkscape:export-xdpi="300"
   inkscape:export-ydpi="300"
   xmlns:inkscape="http://www.inkscape.org/namespaces/inkscape"
   xmlns:sodipodi="http://sodipodi.sourceforge.net/DTD/sodipodi-0.dtd"
   xmlns="http://www.w3.org/2000/svg"
   xmlns:svg="http://www.w3.org/2000/svg"><sodipodi:namedview
     id="namedview1"
     pagecolor="#ffffff"
     bordercolor="#000000"
     borderopacity="0.25"
     inkscape:showpageshadow="2"
     inkscape:pageopacity="0.0"
     inkscape:pagecheckerboard="0"
     inkscape:deskcolor="#d1d1d1"
     inkscape:document-units="mm"
     inkscape:zoom="0.36285714"
     inkscape:cx="749.6063"
     inkscape:cy="1343.5039"
     inkscape:window-width="1680"
     inkscape:window-height="968"
     inkscape:window-x="2120"
     inkscape:window-y="25"
     inkscape:window-maximized="0"
     inkscape:current-layer="layer1" /><defs
     id="defs1" /><g
     inkscape:label="Layer 1"
     inkscape:groupmode="layer"
     id="layer1"
     transform="translate(-53.850044,-359.73534)"><path
       id="path13"
       style="fill:#8a8a8a;fill-opacity:1"
       d="m 60.980874,359.73534 c -3.95035,0 -7.13083,2.6868 -7.13083,6.0239 v 45.1782 c 0,3.3372 3.18048,6.0239 7.13083,6.0239 H 177.29831 c 3.95035,0 7.13083,-2.6867 7.13083,-6.0239 v -45.1782 c 0,-3.3371 -3.18048,-6.0239 -7.13083,-6.0239 z m 27.1756,4.3382 c 2.42931,-0.1011 4.93587,1.605 5.24412,5.2137 0.0993,1.1628 0.21925,2.3528 0.26665,2.6438 0.51613,3.1676 -0.89487,6.8265 -3.00136,7.7829 -3.90266,1.772 -7.29258,-0.4579 -7.29258,-4.7966 0,-0.8921 -0.15944,-1.919 -0.35399,-2.2825 -0.23646,-0.4419 -0.23646,-0.7334 0,-0.8795 0.19455,-0.1202 0.3542,-1.0429 0.3545,-2.0501 0.001,-3.6215 2.35335,-5.5305 4.78266,-5.6317 z m 36.678896,0.065 c 2.49903,-0.061 4.71027,1.4297 4.80487,3.7 0.0291,0.6985 0.0684,1.4685 0.0879,1.711 0.0194,0.2426 -0.28219,0.45 -0.67024,0.461 -0.38806,0.011 -1.13317,0.1455 -1.65572,0.2981 -1.29352,0.3777 -1.80652,0.019 -1.30741,-0.9136 0.51546,-0.9631 -0.12032,-2.4035 -1.06092,-2.4035 -1.31786,0 -1.87608,1.0008 -1.65519,2.9662 0.28459,2.5326 0.28551,2.7392 0.0176,3.82 -0.42404,1.7103 0.10654,3.4091 1.14618,3.67 1.48648,0.3731 2.6906,-2.179 1.38803,-2.9419 -0.26491,-0.1552 -0.55491,-0.7983 -0.64441,-1.4289 l -0.16278,-1.1461 h 2.62258 c 2.37755,0 2.59436,0.057 2.32027,0.617 -0.16628,0.3395 -0.30192,1.8272 -0.30127,3.3057 0.001,2.688 0.001,2.6877 -1.31413,3.4448 -4.23743,2.4388 -8.00572,0.7702 -8.48062,-3.7554 -0.65949,-6.2847 0.0864,-9.7299 2.33784,-10.7983 0.82931,-0.3935 1.69449,-0.5859 2.5275,-0.6061 z m 12.40699,0.032 c 3.09213,0 5.04314,2.123 5.04414,5.4854 3.1e-4,0.9798 0.1909,1.9718 0.42374,2.2046 0.32925,0.3293 0.32925,0.5176 0,0.8469 -0.23284,0.2328 -0.42323,1.2007 -0.42323,2.1513 0,2.1433 -0.84717,4.0009 -2.127,4.6628 -3.98561,2.061 -7.37184,0.2558 -7.83621,-4.1775 -0.81711,-7.8007 0.66816,-11.1735 4.91856,-11.1735 z m 11.39465,0.049 v 1.2505 c 0,1.2641 2.10678,4.6974 2.88252,4.6974 0.32075,0 0.25525,-3.1763 -0.10542,-5.1154 -0.12028,-0.6465 0.0605,-0.7054 2.16214,-0.7054 2.10712,0 2.28075,0.057 2.14509,0.7054 -0.1213,0.5795 -0.1613,4.4604 -0.0739,7.1437 0.0111,0.3395 -0.0678,1.6939 -0.17467,3.0097 -0.11131,1.3704 -0.0287,2.8678 0.19327,3.5047 0.48664,1.3959 0.21001,1.5891 -2.19625,1.5311 -1.72605,-0.041 -1.82938,-0.096 -1.75338,-0.9141 0.25955,-2.7966 0.15814,-3.1918 -1.31723,-5.146 -1.11479,-1.4761 -1.5835,-1.864 -1.88722,-1.5601 -0.52807,0.5285 -0.49055,5.2519 0.0496,6.2405 0.59045,1.0807 -0.28678,1.8058 -1.50999,1.2485 -0.53945,-0.2459 -0.9369,-0.2649 -1.06867,-0.052 -0.25951,0.4197 -1.47058,0.447 -1.72289,0.039 -0.10206,-0.1651 -0.004,-1.2742 0.21704,-2.465 0.30184,-1.6231 0.30176,-2.6029 -5.2e-4,-3.9124 -0.29554,-1.2802 -0.29959,-2.0439 -0.0155,-2.8588 0.224,-0.6427 0.29024,-1.8803 0.1571,-2.9316 -0.49595,-3.9162 -0.66727,-3.5722 1.81436,-3.6452 z m -49.388706,0.044 c 5.922846,-0.137 8.826046,3.1395 6.256456,7.0611 -0.54588,0.8331 -0.53964,0.9757 0.0987,2.297 0.37436,0.7748 0.85251,2.1775 1.06298,3.1166 0.21047,0.9392 0.63278,1.9835 0.93844,2.3213 0.51272,0.5665 0.48249,0.6425 -0.39532,0.9762 -1.29493,0.4923 -1.9573,0.4533 -3.18947,-0.1892 -1.36347,-0.711 -1.31544,-0.6263 -0.92759,-1.6464 0.24167,-0.6356 0.19314,-1.16 -0.17312,-1.866 -0.28023,-0.5401 -0.42206,-1.259 -0.31471,-1.5973 0.39565,-1.2462 -1.62216,-2.2821 -2.5802,-1.324 -0.595476,0.5954 -0.527506,3.9963 0.10438,5.2183 0.65879,1.274 0.54754,1.3363 -2.415866,1.3503 l -2.41742,0.011 0.2899,-1.6495 c 0.15896,-0.9072 0.23012,-2.4432 0.15762,-3.4133 -0.0725,-0.9701 -0.11647,-2.3196 -0.0977,-2.9987 0.0645,-2.3333 0.0528,-5.4693 -0.0243,-6.5247 l -0.077,-1.0568 z m 12.597156,0.035 c 1.13417,0.013 2.68188,0.08 4.778,0.1597 l 1.6769,0.064 -0.19843,1.6557 c -0.26698,2.2241 -0.35854,2.3062 -1.66863,1.5074 -2.11637,-1.2904 -3.42667,-0.7459 -3.42667,1.4232 0,1.9594 1.38868,2.7198 3.19826,1.7513 0.63215,-0.3383 0.68212,-0.236 0.68212,1.3901 0,1.7554 1.8e-4,1.7553 -0.96996,1.2516 -1.76506,-0.9164 -2.89625,-0.1252 -2.90525,2.0324 -0.008,2.0555 2.11427,2.6932 3.69693,1.1106 0.7761,-0.7761 1.19465,-0.2788 1.38958,1.6505 l 0.15916,1.573 -1.83193,0.1106 c -2.61486,0.1587 -3.84671,0.1723 -4.65346,0.051 l 5.2e-4,-5e-4 c -0.38806,-0.058 -1.02323,0 -1.41129,0.1224 -1.35921,0.4408 -1.59674,-0.1043 -1.16892,-2.6861 0.29444,-1.7771 0.29085,-2.7202 -0.015,-3.7409 -0.31014,-1.0352 -0.31022,-1.7936 5.1e-4,-3.1398 0.3084,-1.3381 0.31019,-2.2685 0.006,-3.7822 -0.4194,-2.0883 -0.74118,-2.5423 2.66133,-2.5043 z m -10.85102,2.7094 c -0.25733,0.063 -0.54061,0.2399 -0.83922,0.5385 -0.654466,0.6544 -0.734556,2.6518 -0.13074,3.2556 1.10227,1.1023 2.34093,0.2885 2.30993,-1.5177 -0.028,-1.6328 -0.56797,-2.4658 -1.33997,-2.2764 z m 36.26601,0.036 c -0.95126,0.1518 -1.72688,1.5655 -1.44798,3.1957 0.26342,1.5395 0.25565,2.3263 -0.0393,3.8085 -0.13649,0.6859 -0.0763,1.6759 0.13539,2.2273 1.09766,2.8589 3.95883,-0.1788 2.90732,-3.0867 -0.32594,-0.9013 -0.33134,-1.3957 -0.0217,-2.0753 0.47889,-1.051 0.16662,-3.1618 -0.55655,-3.762 -0.32366,-0.2687 -0.66012,-0.3581 -0.9772,-0.3075 z m -48.688496,0.021 c -0.316,0.022 -0.66518,0.1852 -1.02578,0.5116 -0.71064,0.6432 -0.92974,3.7851 -0.29146,4.1796 0.23646,0.1461 0.23646,0.4376 0,0.8795 -0.48979,0.9151 -0.4439,3.6505 0.0698,4.1641 1.42356,1.4231 2.92945,-0.1306 2.61689,-2.7006 -0.2444,-2.0134 -0.24428,-1.9638 0.005,-4.0391 0.22432,-1.8627 -0.42659,-3.0623 -1.37459,-2.9951 z m -12.51035,0.3984 c 1.62492,0.1105 3.13716,1.1951 4.33565,3.2401 1.55516,2.6537 -0.84824,6.3643 -3.95118,6.1004 l -1.28984,-0.1095 1.36322,-0.8822 c 3.73876,-2.4188 1.0749,-7.7293 -2.89698,-5.7753 -1.70775,0.8402 -2.80397,2.6112 -2.25309,3.6406 0.69757,1.3034 2.79484,0.5468 2.27066,-0.8191 -0.25774,-0.6717 0.23443,-0.7593 0.84336,-0.1504 0.59878,0.5988 0.52498,2.2278 -0.12506,2.7673 -0.75558,0.627 -2.54466,0.5704 -3.21685,-0.1018 -0.50671,-0.5067 -0.62765,-0.4736 -1.35599,0.3731 -0.72136,0.8387 -1.07159,0.9386 -3.57188,1.0216 -1.52466,0.051 -2.56925,2e-4 -2.32079,-0.1121 0.24846,-0.1122 0.83936,-0.9683 1.31258,-1.9022 0.47322,-0.9338 1.0513,-1.7612 1.28468,-1.8392 0.28493,-0.095 0.15012,-0.5123 -0.40979,-1.2697 -1.46609,-1.983 0.11521,-4.0856 2.60294,-3.4612 1.13718,0.2854 1.23183,0.9212 0.13797,0.9312 -1.93091,0.013 -2.32856,1.983 -0.52761,2.6138 0.90008,0.3152 1.10336,0.1926 2.75539,-1.6609 1.65013,-1.8515 3.38769,-2.715 5.01261,-2.6045 z m 85.930146,0.248 c 1.92891,-0.2593 4.08574,0.5339 5.71593,2.481 1.5851,1.8932 2.46952,2.1562 3.29386,0.9793 0.7883,-1.1255 0.13341,-2.1822 -1.22886,-1.9823 -1.10382,0.162 -1.27674,-0.042 -0.6041,-0.7147 1.91701,-1.917 4.8492,1.1108 3.26543,3.3719 -0.49939,0.713 -0.4844,0.8658 0.17673,1.8423 0.39653,0.5856 1.04327,1.5412 1.43713,2.1233 l 0.71571,1.0584 h -2.3306 c -2.13125,0 -2.42327,-0.093 -3.41375,-1.0832 -0.59576,-0.5958 -1.17912,-0.9372 -1.29604,-0.7586 -0.11692,0.1787 -0.56633,0.5112 -0.99891,0.739 -1.90428,1.0027 -3.8829,-0.9084 -2.74247,-2.6489 0.72167,-1.1014 1.09042,-1.0546 1.07332,0.1359 -0.0166,1.1567 1.40386,1.3969 2.06448,0.3493 0.79413,-1.2593 -1.93536,-4.1419 -3.92173,-4.1419 -3.24164,0 -3.87289,4.8958 -0.85679,6.6446 l 1.28932,0.7457 -1.48724,0.01 c -2.53455,0.014 -5.19396,-3.1289 -4.49947,-5.317 0.7182,-2.2628 2.41915,-3.5745 4.34805,-3.8339 z m 6.82594,5.441 c -0.40305,0.4031 0.7879,2.3025 1.63918,2.6144 1.49868,0.5492 1.49686,0.4803 -0.0248,-1.1917 -0.7958,-0.8745 -1.52228,-1.5147 -1.61438,-1.4227 z m -98.999116,0.055 c -0.16892,-0.2808 -0.93287,0.3116 -1.97404,1.6072 -1.09203,1.3589 -1.10673,1.4161 -0.30592,1.1761 1.05702,-0.3168 1.93293,-1.1794 2.23914,-2.205 0.0877,-0.2938 0.0971,-0.4846 0.0408,-0.5783 z m 90.969116,10.573 c 0.63545,0.078 1.29485,0.2938 1.96061,0.6744 0.48507,0.2773 1.22957,0.5068 1.65468,0.5168 1.07508,0.017 1.2394,0.4529 0.68833,1.8273 -0.26111,0.6512 -0.58371,1.4903 -0.71676,1.865 -0.22336,0.6291 -0.31766,0.5986 -1.22834,-0.3985 -1.29918,-1.4224 -2.32181,-1.7247 -3.41375,-1.0092 -1.64725,1.0793 -0.91039,3.4608 1.07074,3.4608 0.48109,0 1.39329,0.4531 2.02726,1.0071 0.63397,0.554 1.69292,1.4601 2.35335,2.0134 1.0454,0.8758 1.22194,1.262 1.36477,2.9843 0.37684,4.5442 -4.03895,7.1294 -9.19013,5.3805 -0.89181,-0.2993 -2.04112,-0.4324 -2.74609,-0.3095 -0.66688,0.1163 -1.98346,0.262 -2.9254,0.323 -0.94193,0.061 -1.79637,0.1944 -1.89859,0.2966 -0.5659,0.5659 -1.46711,-0.5458 -1.13999,-1.4061 0.76271,-2.0061 -0.0255,-4.7331 -1.36787,-4.7331 -1.25047,0 -1.99725,2.7812 -1.33739,4.979 0.26538,0.8854 -0.735,1.7042 -1.34152,1.0976 -0.10775,-0.1075 -0.8548,-0.1704 -1.66036,-0.1384 -2.20093,0.086 -2.56372,-0.3988 -1.62884,-2.1808 0.60155,-1.1466 0.77642,-2.116 0.80512,-4.4633 0.0284,-2.3221 0.21633,-3.3804 0.8325,-4.6907 0.6185,-1.3152 0.77707,-2.2135 0.71107,-4.0333 -0.0994,-2.7414 0.55376,-3.41 2.58227,-2.6443 0.7144,0.27 1.29073,0.2922 1.71204,0.067 2.11647,-1.1327 2.88434,-0.3562 2.93574,2.9693 0.0278,1.7959 0.25785,2.9638 0.80667,4.099 0.5728,1.1847 0.79672,2.3973 0.88212,4.779 0.0855,2.3861 0.28119,3.4467 0.77669,4.2023 l 0.66301,1.0103 0.47129,-0.8506 c 0.25922,-0.4678 0.47669,-1.4459 0.48369,-2.1735 0.0139,-1.4708 0.32958,-1.6729 0.98185,-0.6284 0.97711,1.5646 4.31898,2.3681 6.03323,1.4506 1.73276,-0.9273 0.28832,-3.5564 -1.95389,-3.5564 -0.64251,0 -1.16789,-0.174 -1.16789,-0.387 0,-0.213 -0.81457,-1.1401 -1.81022,-2.0604 -3.98879,-3.6865 -0.7181,-9.8867 3.73,-9.3395 z m -42.38294,0.033 c 2.74423,-0.1976 5.58016,1.542 5.94899,5.4038 0.10426,1.0917 0.016,1.2475 -0.76378,1.3395 -0.48507,0.058 -1.31579,0.274 -1.84588,0.4811 -1.55445,0.6073 -2.05234,0.2167 -1.60042,-1.2558 0.46702,-1.5217 -0.0505,-2.3285 -1.49293,-2.3285 -1.49266,0 -1.85452,0.7183 -1.63814,3.2499 0.22579,2.64 0.22582,2.297 -0.001,5.4793 -0.19438,2.7266 0.52284,3.6671 2.35335,3.0861 1.14715,-0.3641 1.45452,-3.1608 0.37827,-3.4422 -1.48221,-0.3876 -0.824,-2.6426 0.82889,-2.8396 2.61912,-0.3122 4.27224,-0.1243 4.07624,0.4636 -0.097,0.2911 -0.17622,1.992 -0.17622,3.7796 v 3.2499 l -2.07843,1.0712 c -5.23963,2.7013 -9.38702,0.4833 -9.38702,-5.0203 0,-1.2286 -0.17351,-2.407 -0.38551,-2.619 -0.27875,-0.2787 -0.27875,-0.585 0,-1.1059 0.212,-0.3961 0.38572,-1.6434 0.38603,-2.7719 0.001,-3.8884 2.65337,-6.0232 5.3976,-6.2208 z m 55.6643,0.098 c 0.76793,0.058 1.56295,0.2739 2.36213,0.6816 0.80224,0.4093 1.78238,0.7441 2.17816,0.7441 0.85825,0 0.86447,0.083 0.16279,2.0981 -0.79895,2.2946 -0.8244,2.3059 -2.10582,0.9069 -1.0466,-1.1421 -1.33884,-1.2711 -2.66082,-1.1741 -3.77282,0.2782 -3.24806,4.8721 0.55656,4.8721 0.46449,0 0.94505,0.1619 1.06763,0.3602 0.12257,0.1984 1.08208,0.9956 2.13217,1.7714 4.23188,3.1263 4.08334,8.4109 -0.29559,10.5307 -1.87825,0.9093 -5.40628,0.9789 -7.48585,0.1483 -0.7761,-0.31 -1.92739,-0.5525 -2.55798,-0.5385 -1.26325,0.027 -1.60195,-0.8714 -0.632,-1.6764 0.33756,-0.2802 0.44405,-0.7759 0.31057,-1.4433 -0.35094,-1.7548 0.1125,-2.3463 0.9772,-1.247 2.4087,3.0622 8.42843,3.1937 8.42843,0.184 0,-1.5635 -1.37477,-2.7977 -3.11609,-2.7977 -1.17438,0 -1.44722,-0.1475 -1.79937,-0.9705 -0.22831,-0.5336 -1.05202,-1.4124 -1.83038,-1.9534 -5.11694,-3.5564 -1.06725,-10.9011 4.30826,-10.4965 z m -71.99819,0.015 c 0.30016,0.024 0.64043,0.1288 1.00511,0.324 0.5255,0.2815 0.9634,0.2727 1.63246,-0.032 0.70904,-0.3232 1.42071,-0.3162 3.16725,0.031 1.23891,0.2464 2.57628,0.3448 2.97191,0.2192 0.67866,-0.2154 0.70712,-0.1222 0.5085,1.6433 -0.26314,2.3385 -0.68858,2.9804 -1.49397,2.2515 -2.04699,-1.8525 -4.26382,-1.2354 -4.26382,1.187 0,2.5659 1.3275,3.4509 3.49487,2.3301 l 0.99064,-0.5121 v 1.9234 c 0,2.075 -0.0754,2.1681 -1.11363,1.3828 -1.74816,-1.3221 -3.37188,-0.1526 -3.37188,2.4288 0,2.3913 2.10309,3.0216 4.09225,1.2263 0.96809,-0.8738 1.38756,-0.366 1.65262,2.0004 l 0.19792,1.7643 -1.82521,0.1188 c -1.81167,0.118 -4.60966,0.1459 -5.79345,0.058 -0.33955,-0.025 -1.01406,0.047 -1.49913,0.1612 -1.57419,0.3703 -1.91472,-0.1798 -1.41077,-2.2805 0.28737,-1.1979 0.35111,-2.6044 0.18139,-4.0085 -0.14383,-1.1897 -0.2172,-2.7186 -0.1633,-3.3977 0.20627,-2.5981 0.13864,-5.8735 -0.14676,-7.1283 -0.25254,-1.1104 0.28653,-1.7631 1.187,-1.6908 z m -42.267176,0.028 c 0.30324,0.031 0.64298,0.1371 0.99994,0.3281 0.60194,0.3222 1.12938,0.3193 2.31613,-0.013 1.9712,-0.5519 5.23425,-0.3047 6.96805,0.5276 2.98744,1.4342 3.71011,7.5145 1.09658,9.2269 l -0.84026,0.5503 1.00614,0.8465 c 4.39741,3.7002 0.0714,10.5444 -6.23425,9.8635 -1.30923,-0.1414 -2.77726,-0.2603 -3.26233,-0.2703 -0.48507,-0.01 -1.19944,0.071 -1.5875,0.1752 -1.43047,0.3828 -2.00996,-0.052 -1.69705,-1.2739 0.15731,-0.6141 0.26344,-2.6641 0.23564,-4.5557 -0.0278,-1.8918 -0.0506,-3.9951 -0.0506,-4.6742 0,-0.6791 0.0228,-2.7829 0.0506,-4.6746 0.0278,-1.8918 -0.0799,-3.9495 -0.23926,-4.5729 -0.25424,-0.9946 0.32845,-1.577 1.23817,-1.4836 z m 36.0934,0.057 c 2.77292,0 3.04637,0.2418 2.39985,2.1183 -0.34828,1.0108 -0.45173,2.2741 -0.32401,3.9615 0.25591,3.3816 0.25818,3.1967 -0.0775,6.2869 -0.34992,3.2212 -0.99263,4.3027 -3.24063,5.4514 -5.25626,2.6858 -9.18627,-1.3047 -8.77363,-8.908 0.19147,-3.5279 0.0579,-6.1691 -0.36328,-7.1763 -0.65049,-1.5554 -0.25661,-1.7883 2.84892,-1.6842 2.81262,0.094 2.91282,0.1566 2.3828,1.4914 -0.34123,0.8602 -0.46659,3.6351 -0.33951,7.5458 0.0158,0.485 -0.069,1.6388 -0.18862,2.5642 -0.26017,2.0127 0.46291,3.4329 1.74821,3.4329 1.48253,0 2.08055,-1.1036 1.85209,-3.4169 -0.11142,-1.1283 -0.18695,-2.3689 -0.16795,-2.7569 0.16536,-3.3749 0.0132,-6.8336 -0.32815,-7.4595 -0.5958,-1.0925 0.0395,-1.4506 2.57142,-1.4506 z m 31.371206,0.014 c 0.23851,-0.027 0.54054,0 0.90796,0.091 1.15323,0.2717 1.5673,0.269 3.88038,-0.023 3.50787,-0.443 6.70295,1.1483 6.70295,3.3383 0,0.5168 0.15294,1.0924 0.34003,1.2795 0.40077,0.4008 -0.46946,3.1968 -1.27227,4.0876 -0.35332,0.392 -0.40141,0.6586 -0.14676,0.816 0.77967,0.4818 1.55489,2.5462 1.65209,4.3992 0.0553,1.0544 0.29182,2.3787 0.52555,2.943 0.6899,1.6656 -1.03935,2.2297 -3.40031,1.1094 -1.09105,-0.5178 -1.17191,-0.673 -1.14411,-2.205 0.0744,-4.0962 -0.8387,-6.0341 -2.63137,-5.5841 -1.43011,0.3589 -1.78209,3.1127 -0.77669,6.074 0.71604,2.1091 0.75841,2.074 -2.23036,1.8392 v -5e-4 c -0.33955,-0.027 -0.94328,0.061 -1.34152,0.1943 -1.25562,0.4201 -2.0146,-0.4487 -1.55184,-1.7762 0.23374,-0.6704 0.31387,-2.2381 0.19792,-3.8767 -0.24228,-3.4268 -0.24216,-3.5806 0.002,-6.7996 0.12118,-1.5969 0.0366,-3.182 -0.21395,-4.0184 -0.36108,-1.2052 -0.21529,-1.8075 0.50023,-1.8877 z m -49.131366,0.036 c 2.80962,0.094 2.90786,0.1551 2.39882,1.4914 -0.53314,1.3988 -0.53774,5.8068 -0.007,6.7981 0.30932,0.5779 0.33277,1.0815 0.0817,1.7497 -1.61986,4.3103 0.83809,7.1946 3.38067,3.9672 0.61545,-0.7812 1.53134,0.4095 1.45934,1.8971 -0.0285,0.589 0.0577,1.3306 0.19224,1.6479 0.20489,0.4834 -0.0304,0.5885 -1.45314,0.6455 -1.8956,0.076 -5.07487,0.083 -6.01927,0.013 -0.33955,-0.025 -1.01407,0.047 -1.49914,0.1612 -1.4933,0.3513 -1.92267,-0.2024 -1.39164,-1.7957 0.5352,-1.6056 0.55835,-5.2052 0.0419,-6.5232 -0.27012,-0.6893 -0.2254,-1.3192 0.17466,-2.4696 0.58165,-1.6724 0.44038,-4.5042 -0.30592,-6.1422 -0.57848,-1.2696 -0.0248,-1.5403 2.9471,-1.4403 z m 55.389906,3.4525 c -1.71168,-0.2425 -2.78191,2.029 -1.81075,3.8437 v 6e-4 c 0.48522,0.9064 2.30445,0.9212 2.78536,0.023 0.19399,-0.3626 0.25563,-0.7562 0.13695,-0.8749 -0.11868,-0.1187 -0.23219,-0.8141 -0.25219,-1.5456 -0.0304,-1.1116 -0.17159,-1.3495 -0.85937,-1.4465 z m -67.743156,0.042 c -1.88347,0.2737 -2.90515,3.0966 -1.43453,4.9661 1.39522,1.7738 4.27743,0.6765 3.51193,-1.3369 -0.16535,-0.4348 -0.14759,-1.028 0.0403,-1.3637 0.45163,-0.807 -0.19943,-1.9501 -1.26245,-2.2169 -0.29947,-0.075 -0.58618,-0.088 -0.85525,-0.049 z m 81.523706,1.8387 -0.52297,1.2345 c -0.28759,0.6791 -0.62376,1.6614 -0.74724,2.1828 -0.216,0.9123 -0.17016,0.9471 1.20665,0.9281 1.57528,-0.022 1.65978,-0.566 0.51056,-3.2871 z m -81.253956,6.1789 c -2.10773,-0.012 -3.21818,4.1528 -1.5875,5.9547 1.826,2.0177 3.66208,0.5364 3.58738,-2.8944 -0.0564,-2.59 -0.35765,-3.0503 -1.99988,-3.0603 z m 88.921186,11.8628 c 0.62694,-0.1715 1.95245,0.5197 2.5244,1.5374 0.4362,0.7761 0.92277,1.4108 1.08107,1.4108 0.51113,0 0.30541,-1.5124 -0.29611,-2.1771 -0.55602,-0.6142 -0.51898,-0.645 0.77618,-0.645 1.05774,0 1.26564,0.094 0.93638,0.4233 -0.23284,0.2328 -0.42323,1.3443 -0.42323,2.4696 0,2.6535 -0.65444,2.7107 -2.20814,0.1938 l -1.14308,-1.8521 -0.1142,1.4025 c -0.064,0.786 0.0523,1.4576 0.26458,1.5286 0.20834,0.07 0.37879,0.2722 0.37879,0.4501 0,0.1778 -0.47626,0.323 -1.05834,0.323 -0.58209,0 -1.05833,-0.1585 -1.05833,-0.3525 0,-0.1941 0.1584,-0.3529 0.35243,-0.3529 0.19403,0 0.35295,-0.7936 0.35295,-1.7637 0,-0.9701 -0.15892,-1.7643 -0.35295,-1.7643 -0.19403,0 -0.35243,-0.1583 -0.35243,-0.3524 0,-0.2688 0.13105,-0.4219 0.34003,-0.4791 z m -49.90548,0.1261 c 2.33452,0 3.54127,2.6326 1.94045,4.2334 -0.43677,0.4368 -1.1761,0.7054 -1.94045,0.7054 -1.54039,0 -2.64583,-1.0314 -2.64583,-2.4691 0,-1.4377 1.10544,-2.4697 2.64583,-2.4697 z m 15.48433,0 c 0.69985,0 1.27279,0.159 1.27279,0.353 0,0.1941 -0.15892,0.3524 -0.35295,0.3524 -0.19402,0 -0.35295,0.7942 -0.35295,1.7643 0,0.9701 0.15893,1.7637 0.35295,1.7637 0.19403,0 0.35295,0.1588 0.35295,0.3529 0,0.194 -0.55597,0.3525 -1.23507,0.3525 -1.21007,0 -1.61375,-0.4293 -0.84853,-0.9023 0.40113,-0.2479 0.28488,-2.3376 -0.19017,-3.4189 -0.23021,-0.5244 -0.079,-0.6176 1.00098,-0.6176 z m 14.149,0 c 2.29306,0 2.29289,0 2.29289,1.0584 0,1.1951 -0.52722,1.4254 -0.80771,0.3529 -0.3598,-1.376 -0.95601,-0.7158 -0.95601,1.0584 0,0.9701 0.15893,1.7637 0.35295,1.7637 0.19403,0 0.35243,0.1588 0.35243,0.3529 0,0.194 -0.55545,0.3525 -1.23455,0.3525 -0.6791,0 -1.23455,-0.1585 -1.23455,-0.3525 0,-0.1941 0.15841,-0.3529 0.35244,-0.3529 0.19402,0 0.35295,-0.7936 0.35295,-1.7637 0,-1.7742 -0.59621,-2.4344 -0.95602,-1.0584 -0.28049,1.0725 -0.8077,0.8422 -0.8077,-0.3529 0,-1.0584 -1.7e-4,-1.0584 2.29288,-1.0584 z m 6.70295,0 c 0.6791,0 1.23455,0.159 1.23455,0.353 0,0.1941 -0.15892,0.3524 -0.35295,0.3524 -0.19403,0 -0.35243,0.7942 -0.35243,1.7643 0,0.9701 0.1584,1.7637 0.35243,1.7637 0.19403,0 0.35295,0.1588 0.35295,0.3529 0,0.194 -0.55545,0.3525 -1.23455,0.3525 -0.6791,0 -1.23506,-0.1585 -1.23506,-0.3525 0,-0.1941 0.15893,-0.3529 0.35295,-0.3529 0.19403,0 0.35295,-0.7936 0.35295,-1.7637 0,-0.9701 -0.15892,-1.7643 -0.35295,-1.7643 -0.19402,0 -0.35295,-0.1583 -0.35295,-0.3524 0,-0.194 0.55596,-0.353 1.23506,-0.353 z m 7.26106,0 c 2.43053,0 3.48264,2.4865 1.82883,4.3217 -0.76448,0.8481 -2.9788,0.8174 -3.76618,-0.053 -1.53825,-1.6997 -0.37228,-4.269 1.93735,-4.269 z m -51.729136,0.034 c 0.88539,-0.055 1.79551,0.2397 1.89446,0.9364 0.12933,0.9107 -0.35227,1.0387 -0.99478,0.2646 -0.53368,-0.6431 -2.23965,-0.7225 -2.03036,-0.095 0.0796,0.2387 0.72839,0.5722 1.44229,0.7411 1.44471,0.3416 2.07317,1.5895 1.28106,2.544 -0.30265,0.3644 -0.9441,0.5031 -2.0128,0.4361 -1.70696,-0.1076 -1.85545,-0.2 -1.72651,-1.0785 0.14074,-0.9588 0.49398,-1.0693 0.91364,-0.2852 0.23164,0.4328 0.74302,0.7359 1.2423,0.7359 1.25557,0 1.4283,-0.6451 0.293,-1.0945 -1.84797,-0.7317 -2.04845,-0.9217 -2.04845,-1.9426 0,-0.7028 0.86076,-1.1077 1.74615,-1.1627 z m 17.006706,0.023 c 1.35424,0.051 1.53221,0.1536 1.53221,0.8826 0,0.9234 -0.52164,1.1084 -0.83354,0.2956 -0.26916,-0.7012 -1.85554,-0.6798 -2.12752,0.029 -0.8074,2.1041 1.17196,4.2124 2.21123,2.3554 0.48844,-0.8727 0.88881,-0.3053 0.4129,0.5845 -0.94891,1.772 -4.01423,0.4479 -4.01423,-1.7343 0,-1.6252 1.0008,-2.4817 2.81895,-2.4127 z m 13.73353,0.042 c 0.16949,0.1035 0.32396,0.3247 0.45527,0.6697 0.28383,0.7458 1.3984,3.2628 1.72961,3.9063 0.0749,0.1455 -0.43284,0.2646 -1.1281,0.2646 -1.23498,0 -1.70197,-0.469 -0.82269,-0.8258 0.33847,-0.1373 0.32529,-0.2592 -0.0563,-0.5256 -0.73568,-0.5134 -1.50159,-0.093 -1.25367,0.6878 0.175,0.5513 0.0276,0.6636 -0.87127,0.6636 -0.59516,0 -1.0821,-0.1585 -1.0821,-0.3525 0,-0.1941 0.14563,-0.3529 0.32349,-0.3529 0.17786,0 0.62762,-0.9126 0.99942,-2.0283 0.55508,-1.6656 1.19788,-2.4173 1.70636,-2.1069 z m -46.227666,0.01 c 0.38781,-0.082 0.76606,0.4497 1.23042,1.5725 0.38114,0.9217 0.85188,1.9513 1.04593,2.2882 0.52371,0.9089 0.46407,0.9747 -0.88212,0.9747 -1.21076,0 -1.66476,-0.4723 -0.79375,-0.8258 0.33847,-0.1373 0.32528,-0.2592 -0.0563,-0.5256 -0.73568,-0.5134 -1.50107,-0.093 -1.25315,0.6878 0.17009,0.5359 0.0305,0.6636 -0.7245,0.6636 -0.51431,0 -0.88051,-0.1191 -0.81391,-0.2646 0.0666,-0.1456 0.49798,-1.2564 0.9586,-2.4691 0.50376,-1.3262 0.90101,-2.0202 1.28881,-2.1017 z m 8.04705,0.023 c 1.50587,-0.046 1.63763,0.017 1.63763,0.7938 0,0.9352 -0.61356,1.1425 -0.93121,0.3147 -0.24247,-0.6319 -2.01866,-0.7344 -1.80867,-0.1044 0.0779,0.2336 0.64334,0.5549 1.25625,0.7136 1.77694,0.4605 2.34174,2.4253 0.83354,2.8996 -1.71626,0.5398 -3.23081,0.1087 -3.23081,-0.9198 0,-1.1742 0.35995,-1.2831 0.97669,-0.2956 0.49681,0.7956 2.19831,0.975 2.19831,0.232 0,-0.2604 -0.643,-0.6661 -1.42937,-0.9017 -2.61766,-0.7843 -2.27845,-2.6472 0.49764,-2.7322 z m 15.571146,0.5793 c -1.11764,0 -1.73554,1.3255 -1.23352,2.6459 0.2365,0.6221 0.6,0.8821 1.23352,0.8821 0.61578,0 1.0247,-0.2775 1.30018,-0.8821 0.57669,-1.2657 -0.10156,-2.6459 -1.30018,-2.6459 z m 43.66917,0.067 c -1.27034,-0.1228 -1.79558,0.8685 -1.36633,2.5787 0.31391,1.2509 2.21168,1.2779 2.52336,0.036 0.42423,-1.6903 0.0674,-2.4965 -1.15703,-2.6148 z m -67.475466,0.6981 c -0.003,0.1297 -0.10134,0.4868 -0.21911,0.7938 -0.14052,0.3661 -0.0196,0.5576 0.35243,0.5576 0.3118,0 0.56473,-0.1191 0.56173,-0.2646 -0.007,-0.3378 -0.68805,-1.4024 -0.69505,-1.0868 z m 45.856106,0.1168 c -0.19403,0.12 -0.35295,0.447 -0.35295,0.7266 0,0.2796 0.15892,0.508 0.35295,0.508 0.19403,0 0.35244,-0.3266 0.35244,-0.7261 0,-0.3995 -0.15841,-0.6284 -0.35244,-0.5085 z" /></g></svg>
