<?xml version="1.0" encoding="UTF-8" standalone="no"?>
<!-- Created with Inkscape (http://www.inkscape.org/) -->

<svg
   width="106.14928mm"
   height="99.778389mm"
   viewBox="0 0 106.14928 99.778392"
   version="1.1"
   id="svg1"
   xml:space="preserve"
   inkscape:version="1.3 (0e150ed, 2023-07-21)"
   sodipodi:docname="sposors.svg.2024_04_11_12_57_32.0.svg"
   inkscape:export-filename="../../repos/bridgetownbluegrass.com/public/images/sponsors/eartrumpet.svg"
   inkscape:export-xdpi="300"
   inkscape:export-ydpi="300"
   xmlns:inkscape="http://www.inkscape.org/namespaces/inkscape"
   xmlns:sodipodi="http://sodipodi.sourceforge.net/DTD/sodipodi-0.dtd"
   xmlns="http://www.w3.org/2000/svg"
   xmlns:svg="http://www.w3.org/2000/svg"><sodipodi:namedview
     id="namedview1"
     pagecolor="#ffffff"
     bordercolor="#000000"
     borderopacity="0.25"
     inkscape:showpageshadow="2"
     inkscape:pageopacity="0.0"
     inkscape:pagecheckerboard="0"
     inkscape:deskcolor="#d1d1d1"
     inkscape:document-units="mm"
     inkscape:zoom="0.090542812"
     inkscape:cx="-5621.65"
     inkscape:cy="-1640.1081"
     inkscape:window-width="1680"
     inkscape:window-height="968"
     inkscape:window-x="1988"
     inkscape:window-y="25"
     inkscape:window-maximized="0"
     inkscape:current-layer="layer-MC0"
     showgrid="false"><inkscape:page
       x="-9.1304355e-06"
       y="-7.3726412e-08"
       width="106.14927"
       height="99.778389"
       id="page4"
       margin="0"
       bleed="0"
       inkscape:export-filename="sponsor logos 24/st-josefs.svg"
       inkscape:export-xdpi="300"
       inkscape:export-ydpi="300" /></sodipodi:namedview><defs
     id="defs1" /><g
     id="layer-MC0"
     inkscape:groupmode="layer"
     inkscape:label="Layer 1"
     transform="matrix(0.26458335,0,0,0.26458334,1703.4747,-77.801341)"><path
       style="fill:#8a8a8a;fill-opacity:1;stroke-width:0.999999"
       d="m -6264.2148,670.27978 c -6.3583,-0.7637 -17.8777,-3.25702 -25.5986,-5.5406 -7.7209,-2.28358 -19.3868,-6.34613 -25.9244,-9.02795 -6.5376,-2.68178 -19.3778,-9.81578 -28.5339,-15.85337 -9.156,-6.03758 -22.2995,-16.35349 -29.2077,-22.92426 -6.9081,-6.57075 -16.7799,-17.52073 -21.9374,-24.33326 -5.1575,-6.81257 -12.0568,-17.61546 -15.3319,-24.00648 -3.2751,-6.39099 -7.5206,-16.05243 -9.4344,-21.46984 -1.9139,-5.41744 -5.1211,-16.16695 -7.1273,-23.88782 -3.0811,-11.85731 -3.6191,-18.14282 -3.4637,-40.46243 0.1475,-21.19741 0.8944,-29.25667 3.7759,-40.7424 1.9755,-7.87488 6.206,-20.50907 9.401,-28.07596 3.1949,-7.56688 6.2448,-14.87277 6.7776,-16.23527 0.5327,-1.36253 4.981,-8.56993 9.8851,-16.01646 4.9042,-7.44655 14.2619,-18.97336 20.7951,-25.61517 6.5331,-6.64181 15.3681,-15.08941 19.6334,-18.77246 4.2652,-3.68305 9.4674,-7.58763 11.5606,-8.67685 2.0932,-1.08924 7.1502,-4.03028 11.2377,-6.53567 4.0875,-2.50539 13.3774,-7.28719 20.6441,-10.62625 7.2667,-3.33906 19.1577,-7.69026 26.4244,-9.66936 7.2668,-1.97909 21.7589,-4.71678 32.2048,-6.08376 15.5316,-2.03248 22.9585,-2.15544 40.7567,-0.67477 13.108,1.09048 27.6996,3.47942 36.6876,6.00654 8.208,2.30775 16.9938,5.02827 19.5241,6.04562 2.5303,1.01734 10.1744,4.47106 16.9869,7.67498 6.8126,3.20389 17.7747,9.56434 24.3601,14.13434 6.5855,4.56998 11.9736,8.91583 11.9736,9.65744 0,0.74159 0.8755,1.34835 1.9458,1.34835 1.0702,0 7.7174,5.61658 14.7715,12.48127 7.0541,6.86467 12.6875,12.62436 12.5187,12.79933 -0.1687,0.17494 2.2882,4.0241 5.4598,8.55366 3.1716,4.52958 6.6469,9.17891 7.7228,10.33185 1.0759,1.15291 2.4266,3.5782 3.0014,5.3895 0.5749,1.81129 1.5891,3.29328 2.2538,3.29328 0.6646,0 2.2056,2.78694 3.4245,6.19322 1.2188,3.40629 2.7298,6.56482 3.3577,7.019 0.6279,0.45416 3.24,7.14284 5.8046,14.86375 2.5646,7.72087 5.3557,17.01072 6.2023,20.64408 0.8467,3.63334 2.4032,15.15277 3.4589,25.59866 1.177,11.6455 1.4203,24.42302 0.6289,33.03054 -0.7098,7.7209 -3.5037,22.03984 -6.2085,31.81986 -2.7048,9.78002 -7.2468,22.71091 -10.0931,28.73533 -2.8464,6.02439 -9.2714,16.97385 -14.2777,24.33208 -5.0063,7.35823 -11.686,16.27517 -14.8435,19.81542 -3.1576,3.54028 -10.9516,11.12966 -17.3199,16.86531 -6.3684,5.73568 -16.8517,13.9869 -23.2962,18.3361 -6.4446,4.34917 -16.4459,9.95136 -22.2252,12.44927 -5.7793,2.49795 -11.549,4.54172 -12.8216,4.54172 -1.2727,0 -2.3139,0.64659 -2.3139,1.43689 0,0.79029 -3.5301,2.36522 -7.8447,3.49981 -4.3146,1.1346 -12.6756,3.49768 -18.5798,5.25132 -8.1356,2.41637 -17.333,3.34367 -37.9851,3.82947 -14.9876,0.3527 -32.4525,0.016 -38.8109,-0.7476 z m 64.4096,-5.7499 c 7.2667,-1.21505 17.6714,-3.47403 23.1214,-5.01999 5.45,-1.54598 11.7672,-3.74924 14.038,-4.89612 2.2709,-1.14687 9.3311,-4.50572 15.6894,-7.46409 6.3584,-2.95838 16.763,-8.73642 23.1214,-12.8401 6.3585,-4.10365 18.6841,-14.60962 27.3905,-23.34659 8.7065,-8.73695 18.2178,-19.41552 21.1364,-23.73013 2.9185,-4.31463 4.8702,-7.84475 4.337,-7.84475 -0.5332,0 0.5039,-1.58144 2.3047,-3.5143 1.8007,-1.93286 5.304,-7.69256 7.7851,-12.79933 2.4811,-5.10678 5.8956,-13.00098 7.5876,-17.54268 1.6921,-4.54169 3.8268,-10.48719 4.7439,-13.21223 0.917,-2.72501 2.7459,-10.90005 4.0641,-18.16678 1.3183,-7.26673 2.3978,-22.02889 2.3991,-32.80484 0,-13.78362 -0.9806,-23.82162 -3.3125,-33.8563 -1.823,-7.84503 -4.217,-17.23643 -5.3198,-20.86978 -1.1028,-3.63338 -4.8385,-12.44063 -8.3016,-19.57169 -3.463,-7.13109 -8.9752,-17.1641 -12.2493,-22.29563 -3.2741,-5.13151 -7.7081,-10.96674 -9.8536,-12.96713 -2.1454,-2.0004 -3.9007,-4.05059 -3.9007,-4.556 0,-0.50538 -2.0437,-3.25293 -4.5417,-6.10565 -2.4979,-2.85269 -5.5064,-6.0048 -6.6853,-7.00467 -1.1791,-0.99989 -3.4087,-2.97228 -4.9546,-4.38309 -1.546,-1.41081 -6.8984,-5.92147 -11.8943,-10.02369 -4.9959,-4.1022 -15.312,-10.93717 -22.9246,-15.1888 -7.6127,-4.25162 -14.8148,-7.73023 -16.0049,-7.73023 -1.1901,0 -2.5856,-0.68248 -3.1011,-1.51664 -0.5156,-0.83414 -8.1771,-3.74825 -17.0256,-6.47577 -8.8486,-2.72753 -20.1758,-5.92566 -25.1717,-7.10699 -5.6601,-1.33833 -19.6648,-2.12536 -37.1594,-2.08819 -24.9436,0.053 -30.0882,0.56226 -46.1132,4.56495 -9.9205,2.47792 -23.665,6.84815 -30.5433,9.71162 -6.8784,2.86349 -18.5807,8.96319 -26.0051,13.55493 -7.4246,4.59177 -15.9157,10.20662 -18.8693,12.47746 -2.9537,2.27085 -9.5178,8.24971 -14.5869,13.28633 -5.0691,5.03663 -11.0769,11.35372 -13.3509,14.03799 -2.2738,2.68425 -6.9187,8.78391 -10.322,13.55481 -3.4032,4.7709 -6.1877,9.05898 -6.1877,9.5291 0,0.47013 -1.9885,3.99853 -4.4188,7.84095 -2.4303,3.84238 -6.2406,11.81687 -8.4673,17.72109 -2.2266,5.9042 -5.1062,14.45087 -6.399,18.99255 -1.2929,4.54172 -3.4271,14.20314 -4.7427,21.46987 -1.3157,7.2667 -2.3782,19.52929 -2.3612,27.25019 0.017,7.7209 0.7296,18.49711 1.5834,23.94713 0.8539,5.45006 3.3622,16.22627 5.574,23.94717 2.2118,7.72087 5.0284,16.63913 6.2591,19.81831 1.2306,3.17919 2.6091,6.15194 3.0633,6.60611 0.4542,0.45417 3.3909,5.84707 6.5261,11.98423 3.1352,6.13715 8.8936,15.05541 12.7965,19.81833 3.903,4.76291 8.694,10.88941 10.647,13.61442 1.9529,2.72504 8.3267,9.04213 14.1638,14.038 5.8372,4.99585 15.2026,12.22065 20.8122,16.05507 5.6094,3.83442 11.0965,7.73615 12.1937,8.67051 1.097,0.93437 2.4833,1.69884 3.0805,1.69884 0.5973,0 6.4888,2.53014 13.0922,5.62248 6.6032,3.09237 18.5167,7.60839 26.4743,10.03558 7.9574,2.42719 19.0049,5.00515 24.5498,5.72878 5.5449,0.72363 19.7432,1.36943 31.5515,1.43508 11.8085,0.0657 27.4154,-0.87469 34.6821,-2.0897 z m -34.4068,-8.62103 c -0.6056,-0.60554 -1.101,-2.09192 -1.101,-3.30303 0,-1.21113 1.0353,-2.20205 2.3006,-2.20205 1.2653,0 2.7283,1.11479 3.2511,2.4773 0.5229,1.3625 2.4343,2.47729 4.2476,2.47729 1.8132,0 4.0504,-1.40835 4.9716,-3.12964 1.2308,-2.29969 1.0597,-3.64025 -0.6452,-5.05512 -1.276,-1.059 -3.3041,-1.7243 -4.5069,-1.47844 -1.2028,0.24586 -3.8591,-0.47825 -5.9029,-1.60912 -2.1775,-1.20484 -3.7159,-3.62593 -3.7159,-5.84774 0,-2.3034 1.4585,-4.49066 3.7159,-5.57249 2.0438,-0.97947 5.0165,-2.19651 6.6061,-2.70454 1.5896,-0.50803 4.0049,-0.49589 5.3674,0.0269 1.3626,0.52283 2.4774,2.35748 2.4774,4.07699 0,1.7195 -0.7432,3.12635 -1.6515,3.12635 -0.9084,0 -1.6516,-0.65651 -1.6516,-1.45891 0,-0.80241 -1.3224,-1.80475 -2.9389,-2.22744 -1.6164,-0.42271 -3.9079,0.26878 -5.0923,1.5366 -1.492,1.59714 -1.6357,2.92896 -0.468,4.33595 0.927,1.11693 3.7759,2.1984 6.331,2.4033 2.555,0.2049 5.5234,1.55789 6.5965,3.00663 1.0731,1.44876 1.515,3.86243 0.9823,5.36372 -0.5328,1.50132 -1.6875,3.65865 -2.5661,4.79406 -0.8785,1.13543 -4.7269,2.06442 -8.5518,2.06442 -3.8249,0 -7.4499,-0.49547 -8.0554,-1.10103 z m -71.5153,-12.39126 c -1.9402,-0.93944 -4.2998,-3.40272 -5.2435,-5.474 -0.9437,-2.07125 -1.4877,-5.52564 -1.2088,-7.67643 0.2788,-2.15079 1.007,-5.11044 1.6182,-6.57701 0.6113,-1.46654 2.9634,-3.51032 5.227,-4.54169 2.2637,-1.03137 6.2101,-1.87522 8.7699,-1.87522 2.5597,0 6.5684,1.50576 8.908,3.34612 2.3397,1.84037 4.7186,4.81021 5.2866,6.59965 0.5679,1.78944 0.1,5.83393 -1.041,8.98779 -1.4227,3.93443 -3.6078,6.26915 -6.9617,7.43835 -2.6886,0.93721 -6.4496,1.65373 -8.3578,1.59227 -1.9082,-0.0614 -5.0569,-0.88041 -6.9969,-1.81983 z m 14.3556,-5.08738 c 1.705,-2.04377 3.1246,-5.51541 3.1549,-7.71471 0.03,-2.19933 -1.1751,-5.35789 -2.6784,-7.01901 -1.5033,-1.66111 -4.3108,-3.02021 -6.239,-3.02021 -1.9282,0 -4.7785,1.48639 -6.334,3.30307 -1.5555,1.81668 -2.4822,3.30305 -2.0594,3.30305 0.4228,0 0.065,1.84923 -0.7937,4.10942 -1.2654,3.3281 -0.8844,4.74116 2.0039,7.43187 1.9614,1.82736 4.979,3.32244 6.7059,3.32244 1.7269,0 4.5348,-1.67218 6.2398,-3.71592 z m 140.2866,-1.66102 c 0,-1.14066 -2.4153,-5.95159 -5.3675,-10.69097 -2.9522,-4.73939 -6.2965,-8.63685 -7.4319,-8.66102 -1.1354,-0.0241 -2.0644,-0.78715 -2.0644,-1.69549 0,-0.90834 1.0617,-1.65153 2.3593,-1.65153 1.2977,0 3.3415,-0.93767 4.5417,-2.08368 1.2003,-1.14601 4.135,-2.94651 6.5215,-4.00109 3.208,-1.41758 4.8223,-1.43425 6.1926,-0.064 1.3704,1.37029 0.4544,2.30573 -3.5133,3.58822 -3.5847,1.15867 -5.3668,2.7859 -5.3668,4.90017 0,1.74098 0.8427,3.44634 1.8726,3.78968 1.03,0.3433 3.0682,-0.57112 4.5291,-2.03211 1.461,-1.46096 3.4052,-2.19347 4.3205,-1.62778 0.9152,0.56568 1.6642,2.44773 1.6642,4.18229 0,2.11689 -0.8099,2.84298 -2.4634,2.20847 -1.3848,-0.53142 -2.8915,0.17047 -3.4413,1.60305 -0.5378,1.40157 -0.3582,3.6178 0.3991,4.92493 1.0051,1.73506 2.4306,1.9806 5.281,0.90963 2.8736,-1.07968 3.6707,-2.36004 3.0196,-4.84974 -0.6599,-2.52382 -0.1836,-3.24925 1.8761,-2.85685 1.5184,0.28925 2.9986,2.1938 3.2895,4.23235 0.3437,2.40945 -0.5232,4.08686 -2.4773,4.79357 -1.6534,0.59793 -4.9787,2.45258 -7.3898,4.12144 -2.411,1.66888 -4.8264,3.0343 -5.3674,3.0343 -0.5411,0 -0.9837,-0.93325 -0.9837,-2.07389 z m -112.3038,-13.54652 c -5.9043,-1.07933 -12.3583,-2.83697 -14.3423,-3.90592 -1.9841,-1.06892 -4.9026,-1.94351 -6.4856,-1.94351 -1.5829,0 -9.0183,-2.97206 -16.523,-6.60454 -7.5048,-3.63249 -18.7068,-10.48267 -24.8936,-15.22267 -6.1867,-4.73997 -13.8497,-11.31658 -17.0289,-14.61472 -3.1792,-3.29813 -7.3001,-7.79769 -9.1575,-9.99899 -1.8575,-2.20132 -5.5835,-7.33059 -8.2799,-11.39839 -2.6966,-4.06782 -7.2408,-12.22673 -10.0984,-18.13095 -2.8576,-5.90419 -6.7323,-17.052 -8.6105,-24.7729 -2.4421,-10.03867 -3.5432,-20.70024 -3.8654,-37.42317 -0.2479,-12.86186 0.025,-22.6109 0.6074,-21.66454 0.6059,0.98531 1.4506,0.39224 1.9763,-1.38769 0.5051,-1.70963 1.4197,-6.08115 2.0325,-9.7145 0.6127,-3.63335 4.5143,-13.66639 8.67,-22.29561 4.1557,-8.62923 7.3915,-16.30214 7.1906,-17.05091 -0.2009,-0.74876 0.3963,-0.8907 1.3272,-0.31543 0.9308,0.57531 1.6924,-0.0507 1.6924,-1.39112 0,-1.34044 0.5574,-2.68489 1.2387,-2.98765 0.6813,-0.30278 4.2019,-4.26645 7.8236,-8.80814 3.6217,-4.54171 8.3464,-9.6749 10.4992,-11.40707 2.1528,-1.73217 5.1352,-4.37425 6.6273,-5.87125 1.4921,-1.49701 5.8584,-5.1483 9.7027,-8.11399 3.8443,-2.96565 7.746,-4.92464 8.6705,-4.3533 0.9245,0.57135 1.6808,1.63938 1.6808,2.37339 0,0.73403 -3.1333,3.40815 -6.963,5.9425 -3.8296,2.53432 -13.0701,10.82604 -20.5345,18.42601 -11.472,11.68051 -14.9956,16.68614 -22.7783,32.35806 -6.325,12.73639 -9.9781,22.59198 -11.6704,31.48454 -1.3549,7.11955 -2.4505,20.49691 -2.4347,29.72749 0.016,9.23059 1.0627,21.66053 2.3266,27.62211 1.2637,5.96161 4.295,15.5847 6.7362,21.38466 2.4412,5.79995 6.9681,14.4999 10.06,19.33319 3.0917,4.83328 5.6215,9.19802 5.6215,9.69945 0,0.50141 0.929,1.91191 2.0644,3.13444 1.1354,1.22249 6.8951,7.16676 12.7993,13.20941 5.9042,6.04265 15.5656,14.12997 21.4698,17.9718 5.9042,3.84186 15.5656,9.04437 21.4699,11.56116 5.9042,2.51681 12.2213,5.19825 14.038,5.95876 1.8167,0.7605 7.019,2.38064 11.5607,3.6003 5.3905,1.44759 18.0058,2.21366 36.3336,2.20636 23.059,-0.009 29.6991,-0.56277 37.1594,-3.09808 4.9958,-1.6978 13.0071,-4.85132 17.8028,-7.00782 4.7957,-2.15649 9.3268,-3.9209 10.0692,-3.9209 0.7424,0 7.5948,-4.16163 15.2277,-9.24808 7.6329,-5.08643 17.9655,-13.59102 22.9613,-18.89911 4.9959,-5.30807 9.8763,-10.6308 10.8453,-11.82829 0.9691,-1.19748 4.4879,-6.43848 7.8195,-11.6467 3.3317,-5.20819 7.2504,-12.25974 8.7081,-15.67011 1.4578,-3.41036 4.4992,-11.77458 6.7586,-18.58712 3.4382,-10.36655 4.1527,-15.88761 4.3818,-33.8563 0.1685,-13.22441 -0.5738,-24.95831 -1.9329,-30.55325 -1.2136,-4.99588 -3.5562,-12.83311 -5.2059,-17.41608 -1.6497,-4.58299 -4.688,-11.64327 -6.7519,-15.68952 -2.0639,-4.04625 -5.9611,-10.70115 -8.6607,-14.78869 -2.6994,-4.08752 -11.1945,-13.56318 -18.878,-21.05698 -7.6833,-7.4938 -15.0012,-13.6251 -16.2618,-13.6251 -1.2606,0 -2.2919,-0.69309 -2.2919,-1.54024 0,-0.84713 -1.5228,-2.02353 -3.384,-2.61424 -1.9921,-0.6323 -5.0487,0.0167 -7.4318,1.5783 -2.2264,1.45878 -4.048,3.79023 -4.048,5.18097 0,1.39076 3.6293,11.59246 8.0652,22.67043 4.4359,11.07799 13.6115,33.89076 20.3902,50.69504 6.7786,16.80428 13.2754,34.53387 14.4371,39.39908 1.2929,5.41413 1.6897,12.44134 1.023,18.11395 -0.5991,5.09746 -2.1156,12.26463 -3.3702,15.92706 -1.2545,3.66242 -3.7369,10.00331 -5.5163,14.09083 -1.7796,4.08755 -6.6176,12.00356 -10.7514,17.59116 -4.1337,5.5876 -12.069,13.94847 -17.6339,18.57968 -5.5651,4.63122 -11.1944,8.4204 -12.5098,8.4204 -1.3153,0 -2.3915,0.61146 -2.3915,1.35878 0,0.74735 -3.1585,2.92048 -7.0191,4.82919 -3.8603,1.90872 -11.8496,5.14771 -17.7539,7.19775 -8.0191,2.78441 -15.6623,3.9052 -30.2121,4.43031 -14.5518,0.52517 -22.6959,-0.0188 -32.2048,-2.15061 -7.0002,-1.56943 -18.8108,-5.79072 -26.2459,-9.38064 -8.367,-4.03981 -17.5687,-10.23833 -24.1468,-16.26589 -7.5415,-6.91043 -11.1172,-11.55172 -12.3124,-15.98122 -0.9264,-3.43333 -3.0375,-9.76407 -4.6914,-14.06828 -2.1938,-5.7091 -2.5139,-8.31904 -1.1837,-9.64928 1.3302,-1.33024 2.7648,-1.31964 5.3038,0.0392 1.9142,1.02445 3.4804,2.83567 3.4804,4.02493 0,1.18927 1.8555,4.32168 4.1232,6.96089 3.8559,4.48728 4.9004,4.79568 16.1024,4.7539 8.6092,-0.0321 14.0699,-1.01621 19.411,-3.49809 4.0875,-1.89937 9.3364,-5.22359 11.664,-7.38718 2.3276,-2.16358 5.4862,-5.9514 7.019,-8.41738 1.5349,-2.46938 2.7869,-7.8135 2.7869,-11.89587 0,-4.07676 -0.9203,-9.491 -2.0452,-12.03168 -1.1248,-2.54067 -2.7969,-5.36259 -3.7159,-6.27092 -0.9189,-0.90837 -3.6843,-2.68991 -6.1452,-3.95901 -3.3577,-1.7316 -7.8421,-2.02662 -17.968,-1.18214 -7.4216,0.61891 -14.9823,1.92198 -16.8017,2.89569 -1.8194,0.97372 -9.3407,1.87729 -16.714,2.00791 -10.4454,0.18509 -14.865,-0.49193 -20.0122,-3.06552 -5.2088,-2.60443 -7.8171,-5.63283 -12.3317,-14.31805 -5.6893,-10.94496 -5.7137,-11.08497 -3.8389,-22.02927 1.2066,-7.04478 3.5581,-13.42632 6.5247,-17.70708 2.551,-3.68105 8.4747,-9.5271 13.1639,-12.99121 4.6893,-3.46413 10.6467,-6.81794 13.2389,-7.45294 2.5921,-0.63497 5.1429,-1.80658 5.6682,-2.60358 0.5254,-0.79697 8.5147,-1.9096 17.754,-2.47247 16.4642,-1.00304 16.7986,-0.95187 16.7986,2.57037 0,1.97659 1.4862,7.82221 3.3026,12.99028 2.7383,7.79079 2.9295,9.76964 1.119,11.58013 -1.201,1.20099 -3.3197,1.74767 -4.7081,1.21486 -1.3886,-0.53281 -3.9358,-4.07844 -5.6607,-7.87912 -2.8098,-6.19112 -3.9097,-7.04592 -10.568,-8.21269 -4.4797,-0.78497 -10.3842,-0.58093 -14.8638,0.51372 -4.0875,0.99879 -10.0458,3.28476 -13.2406,5.07992 -3.1948,1.79516 -7.4681,5.68567 -9.4962,8.64557 -2.0606,3.00719 -3.6876,7.89179 -3.6876,11.07072 0,3.12897 0.7235,8.21171 1.6078,11.29496 0.8842,3.08324 3.1845,7.07497 5.1118,8.87052 1.9274,1.79551 6.5306,3.94459 10.2296,4.7757 3.6989,0.83109 9.0163,1.06517 11.8163,0.52016 2.7999,-0.54502 9.8853,-2.13528 15.7452,-3.53397 5.8599,-1.39865 16.2073,-2.52125 22.9943,-2.49461 10.8413,0.0425 13.1349,0.61356 18.8872,4.70212 4.2482,3.01969 7.5949,7.26328 9.531,12.08562 1.6411,4.08752 3.029,11.5194 3.0843,16.51526 0.055,4.99588 -1.1666,12.6186 -2.7153,16.93939 -1.7231,4.80752 -6.2381,11.38936 -11.6352,16.96159 -5.4742,5.65182 -12.7631,10.9689 -19.2166,14.01803 -5.7185,2.70182 -14.3644,5.66479 -19.2132,6.58434 -4.8488,0.91956 -9.1087,1.96475 -9.4667,2.32267 -0.3579,0.35795 4.0445,3.98135 9.7832,8.05203 5.7387,4.0707 13.8154,8.92572 17.9481,10.78894 4.1328,1.8632 13.3768,4.92324 20.5423,6.80004 7.1654,1.87682 18.0443,3.41239 24.1752,3.41239 6.131,0 16.2098,-1.15888 22.3975,-2.57529 6.1877,-1.41642 17.4436,-5.55519 25.0131,-9.19727 10.4154,-5.01133 16.1809,-9.1612 23.7045,-17.06196 5.468,-5.74199 10.9469,-12.19364 12.1753,-14.33701 1.2284,-2.14334 4.4387,-8.43532 7.1341,-13.98213 2.6953,-5.54684 5.7279,-13.15733 6.739,-16.91225 1.6301,-6.05374 1.2969,-8.37231 -2.9419,-20.46812 -2.6291,-7.50255 -8.3043,-22.18767 -12.6115,-32.63355 -4.3071,-10.44591 -8.474,-20.47896 -9.2596,-22.29563 -0.7855,-1.81668 -4.1052,-9.99175 -7.3771,-18.16679 -3.2718,-8.17506 -7.0872,-17.4649 -8.4786,-20.6441 -1.3913,-3.17919 -4.0493,-9.02243 -5.9066,-12.98499 -3.3558,-7.15984 -3.419,-7.19762 -10.1586,-6.08038 -3.73,0.61836 -8.2682,1.25929 -10.0849,1.42431 -2.3014,0.20903 -3.303,-0.70098 -3.303,-3.0008 0,-2.57617 2.3568,-4.12579 10.7349,-7.05835 5.9042,-2.06664 14.6869,-5.12781 19.5171,-6.8026 4.8303,-1.67479 9.5523,-3.81517 10.4935,-4.75638 1.1808,-1.18071 -0.01,-2.48361 -3.8276,-4.20221 -3.0464,-1.37002 -9.7398,-4.0051 -14.8742,-5.85577 -5.1344,-1.85067 -15.9106,-4.60798 -23.9472,-6.12734 -10.9937,-2.07843 -18.7012,-2.48338 -31.1271,-1.63537 -9.0833,0.61991 -18.6722,1.26809 -21.3087,1.44041 -2.6362,0.1723 -5.094,-0.5569 -5.4615,-1.6205 -0.4292,-1.24224 2.7616,-2.41595 8.9222,-3.28197 5.2747,-0.74147 17.7654,-1.30188 27.7572,-1.24531 11.0314,0.0625 22.9968,1.22602 30.4643,2.96251 6.7636,1.57281 16.0534,4.36082 20.644,6.19556 4.5907,1.83474 11.691,4.94629 15.7786,6.91456 4.0875,1.96829 11.1478,6.16778 15.6894,9.33222 4.5417,3.16445 10.2778,7.62851 12.7468,9.92015 2.4689,2.29167 5.4417,4.96774 6.606,5.94688 1.1644,0.97912 4.9003,5.06667 8.3018,9.08339 3.4016,4.01674 8.0388,9.52651 10.3047,12.24392 2.2659,2.71743 6.3643,9.15172 9.1074,14.29844 2.7432,5.1467 7.1745,16.46189 9.8472,25.14483 3.2529,10.56743 5.191,21.12922 5.862,31.94432 0.5513,8.88644 0.2794,20.98789 -0.6043,26.89209 -0.8837,5.90422 -2.5032,14.07929 -3.5989,18.16681 -1.0957,4.08752 -4.2396,12.26259 -6.9865,18.16679 -2.7467,5.90422 -5.0108,11.63122 -5.0312,12.7267 -0.02,1.09546 -0.6563,1.60899 -1.4132,1.14117 -0.7569,-0.46782 -1.3763,0.30804 -1.3763,1.72418 0,1.41611 -0.653,2.57476 -1.4512,2.57476 -0.7981,0 -2.4289,2.41535 -3.6238,5.36745 -1.1951,2.95211 -8.9098,12.07793 -17.144,20.27964 -9.2907,9.25419 -19.3516,17.39719 -26.5164,21.4616 -6.35,3.6022 -13.4056,7.36908 -15.6792,8.37088 -2.2737,1.0018 -9.7055,3.77116 -16.5153,6.15415 -6.8098,2.38298 -17.2121,5.09156 -23.1163,6.01907 -5.9042,0.92752 -18.1668,1.59169 -27.2502,1.47593 -9.0834,-0.11576 -21.346,-1.0935 -27.2501,-2.17279 z m -97.4401,-5.02367 c 0,-0.45417 0.3715,-0.82576 0.8257,-0.82576 0.4542,0 0.8257,0.37159 0.8257,0.82576 0,0.45416 -0.3715,0.82576 -0.8257,0.82576 -0.4542,0 -0.8257,-0.3716 -0.8257,-0.82576 z m 79.2732,-8.25764 c 0,-0.45418 0.3716,-0.82577 0.8258,-0.82577 0.4541,0 0.8258,0.37159 0.8258,0.82577 0,0.45417 -0.3717,0.82576 -0.8258,0.82576 -0.4542,0 -0.8258,-0.37159 -0.8258,-0.82576 z m -99.0916,-15.6895 c 0,-1.8167 0.6993,-3.30306 1.554,-3.30306 0.8548,0 2.0218,0.75664 2.5933,1.68142 0.6433,1.04104 2.7248,0.4619 5.465,-1.5206 2.4341,-1.76112 7.6321,-6.22027 11.5512,-9.90922 7.1255,-6.70721 7.1255,-6.70721 11.1478,-2.36707 2.2122,2.38708 3.9637,5.16063 3.8919,6.1634 -0.077,1.07857 -0.4706,0.98009 -0.9634,-0.24117 -0.4581,-1.13541 -1.8975,-2.0644 -3.1987,-2.0644 -1.3011,0 -6.9618,3.34434 -12.5793,7.43188 -6.3309,4.60671 -11.9713,7.43188 -14.8377,7.43188 -3.523,0 -4.6241,-0.78647 -4.6241,-3.30306 z m 292.8152,-13.82855 c -0.7264,-1.24733 -5.2503,-4.24671 -10.0531,-6.66532 -4.8028,-2.41859 -9.4478,-3.95535 -10.3221,-3.41501 -0.8743,0.54035 -1.5896,0.51509 -1.5896,-0.0561 0,-0.57122 2.2933,-4.3717 5.0962,-8.44554 2.8029,-4.07386 5.915,-7.13406 6.9157,-6.80047 1.0008,0.3336 2.1139,1.48907 2.4734,2.56773 0.3595,1.07867 -0.4319,1.9612 -1.759,1.9612 -1.327,0 -3.2599,1.0208 -4.2953,2.26842 -1.4751,1.77733 -0.9902,2.85319 2.2398,4.96957 3.9895,2.61401 4.156,2.56748 5.1626,-1.44267 0.5719,-2.27909 2.0303,-4.14379 3.2408,-4.14379 1.2104,0 2.7297,0.85593 3.3763,1.90207 0.6465,1.04614 -0.1631,2.88088 -1.7991,4.07719 -2.4544,1.79469 -2.6076,2.61745 -0.8759,4.70403 1.1544,1.39092 3.5737,2.52891 5.3764,2.52891 2.3101,0 2.9816,0.77105 2.275,2.61238 -0.5514,1.43679 -1.0025,3.29476 -1.0025,4.12882 0,0.83404 -0.7062,1.51644 -1.5694,1.51644 -0.8632,0 -2.1638,-1.02054 -2.8902,-2.26785 z m -299.4213,-1.86097 c 0,-0.45416 0.3716,-0.82576 0.8258,-0.82576 0.4541,0 0.8257,0.3716 0.8257,0.82576 0,0.45417 -0.3716,0.82577 -0.8257,0.82577 -0.4542,0 -0.8258,-0.3716 -0.8258,-0.82577 z m 279.1081,-3.30305 c 0,-0.45418 0.3716,-0.82577 0.8257,-0.82577 0.4542,0 0.8258,0.37159 0.8258,0.82577 0,0.45416 -0.3716,0.82576 -0.8258,0.82576 -0.4541,0 -0.8257,-0.3716 -0.8257,-0.82576 z m -292.3203,-6.60612 c 0,-0.45416 0.3716,-0.82576 0.8257,-0.82576 0.4542,0 0.8258,0.3716 0.8258,0.82576 0,0.45417 -0.3716,0.82577 -0.8258,0.82577 -0.4541,0 -0.8257,-0.3716 -0.8257,-0.82577 z m 302.2294,-4.95456 c 0,-0.45417 0.3716,-0.82575 0.8258,-0.82575 0.4541,0 0.8257,0.37158 0.8257,0.82575 0,0.45417 -0.3716,0.82577 -0.8257,0.82577 -0.4542,0 -0.8258,-0.3716 -0.8258,-0.82577 z m 0.6681,-12.64164 c -0.7301,-1.18133 -0.4531,-1.4584 0.7283,-0.72829 1.0487,0.64813 1.9067,1.50614 1.9067,1.9067 0,0.40057 -0.3278,0.7283 -0.7284,0.7283 -0.4005,0 -1.2585,-0.85801 -1.9066,-1.90671 z m -302.6028,-27.68531 c -1.3958,-4.00396 -1.1426,-5.30538 1.4967,-7.6939 2.6201,-2.37131 3.9067,-2.54217 7.3451,-0.97555 2.2926,1.04462 4.6093,3.04819 5.1481,4.45237 0.5388,1.40421 -0.3403,4.0118 -1.9538,5.79463 -1.6135,1.78287 -4.6036,3.24156 -6.6449,3.24156 -2.6156,0 -4.2072,-1.4227 -5.3912,-4.81911 z m 315.5598,2.3487 c -1.1354,-1.28962 -2.0644,-3.11931 -2.0644,-4.06599 0,-0.94669 0.7665,-1.72124 1.7034,-1.72124 0.9368,0 2.1311,1.11479 2.6539,2.4773 0.5229,1.36251 2.0298,2.4773 3.3487,2.4773 1.319,0 1.9388,0.74318 1.3774,1.65152 -0.5614,0.90833 -1.9058,1.62324 -2.9876,1.58869 -1.0818,-0.0345 -2.8959,-1.11795 -4.0314,-2.40758 z m -133.3941,-7.87676 c -2.3664,-2.96591 -8.4445,-15.4143 -13.5067,-27.66309 -5.0621,-12.24876 -10.0276,-24.31424 -11.0343,-26.81217 -1.0069,-2.49796 -2.4294,-4.5417 -3.1611,-4.5417 -0.7317,0 -3.5448,1.14515 -6.2514,2.54477 -2.7066,1.39965 -5.6424,2.09895 -6.5241,1.55406 -0.8817,-0.54491 -1.603,-1.91587 -1.603,-3.04658 0,-1.13071 2.5308,-4.50878 5.624,-7.50684 5.5566,-5.38566 5.5953,-5.52322 3.2341,-11.47178 -1.3144,-3.31143 -3.8452,-8.72313 -5.624,-12.02598 -1.7788,-3.30288 -3.2341,-6.40552 -3.2341,-6.89483 0,-0.48928 3.1585,-3.91022 7.019,-7.60207 3.8604,-3.69188 7.5923,-6.7205 8.293,-6.73029 0.7007,-0.01 1.9022,1.65437 2.6699,3.69814 0.7677,2.04375 3.1671,9.19683 5.332,15.89568 2.165,6.69887 4.7576,12.49679 5.7615,12.88427 1.004,0.38748 6.113,-1.19167 11.3533,-3.50924 5.2404,-2.31755 10.4637,-4.21376 11.6073,-4.21376 1.1435,0 2.5273,1.67217 3.075,3.71595 0.5476,2.04377 1.006,4.50937 1.0183,5.47915 0.012,0.96976 -5.1797,3.46872 -11.5381,5.55322 -6.9376,2.2744 -11.5607,4.70644 -11.5607,6.08155 0,1.26033 0.5622,2.29152 1.2494,2.29152 0.6872,0 2.2256,3.12769 3.4187,6.95044 1.193,3.82273 3.6036,10.09905 5.3566,13.94735 1.7532,3.84832 3.1875,7.80563 3.1875,8.79398 0,0.98837 1.8847,5.51641 4.1883,10.06229 2.3037,4.5459 6.0012,9.09122 8.2169,10.10076 3.4176,1.55715 5.0644,1.14994 10.86,-2.68545 4.0522,-2.68163 7.4368,-3.91578 8.3191,-3.03344 0.8181,0.81813 1.0471,3.67062 0.5088,6.33886 -0.5384,2.66824 -2.2198,6.371 -3.7366,8.22831 -1.5168,1.85732 -5.9314,4.64429 -9.8102,6.19323 -3.8789,1.54896 -9.6069,2.81629 -12.7289,2.81629 -4.4302,0 -6.6213,-1.18403 -9.9795,-5.3926 z m 43.7988,-6.99387 c 0,-0.45417 0.3716,-0.82577 0.8257,-0.82577 0.4542,0 0.8258,0.3716 0.8258,0.82577 0,0.45418 -0.3716,0.82576 -0.8258,0.82576 -0.4541,0 -0.8257,-0.37158 -0.8257,-0.82576 z m -0.6226,-6.55312 c -2.3826,-2.38256 -4.332,-5.99075 -4.332,-8.01822 0,-2.02746 1.1569,-5.338 2.5709,-7.3568 1.9924,-2.84446 4.2014,-3.67052 9.8155,-3.67052 5.6141,0 7.8232,0.82606 9.8155,3.67052 1.4141,2.0188 2.571,5.23358 2.571,7.14399 0,1.91041 -1.6721,5.03429 -3.7159,6.94196 -2.0439,1.9077 -5.6684,3.95283 -8.0545,4.54477 -3.3561,0.83251 -5.3196,0.0952 -8.6705,-3.2557 z m 93.9838,-18.37534 c -1.7259,-2.63393 -2.4231,-5.81495 -1.81,-8.25765 0.6334,-2.52388 2.1906,-3.97325 4.2688,-3.97325 1.7994,0 3.2716,0.74319 3.2716,1.65153 0,0.90834 -1.1148,1.65153 -2.4773,1.65153 -1.3625,0 -2.4773,0.6824 -2.4773,1.51646 0,0.83403 0.4511,2.69201 1.0024,4.1288 0.5514,1.43681 2.2553,2.61238 3.7864,2.61238 1.9038,0 3.4121,-2.34923 4.7715,-7.43188 1.6296,-6.09284 2.6759,-7.43188 5.8073,-7.43188 2.1006,0 5.0662,0.92899 6.5901,2.06443 1.5239,1.1354 3.1985,4.29396 3.7212,7.01898 0.5849,3.04802 0.054,6.16384 -1.3787,8.09706 -1.4689,1.98182 -3.1242,2.65119 -4.4815,1.81231 -1.6802,-1.0384 -1.4931,-1.81214 0.8529,-3.52761 2.5237,-1.84535 2.7018,-2.86353 1.1114,-6.35403 -1.0416,-2.28609 -2.6793,-4.15655 -3.6395,-4.15655 -0.9601,0 -3.1791,3.34436 -4.9313,7.43187 -2.5221,5.88383 -4.0183,7.43188 -7.1832,7.43188 -2.4803,0 -5.0631,-1.62608 -6.8048,-4.28438 z m -159.4223,-2.32173 c 0,-1.21111 0.4955,-1.70658 1.101,-1.10101 0.6056,0.60554 0.6056,1.59647 0,2.20202 -0.6055,0.60557 -1.101,0.1101 -1.101,-1.10101 z m -155.2435,-22.94469 c 0,-0.81115 1.1148,-1.90262 2.4772,-2.42545 1.3625,-0.52285 2.4774,-2.75242 2.4774,-4.95459 0,-2.20217 -0.9964,-4.38628 -2.2142,-4.85362 -1.2179,-0.46731 -3.0293,-0.34589 -4.0256,0.26982 -0.9962,0.61569 -2.5826,3.14809 -3.5252,5.62753 -1.2211,3.2118 -2.8741,4.5081 -5.7486,4.5081 -2.219,0 -5.2102,-0.45113 -6.647,-1.00246 -1.6557,-0.63535 -2.5698,-2.90337 -2.4963,-6.19324 0.064,-2.85493 0.6213,-6.38954 1.2386,-7.85474 0.7372,-1.74922 2.17,-2.28961 4.1729,-1.57375 2.769,0.9897 2.8071,1.29209 0.4129,3.27908 -1.4505,1.20386 -2.6374,3.58422 -2.6374,5.28968 0,1.93307 1.1684,3.10085 3.1027,3.10085 1.8932,0 3.906,-1.93949 5.1636,-4.97559 1.2129,-2.92797 3.7015,-5.38732 6.0472,-5.9761 2.622,-0.65807 5.0941,0.002 7.2229,1.9285 1.7801,1.61097 3.2365,4.98259 3.2365,7.49254 0,2.50996 -0.4511,5.73913 -1.0025,7.17591 -0.5513,1.43681 -2.4093,2.61238 -4.1287,2.61238 -1.7196,0 -3.1264,-0.66369 -3.1264,-1.47485 z m 180.0164,-2.65397 c 0,-0.45417 0.3716,-0.82577 0.8258,-0.82577 0.4541,0 0.8257,0.3716 0.8257,0.82577 0,0.45417 -0.3716,0.82576 -0.8257,0.82576 -0.4542,0 -0.8258,-0.37159 -0.8258,-0.82576 z m -181.668,-4.95459 c 0,-0.45417 0.3716,-0.82576 0.8258,-0.82576 0.4542,0 0.8258,0.37159 0.8258,0.82576 0,0.45417 -0.3716,0.82577 -0.8258,0.82577 -0.4542,0 -0.8258,-0.3716 -0.8258,-0.82577 z m 300.9082,-40.79271 c -1.0899,-1.09003 -1.9818,-3.30245 -1.9818,-4.91651 0,-1.61408 1.7961,-4.11155 3.9914,-5.54991 3.3466,-2.19284 4.547,-2.26818 7.4319,-0.46657 2.0815,1.29997 3.4404,3.87892 3.4404,6.52927 0,2.47103 -1.1387,4.81761 -2.6123,5.38309 -1.4368,0.55136 -3.8893,1.00246 -5.4501,1.00246 -1.5607,0 -3.7295,-0.89183 -4.8195,-1.98183 z m -181.6679,-9.90917 c -1.09,-1.09001 -1.9813,-3.50538 -1.9808,-5.36746 0,-2.81158 -1.0493,-3.38563 -6.1931,-3.38563 -6.1258,0 -6.1944,-0.0732 -6.1944,-6.60612 0,-6.6061 0,-6.6061 7.0031,-6.6061 3.8519,0 7.3002,-0.77656 7.663,-1.72566 0.3956,-1.03489 -2.0771,-1.69599 -6.1774,-1.65151 -5.1059,0.0553 -7.7064,1.07836 -10.2701,4.04012 -2.6702,3.08491 -4.4074,3.7214 -7.8196,2.86502 -2.9294,-0.73523 -4.7576,-2.57877 -5.5031,-5.5493 -0.8979,-3.57765 -0.2925,-5.06352 3.0933,-7.59135 4.1266,-3.08102 4.1481,-3.20457 1.0912,-6.26146 -1.7151,-1.71516 -3.1184,-3.71958 -3.1184,-4.4543 0,-0.73474 1.034,-2.75005 2.2979,-4.47847 1.6217,-2.21775 3.9887,-3.0287 8.0433,-2.75563 4.5648,0.30741 6.3087,-0.47295 8.4874,-3.798 2.2275,-3.39968 3.5849,-3.97874 7.2334,-3.08608 2.4702,0.60437 5.0373,1.91344 5.7046,2.90899 0.6673,0.99558 1.2248,3.37924 1.2387,5.29706 0.02,2.71555 0.8472,3.33355 3.7412,2.79368 2.0437,-0.38126 5.0023,0.27921 6.5746,1.46769 1.5723,1.18847 3.0587,3.91367 3.3031,6.056 0.284,2.48985 -0.7473,4.57525 -2.8588,5.78034 -1.8166,1.03686 -3.6203,2.07868 -4.0082,2.31514 -0.3878,0.23649 0.6117,1.3929 2.2212,2.56984 1.7846,1.30487 2.7042,3.70193 2.3569,6.14292 -0.3739,2.62631 -2.1595,4.55986 -5.1919,5.62202 -3.2752,1.14724 -5.561,1.03255 -7.8448,-0.39363 -2.7563,-1.72137 -3.2226,-1.57398 -3.2226,1.01841 0,2.34787 1.0236,2.89871 4.5417,2.44396 2.4979,-0.32289 5.3704,-0.008 6.3835,0.69889 1.013,0.70729 2.3388,2.87985 2.9463,4.8279 0.7084,2.27232 0.154,4.49227 -1.547,6.19322 -1.4582,1.45825 -4.3076,2.65132 -6.3319,2.65132 -2.0243,0 -4.5723,-0.89182 -5.6623,-1.98182 z m 6.9946,-31.22177 c -0.5026,-0.81318 -1.6131,-1.47849 -2.4678,-1.47849 -0.8548,0 -1.5541,1.09147 -1.5541,2.42547 0,1.47328 0.9688,2.05369 2.4678,1.47846 1.3573,-0.52084 2.0567,-1.61228 1.5541,-2.42544 z m -21.1909,-4.33425 c -0.5488,-0.5488 -1.4438,-0.55179 -1.989,-0.007 -0.545,0.54511 -0.409,1.93296 0.3025,3.08407 1.0405,1.68359 1.4295,1.68489 1.9889,0.007 0.3825,-1.14743 0.2464,-2.53528 -0.3024,-3.08407 z m 16.7559,-6.36548 c -0.5602,-0.56028 -1.8234,-0.52132 -2.8069,0.0866 -0.9837,0.6079 -1.3208,1.86186 -0.7494,2.78656 0.6973,1.128 1.621,1.09951 2.8071,-0.0866 0.9724,-0.97235 1.3095,-2.2263 0.7492,-2.78657 z m -11.1476,0.96362 c 0,-0.90833 -0.7431,-1.65153 -1.6515,-1.65153 -0.9083,0 -1.6515,0.7432 -1.6515,1.65153 0,0.90834 0.7432,1.65153 1.6515,1.65153 0.9084,0 1.6515,-0.74319 1.6515,-1.65153 z m -82.8518,23.36352 c -3.2175,-6.94572 -5.5904,-13.10863 -5.2733,-13.6953 0.3172,-0.58669 2.996,-0.46502 5.9529,0.2704 2.9569,0.73541 9.278,2.32029 14.0467,3.52194 4.7688,1.20167 8.647,2.93795 8.618,3.85843 -0.029,0.92046 -1.0924,3.04612 -2.3633,4.72368 -2.2296,2.94275 -2.3871,2.92821 -4.4736,-0.41289 -1.1895,-1.90463 -2.8258,-3.46298 -3.6361,-3.46298 -0.8104,0 -2.8612,1.60008 -4.5573,3.55575 -1.6962,1.95567 -3.0839,4.09424 -3.0839,4.75237 0,0.65813 1.1147,2.12178 2.4773,3.25257 1.3625,1.13077 2.4772,2.62864 2.4772,3.32859 0,0.69993 -0.9753,1.64688 -2.1674,2.10433 -1.4232,0.54612 -4.1761,-3.50482 -8.0172,-11.79689 z m 6.8816,-5.29419 c 0,-0.85473 -1.1148,-1.55407 -2.4774,-1.55407 -1.3624,0 -2.4772,0.61933 -2.4772,1.37629 0,0.75694 0.4753,1.85151 1.0561,2.4324 0.5809,0.58085 1.6957,0.66086 2.4773,0.17777 0.7816,-0.48309 1.4212,-1.57765 1.4212,-2.43239 z m 282.9616,12.20865 c 0.6056,-0.60554 1.5965,-0.60554 2.2021,0 0.6055,0.60558 0.1101,1.10104 -1.1011,1.10104 -1.2111,0 -1.7065,-0.49546 -1.101,-1.10104 z m -64.4265,-30.69087 c -1.8398,-2.04377 -3.97,-4.83071 -4.7337,-6.19322 -1.2252,-2.18609 -1.0377,-2.19238 1.5952,-0.0536 2.686,2.18208 3.2973,2.01741 6.1308,-1.65153 1.7311,-2.24136 4.6215,-5.81376 6.4232,-7.93861 1.8018,-2.12485 2.8576,-4.54022 2.3463,-5.36745 -0.5113,-0.82727 -2.3721,-1.50413 -4.1351,-1.50413 -1.7631,0 -3.2057,-0.69932 -3.2057,-1.55406 0,-0.8547 0.7279,-2.00386 1.6174,-2.55365 0.8896,-0.54977 3.2581,-0.12151 5.2635,0.9517 2.0053,1.07323 4.436,2.59421 5.4016,3.38002 0.9655,0.78578 3.6135,2.86688 5.8844,4.62462 4.0419,3.12863 4.0629,3.25904 1.0041,6.19266 -2.7203,2.60895 -3.0009,2.64044 -2.1687,0.2432 0.5868,-1.69006 -0.1031,-3.1599 -1.7863,-3.8058 -1.6548,-0.63499 -3.5634,0.0705 -4.8126,1.77883 -1.1386,1.55713 -3.9305,4.91912 -6.2044,7.4711 -2.3669,2.65647 -3.7195,5.72058 -3.1641,7.16789 0.5335,1.39036 0.2769,2.52796 -0.5703,2.52796 -0.8472,0 -3.0457,-1.67218 -4.8856,-3.71595 z m -155.2395,-15.12097 c 0.5704,-1.48653 -0.6178,-6.21722 -2.6404,-10.51263 -2.0226,-4.29539 -4.7923,-8.68329 -6.1548,-9.75085 -2.1065,-1.65051 -1.7814,-2.20671 2.1719,-3.71595 2.557,-0.97619 5.0163,-1.77489 5.4649,-1.77489 0.4487,0 0.4052,0.6642 -0.096,1.476 -0.5016,0.81179 0.9953,5.64253 3.3267,10.73492 2.6372,5.76058 5.2628,9.25892 6.949,9.25892 2.3728,0 2.4091,0.28631 0.2918,2.30005 -1.3301,1.26501 -4.2029,2.83716 -6.3841,3.49365 -3.2438,0.9763 -3.777,0.70158 -2.9285,-1.50922 z m -38.5227,-6.76177 c 0,-0.45417 0.3716,-0.82577 0.8257,-0.82577 0.4542,0 0.8258,0.3716 0.8258,0.82577 0,0.45417 -0.3716,0.82576 -0.8258,0.82576 -0.4541,0 -0.8257,-0.37159 -0.8257,-0.82576 z m 125.516,-3.87611 c 0,-0.76937 -1.3005,-2.94386 -2.8901,-4.8322 -1.5896,-1.88837 -4.1839,-5.76617 -5.7649,-8.61734 -1.5811,-2.85117 -3.6249,-4.72033 -4.5418,-4.15371 -0.9167,0.5666 -1.6669,4.28684 -1.6669,8.26715 0,3.98033 -0.7432,7.69625 -1.6516,8.25762 -0.9082,0.5614 -2.3662,0.57896 -3.2399,0.039 -1.0159,-0.62791 -1.012,-2.49772 0.012,-5.18841 0.8796,-2.31369 1.6922,-8.23287 1.8057,-13.15375 0.1246,-5.4081 0.9369,-8.92628 2.0534,-8.89452 1.0159,0.0288 3.0272,0.95786 4.4694,2.06441 1.4423,1.10654 2.9286,2.75507 3.3031,3.66341 0.3744,0.90833 2.5387,4.42928 4.8096,7.8243 2.2708,3.39505 4.6862,6.182 5.3675,6.19324 0.6812,0.0111 1.3657,-2.02333 1.5211,-4.52126 0.1553,-2.49792 0.3411,-6.14782 0.4128,-8.11087 0.072,-1.96305 0.6558,-4.09863 1.2979,-4.74573 0.642,-0.64711 2.3979,-0.70435 3.9019,-0.12721 1.9541,0.74981 2.2523,1.633 1.0448,3.09419 -0.9293,1.12468 -2.1779,5.01762 -2.7746,8.65098 -0.5967,3.63336 -1.4654,8.64986 -1.9306,11.14781 -0.4651,2.49793 -1.9013,4.54168 -3.1917,4.54168 -1.2904,0 -2.346,-0.62946 -2.346,-1.39881 z m -116.7079,-9.61136 c 0.6056,-0.60554 1.5966,-0.60554 2.2021,0 0.6056,0.60556 0.11,1.10103 -1.1011,1.10103 -1.2111,0 -1.7065,-0.49547 -1.101,-1.10103 z m -18.7172,317.36847 c 0,-0.45417 0.3715,-0.82577 0.8257,-0.82577 0.4542,0 0.8258,0.3716 0.8258,0.82577 0,0.45417 -0.3716,0.82576 -0.8258,0.82576 -0.4542,0 -0.8257,-0.37159 -0.8257,-0.82576 z m -34.6821,-29.72749 c 0,-0.45416 0.3716,-0.82576 0.8257,-0.82576 0.4542,0 0.8258,0.3716 0.8258,0.82576 0,0.45417 -0.3716,0.82577 -0.8258,0.82577 -0.4541,0 -0.8257,-0.3716 -0.8257,-0.82577 z m 338.563,-75.97025 c 0,-0.45417 0.3716,-0.82577 0.8258,-0.82577 0.4541,0 0.8257,0.3716 0.8257,0.82577 0,0.45417 -0.3716,0.82577 -0.8257,0.82577 -0.4542,0 -0.8258,-0.3716 -0.8258,-0.82577 z m -394.5846,-97.57772 c 0.08,-1.92393 0.4707,-2.31526 0.9979,-0.99778 0.477,1.19219 0.4184,2.61664 -0.1304,3.1654 -0.5488,0.5488 -0.9392,-0.42664 -0.8675,-2.16762 z m 392.9331,-19.68069 c 0,-0.45417 0.3716,-0.82576 0.8258,-0.82576 0.4541,0 0.8257,0.37159 0.8257,0.82576 0,0.45417 -0.3716,0.82577 -0.8257,0.82577 -0.4542,0 -0.8258,-0.3716 -0.8258,-0.82577 z m -366.639,-39.63665 c 0,-0.45417 0.3716,-0.82577 0.8258,-0.82577 0.4541,0 0.8257,0.3716 0.8257,0.82577 0,0.45416 -0.3716,0.82576 -0.8257,0.82576 -0.4542,0 -0.8258,-0.3716 -0.8258,-0.82576 z m 4.9546,0 c 0,-0.45417 0.3716,-0.82577 0.8257,-0.82577 0.4542,0 0.8258,0.3716 0.8258,0.82577 0,0.45416 -0.3716,0.82576 -0.8258,0.82576 -0.4541,0 -0.8257,-0.3716 -0.8257,-0.82576 z m 257.6382,-72.66722 c 0,-0.45417 0.3716,-0.82575 0.8257,-0.82575 0.4543,0 0.8258,0.37158 0.8258,0.82575 0,0.45418 -0.3715,0.82577 -0.8258,0.82577 -0.4541,0 -0.8257,-0.37159 -0.8257,-0.82577 z"
       id="path166" /></g></svg>
